M48
INCH,TZ
T1C0.0157
T2C0.0394
T3C0.0787
T4C0.1260
%
G90
G05
T1
X46500Y-33750
X46500Y-42500
X52250Y-28000
X52500Y-39250
X57000Y-34500
X59215Y-29965
X59250Y-42500
X61500Y-42500
X63500Y-41500
X64750Y-31250
X71250Y-30500
X73500Y-30500
T2
X44000Y-36250
X44000Y-37250
X70000Y-28250
X70984Y-28250
X76000Y-35500
X76000Y-36500
T3
X42000Y-34250
X42000Y-38250
X78000Y-34500
X78000Y-38500
T4
X41500Y-26500
X41500Y-43500
X78500Y-26500
X78500Y-43500
T0
M30
