G04 #@! TF.GenerationSoftware,KiCad,Pcbnew,(5.0.1)-4*
G04 #@! TF.CreationDate,2019-01-25T14:15:16+03:00*
G04 #@! TF.ProjectId,Lab Ampl,4C616220416D706C2E6B696361645F70,rev?*
G04 #@! TF.SameCoordinates,Original*
G04 #@! TF.FileFunction,Paste,Top*
G04 #@! TF.FilePolarity,Positive*
%FSLAX46Y46*%
G04 Gerber Fmt 4.6, Leading zero omitted, Abs format (unit mm)*
G04 Created by KiCad (PCBNEW (5.0.1)-4) date 25/01/2019 14:15:16*
%MOMM*%
%LPD*%
G01*
G04 APERTURE LIST*
%ADD10R,1.550000X0.600000*%
%ADD11C,0.100000*%
%ADD12C,1.150000*%
%ADD13R,0.800000X0.900000*%
%ADD14C,1.250000*%
%ADD15R,1.300000X1.600000*%
%ADD16R,2.000000X1.600000*%
%ADD17R,3.100000X1.600000*%
%ADD18R,0.600000X1.550000*%
%ADD19R,0.650000X1.060000*%
%ADD20C,1.500000*%
G04 APERTURE END LIST*
D10*
G04 #@! TO.C,U1*
X124300000Y-91440000D03*
X124300000Y-92710000D03*
X124300000Y-93980000D03*
X124300000Y-95250000D03*
X129700000Y-95250000D03*
X129700000Y-93980000D03*
X129700000Y-92710000D03*
X129700000Y-91440000D03*
G04 #@! TD*
D11*
G04 #@! TO.C,C1*
G36*
X121779505Y-93916204D02*
X121803773Y-93919804D01*
X121827572Y-93925765D01*
X121850671Y-93934030D01*
X121872850Y-93944520D01*
X121893893Y-93957132D01*
X121913599Y-93971747D01*
X121931777Y-93988223D01*
X121948253Y-94006401D01*
X121962868Y-94026107D01*
X121975480Y-94047150D01*
X121985970Y-94069329D01*
X121994235Y-94092428D01*
X122000196Y-94116227D01*
X122003796Y-94140495D01*
X122005000Y-94164999D01*
X122005000Y-95065001D01*
X122003796Y-95089505D01*
X122000196Y-95113773D01*
X121994235Y-95137572D01*
X121985970Y-95160671D01*
X121975480Y-95182850D01*
X121962868Y-95203893D01*
X121948253Y-95223599D01*
X121931777Y-95241777D01*
X121913599Y-95258253D01*
X121893893Y-95272868D01*
X121872850Y-95285480D01*
X121850671Y-95295970D01*
X121827572Y-95304235D01*
X121803773Y-95310196D01*
X121779505Y-95313796D01*
X121755001Y-95315000D01*
X121104999Y-95315000D01*
X121080495Y-95313796D01*
X121056227Y-95310196D01*
X121032428Y-95304235D01*
X121009329Y-95295970D01*
X120987150Y-95285480D01*
X120966107Y-95272868D01*
X120946401Y-95258253D01*
X120928223Y-95241777D01*
X120911747Y-95223599D01*
X120897132Y-95203893D01*
X120884520Y-95182850D01*
X120874030Y-95160671D01*
X120865765Y-95137572D01*
X120859804Y-95113773D01*
X120856204Y-95089505D01*
X120855000Y-95065001D01*
X120855000Y-94164999D01*
X120856204Y-94140495D01*
X120859804Y-94116227D01*
X120865765Y-94092428D01*
X120874030Y-94069329D01*
X120884520Y-94047150D01*
X120897132Y-94026107D01*
X120911747Y-94006401D01*
X120928223Y-93988223D01*
X120946401Y-93971747D01*
X120966107Y-93957132D01*
X120987150Y-93944520D01*
X121009329Y-93934030D01*
X121032428Y-93925765D01*
X121056227Y-93919804D01*
X121080495Y-93916204D01*
X121104999Y-93915000D01*
X121755001Y-93915000D01*
X121779505Y-93916204D01*
X121779505Y-93916204D01*
G37*
D12*
X121430000Y-94615000D03*
D11*
G36*
X119729505Y-93916204D02*
X119753773Y-93919804D01*
X119777572Y-93925765D01*
X119800671Y-93934030D01*
X119822850Y-93944520D01*
X119843893Y-93957132D01*
X119863599Y-93971747D01*
X119881777Y-93988223D01*
X119898253Y-94006401D01*
X119912868Y-94026107D01*
X119925480Y-94047150D01*
X119935970Y-94069329D01*
X119944235Y-94092428D01*
X119950196Y-94116227D01*
X119953796Y-94140495D01*
X119955000Y-94164999D01*
X119955000Y-95065001D01*
X119953796Y-95089505D01*
X119950196Y-95113773D01*
X119944235Y-95137572D01*
X119935970Y-95160671D01*
X119925480Y-95182850D01*
X119912868Y-95203893D01*
X119898253Y-95223599D01*
X119881777Y-95241777D01*
X119863599Y-95258253D01*
X119843893Y-95272868D01*
X119822850Y-95285480D01*
X119800671Y-95295970D01*
X119777572Y-95304235D01*
X119753773Y-95310196D01*
X119729505Y-95313796D01*
X119705001Y-95315000D01*
X119054999Y-95315000D01*
X119030495Y-95313796D01*
X119006227Y-95310196D01*
X118982428Y-95304235D01*
X118959329Y-95295970D01*
X118937150Y-95285480D01*
X118916107Y-95272868D01*
X118896401Y-95258253D01*
X118878223Y-95241777D01*
X118861747Y-95223599D01*
X118847132Y-95203893D01*
X118834520Y-95182850D01*
X118824030Y-95160671D01*
X118815765Y-95137572D01*
X118809804Y-95113773D01*
X118806204Y-95089505D01*
X118805000Y-95065001D01*
X118805000Y-94164999D01*
X118806204Y-94140495D01*
X118809804Y-94116227D01*
X118815765Y-94092428D01*
X118824030Y-94069329D01*
X118834520Y-94047150D01*
X118847132Y-94026107D01*
X118861747Y-94006401D01*
X118878223Y-93988223D01*
X118896401Y-93971747D01*
X118916107Y-93957132D01*
X118937150Y-93944520D01*
X118959329Y-93934030D01*
X118982428Y-93925765D01*
X119006227Y-93919804D01*
X119030495Y-93916204D01*
X119054999Y-93915000D01*
X119705001Y-93915000D01*
X119729505Y-93916204D01*
X119729505Y-93916204D01*
G37*
D12*
X119380000Y-94615000D03*
G04 #@! TD*
D11*
G04 #@! TO.C,C2*
G36*
X124299505Y-96581204D02*
X124323773Y-96584804D01*
X124347572Y-96590765D01*
X124370671Y-96599030D01*
X124392850Y-96609520D01*
X124413893Y-96622132D01*
X124433599Y-96636747D01*
X124451777Y-96653223D01*
X124468253Y-96671401D01*
X124482868Y-96691107D01*
X124495480Y-96712150D01*
X124505970Y-96734329D01*
X124514235Y-96757428D01*
X124520196Y-96781227D01*
X124523796Y-96805495D01*
X124525000Y-96829999D01*
X124525000Y-97480001D01*
X124523796Y-97504505D01*
X124520196Y-97528773D01*
X124514235Y-97552572D01*
X124505970Y-97575671D01*
X124495480Y-97597850D01*
X124482868Y-97618893D01*
X124468253Y-97638599D01*
X124451777Y-97656777D01*
X124433599Y-97673253D01*
X124413893Y-97687868D01*
X124392850Y-97700480D01*
X124370671Y-97710970D01*
X124347572Y-97719235D01*
X124323773Y-97725196D01*
X124299505Y-97728796D01*
X124275001Y-97730000D01*
X123374999Y-97730000D01*
X123350495Y-97728796D01*
X123326227Y-97725196D01*
X123302428Y-97719235D01*
X123279329Y-97710970D01*
X123257150Y-97700480D01*
X123236107Y-97687868D01*
X123216401Y-97673253D01*
X123198223Y-97656777D01*
X123181747Y-97638599D01*
X123167132Y-97618893D01*
X123154520Y-97597850D01*
X123144030Y-97575671D01*
X123135765Y-97552572D01*
X123129804Y-97528773D01*
X123126204Y-97504505D01*
X123125000Y-97480001D01*
X123125000Y-96829999D01*
X123126204Y-96805495D01*
X123129804Y-96781227D01*
X123135765Y-96757428D01*
X123144030Y-96734329D01*
X123154520Y-96712150D01*
X123167132Y-96691107D01*
X123181747Y-96671401D01*
X123198223Y-96653223D01*
X123216401Y-96636747D01*
X123236107Y-96622132D01*
X123257150Y-96609520D01*
X123279329Y-96599030D01*
X123302428Y-96590765D01*
X123326227Y-96584804D01*
X123350495Y-96581204D01*
X123374999Y-96580000D01*
X124275001Y-96580000D01*
X124299505Y-96581204D01*
X124299505Y-96581204D01*
G37*
D12*
X123825000Y-97155000D03*
D11*
G36*
X124299505Y-98631204D02*
X124323773Y-98634804D01*
X124347572Y-98640765D01*
X124370671Y-98649030D01*
X124392850Y-98659520D01*
X124413893Y-98672132D01*
X124433599Y-98686747D01*
X124451777Y-98703223D01*
X124468253Y-98721401D01*
X124482868Y-98741107D01*
X124495480Y-98762150D01*
X124505970Y-98784329D01*
X124514235Y-98807428D01*
X124520196Y-98831227D01*
X124523796Y-98855495D01*
X124525000Y-98879999D01*
X124525000Y-99530001D01*
X124523796Y-99554505D01*
X124520196Y-99578773D01*
X124514235Y-99602572D01*
X124505970Y-99625671D01*
X124495480Y-99647850D01*
X124482868Y-99668893D01*
X124468253Y-99688599D01*
X124451777Y-99706777D01*
X124433599Y-99723253D01*
X124413893Y-99737868D01*
X124392850Y-99750480D01*
X124370671Y-99760970D01*
X124347572Y-99769235D01*
X124323773Y-99775196D01*
X124299505Y-99778796D01*
X124275001Y-99780000D01*
X123374999Y-99780000D01*
X123350495Y-99778796D01*
X123326227Y-99775196D01*
X123302428Y-99769235D01*
X123279329Y-99760970D01*
X123257150Y-99750480D01*
X123236107Y-99737868D01*
X123216401Y-99723253D01*
X123198223Y-99706777D01*
X123181747Y-99688599D01*
X123167132Y-99668893D01*
X123154520Y-99647850D01*
X123144030Y-99625671D01*
X123135765Y-99602572D01*
X123129804Y-99578773D01*
X123126204Y-99554505D01*
X123125000Y-99530001D01*
X123125000Y-98879999D01*
X123126204Y-98855495D01*
X123129804Y-98831227D01*
X123135765Y-98807428D01*
X123144030Y-98784329D01*
X123154520Y-98762150D01*
X123167132Y-98741107D01*
X123181747Y-98721401D01*
X123198223Y-98703223D01*
X123216401Y-98686747D01*
X123236107Y-98672132D01*
X123257150Y-98659520D01*
X123279329Y-98649030D01*
X123302428Y-98640765D01*
X123326227Y-98634804D01*
X123350495Y-98631204D01*
X123374999Y-98630000D01*
X124275001Y-98630000D01*
X124299505Y-98631204D01*
X124299505Y-98631204D01*
G37*
D12*
X123825000Y-99205000D03*
G04 #@! TD*
D11*
G04 #@! TO.C,C4*
G36*
X128374505Y-88201204D02*
X128398773Y-88204804D01*
X128422572Y-88210765D01*
X128445671Y-88219030D01*
X128467850Y-88229520D01*
X128488893Y-88242132D01*
X128508599Y-88256747D01*
X128526777Y-88273223D01*
X128543253Y-88291401D01*
X128557868Y-88311107D01*
X128570480Y-88332150D01*
X128580970Y-88354329D01*
X128589235Y-88377428D01*
X128595196Y-88401227D01*
X128598796Y-88425495D01*
X128600000Y-88449999D01*
X128600000Y-89350001D01*
X128598796Y-89374505D01*
X128595196Y-89398773D01*
X128589235Y-89422572D01*
X128580970Y-89445671D01*
X128570480Y-89467850D01*
X128557868Y-89488893D01*
X128543253Y-89508599D01*
X128526777Y-89526777D01*
X128508599Y-89543253D01*
X128488893Y-89557868D01*
X128467850Y-89570480D01*
X128445671Y-89580970D01*
X128422572Y-89589235D01*
X128398773Y-89595196D01*
X128374505Y-89598796D01*
X128350001Y-89600000D01*
X127699999Y-89600000D01*
X127675495Y-89598796D01*
X127651227Y-89595196D01*
X127627428Y-89589235D01*
X127604329Y-89580970D01*
X127582150Y-89570480D01*
X127561107Y-89557868D01*
X127541401Y-89543253D01*
X127523223Y-89526777D01*
X127506747Y-89508599D01*
X127492132Y-89488893D01*
X127479520Y-89467850D01*
X127469030Y-89445671D01*
X127460765Y-89422572D01*
X127454804Y-89398773D01*
X127451204Y-89374505D01*
X127450000Y-89350001D01*
X127450000Y-88449999D01*
X127451204Y-88425495D01*
X127454804Y-88401227D01*
X127460765Y-88377428D01*
X127469030Y-88354329D01*
X127479520Y-88332150D01*
X127492132Y-88311107D01*
X127506747Y-88291401D01*
X127523223Y-88273223D01*
X127541401Y-88256747D01*
X127561107Y-88242132D01*
X127582150Y-88229520D01*
X127604329Y-88219030D01*
X127627428Y-88210765D01*
X127651227Y-88204804D01*
X127675495Y-88201204D01*
X127699999Y-88200000D01*
X128350001Y-88200000D01*
X128374505Y-88201204D01*
X128374505Y-88201204D01*
G37*
D12*
X128025000Y-88900000D03*
D11*
G36*
X126324505Y-88201204D02*
X126348773Y-88204804D01*
X126372572Y-88210765D01*
X126395671Y-88219030D01*
X126417850Y-88229520D01*
X126438893Y-88242132D01*
X126458599Y-88256747D01*
X126476777Y-88273223D01*
X126493253Y-88291401D01*
X126507868Y-88311107D01*
X126520480Y-88332150D01*
X126530970Y-88354329D01*
X126539235Y-88377428D01*
X126545196Y-88401227D01*
X126548796Y-88425495D01*
X126550000Y-88449999D01*
X126550000Y-89350001D01*
X126548796Y-89374505D01*
X126545196Y-89398773D01*
X126539235Y-89422572D01*
X126530970Y-89445671D01*
X126520480Y-89467850D01*
X126507868Y-89488893D01*
X126493253Y-89508599D01*
X126476777Y-89526777D01*
X126458599Y-89543253D01*
X126438893Y-89557868D01*
X126417850Y-89570480D01*
X126395671Y-89580970D01*
X126372572Y-89589235D01*
X126348773Y-89595196D01*
X126324505Y-89598796D01*
X126300001Y-89600000D01*
X125649999Y-89600000D01*
X125625495Y-89598796D01*
X125601227Y-89595196D01*
X125577428Y-89589235D01*
X125554329Y-89580970D01*
X125532150Y-89570480D01*
X125511107Y-89557868D01*
X125491401Y-89543253D01*
X125473223Y-89526777D01*
X125456747Y-89508599D01*
X125442132Y-89488893D01*
X125429520Y-89467850D01*
X125419030Y-89445671D01*
X125410765Y-89422572D01*
X125404804Y-89398773D01*
X125401204Y-89374505D01*
X125400000Y-89350001D01*
X125400000Y-88449999D01*
X125401204Y-88425495D01*
X125404804Y-88401227D01*
X125410765Y-88377428D01*
X125419030Y-88354329D01*
X125429520Y-88332150D01*
X125442132Y-88311107D01*
X125456747Y-88291401D01*
X125473223Y-88273223D01*
X125491401Y-88256747D01*
X125511107Y-88242132D01*
X125532150Y-88229520D01*
X125554329Y-88219030D01*
X125577428Y-88210765D01*
X125601227Y-88204804D01*
X125625495Y-88201204D01*
X125649999Y-88200000D01*
X126300001Y-88200000D01*
X126324505Y-88201204D01*
X126324505Y-88201204D01*
G37*
D12*
X125975000Y-88900000D03*
G04 #@! TD*
D11*
G04 #@! TO.C,C6*
G36*
X132554505Y-91501204D02*
X132578773Y-91504804D01*
X132602572Y-91510765D01*
X132625671Y-91519030D01*
X132647850Y-91529520D01*
X132668893Y-91542132D01*
X132688599Y-91556747D01*
X132706777Y-91573223D01*
X132723253Y-91591401D01*
X132737868Y-91611107D01*
X132750480Y-91632150D01*
X132760970Y-91654329D01*
X132769235Y-91677428D01*
X132775196Y-91701227D01*
X132778796Y-91725495D01*
X132780000Y-91749999D01*
X132780000Y-92400001D01*
X132778796Y-92424505D01*
X132775196Y-92448773D01*
X132769235Y-92472572D01*
X132760970Y-92495671D01*
X132750480Y-92517850D01*
X132737868Y-92538893D01*
X132723253Y-92558599D01*
X132706777Y-92576777D01*
X132688599Y-92593253D01*
X132668893Y-92607868D01*
X132647850Y-92620480D01*
X132625671Y-92630970D01*
X132602572Y-92639235D01*
X132578773Y-92645196D01*
X132554505Y-92648796D01*
X132530001Y-92650000D01*
X131629999Y-92650000D01*
X131605495Y-92648796D01*
X131581227Y-92645196D01*
X131557428Y-92639235D01*
X131534329Y-92630970D01*
X131512150Y-92620480D01*
X131491107Y-92607868D01*
X131471401Y-92593253D01*
X131453223Y-92576777D01*
X131436747Y-92558599D01*
X131422132Y-92538893D01*
X131409520Y-92517850D01*
X131399030Y-92495671D01*
X131390765Y-92472572D01*
X131384804Y-92448773D01*
X131381204Y-92424505D01*
X131380000Y-92400001D01*
X131380000Y-91749999D01*
X131381204Y-91725495D01*
X131384804Y-91701227D01*
X131390765Y-91677428D01*
X131399030Y-91654329D01*
X131409520Y-91632150D01*
X131422132Y-91611107D01*
X131436747Y-91591401D01*
X131453223Y-91573223D01*
X131471401Y-91556747D01*
X131491107Y-91542132D01*
X131512150Y-91529520D01*
X131534329Y-91519030D01*
X131557428Y-91510765D01*
X131581227Y-91504804D01*
X131605495Y-91501204D01*
X131629999Y-91500000D01*
X132530001Y-91500000D01*
X132554505Y-91501204D01*
X132554505Y-91501204D01*
G37*
D12*
X132080000Y-92075000D03*
D11*
G36*
X132554505Y-89451204D02*
X132578773Y-89454804D01*
X132602572Y-89460765D01*
X132625671Y-89469030D01*
X132647850Y-89479520D01*
X132668893Y-89492132D01*
X132688599Y-89506747D01*
X132706777Y-89523223D01*
X132723253Y-89541401D01*
X132737868Y-89561107D01*
X132750480Y-89582150D01*
X132760970Y-89604329D01*
X132769235Y-89627428D01*
X132775196Y-89651227D01*
X132778796Y-89675495D01*
X132780000Y-89699999D01*
X132780000Y-90350001D01*
X132778796Y-90374505D01*
X132775196Y-90398773D01*
X132769235Y-90422572D01*
X132760970Y-90445671D01*
X132750480Y-90467850D01*
X132737868Y-90488893D01*
X132723253Y-90508599D01*
X132706777Y-90526777D01*
X132688599Y-90543253D01*
X132668893Y-90557868D01*
X132647850Y-90570480D01*
X132625671Y-90580970D01*
X132602572Y-90589235D01*
X132578773Y-90595196D01*
X132554505Y-90598796D01*
X132530001Y-90600000D01*
X131629999Y-90600000D01*
X131605495Y-90598796D01*
X131581227Y-90595196D01*
X131557428Y-90589235D01*
X131534329Y-90580970D01*
X131512150Y-90570480D01*
X131491107Y-90557868D01*
X131471401Y-90543253D01*
X131453223Y-90526777D01*
X131436747Y-90508599D01*
X131422132Y-90488893D01*
X131409520Y-90467850D01*
X131399030Y-90445671D01*
X131390765Y-90422572D01*
X131384804Y-90398773D01*
X131381204Y-90374505D01*
X131380000Y-90350001D01*
X131380000Y-89699999D01*
X131381204Y-89675495D01*
X131384804Y-89651227D01*
X131390765Y-89627428D01*
X131399030Y-89604329D01*
X131409520Y-89582150D01*
X131422132Y-89561107D01*
X131436747Y-89541401D01*
X131453223Y-89523223D01*
X131471401Y-89506747D01*
X131491107Y-89492132D01*
X131512150Y-89479520D01*
X131534329Y-89469030D01*
X131557428Y-89460765D01*
X131581227Y-89454804D01*
X131605495Y-89451204D01*
X131629999Y-89450000D01*
X132530001Y-89450000D01*
X132554505Y-89451204D01*
X132554505Y-89451204D01*
G37*
D12*
X132080000Y-90025000D03*
G04 #@! TD*
D11*
G04 #@! TO.C,C7*
G36*
X148159505Y-103441204D02*
X148183773Y-103444804D01*
X148207572Y-103450765D01*
X148230671Y-103459030D01*
X148252850Y-103469520D01*
X148273893Y-103482132D01*
X148293599Y-103496747D01*
X148311777Y-103513223D01*
X148328253Y-103531401D01*
X148342868Y-103551107D01*
X148355480Y-103572150D01*
X148365970Y-103594329D01*
X148374235Y-103617428D01*
X148380196Y-103641227D01*
X148383796Y-103665495D01*
X148385000Y-103689999D01*
X148385000Y-104590001D01*
X148383796Y-104614505D01*
X148380196Y-104638773D01*
X148374235Y-104662572D01*
X148365970Y-104685671D01*
X148355480Y-104707850D01*
X148342868Y-104728893D01*
X148328253Y-104748599D01*
X148311777Y-104766777D01*
X148293599Y-104783253D01*
X148273893Y-104797868D01*
X148252850Y-104810480D01*
X148230671Y-104820970D01*
X148207572Y-104829235D01*
X148183773Y-104835196D01*
X148159505Y-104838796D01*
X148135001Y-104840000D01*
X147484999Y-104840000D01*
X147460495Y-104838796D01*
X147436227Y-104835196D01*
X147412428Y-104829235D01*
X147389329Y-104820970D01*
X147367150Y-104810480D01*
X147346107Y-104797868D01*
X147326401Y-104783253D01*
X147308223Y-104766777D01*
X147291747Y-104748599D01*
X147277132Y-104728893D01*
X147264520Y-104707850D01*
X147254030Y-104685671D01*
X147245765Y-104662572D01*
X147239804Y-104638773D01*
X147236204Y-104614505D01*
X147235000Y-104590001D01*
X147235000Y-103689999D01*
X147236204Y-103665495D01*
X147239804Y-103641227D01*
X147245765Y-103617428D01*
X147254030Y-103594329D01*
X147264520Y-103572150D01*
X147277132Y-103551107D01*
X147291747Y-103531401D01*
X147308223Y-103513223D01*
X147326401Y-103496747D01*
X147346107Y-103482132D01*
X147367150Y-103469520D01*
X147389329Y-103459030D01*
X147412428Y-103450765D01*
X147436227Y-103444804D01*
X147460495Y-103441204D01*
X147484999Y-103440000D01*
X148135001Y-103440000D01*
X148159505Y-103441204D01*
X148159505Y-103441204D01*
G37*
D12*
X147810000Y-104140000D03*
D11*
G36*
X150209505Y-103441204D02*
X150233773Y-103444804D01*
X150257572Y-103450765D01*
X150280671Y-103459030D01*
X150302850Y-103469520D01*
X150323893Y-103482132D01*
X150343599Y-103496747D01*
X150361777Y-103513223D01*
X150378253Y-103531401D01*
X150392868Y-103551107D01*
X150405480Y-103572150D01*
X150415970Y-103594329D01*
X150424235Y-103617428D01*
X150430196Y-103641227D01*
X150433796Y-103665495D01*
X150435000Y-103689999D01*
X150435000Y-104590001D01*
X150433796Y-104614505D01*
X150430196Y-104638773D01*
X150424235Y-104662572D01*
X150415970Y-104685671D01*
X150405480Y-104707850D01*
X150392868Y-104728893D01*
X150378253Y-104748599D01*
X150361777Y-104766777D01*
X150343599Y-104783253D01*
X150323893Y-104797868D01*
X150302850Y-104810480D01*
X150280671Y-104820970D01*
X150257572Y-104829235D01*
X150233773Y-104835196D01*
X150209505Y-104838796D01*
X150185001Y-104840000D01*
X149534999Y-104840000D01*
X149510495Y-104838796D01*
X149486227Y-104835196D01*
X149462428Y-104829235D01*
X149439329Y-104820970D01*
X149417150Y-104810480D01*
X149396107Y-104797868D01*
X149376401Y-104783253D01*
X149358223Y-104766777D01*
X149341747Y-104748599D01*
X149327132Y-104728893D01*
X149314520Y-104707850D01*
X149304030Y-104685671D01*
X149295765Y-104662572D01*
X149289804Y-104638773D01*
X149286204Y-104614505D01*
X149285000Y-104590001D01*
X149285000Y-103689999D01*
X149286204Y-103665495D01*
X149289804Y-103641227D01*
X149295765Y-103617428D01*
X149304030Y-103594329D01*
X149314520Y-103572150D01*
X149327132Y-103551107D01*
X149341747Y-103531401D01*
X149358223Y-103513223D01*
X149376401Y-103496747D01*
X149396107Y-103482132D01*
X149417150Y-103469520D01*
X149439329Y-103459030D01*
X149462428Y-103450765D01*
X149486227Y-103444804D01*
X149510495Y-103441204D01*
X149534999Y-103440000D01*
X150185001Y-103440000D01*
X150209505Y-103441204D01*
X150209505Y-103441204D01*
G37*
D12*
X149860000Y-104140000D03*
G04 #@! TD*
D11*
G04 #@! TO.C,C8*
G36*
X156314505Y-89471204D02*
X156338773Y-89474804D01*
X156362572Y-89480765D01*
X156385671Y-89489030D01*
X156407850Y-89499520D01*
X156428893Y-89512132D01*
X156448599Y-89526747D01*
X156466777Y-89543223D01*
X156483253Y-89561401D01*
X156497868Y-89581107D01*
X156510480Y-89602150D01*
X156520970Y-89624329D01*
X156529235Y-89647428D01*
X156535196Y-89671227D01*
X156538796Y-89695495D01*
X156540000Y-89719999D01*
X156540000Y-90620001D01*
X156538796Y-90644505D01*
X156535196Y-90668773D01*
X156529235Y-90692572D01*
X156520970Y-90715671D01*
X156510480Y-90737850D01*
X156497868Y-90758893D01*
X156483253Y-90778599D01*
X156466777Y-90796777D01*
X156448599Y-90813253D01*
X156428893Y-90827868D01*
X156407850Y-90840480D01*
X156385671Y-90850970D01*
X156362572Y-90859235D01*
X156338773Y-90865196D01*
X156314505Y-90868796D01*
X156290001Y-90870000D01*
X155639999Y-90870000D01*
X155615495Y-90868796D01*
X155591227Y-90865196D01*
X155567428Y-90859235D01*
X155544329Y-90850970D01*
X155522150Y-90840480D01*
X155501107Y-90827868D01*
X155481401Y-90813253D01*
X155463223Y-90796777D01*
X155446747Y-90778599D01*
X155432132Y-90758893D01*
X155419520Y-90737850D01*
X155409030Y-90715671D01*
X155400765Y-90692572D01*
X155394804Y-90668773D01*
X155391204Y-90644505D01*
X155390000Y-90620001D01*
X155390000Y-89719999D01*
X155391204Y-89695495D01*
X155394804Y-89671227D01*
X155400765Y-89647428D01*
X155409030Y-89624329D01*
X155419520Y-89602150D01*
X155432132Y-89581107D01*
X155446747Y-89561401D01*
X155463223Y-89543223D01*
X155481401Y-89526747D01*
X155501107Y-89512132D01*
X155522150Y-89499520D01*
X155544329Y-89489030D01*
X155567428Y-89480765D01*
X155591227Y-89474804D01*
X155615495Y-89471204D01*
X155639999Y-89470000D01*
X156290001Y-89470000D01*
X156314505Y-89471204D01*
X156314505Y-89471204D01*
G37*
D12*
X155965000Y-90170000D03*
D11*
G36*
X154264505Y-89471204D02*
X154288773Y-89474804D01*
X154312572Y-89480765D01*
X154335671Y-89489030D01*
X154357850Y-89499520D01*
X154378893Y-89512132D01*
X154398599Y-89526747D01*
X154416777Y-89543223D01*
X154433253Y-89561401D01*
X154447868Y-89581107D01*
X154460480Y-89602150D01*
X154470970Y-89624329D01*
X154479235Y-89647428D01*
X154485196Y-89671227D01*
X154488796Y-89695495D01*
X154490000Y-89719999D01*
X154490000Y-90620001D01*
X154488796Y-90644505D01*
X154485196Y-90668773D01*
X154479235Y-90692572D01*
X154470970Y-90715671D01*
X154460480Y-90737850D01*
X154447868Y-90758893D01*
X154433253Y-90778599D01*
X154416777Y-90796777D01*
X154398599Y-90813253D01*
X154378893Y-90827868D01*
X154357850Y-90840480D01*
X154335671Y-90850970D01*
X154312572Y-90859235D01*
X154288773Y-90865196D01*
X154264505Y-90868796D01*
X154240001Y-90870000D01*
X153589999Y-90870000D01*
X153565495Y-90868796D01*
X153541227Y-90865196D01*
X153517428Y-90859235D01*
X153494329Y-90850970D01*
X153472150Y-90840480D01*
X153451107Y-90827868D01*
X153431401Y-90813253D01*
X153413223Y-90796777D01*
X153396747Y-90778599D01*
X153382132Y-90758893D01*
X153369520Y-90737850D01*
X153359030Y-90715671D01*
X153350765Y-90692572D01*
X153344804Y-90668773D01*
X153341204Y-90644505D01*
X153340000Y-90620001D01*
X153340000Y-89719999D01*
X153341204Y-89695495D01*
X153344804Y-89671227D01*
X153350765Y-89647428D01*
X153359030Y-89624329D01*
X153369520Y-89602150D01*
X153382132Y-89581107D01*
X153396747Y-89561401D01*
X153413223Y-89543223D01*
X153431401Y-89526747D01*
X153451107Y-89512132D01*
X153472150Y-89499520D01*
X153494329Y-89489030D01*
X153517428Y-89480765D01*
X153541227Y-89474804D01*
X153565495Y-89471204D01*
X153589999Y-89470000D01*
X154240001Y-89470000D01*
X154264505Y-89471204D01*
X154264505Y-89471204D01*
G37*
D12*
X153915000Y-90170000D03*
G04 #@! TD*
D11*
G04 #@! TO.C,C9*
G36*
X159879505Y-98361204D02*
X159903773Y-98364804D01*
X159927572Y-98370765D01*
X159950671Y-98379030D01*
X159972850Y-98389520D01*
X159993893Y-98402132D01*
X160013599Y-98416747D01*
X160031777Y-98433223D01*
X160048253Y-98451401D01*
X160062868Y-98471107D01*
X160075480Y-98492150D01*
X160085970Y-98514329D01*
X160094235Y-98537428D01*
X160100196Y-98561227D01*
X160103796Y-98585495D01*
X160105000Y-98609999D01*
X160105000Y-99510001D01*
X160103796Y-99534505D01*
X160100196Y-99558773D01*
X160094235Y-99582572D01*
X160085970Y-99605671D01*
X160075480Y-99627850D01*
X160062868Y-99648893D01*
X160048253Y-99668599D01*
X160031777Y-99686777D01*
X160013599Y-99703253D01*
X159993893Y-99717868D01*
X159972850Y-99730480D01*
X159950671Y-99740970D01*
X159927572Y-99749235D01*
X159903773Y-99755196D01*
X159879505Y-99758796D01*
X159855001Y-99760000D01*
X159204999Y-99760000D01*
X159180495Y-99758796D01*
X159156227Y-99755196D01*
X159132428Y-99749235D01*
X159109329Y-99740970D01*
X159087150Y-99730480D01*
X159066107Y-99717868D01*
X159046401Y-99703253D01*
X159028223Y-99686777D01*
X159011747Y-99668599D01*
X158997132Y-99648893D01*
X158984520Y-99627850D01*
X158974030Y-99605671D01*
X158965765Y-99582572D01*
X158959804Y-99558773D01*
X158956204Y-99534505D01*
X158955000Y-99510001D01*
X158955000Y-98609999D01*
X158956204Y-98585495D01*
X158959804Y-98561227D01*
X158965765Y-98537428D01*
X158974030Y-98514329D01*
X158984520Y-98492150D01*
X158997132Y-98471107D01*
X159011747Y-98451401D01*
X159028223Y-98433223D01*
X159046401Y-98416747D01*
X159066107Y-98402132D01*
X159087150Y-98389520D01*
X159109329Y-98379030D01*
X159132428Y-98370765D01*
X159156227Y-98364804D01*
X159180495Y-98361204D01*
X159204999Y-98360000D01*
X159855001Y-98360000D01*
X159879505Y-98361204D01*
X159879505Y-98361204D01*
G37*
D12*
X159530000Y-99060000D03*
D11*
G36*
X157829505Y-98361204D02*
X157853773Y-98364804D01*
X157877572Y-98370765D01*
X157900671Y-98379030D01*
X157922850Y-98389520D01*
X157943893Y-98402132D01*
X157963599Y-98416747D01*
X157981777Y-98433223D01*
X157998253Y-98451401D01*
X158012868Y-98471107D01*
X158025480Y-98492150D01*
X158035970Y-98514329D01*
X158044235Y-98537428D01*
X158050196Y-98561227D01*
X158053796Y-98585495D01*
X158055000Y-98609999D01*
X158055000Y-99510001D01*
X158053796Y-99534505D01*
X158050196Y-99558773D01*
X158044235Y-99582572D01*
X158035970Y-99605671D01*
X158025480Y-99627850D01*
X158012868Y-99648893D01*
X157998253Y-99668599D01*
X157981777Y-99686777D01*
X157963599Y-99703253D01*
X157943893Y-99717868D01*
X157922850Y-99730480D01*
X157900671Y-99740970D01*
X157877572Y-99749235D01*
X157853773Y-99755196D01*
X157829505Y-99758796D01*
X157805001Y-99760000D01*
X157154999Y-99760000D01*
X157130495Y-99758796D01*
X157106227Y-99755196D01*
X157082428Y-99749235D01*
X157059329Y-99740970D01*
X157037150Y-99730480D01*
X157016107Y-99717868D01*
X156996401Y-99703253D01*
X156978223Y-99686777D01*
X156961747Y-99668599D01*
X156947132Y-99648893D01*
X156934520Y-99627850D01*
X156924030Y-99605671D01*
X156915765Y-99582572D01*
X156909804Y-99558773D01*
X156906204Y-99534505D01*
X156905000Y-99510001D01*
X156905000Y-98609999D01*
X156906204Y-98585495D01*
X156909804Y-98561227D01*
X156915765Y-98537428D01*
X156924030Y-98514329D01*
X156934520Y-98492150D01*
X156947132Y-98471107D01*
X156961747Y-98451401D01*
X156978223Y-98433223D01*
X156996401Y-98416747D01*
X157016107Y-98402132D01*
X157037150Y-98389520D01*
X157059329Y-98379030D01*
X157082428Y-98370765D01*
X157106227Y-98364804D01*
X157130495Y-98361204D01*
X157154999Y-98360000D01*
X157805001Y-98360000D01*
X157829505Y-98361204D01*
X157829505Y-98361204D01*
G37*
D12*
X157480000Y-99060000D03*
G04 #@! TD*
D11*
G04 #@! TO.C,C12*
G36*
X151479505Y-90106204D02*
X151503773Y-90109804D01*
X151527572Y-90115765D01*
X151550671Y-90124030D01*
X151572850Y-90134520D01*
X151593893Y-90147132D01*
X151613599Y-90161747D01*
X151631777Y-90178223D01*
X151648253Y-90196401D01*
X151662868Y-90216107D01*
X151675480Y-90237150D01*
X151685970Y-90259329D01*
X151694235Y-90282428D01*
X151700196Y-90306227D01*
X151703796Y-90330495D01*
X151705000Y-90354999D01*
X151705000Y-91255001D01*
X151703796Y-91279505D01*
X151700196Y-91303773D01*
X151694235Y-91327572D01*
X151685970Y-91350671D01*
X151675480Y-91372850D01*
X151662868Y-91393893D01*
X151648253Y-91413599D01*
X151631777Y-91431777D01*
X151613599Y-91448253D01*
X151593893Y-91462868D01*
X151572850Y-91475480D01*
X151550671Y-91485970D01*
X151527572Y-91494235D01*
X151503773Y-91500196D01*
X151479505Y-91503796D01*
X151455001Y-91505000D01*
X150804999Y-91505000D01*
X150780495Y-91503796D01*
X150756227Y-91500196D01*
X150732428Y-91494235D01*
X150709329Y-91485970D01*
X150687150Y-91475480D01*
X150666107Y-91462868D01*
X150646401Y-91448253D01*
X150628223Y-91431777D01*
X150611747Y-91413599D01*
X150597132Y-91393893D01*
X150584520Y-91372850D01*
X150574030Y-91350671D01*
X150565765Y-91327572D01*
X150559804Y-91303773D01*
X150556204Y-91279505D01*
X150555000Y-91255001D01*
X150555000Y-90354999D01*
X150556204Y-90330495D01*
X150559804Y-90306227D01*
X150565765Y-90282428D01*
X150574030Y-90259329D01*
X150584520Y-90237150D01*
X150597132Y-90216107D01*
X150611747Y-90196401D01*
X150628223Y-90178223D01*
X150646401Y-90161747D01*
X150666107Y-90147132D01*
X150687150Y-90134520D01*
X150709329Y-90124030D01*
X150732428Y-90115765D01*
X150756227Y-90109804D01*
X150780495Y-90106204D01*
X150804999Y-90105000D01*
X151455001Y-90105000D01*
X151479505Y-90106204D01*
X151479505Y-90106204D01*
G37*
D12*
X151130000Y-90805000D03*
D11*
G36*
X149429505Y-90106204D02*
X149453773Y-90109804D01*
X149477572Y-90115765D01*
X149500671Y-90124030D01*
X149522850Y-90134520D01*
X149543893Y-90147132D01*
X149563599Y-90161747D01*
X149581777Y-90178223D01*
X149598253Y-90196401D01*
X149612868Y-90216107D01*
X149625480Y-90237150D01*
X149635970Y-90259329D01*
X149644235Y-90282428D01*
X149650196Y-90306227D01*
X149653796Y-90330495D01*
X149655000Y-90354999D01*
X149655000Y-91255001D01*
X149653796Y-91279505D01*
X149650196Y-91303773D01*
X149644235Y-91327572D01*
X149635970Y-91350671D01*
X149625480Y-91372850D01*
X149612868Y-91393893D01*
X149598253Y-91413599D01*
X149581777Y-91431777D01*
X149563599Y-91448253D01*
X149543893Y-91462868D01*
X149522850Y-91475480D01*
X149500671Y-91485970D01*
X149477572Y-91494235D01*
X149453773Y-91500196D01*
X149429505Y-91503796D01*
X149405001Y-91505000D01*
X148754999Y-91505000D01*
X148730495Y-91503796D01*
X148706227Y-91500196D01*
X148682428Y-91494235D01*
X148659329Y-91485970D01*
X148637150Y-91475480D01*
X148616107Y-91462868D01*
X148596401Y-91448253D01*
X148578223Y-91431777D01*
X148561747Y-91413599D01*
X148547132Y-91393893D01*
X148534520Y-91372850D01*
X148524030Y-91350671D01*
X148515765Y-91327572D01*
X148509804Y-91303773D01*
X148506204Y-91279505D01*
X148505000Y-91255001D01*
X148505000Y-90354999D01*
X148506204Y-90330495D01*
X148509804Y-90306227D01*
X148515765Y-90282428D01*
X148524030Y-90259329D01*
X148534520Y-90237150D01*
X148547132Y-90216107D01*
X148561747Y-90196401D01*
X148578223Y-90178223D01*
X148596401Y-90161747D01*
X148616107Y-90147132D01*
X148637150Y-90134520D01*
X148659329Y-90124030D01*
X148682428Y-90115765D01*
X148706227Y-90109804D01*
X148730495Y-90106204D01*
X148754999Y-90105000D01*
X149405001Y-90105000D01*
X149429505Y-90106204D01*
X149429505Y-90106204D01*
G37*
D12*
X149080000Y-90805000D03*
G04 #@! TD*
D11*
G04 #@! TO.C,C13*
G36*
X182719505Y-82856204D02*
X182743773Y-82859804D01*
X182767572Y-82865765D01*
X182790671Y-82874030D01*
X182812850Y-82884520D01*
X182833893Y-82897132D01*
X182853599Y-82911747D01*
X182871777Y-82928223D01*
X182888253Y-82946401D01*
X182902868Y-82966107D01*
X182915480Y-82987150D01*
X182925970Y-83009329D01*
X182934235Y-83032428D01*
X182940196Y-83056227D01*
X182943796Y-83080495D01*
X182945000Y-83104999D01*
X182945000Y-83755001D01*
X182943796Y-83779505D01*
X182940196Y-83803773D01*
X182934235Y-83827572D01*
X182925970Y-83850671D01*
X182915480Y-83872850D01*
X182902868Y-83893893D01*
X182888253Y-83913599D01*
X182871777Y-83931777D01*
X182853599Y-83948253D01*
X182833893Y-83962868D01*
X182812850Y-83975480D01*
X182790671Y-83985970D01*
X182767572Y-83994235D01*
X182743773Y-84000196D01*
X182719505Y-84003796D01*
X182695001Y-84005000D01*
X181794999Y-84005000D01*
X181770495Y-84003796D01*
X181746227Y-84000196D01*
X181722428Y-83994235D01*
X181699329Y-83985970D01*
X181677150Y-83975480D01*
X181656107Y-83962868D01*
X181636401Y-83948253D01*
X181618223Y-83931777D01*
X181601747Y-83913599D01*
X181587132Y-83893893D01*
X181574520Y-83872850D01*
X181564030Y-83850671D01*
X181555765Y-83827572D01*
X181549804Y-83803773D01*
X181546204Y-83779505D01*
X181545000Y-83755001D01*
X181545000Y-83104999D01*
X181546204Y-83080495D01*
X181549804Y-83056227D01*
X181555765Y-83032428D01*
X181564030Y-83009329D01*
X181574520Y-82987150D01*
X181587132Y-82966107D01*
X181601747Y-82946401D01*
X181618223Y-82928223D01*
X181636401Y-82911747D01*
X181656107Y-82897132D01*
X181677150Y-82884520D01*
X181699329Y-82874030D01*
X181722428Y-82865765D01*
X181746227Y-82859804D01*
X181770495Y-82856204D01*
X181794999Y-82855000D01*
X182695001Y-82855000D01*
X182719505Y-82856204D01*
X182719505Y-82856204D01*
G37*
D12*
X182245000Y-83430000D03*
D11*
G36*
X182719505Y-84906204D02*
X182743773Y-84909804D01*
X182767572Y-84915765D01*
X182790671Y-84924030D01*
X182812850Y-84934520D01*
X182833893Y-84947132D01*
X182853599Y-84961747D01*
X182871777Y-84978223D01*
X182888253Y-84996401D01*
X182902868Y-85016107D01*
X182915480Y-85037150D01*
X182925970Y-85059329D01*
X182934235Y-85082428D01*
X182940196Y-85106227D01*
X182943796Y-85130495D01*
X182945000Y-85154999D01*
X182945000Y-85805001D01*
X182943796Y-85829505D01*
X182940196Y-85853773D01*
X182934235Y-85877572D01*
X182925970Y-85900671D01*
X182915480Y-85922850D01*
X182902868Y-85943893D01*
X182888253Y-85963599D01*
X182871777Y-85981777D01*
X182853599Y-85998253D01*
X182833893Y-86012868D01*
X182812850Y-86025480D01*
X182790671Y-86035970D01*
X182767572Y-86044235D01*
X182743773Y-86050196D01*
X182719505Y-86053796D01*
X182695001Y-86055000D01*
X181794999Y-86055000D01*
X181770495Y-86053796D01*
X181746227Y-86050196D01*
X181722428Y-86044235D01*
X181699329Y-86035970D01*
X181677150Y-86025480D01*
X181656107Y-86012868D01*
X181636401Y-85998253D01*
X181618223Y-85981777D01*
X181601747Y-85963599D01*
X181587132Y-85943893D01*
X181574520Y-85922850D01*
X181564030Y-85900671D01*
X181555765Y-85877572D01*
X181549804Y-85853773D01*
X181546204Y-85829505D01*
X181545000Y-85805001D01*
X181545000Y-85154999D01*
X181546204Y-85130495D01*
X181549804Y-85106227D01*
X181555765Y-85082428D01*
X181564030Y-85059329D01*
X181574520Y-85037150D01*
X181587132Y-85016107D01*
X181601747Y-84996401D01*
X181618223Y-84978223D01*
X181636401Y-84961747D01*
X181656107Y-84947132D01*
X181677150Y-84934520D01*
X181699329Y-84924030D01*
X181722428Y-84915765D01*
X181746227Y-84909804D01*
X181770495Y-84906204D01*
X181794999Y-84905000D01*
X182695001Y-84905000D01*
X182719505Y-84906204D01*
X182719505Y-84906204D01*
G37*
D12*
X182245000Y-85480000D03*
G04 #@! TD*
D11*
G04 #@! TO.C,C14*
G36*
X187164505Y-80461204D02*
X187188773Y-80464804D01*
X187212572Y-80470765D01*
X187235671Y-80479030D01*
X187257850Y-80489520D01*
X187278893Y-80502132D01*
X187298599Y-80516747D01*
X187316777Y-80533223D01*
X187333253Y-80551401D01*
X187347868Y-80571107D01*
X187360480Y-80592150D01*
X187370970Y-80614329D01*
X187379235Y-80637428D01*
X187385196Y-80661227D01*
X187388796Y-80685495D01*
X187390000Y-80709999D01*
X187390000Y-81360001D01*
X187388796Y-81384505D01*
X187385196Y-81408773D01*
X187379235Y-81432572D01*
X187370970Y-81455671D01*
X187360480Y-81477850D01*
X187347868Y-81498893D01*
X187333253Y-81518599D01*
X187316777Y-81536777D01*
X187298599Y-81553253D01*
X187278893Y-81567868D01*
X187257850Y-81580480D01*
X187235671Y-81590970D01*
X187212572Y-81599235D01*
X187188773Y-81605196D01*
X187164505Y-81608796D01*
X187140001Y-81610000D01*
X186239999Y-81610000D01*
X186215495Y-81608796D01*
X186191227Y-81605196D01*
X186167428Y-81599235D01*
X186144329Y-81590970D01*
X186122150Y-81580480D01*
X186101107Y-81567868D01*
X186081401Y-81553253D01*
X186063223Y-81536777D01*
X186046747Y-81518599D01*
X186032132Y-81498893D01*
X186019520Y-81477850D01*
X186009030Y-81455671D01*
X186000765Y-81432572D01*
X185994804Y-81408773D01*
X185991204Y-81384505D01*
X185990000Y-81360001D01*
X185990000Y-80709999D01*
X185991204Y-80685495D01*
X185994804Y-80661227D01*
X186000765Y-80637428D01*
X186009030Y-80614329D01*
X186019520Y-80592150D01*
X186032132Y-80571107D01*
X186046747Y-80551401D01*
X186063223Y-80533223D01*
X186081401Y-80516747D01*
X186101107Y-80502132D01*
X186122150Y-80489520D01*
X186144329Y-80479030D01*
X186167428Y-80470765D01*
X186191227Y-80464804D01*
X186215495Y-80461204D01*
X186239999Y-80460000D01*
X187140001Y-80460000D01*
X187164505Y-80461204D01*
X187164505Y-80461204D01*
G37*
D12*
X186690000Y-81035000D03*
D11*
G36*
X187164505Y-78411204D02*
X187188773Y-78414804D01*
X187212572Y-78420765D01*
X187235671Y-78429030D01*
X187257850Y-78439520D01*
X187278893Y-78452132D01*
X187298599Y-78466747D01*
X187316777Y-78483223D01*
X187333253Y-78501401D01*
X187347868Y-78521107D01*
X187360480Y-78542150D01*
X187370970Y-78564329D01*
X187379235Y-78587428D01*
X187385196Y-78611227D01*
X187388796Y-78635495D01*
X187390000Y-78659999D01*
X187390000Y-79310001D01*
X187388796Y-79334505D01*
X187385196Y-79358773D01*
X187379235Y-79382572D01*
X187370970Y-79405671D01*
X187360480Y-79427850D01*
X187347868Y-79448893D01*
X187333253Y-79468599D01*
X187316777Y-79486777D01*
X187298599Y-79503253D01*
X187278893Y-79517868D01*
X187257850Y-79530480D01*
X187235671Y-79540970D01*
X187212572Y-79549235D01*
X187188773Y-79555196D01*
X187164505Y-79558796D01*
X187140001Y-79560000D01*
X186239999Y-79560000D01*
X186215495Y-79558796D01*
X186191227Y-79555196D01*
X186167428Y-79549235D01*
X186144329Y-79540970D01*
X186122150Y-79530480D01*
X186101107Y-79517868D01*
X186081401Y-79503253D01*
X186063223Y-79486777D01*
X186046747Y-79468599D01*
X186032132Y-79448893D01*
X186019520Y-79427850D01*
X186009030Y-79405671D01*
X186000765Y-79382572D01*
X185994804Y-79358773D01*
X185991204Y-79334505D01*
X185990000Y-79310001D01*
X185990000Y-78659999D01*
X185991204Y-78635495D01*
X185994804Y-78611227D01*
X186000765Y-78587428D01*
X186009030Y-78564329D01*
X186019520Y-78542150D01*
X186032132Y-78521107D01*
X186046747Y-78501401D01*
X186063223Y-78483223D01*
X186081401Y-78466747D01*
X186101107Y-78452132D01*
X186122150Y-78439520D01*
X186144329Y-78429030D01*
X186167428Y-78420765D01*
X186191227Y-78414804D01*
X186215495Y-78411204D01*
X186239999Y-78410000D01*
X187140001Y-78410000D01*
X187164505Y-78411204D01*
X187164505Y-78411204D01*
G37*
D12*
X186690000Y-78985000D03*
G04 #@! TD*
D11*
G04 #@! TO.C,C15*
G36*
X164304505Y-72596204D02*
X164328773Y-72599804D01*
X164352572Y-72605765D01*
X164375671Y-72614030D01*
X164397850Y-72624520D01*
X164418893Y-72637132D01*
X164438599Y-72651747D01*
X164456777Y-72668223D01*
X164473253Y-72686401D01*
X164487868Y-72706107D01*
X164500480Y-72727150D01*
X164510970Y-72749329D01*
X164519235Y-72772428D01*
X164525196Y-72796227D01*
X164528796Y-72820495D01*
X164530000Y-72844999D01*
X164530000Y-73495001D01*
X164528796Y-73519505D01*
X164525196Y-73543773D01*
X164519235Y-73567572D01*
X164510970Y-73590671D01*
X164500480Y-73612850D01*
X164487868Y-73633893D01*
X164473253Y-73653599D01*
X164456777Y-73671777D01*
X164438599Y-73688253D01*
X164418893Y-73702868D01*
X164397850Y-73715480D01*
X164375671Y-73725970D01*
X164352572Y-73734235D01*
X164328773Y-73740196D01*
X164304505Y-73743796D01*
X164280001Y-73745000D01*
X163379999Y-73745000D01*
X163355495Y-73743796D01*
X163331227Y-73740196D01*
X163307428Y-73734235D01*
X163284329Y-73725970D01*
X163262150Y-73715480D01*
X163241107Y-73702868D01*
X163221401Y-73688253D01*
X163203223Y-73671777D01*
X163186747Y-73653599D01*
X163172132Y-73633893D01*
X163159520Y-73612850D01*
X163149030Y-73590671D01*
X163140765Y-73567572D01*
X163134804Y-73543773D01*
X163131204Y-73519505D01*
X163130000Y-73495001D01*
X163130000Y-72844999D01*
X163131204Y-72820495D01*
X163134804Y-72796227D01*
X163140765Y-72772428D01*
X163149030Y-72749329D01*
X163159520Y-72727150D01*
X163172132Y-72706107D01*
X163186747Y-72686401D01*
X163203223Y-72668223D01*
X163221401Y-72651747D01*
X163241107Y-72637132D01*
X163262150Y-72624520D01*
X163284329Y-72614030D01*
X163307428Y-72605765D01*
X163331227Y-72599804D01*
X163355495Y-72596204D01*
X163379999Y-72595000D01*
X164280001Y-72595000D01*
X164304505Y-72596204D01*
X164304505Y-72596204D01*
G37*
D12*
X163830000Y-73170000D03*
D11*
G36*
X164304505Y-70546204D02*
X164328773Y-70549804D01*
X164352572Y-70555765D01*
X164375671Y-70564030D01*
X164397850Y-70574520D01*
X164418893Y-70587132D01*
X164438599Y-70601747D01*
X164456777Y-70618223D01*
X164473253Y-70636401D01*
X164487868Y-70656107D01*
X164500480Y-70677150D01*
X164510970Y-70699329D01*
X164519235Y-70722428D01*
X164525196Y-70746227D01*
X164528796Y-70770495D01*
X164530000Y-70794999D01*
X164530000Y-71445001D01*
X164528796Y-71469505D01*
X164525196Y-71493773D01*
X164519235Y-71517572D01*
X164510970Y-71540671D01*
X164500480Y-71562850D01*
X164487868Y-71583893D01*
X164473253Y-71603599D01*
X164456777Y-71621777D01*
X164438599Y-71638253D01*
X164418893Y-71652868D01*
X164397850Y-71665480D01*
X164375671Y-71675970D01*
X164352572Y-71684235D01*
X164328773Y-71690196D01*
X164304505Y-71693796D01*
X164280001Y-71695000D01*
X163379999Y-71695000D01*
X163355495Y-71693796D01*
X163331227Y-71690196D01*
X163307428Y-71684235D01*
X163284329Y-71675970D01*
X163262150Y-71665480D01*
X163241107Y-71652868D01*
X163221401Y-71638253D01*
X163203223Y-71621777D01*
X163186747Y-71603599D01*
X163172132Y-71583893D01*
X163159520Y-71562850D01*
X163149030Y-71540671D01*
X163140765Y-71517572D01*
X163134804Y-71493773D01*
X163131204Y-71469505D01*
X163130000Y-71445001D01*
X163130000Y-70794999D01*
X163131204Y-70770495D01*
X163134804Y-70746227D01*
X163140765Y-70722428D01*
X163149030Y-70699329D01*
X163159520Y-70677150D01*
X163172132Y-70656107D01*
X163186747Y-70636401D01*
X163203223Y-70618223D01*
X163221401Y-70601747D01*
X163241107Y-70587132D01*
X163262150Y-70574520D01*
X163284329Y-70564030D01*
X163307428Y-70555765D01*
X163331227Y-70549804D01*
X163355495Y-70546204D01*
X163379999Y-70545000D01*
X164280001Y-70545000D01*
X164304505Y-70546204D01*
X164304505Y-70546204D01*
G37*
D12*
X163830000Y-71120000D03*
G04 #@! TD*
D11*
G04 #@! TO.C,C16*
G36*
X178274505Y-78411204D02*
X178298773Y-78414804D01*
X178322572Y-78420765D01*
X178345671Y-78429030D01*
X178367850Y-78439520D01*
X178388893Y-78452132D01*
X178408599Y-78466747D01*
X178426777Y-78483223D01*
X178443253Y-78501401D01*
X178457868Y-78521107D01*
X178470480Y-78542150D01*
X178480970Y-78564329D01*
X178489235Y-78587428D01*
X178495196Y-78611227D01*
X178498796Y-78635495D01*
X178500000Y-78659999D01*
X178500000Y-79310001D01*
X178498796Y-79334505D01*
X178495196Y-79358773D01*
X178489235Y-79382572D01*
X178480970Y-79405671D01*
X178470480Y-79427850D01*
X178457868Y-79448893D01*
X178443253Y-79468599D01*
X178426777Y-79486777D01*
X178408599Y-79503253D01*
X178388893Y-79517868D01*
X178367850Y-79530480D01*
X178345671Y-79540970D01*
X178322572Y-79549235D01*
X178298773Y-79555196D01*
X178274505Y-79558796D01*
X178250001Y-79560000D01*
X177349999Y-79560000D01*
X177325495Y-79558796D01*
X177301227Y-79555196D01*
X177277428Y-79549235D01*
X177254329Y-79540970D01*
X177232150Y-79530480D01*
X177211107Y-79517868D01*
X177191401Y-79503253D01*
X177173223Y-79486777D01*
X177156747Y-79468599D01*
X177142132Y-79448893D01*
X177129520Y-79427850D01*
X177119030Y-79405671D01*
X177110765Y-79382572D01*
X177104804Y-79358773D01*
X177101204Y-79334505D01*
X177100000Y-79310001D01*
X177100000Y-78659999D01*
X177101204Y-78635495D01*
X177104804Y-78611227D01*
X177110765Y-78587428D01*
X177119030Y-78564329D01*
X177129520Y-78542150D01*
X177142132Y-78521107D01*
X177156747Y-78501401D01*
X177173223Y-78483223D01*
X177191401Y-78466747D01*
X177211107Y-78452132D01*
X177232150Y-78439520D01*
X177254329Y-78429030D01*
X177277428Y-78420765D01*
X177301227Y-78414804D01*
X177325495Y-78411204D01*
X177349999Y-78410000D01*
X178250001Y-78410000D01*
X178274505Y-78411204D01*
X178274505Y-78411204D01*
G37*
D12*
X177800000Y-78985000D03*
D11*
G36*
X178274505Y-80461204D02*
X178298773Y-80464804D01*
X178322572Y-80470765D01*
X178345671Y-80479030D01*
X178367850Y-80489520D01*
X178388893Y-80502132D01*
X178408599Y-80516747D01*
X178426777Y-80533223D01*
X178443253Y-80551401D01*
X178457868Y-80571107D01*
X178470480Y-80592150D01*
X178480970Y-80614329D01*
X178489235Y-80637428D01*
X178495196Y-80661227D01*
X178498796Y-80685495D01*
X178500000Y-80709999D01*
X178500000Y-81360001D01*
X178498796Y-81384505D01*
X178495196Y-81408773D01*
X178489235Y-81432572D01*
X178480970Y-81455671D01*
X178470480Y-81477850D01*
X178457868Y-81498893D01*
X178443253Y-81518599D01*
X178426777Y-81536777D01*
X178408599Y-81553253D01*
X178388893Y-81567868D01*
X178367850Y-81580480D01*
X178345671Y-81590970D01*
X178322572Y-81599235D01*
X178298773Y-81605196D01*
X178274505Y-81608796D01*
X178250001Y-81610000D01*
X177349999Y-81610000D01*
X177325495Y-81608796D01*
X177301227Y-81605196D01*
X177277428Y-81599235D01*
X177254329Y-81590970D01*
X177232150Y-81580480D01*
X177211107Y-81567868D01*
X177191401Y-81553253D01*
X177173223Y-81536777D01*
X177156747Y-81518599D01*
X177142132Y-81498893D01*
X177129520Y-81477850D01*
X177119030Y-81455671D01*
X177110765Y-81432572D01*
X177104804Y-81408773D01*
X177101204Y-81384505D01*
X177100000Y-81360001D01*
X177100000Y-80709999D01*
X177101204Y-80685495D01*
X177104804Y-80661227D01*
X177110765Y-80637428D01*
X177119030Y-80614329D01*
X177129520Y-80592150D01*
X177142132Y-80571107D01*
X177156747Y-80551401D01*
X177173223Y-80533223D01*
X177191401Y-80516747D01*
X177211107Y-80502132D01*
X177232150Y-80489520D01*
X177254329Y-80479030D01*
X177277428Y-80470765D01*
X177301227Y-80464804D01*
X177325495Y-80461204D01*
X177349999Y-80460000D01*
X178250001Y-80460000D01*
X178274505Y-80461204D01*
X178274505Y-80461204D01*
G37*
D12*
X177800000Y-81035000D03*
G04 #@! TD*
D11*
G04 #@! TO.C,C17*
G36*
X168114505Y-79436204D02*
X168138773Y-79439804D01*
X168162572Y-79445765D01*
X168185671Y-79454030D01*
X168207850Y-79464520D01*
X168228893Y-79477132D01*
X168248599Y-79491747D01*
X168266777Y-79508223D01*
X168283253Y-79526401D01*
X168297868Y-79546107D01*
X168310480Y-79567150D01*
X168320970Y-79589329D01*
X168329235Y-79612428D01*
X168335196Y-79636227D01*
X168338796Y-79660495D01*
X168340000Y-79684999D01*
X168340000Y-80335001D01*
X168338796Y-80359505D01*
X168335196Y-80383773D01*
X168329235Y-80407572D01*
X168320970Y-80430671D01*
X168310480Y-80452850D01*
X168297868Y-80473893D01*
X168283253Y-80493599D01*
X168266777Y-80511777D01*
X168248599Y-80528253D01*
X168228893Y-80542868D01*
X168207850Y-80555480D01*
X168185671Y-80565970D01*
X168162572Y-80574235D01*
X168138773Y-80580196D01*
X168114505Y-80583796D01*
X168090001Y-80585000D01*
X167189999Y-80585000D01*
X167165495Y-80583796D01*
X167141227Y-80580196D01*
X167117428Y-80574235D01*
X167094329Y-80565970D01*
X167072150Y-80555480D01*
X167051107Y-80542868D01*
X167031401Y-80528253D01*
X167013223Y-80511777D01*
X166996747Y-80493599D01*
X166982132Y-80473893D01*
X166969520Y-80452850D01*
X166959030Y-80430671D01*
X166950765Y-80407572D01*
X166944804Y-80383773D01*
X166941204Y-80359505D01*
X166940000Y-80335001D01*
X166940000Y-79684999D01*
X166941204Y-79660495D01*
X166944804Y-79636227D01*
X166950765Y-79612428D01*
X166959030Y-79589329D01*
X166969520Y-79567150D01*
X166982132Y-79546107D01*
X166996747Y-79526401D01*
X167013223Y-79508223D01*
X167031401Y-79491747D01*
X167051107Y-79477132D01*
X167072150Y-79464520D01*
X167094329Y-79454030D01*
X167117428Y-79445765D01*
X167141227Y-79439804D01*
X167165495Y-79436204D01*
X167189999Y-79435000D01*
X168090001Y-79435000D01*
X168114505Y-79436204D01*
X168114505Y-79436204D01*
G37*
D12*
X167640000Y-80010000D03*
D11*
G36*
X168114505Y-81486204D02*
X168138773Y-81489804D01*
X168162572Y-81495765D01*
X168185671Y-81504030D01*
X168207850Y-81514520D01*
X168228893Y-81527132D01*
X168248599Y-81541747D01*
X168266777Y-81558223D01*
X168283253Y-81576401D01*
X168297868Y-81596107D01*
X168310480Y-81617150D01*
X168320970Y-81639329D01*
X168329235Y-81662428D01*
X168335196Y-81686227D01*
X168338796Y-81710495D01*
X168340000Y-81734999D01*
X168340000Y-82385001D01*
X168338796Y-82409505D01*
X168335196Y-82433773D01*
X168329235Y-82457572D01*
X168320970Y-82480671D01*
X168310480Y-82502850D01*
X168297868Y-82523893D01*
X168283253Y-82543599D01*
X168266777Y-82561777D01*
X168248599Y-82578253D01*
X168228893Y-82592868D01*
X168207850Y-82605480D01*
X168185671Y-82615970D01*
X168162572Y-82624235D01*
X168138773Y-82630196D01*
X168114505Y-82633796D01*
X168090001Y-82635000D01*
X167189999Y-82635000D01*
X167165495Y-82633796D01*
X167141227Y-82630196D01*
X167117428Y-82624235D01*
X167094329Y-82615970D01*
X167072150Y-82605480D01*
X167051107Y-82592868D01*
X167031401Y-82578253D01*
X167013223Y-82561777D01*
X166996747Y-82543599D01*
X166982132Y-82523893D01*
X166969520Y-82502850D01*
X166959030Y-82480671D01*
X166950765Y-82457572D01*
X166944804Y-82433773D01*
X166941204Y-82409505D01*
X166940000Y-82385001D01*
X166940000Y-81734999D01*
X166941204Y-81710495D01*
X166944804Y-81686227D01*
X166950765Y-81662428D01*
X166959030Y-81639329D01*
X166969520Y-81617150D01*
X166982132Y-81596107D01*
X166996747Y-81576401D01*
X167013223Y-81558223D01*
X167031401Y-81541747D01*
X167051107Y-81527132D01*
X167072150Y-81514520D01*
X167094329Y-81504030D01*
X167117428Y-81495765D01*
X167141227Y-81489804D01*
X167165495Y-81486204D01*
X167189999Y-81485000D01*
X168090001Y-81485000D01*
X168114505Y-81486204D01*
X168114505Y-81486204D01*
G37*
D12*
X167640000Y-82060000D03*
G04 #@! TD*
D13*
G04 #@! TO.C,D1*
X116840000Y-89535000D03*
X118740000Y-89535000D03*
X117790000Y-87535000D03*
G04 #@! TD*
G04 #@! TO.C,D2*
X117790000Y-97695000D03*
X118740000Y-99695000D03*
X116840000Y-99695000D03*
G04 #@! TD*
G04 #@! TO.C,D3*
X118740000Y-104775000D03*
X116840000Y-104775000D03*
X117790000Y-106775000D03*
G04 #@! TD*
D11*
G04 #@! TO.C,L1*
G36*
X170579504Y-70431204D02*
X170603773Y-70434804D01*
X170627571Y-70440765D01*
X170650671Y-70449030D01*
X170672849Y-70459520D01*
X170693893Y-70472133D01*
X170713598Y-70486747D01*
X170731777Y-70503223D01*
X170748253Y-70521402D01*
X170762867Y-70541107D01*
X170775480Y-70562151D01*
X170785970Y-70584329D01*
X170794235Y-70607429D01*
X170800196Y-70631227D01*
X170803796Y-70655496D01*
X170805000Y-70680000D01*
X170805000Y-72830000D01*
X170803796Y-72854504D01*
X170800196Y-72878773D01*
X170794235Y-72902571D01*
X170785970Y-72925671D01*
X170775480Y-72947849D01*
X170762867Y-72968893D01*
X170748253Y-72988598D01*
X170731777Y-73006777D01*
X170713598Y-73023253D01*
X170693893Y-73037867D01*
X170672849Y-73050480D01*
X170650671Y-73060970D01*
X170627571Y-73069235D01*
X170603773Y-73075196D01*
X170579504Y-73078796D01*
X170555000Y-73080000D01*
X169805000Y-73080000D01*
X169780496Y-73078796D01*
X169756227Y-73075196D01*
X169732429Y-73069235D01*
X169709329Y-73060970D01*
X169687151Y-73050480D01*
X169666107Y-73037867D01*
X169646402Y-73023253D01*
X169628223Y-73006777D01*
X169611747Y-72988598D01*
X169597133Y-72968893D01*
X169584520Y-72947849D01*
X169574030Y-72925671D01*
X169565765Y-72902571D01*
X169559804Y-72878773D01*
X169556204Y-72854504D01*
X169555000Y-72830000D01*
X169555000Y-70680000D01*
X169556204Y-70655496D01*
X169559804Y-70631227D01*
X169565765Y-70607429D01*
X169574030Y-70584329D01*
X169584520Y-70562151D01*
X169597133Y-70541107D01*
X169611747Y-70521402D01*
X169628223Y-70503223D01*
X169646402Y-70486747D01*
X169666107Y-70472133D01*
X169687151Y-70459520D01*
X169709329Y-70449030D01*
X169732429Y-70440765D01*
X169756227Y-70434804D01*
X169780496Y-70431204D01*
X169805000Y-70430000D01*
X170555000Y-70430000D01*
X170579504Y-70431204D01*
X170579504Y-70431204D01*
G37*
D14*
X170180000Y-71755000D03*
D11*
G36*
X167779504Y-70431204D02*
X167803773Y-70434804D01*
X167827571Y-70440765D01*
X167850671Y-70449030D01*
X167872849Y-70459520D01*
X167893893Y-70472133D01*
X167913598Y-70486747D01*
X167931777Y-70503223D01*
X167948253Y-70521402D01*
X167962867Y-70541107D01*
X167975480Y-70562151D01*
X167985970Y-70584329D01*
X167994235Y-70607429D01*
X168000196Y-70631227D01*
X168003796Y-70655496D01*
X168005000Y-70680000D01*
X168005000Y-72830000D01*
X168003796Y-72854504D01*
X168000196Y-72878773D01*
X167994235Y-72902571D01*
X167985970Y-72925671D01*
X167975480Y-72947849D01*
X167962867Y-72968893D01*
X167948253Y-72988598D01*
X167931777Y-73006777D01*
X167913598Y-73023253D01*
X167893893Y-73037867D01*
X167872849Y-73050480D01*
X167850671Y-73060970D01*
X167827571Y-73069235D01*
X167803773Y-73075196D01*
X167779504Y-73078796D01*
X167755000Y-73080000D01*
X167005000Y-73080000D01*
X166980496Y-73078796D01*
X166956227Y-73075196D01*
X166932429Y-73069235D01*
X166909329Y-73060970D01*
X166887151Y-73050480D01*
X166866107Y-73037867D01*
X166846402Y-73023253D01*
X166828223Y-73006777D01*
X166811747Y-72988598D01*
X166797133Y-72968893D01*
X166784520Y-72947849D01*
X166774030Y-72925671D01*
X166765765Y-72902571D01*
X166759804Y-72878773D01*
X166756204Y-72854504D01*
X166755000Y-72830000D01*
X166755000Y-70680000D01*
X166756204Y-70655496D01*
X166759804Y-70631227D01*
X166765765Y-70607429D01*
X166774030Y-70584329D01*
X166784520Y-70562151D01*
X166797133Y-70541107D01*
X166811747Y-70521402D01*
X166828223Y-70503223D01*
X166846402Y-70486747D01*
X166866107Y-70472133D01*
X166887151Y-70459520D01*
X166909329Y-70449030D01*
X166932429Y-70440765D01*
X166956227Y-70434804D01*
X166980496Y-70431204D01*
X167005000Y-70430000D01*
X167755000Y-70430000D01*
X167779504Y-70431204D01*
X167779504Y-70431204D01*
G37*
D14*
X167380000Y-71755000D03*
G04 #@! TD*
D11*
G04 #@! TO.C,L2*
G36*
X168039504Y-74876204D02*
X168063773Y-74879804D01*
X168087571Y-74885765D01*
X168110671Y-74894030D01*
X168132849Y-74904520D01*
X168153893Y-74917133D01*
X168173598Y-74931747D01*
X168191777Y-74948223D01*
X168208253Y-74966402D01*
X168222867Y-74986107D01*
X168235480Y-75007151D01*
X168245970Y-75029329D01*
X168254235Y-75052429D01*
X168260196Y-75076227D01*
X168263796Y-75100496D01*
X168265000Y-75125000D01*
X168265000Y-77275000D01*
X168263796Y-77299504D01*
X168260196Y-77323773D01*
X168254235Y-77347571D01*
X168245970Y-77370671D01*
X168235480Y-77392849D01*
X168222867Y-77413893D01*
X168208253Y-77433598D01*
X168191777Y-77451777D01*
X168173598Y-77468253D01*
X168153893Y-77482867D01*
X168132849Y-77495480D01*
X168110671Y-77505970D01*
X168087571Y-77514235D01*
X168063773Y-77520196D01*
X168039504Y-77523796D01*
X168015000Y-77525000D01*
X167265000Y-77525000D01*
X167240496Y-77523796D01*
X167216227Y-77520196D01*
X167192429Y-77514235D01*
X167169329Y-77505970D01*
X167147151Y-77495480D01*
X167126107Y-77482867D01*
X167106402Y-77468253D01*
X167088223Y-77451777D01*
X167071747Y-77433598D01*
X167057133Y-77413893D01*
X167044520Y-77392849D01*
X167034030Y-77370671D01*
X167025765Y-77347571D01*
X167019804Y-77323773D01*
X167016204Y-77299504D01*
X167015000Y-77275000D01*
X167015000Y-75125000D01*
X167016204Y-75100496D01*
X167019804Y-75076227D01*
X167025765Y-75052429D01*
X167034030Y-75029329D01*
X167044520Y-75007151D01*
X167057133Y-74986107D01*
X167071747Y-74966402D01*
X167088223Y-74948223D01*
X167106402Y-74931747D01*
X167126107Y-74917133D01*
X167147151Y-74904520D01*
X167169329Y-74894030D01*
X167192429Y-74885765D01*
X167216227Y-74879804D01*
X167240496Y-74876204D01*
X167265000Y-74875000D01*
X168015000Y-74875000D01*
X168039504Y-74876204D01*
X168039504Y-74876204D01*
G37*
D14*
X167640000Y-76200000D03*
D11*
G36*
X170839504Y-74876204D02*
X170863773Y-74879804D01*
X170887571Y-74885765D01*
X170910671Y-74894030D01*
X170932849Y-74904520D01*
X170953893Y-74917133D01*
X170973598Y-74931747D01*
X170991777Y-74948223D01*
X171008253Y-74966402D01*
X171022867Y-74986107D01*
X171035480Y-75007151D01*
X171045970Y-75029329D01*
X171054235Y-75052429D01*
X171060196Y-75076227D01*
X171063796Y-75100496D01*
X171065000Y-75125000D01*
X171065000Y-77275000D01*
X171063796Y-77299504D01*
X171060196Y-77323773D01*
X171054235Y-77347571D01*
X171045970Y-77370671D01*
X171035480Y-77392849D01*
X171022867Y-77413893D01*
X171008253Y-77433598D01*
X170991777Y-77451777D01*
X170973598Y-77468253D01*
X170953893Y-77482867D01*
X170932849Y-77495480D01*
X170910671Y-77505970D01*
X170887571Y-77514235D01*
X170863773Y-77520196D01*
X170839504Y-77523796D01*
X170815000Y-77525000D01*
X170065000Y-77525000D01*
X170040496Y-77523796D01*
X170016227Y-77520196D01*
X169992429Y-77514235D01*
X169969329Y-77505970D01*
X169947151Y-77495480D01*
X169926107Y-77482867D01*
X169906402Y-77468253D01*
X169888223Y-77451777D01*
X169871747Y-77433598D01*
X169857133Y-77413893D01*
X169844520Y-77392849D01*
X169834030Y-77370671D01*
X169825765Y-77347571D01*
X169819804Y-77323773D01*
X169816204Y-77299504D01*
X169815000Y-77275000D01*
X169815000Y-75125000D01*
X169816204Y-75100496D01*
X169819804Y-75076227D01*
X169825765Y-75052429D01*
X169834030Y-75029329D01*
X169844520Y-75007151D01*
X169857133Y-74986107D01*
X169871747Y-74966402D01*
X169888223Y-74948223D01*
X169906402Y-74931747D01*
X169926107Y-74917133D01*
X169947151Y-74904520D01*
X169969329Y-74894030D01*
X169992429Y-74885765D01*
X170016227Y-74879804D01*
X170040496Y-74876204D01*
X170065000Y-74875000D01*
X170815000Y-74875000D01*
X170839504Y-74876204D01*
X170839504Y-74876204D01*
G37*
D14*
X170440000Y-76200000D03*
G04 #@! TD*
D11*
G04 #@! TO.C,R1*
G36*
X117314505Y-91501204D02*
X117338773Y-91504804D01*
X117362572Y-91510765D01*
X117385671Y-91519030D01*
X117407850Y-91529520D01*
X117428893Y-91542132D01*
X117448599Y-91556747D01*
X117466777Y-91573223D01*
X117483253Y-91591401D01*
X117497868Y-91611107D01*
X117510480Y-91632150D01*
X117520970Y-91654329D01*
X117529235Y-91677428D01*
X117535196Y-91701227D01*
X117538796Y-91725495D01*
X117540000Y-91749999D01*
X117540000Y-92400001D01*
X117538796Y-92424505D01*
X117535196Y-92448773D01*
X117529235Y-92472572D01*
X117520970Y-92495671D01*
X117510480Y-92517850D01*
X117497868Y-92538893D01*
X117483253Y-92558599D01*
X117466777Y-92576777D01*
X117448599Y-92593253D01*
X117428893Y-92607868D01*
X117407850Y-92620480D01*
X117385671Y-92630970D01*
X117362572Y-92639235D01*
X117338773Y-92645196D01*
X117314505Y-92648796D01*
X117290001Y-92650000D01*
X116389999Y-92650000D01*
X116365495Y-92648796D01*
X116341227Y-92645196D01*
X116317428Y-92639235D01*
X116294329Y-92630970D01*
X116272150Y-92620480D01*
X116251107Y-92607868D01*
X116231401Y-92593253D01*
X116213223Y-92576777D01*
X116196747Y-92558599D01*
X116182132Y-92538893D01*
X116169520Y-92517850D01*
X116159030Y-92495671D01*
X116150765Y-92472572D01*
X116144804Y-92448773D01*
X116141204Y-92424505D01*
X116140000Y-92400001D01*
X116140000Y-91749999D01*
X116141204Y-91725495D01*
X116144804Y-91701227D01*
X116150765Y-91677428D01*
X116159030Y-91654329D01*
X116169520Y-91632150D01*
X116182132Y-91611107D01*
X116196747Y-91591401D01*
X116213223Y-91573223D01*
X116231401Y-91556747D01*
X116251107Y-91542132D01*
X116272150Y-91529520D01*
X116294329Y-91519030D01*
X116317428Y-91510765D01*
X116341227Y-91504804D01*
X116365495Y-91501204D01*
X116389999Y-91500000D01*
X117290001Y-91500000D01*
X117314505Y-91501204D01*
X117314505Y-91501204D01*
G37*
D12*
X116840000Y-92075000D03*
D11*
G36*
X117314505Y-93551204D02*
X117338773Y-93554804D01*
X117362572Y-93560765D01*
X117385671Y-93569030D01*
X117407850Y-93579520D01*
X117428893Y-93592132D01*
X117448599Y-93606747D01*
X117466777Y-93623223D01*
X117483253Y-93641401D01*
X117497868Y-93661107D01*
X117510480Y-93682150D01*
X117520970Y-93704329D01*
X117529235Y-93727428D01*
X117535196Y-93751227D01*
X117538796Y-93775495D01*
X117540000Y-93799999D01*
X117540000Y-94450001D01*
X117538796Y-94474505D01*
X117535196Y-94498773D01*
X117529235Y-94522572D01*
X117520970Y-94545671D01*
X117510480Y-94567850D01*
X117497868Y-94588893D01*
X117483253Y-94608599D01*
X117466777Y-94626777D01*
X117448599Y-94643253D01*
X117428893Y-94657868D01*
X117407850Y-94670480D01*
X117385671Y-94680970D01*
X117362572Y-94689235D01*
X117338773Y-94695196D01*
X117314505Y-94698796D01*
X117290001Y-94700000D01*
X116389999Y-94700000D01*
X116365495Y-94698796D01*
X116341227Y-94695196D01*
X116317428Y-94689235D01*
X116294329Y-94680970D01*
X116272150Y-94670480D01*
X116251107Y-94657868D01*
X116231401Y-94643253D01*
X116213223Y-94626777D01*
X116196747Y-94608599D01*
X116182132Y-94588893D01*
X116169520Y-94567850D01*
X116159030Y-94545671D01*
X116150765Y-94522572D01*
X116144804Y-94498773D01*
X116141204Y-94474505D01*
X116140000Y-94450001D01*
X116140000Y-93799999D01*
X116141204Y-93775495D01*
X116144804Y-93751227D01*
X116150765Y-93727428D01*
X116159030Y-93704329D01*
X116169520Y-93682150D01*
X116182132Y-93661107D01*
X116196747Y-93641401D01*
X116213223Y-93623223D01*
X116231401Y-93606747D01*
X116251107Y-93592132D01*
X116272150Y-93579520D01*
X116294329Y-93569030D01*
X116317428Y-93560765D01*
X116341227Y-93554804D01*
X116365495Y-93551204D01*
X116389999Y-93550000D01*
X117290001Y-93550000D01*
X117314505Y-93551204D01*
X117314505Y-93551204D01*
G37*
D12*
X116840000Y-94125000D03*
G04 #@! TD*
D11*
G04 #@! TO.C,R2*
G36*
X121779505Y-91376204D02*
X121803773Y-91379804D01*
X121827572Y-91385765D01*
X121850671Y-91394030D01*
X121872850Y-91404520D01*
X121893893Y-91417132D01*
X121913599Y-91431747D01*
X121931777Y-91448223D01*
X121948253Y-91466401D01*
X121962868Y-91486107D01*
X121975480Y-91507150D01*
X121985970Y-91529329D01*
X121994235Y-91552428D01*
X122000196Y-91576227D01*
X122003796Y-91600495D01*
X122005000Y-91624999D01*
X122005000Y-92525001D01*
X122003796Y-92549505D01*
X122000196Y-92573773D01*
X121994235Y-92597572D01*
X121985970Y-92620671D01*
X121975480Y-92642850D01*
X121962868Y-92663893D01*
X121948253Y-92683599D01*
X121931777Y-92701777D01*
X121913599Y-92718253D01*
X121893893Y-92732868D01*
X121872850Y-92745480D01*
X121850671Y-92755970D01*
X121827572Y-92764235D01*
X121803773Y-92770196D01*
X121779505Y-92773796D01*
X121755001Y-92775000D01*
X121104999Y-92775000D01*
X121080495Y-92773796D01*
X121056227Y-92770196D01*
X121032428Y-92764235D01*
X121009329Y-92755970D01*
X120987150Y-92745480D01*
X120966107Y-92732868D01*
X120946401Y-92718253D01*
X120928223Y-92701777D01*
X120911747Y-92683599D01*
X120897132Y-92663893D01*
X120884520Y-92642850D01*
X120874030Y-92620671D01*
X120865765Y-92597572D01*
X120859804Y-92573773D01*
X120856204Y-92549505D01*
X120855000Y-92525001D01*
X120855000Y-91624999D01*
X120856204Y-91600495D01*
X120859804Y-91576227D01*
X120865765Y-91552428D01*
X120874030Y-91529329D01*
X120884520Y-91507150D01*
X120897132Y-91486107D01*
X120911747Y-91466401D01*
X120928223Y-91448223D01*
X120946401Y-91431747D01*
X120966107Y-91417132D01*
X120987150Y-91404520D01*
X121009329Y-91394030D01*
X121032428Y-91385765D01*
X121056227Y-91379804D01*
X121080495Y-91376204D01*
X121104999Y-91375000D01*
X121755001Y-91375000D01*
X121779505Y-91376204D01*
X121779505Y-91376204D01*
G37*
D12*
X121430000Y-92075000D03*
D11*
G36*
X119729505Y-91376204D02*
X119753773Y-91379804D01*
X119777572Y-91385765D01*
X119800671Y-91394030D01*
X119822850Y-91404520D01*
X119843893Y-91417132D01*
X119863599Y-91431747D01*
X119881777Y-91448223D01*
X119898253Y-91466401D01*
X119912868Y-91486107D01*
X119925480Y-91507150D01*
X119935970Y-91529329D01*
X119944235Y-91552428D01*
X119950196Y-91576227D01*
X119953796Y-91600495D01*
X119955000Y-91624999D01*
X119955000Y-92525001D01*
X119953796Y-92549505D01*
X119950196Y-92573773D01*
X119944235Y-92597572D01*
X119935970Y-92620671D01*
X119925480Y-92642850D01*
X119912868Y-92663893D01*
X119898253Y-92683599D01*
X119881777Y-92701777D01*
X119863599Y-92718253D01*
X119843893Y-92732868D01*
X119822850Y-92745480D01*
X119800671Y-92755970D01*
X119777572Y-92764235D01*
X119753773Y-92770196D01*
X119729505Y-92773796D01*
X119705001Y-92775000D01*
X119054999Y-92775000D01*
X119030495Y-92773796D01*
X119006227Y-92770196D01*
X118982428Y-92764235D01*
X118959329Y-92755970D01*
X118937150Y-92745480D01*
X118916107Y-92732868D01*
X118896401Y-92718253D01*
X118878223Y-92701777D01*
X118861747Y-92683599D01*
X118847132Y-92663893D01*
X118834520Y-92642850D01*
X118824030Y-92620671D01*
X118815765Y-92597572D01*
X118809804Y-92573773D01*
X118806204Y-92549505D01*
X118805000Y-92525001D01*
X118805000Y-91624999D01*
X118806204Y-91600495D01*
X118809804Y-91576227D01*
X118815765Y-91552428D01*
X118824030Y-91529329D01*
X118834520Y-91507150D01*
X118847132Y-91486107D01*
X118861747Y-91466401D01*
X118878223Y-91448223D01*
X118896401Y-91431747D01*
X118916107Y-91417132D01*
X118937150Y-91404520D01*
X118959329Y-91394030D01*
X118982428Y-91385765D01*
X119006227Y-91379804D01*
X119030495Y-91376204D01*
X119054999Y-91375000D01*
X119705001Y-91375000D01*
X119729505Y-91376204D01*
X119729505Y-91376204D01*
G37*
D12*
X119380000Y-92075000D03*
G04 #@! TD*
D11*
G04 #@! TO.C,R3*
G36*
X125589505Y-73596204D02*
X125613773Y-73599804D01*
X125637572Y-73605765D01*
X125660671Y-73614030D01*
X125682850Y-73624520D01*
X125703893Y-73637132D01*
X125723599Y-73651747D01*
X125741777Y-73668223D01*
X125758253Y-73686401D01*
X125772868Y-73706107D01*
X125785480Y-73727150D01*
X125795970Y-73749329D01*
X125804235Y-73772428D01*
X125810196Y-73796227D01*
X125813796Y-73820495D01*
X125815000Y-73844999D01*
X125815000Y-74745001D01*
X125813796Y-74769505D01*
X125810196Y-74793773D01*
X125804235Y-74817572D01*
X125795970Y-74840671D01*
X125785480Y-74862850D01*
X125772868Y-74883893D01*
X125758253Y-74903599D01*
X125741777Y-74921777D01*
X125723599Y-74938253D01*
X125703893Y-74952868D01*
X125682850Y-74965480D01*
X125660671Y-74975970D01*
X125637572Y-74984235D01*
X125613773Y-74990196D01*
X125589505Y-74993796D01*
X125565001Y-74995000D01*
X124914999Y-74995000D01*
X124890495Y-74993796D01*
X124866227Y-74990196D01*
X124842428Y-74984235D01*
X124819329Y-74975970D01*
X124797150Y-74965480D01*
X124776107Y-74952868D01*
X124756401Y-74938253D01*
X124738223Y-74921777D01*
X124721747Y-74903599D01*
X124707132Y-74883893D01*
X124694520Y-74862850D01*
X124684030Y-74840671D01*
X124675765Y-74817572D01*
X124669804Y-74793773D01*
X124666204Y-74769505D01*
X124665000Y-74745001D01*
X124665000Y-73844999D01*
X124666204Y-73820495D01*
X124669804Y-73796227D01*
X124675765Y-73772428D01*
X124684030Y-73749329D01*
X124694520Y-73727150D01*
X124707132Y-73706107D01*
X124721747Y-73686401D01*
X124738223Y-73668223D01*
X124756401Y-73651747D01*
X124776107Y-73637132D01*
X124797150Y-73624520D01*
X124819329Y-73614030D01*
X124842428Y-73605765D01*
X124866227Y-73599804D01*
X124890495Y-73596204D01*
X124914999Y-73595000D01*
X125565001Y-73595000D01*
X125589505Y-73596204D01*
X125589505Y-73596204D01*
G37*
D12*
X125240000Y-74295000D03*
D11*
G36*
X123539505Y-73596204D02*
X123563773Y-73599804D01*
X123587572Y-73605765D01*
X123610671Y-73614030D01*
X123632850Y-73624520D01*
X123653893Y-73637132D01*
X123673599Y-73651747D01*
X123691777Y-73668223D01*
X123708253Y-73686401D01*
X123722868Y-73706107D01*
X123735480Y-73727150D01*
X123745970Y-73749329D01*
X123754235Y-73772428D01*
X123760196Y-73796227D01*
X123763796Y-73820495D01*
X123765000Y-73844999D01*
X123765000Y-74745001D01*
X123763796Y-74769505D01*
X123760196Y-74793773D01*
X123754235Y-74817572D01*
X123745970Y-74840671D01*
X123735480Y-74862850D01*
X123722868Y-74883893D01*
X123708253Y-74903599D01*
X123691777Y-74921777D01*
X123673599Y-74938253D01*
X123653893Y-74952868D01*
X123632850Y-74965480D01*
X123610671Y-74975970D01*
X123587572Y-74984235D01*
X123563773Y-74990196D01*
X123539505Y-74993796D01*
X123515001Y-74995000D01*
X122864999Y-74995000D01*
X122840495Y-74993796D01*
X122816227Y-74990196D01*
X122792428Y-74984235D01*
X122769329Y-74975970D01*
X122747150Y-74965480D01*
X122726107Y-74952868D01*
X122706401Y-74938253D01*
X122688223Y-74921777D01*
X122671747Y-74903599D01*
X122657132Y-74883893D01*
X122644520Y-74862850D01*
X122634030Y-74840671D01*
X122625765Y-74817572D01*
X122619804Y-74793773D01*
X122616204Y-74769505D01*
X122615000Y-74745001D01*
X122615000Y-73844999D01*
X122616204Y-73820495D01*
X122619804Y-73796227D01*
X122625765Y-73772428D01*
X122634030Y-73749329D01*
X122644520Y-73727150D01*
X122657132Y-73706107D01*
X122671747Y-73686401D01*
X122688223Y-73668223D01*
X122706401Y-73651747D01*
X122726107Y-73637132D01*
X122747150Y-73624520D01*
X122769329Y-73614030D01*
X122792428Y-73605765D01*
X122816227Y-73599804D01*
X122840495Y-73596204D01*
X122864999Y-73595000D01*
X123515001Y-73595000D01*
X123539505Y-73596204D01*
X123539505Y-73596204D01*
G37*
D12*
X123190000Y-74295000D03*
G04 #@! TD*
D11*
G04 #@! TO.C,R4*
G36*
X123539505Y-76136204D02*
X123563773Y-76139804D01*
X123587572Y-76145765D01*
X123610671Y-76154030D01*
X123632850Y-76164520D01*
X123653893Y-76177132D01*
X123673599Y-76191747D01*
X123691777Y-76208223D01*
X123708253Y-76226401D01*
X123722868Y-76246107D01*
X123735480Y-76267150D01*
X123745970Y-76289329D01*
X123754235Y-76312428D01*
X123760196Y-76336227D01*
X123763796Y-76360495D01*
X123765000Y-76384999D01*
X123765000Y-77285001D01*
X123763796Y-77309505D01*
X123760196Y-77333773D01*
X123754235Y-77357572D01*
X123745970Y-77380671D01*
X123735480Y-77402850D01*
X123722868Y-77423893D01*
X123708253Y-77443599D01*
X123691777Y-77461777D01*
X123673599Y-77478253D01*
X123653893Y-77492868D01*
X123632850Y-77505480D01*
X123610671Y-77515970D01*
X123587572Y-77524235D01*
X123563773Y-77530196D01*
X123539505Y-77533796D01*
X123515001Y-77535000D01*
X122864999Y-77535000D01*
X122840495Y-77533796D01*
X122816227Y-77530196D01*
X122792428Y-77524235D01*
X122769329Y-77515970D01*
X122747150Y-77505480D01*
X122726107Y-77492868D01*
X122706401Y-77478253D01*
X122688223Y-77461777D01*
X122671747Y-77443599D01*
X122657132Y-77423893D01*
X122644520Y-77402850D01*
X122634030Y-77380671D01*
X122625765Y-77357572D01*
X122619804Y-77333773D01*
X122616204Y-77309505D01*
X122615000Y-77285001D01*
X122615000Y-76384999D01*
X122616204Y-76360495D01*
X122619804Y-76336227D01*
X122625765Y-76312428D01*
X122634030Y-76289329D01*
X122644520Y-76267150D01*
X122657132Y-76246107D01*
X122671747Y-76226401D01*
X122688223Y-76208223D01*
X122706401Y-76191747D01*
X122726107Y-76177132D01*
X122747150Y-76164520D01*
X122769329Y-76154030D01*
X122792428Y-76145765D01*
X122816227Y-76139804D01*
X122840495Y-76136204D01*
X122864999Y-76135000D01*
X123515001Y-76135000D01*
X123539505Y-76136204D01*
X123539505Y-76136204D01*
G37*
D12*
X123190000Y-76835000D03*
D11*
G36*
X125589505Y-76136204D02*
X125613773Y-76139804D01*
X125637572Y-76145765D01*
X125660671Y-76154030D01*
X125682850Y-76164520D01*
X125703893Y-76177132D01*
X125723599Y-76191747D01*
X125741777Y-76208223D01*
X125758253Y-76226401D01*
X125772868Y-76246107D01*
X125785480Y-76267150D01*
X125795970Y-76289329D01*
X125804235Y-76312428D01*
X125810196Y-76336227D01*
X125813796Y-76360495D01*
X125815000Y-76384999D01*
X125815000Y-77285001D01*
X125813796Y-77309505D01*
X125810196Y-77333773D01*
X125804235Y-77357572D01*
X125795970Y-77380671D01*
X125785480Y-77402850D01*
X125772868Y-77423893D01*
X125758253Y-77443599D01*
X125741777Y-77461777D01*
X125723599Y-77478253D01*
X125703893Y-77492868D01*
X125682850Y-77505480D01*
X125660671Y-77515970D01*
X125637572Y-77524235D01*
X125613773Y-77530196D01*
X125589505Y-77533796D01*
X125565001Y-77535000D01*
X124914999Y-77535000D01*
X124890495Y-77533796D01*
X124866227Y-77530196D01*
X124842428Y-77524235D01*
X124819329Y-77515970D01*
X124797150Y-77505480D01*
X124776107Y-77492868D01*
X124756401Y-77478253D01*
X124738223Y-77461777D01*
X124721747Y-77443599D01*
X124707132Y-77423893D01*
X124694520Y-77402850D01*
X124684030Y-77380671D01*
X124675765Y-77357572D01*
X124669804Y-77333773D01*
X124666204Y-77309505D01*
X124665000Y-77285001D01*
X124665000Y-76384999D01*
X124666204Y-76360495D01*
X124669804Y-76336227D01*
X124675765Y-76312428D01*
X124684030Y-76289329D01*
X124694520Y-76267150D01*
X124707132Y-76246107D01*
X124721747Y-76226401D01*
X124738223Y-76208223D01*
X124756401Y-76191747D01*
X124776107Y-76177132D01*
X124797150Y-76164520D01*
X124819329Y-76154030D01*
X124842428Y-76145765D01*
X124866227Y-76139804D01*
X124890495Y-76136204D01*
X124914999Y-76135000D01*
X125565001Y-76135000D01*
X125589505Y-76136204D01*
X125589505Y-76136204D01*
G37*
D12*
X125240000Y-76835000D03*
G04 #@! TD*
D11*
G04 #@! TO.C,R5*
G36*
X125589505Y-78676204D02*
X125613773Y-78679804D01*
X125637572Y-78685765D01*
X125660671Y-78694030D01*
X125682850Y-78704520D01*
X125703893Y-78717132D01*
X125723599Y-78731747D01*
X125741777Y-78748223D01*
X125758253Y-78766401D01*
X125772868Y-78786107D01*
X125785480Y-78807150D01*
X125795970Y-78829329D01*
X125804235Y-78852428D01*
X125810196Y-78876227D01*
X125813796Y-78900495D01*
X125815000Y-78924999D01*
X125815000Y-79825001D01*
X125813796Y-79849505D01*
X125810196Y-79873773D01*
X125804235Y-79897572D01*
X125795970Y-79920671D01*
X125785480Y-79942850D01*
X125772868Y-79963893D01*
X125758253Y-79983599D01*
X125741777Y-80001777D01*
X125723599Y-80018253D01*
X125703893Y-80032868D01*
X125682850Y-80045480D01*
X125660671Y-80055970D01*
X125637572Y-80064235D01*
X125613773Y-80070196D01*
X125589505Y-80073796D01*
X125565001Y-80075000D01*
X124914999Y-80075000D01*
X124890495Y-80073796D01*
X124866227Y-80070196D01*
X124842428Y-80064235D01*
X124819329Y-80055970D01*
X124797150Y-80045480D01*
X124776107Y-80032868D01*
X124756401Y-80018253D01*
X124738223Y-80001777D01*
X124721747Y-79983599D01*
X124707132Y-79963893D01*
X124694520Y-79942850D01*
X124684030Y-79920671D01*
X124675765Y-79897572D01*
X124669804Y-79873773D01*
X124666204Y-79849505D01*
X124665000Y-79825001D01*
X124665000Y-78924999D01*
X124666204Y-78900495D01*
X124669804Y-78876227D01*
X124675765Y-78852428D01*
X124684030Y-78829329D01*
X124694520Y-78807150D01*
X124707132Y-78786107D01*
X124721747Y-78766401D01*
X124738223Y-78748223D01*
X124756401Y-78731747D01*
X124776107Y-78717132D01*
X124797150Y-78704520D01*
X124819329Y-78694030D01*
X124842428Y-78685765D01*
X124866227Y-78679804D01*
X124890495Y-78676204D01*
X124914999Y-78675000D01*
X125565001Y-78675000D01*
X125589505Y-78676204D01*
X125589505Y-78676204D01*
G37*
D12*
X125240000Y-79375000D03*
D11*
G36*
X123539505Y-78676204D02*
X123563773Y-78679804D01*
X123587572Y-78685765D01*
X123610671Y-78694030D01*
X123632850Y-78704520D01*
X123653893Y-78717132D01*
X123673599Y-78731747D01*
X123691777Y-78748223D01*
X123708253Y-78766401D01*
X123722868Y-78786107D01*
X123735480Y-78807150D01*
X123745970Y-78829329D01*
X123754235Y-78852428D01*
X123760196Y-78876227D01*
X123763796Y-78900495D01*
X123765000Y-78924999D01*
X123765000Y-79825001D01*
X123763796Y-79849505D01*
X123760196Y-79873773D01*
X123754235Y-79897572D01*
X123745970Y-79920671D01*
X123735480Y-79942850D01*
X123722868Y-79963893D01*
X123708253Y-79983599D01*
X123691777Y-80001777D01*
X123673599Y-80018253D01*
X123653893Y-80032868D01*
X123632850Y-80045480D01*
X123610671Y-80055970D01*
X123587572Y-80064235D01*
X123563773Y-80070196D01*
X123539505Y-80073796D01*
X123515001Y-80075000D01*
X122864999Y-80075000D01*
X122840495Y-80073796D01*
X122816227Y-80070196D01*
X122792428Y-80064235D01*
X122769329Y-80055970D01*
X122747150Y-80045480D01*
X122726107Y-80032868D01*
X122706401Y-80018253D01*
X122688223Y-80001777D01*
X122671747Y-79983599D01*
X122657132Y-79963893D01*
X122644520Y-79942850D01*
X122634030Y-79920671D01*
X122625765Y-79897572D01*
X122619804Y-79873773D01*
X122616204Y-79849505D01*
X122615000Y-79825001D01*
X122615000Y-78924999D01*
X122616204Y-78900495D01*
X122619804Y-78876227D01*
X122625765Y-78852428D01*
X122634030Y-78829329D01*
X122644520Y-78807150D01*
X122657132Y-78786107D01*
X122671747Y-78766401D01*
X122688223Y-78748223D01*
X122706401Y-78731747D01*
X122726107Y-78717132D01*
X122747150Y-78704520D01*
X122769329Y-78694030D01*
X122792428Y-78685765D01*
X122816227Y-78679804D01*
X122840495Y-78676204D01*
X122864999Y-78675000D01*
X123515001Y-78675000D01*
X123539505Y-78676204D01*
X123539505Y-78676204D01*
G37*
D12*
X123190000Y-79375000D03*
G04 #@! TD*
D11*
G04 #@! TO.C,R6*
G36*
X117189505Y-101536204D02*
X117213773Y-101539804D01*
X117237572Y-101545765D01*
X117260671Y-101554030D01*
X117282850Y-101564520D01*
X117303893Y-101577132D01*
X117323599Y-101591747D01*
X117341777Y-101608223D01*
X117358253Y-101626401D01*
X117372868Y-101646107D01*
X117385480Y-101667150D01*
X117395970Y-101689329D01*
X117404235Y-101712428D01*
X117410196Y-101736227D01*
X117413796Y-101760495D01*
X117415000Y-101784999D01*
X117415000Y-102685001D01*
X117413796Y-102709505D01*
X117410196Y-102733773D01*
X117404235Y-102757572D01*
X117395970Y-102780671D01*
X117385480Y-102802850D01*
X117372868Y-102823893D01*
X117358253Y-102843599D01*
X117341777Y-102861777D01*
X117323599Y-102878253D01*
X117303893Y-102892868D01*
X117282850Y-102905480D01*
X117260671Y-102915970D01*
X117237572Y-102924235D01*
X117213773Y-102930196D01*
X117189505Y-102933796D01*
X117165001Y-102935000D01*
X116514999Y-102935000D01*
X116490495Y-102933796D01*
X116466227Y-102930196D01*
X116442428Y-102924235D01*
X116419329Y-102915970D01*
X116397150Y-102905480D01*
X116376107Y-102892868D01*
X116356401Y-102878253D01*
X116338223Y-102861777D01*
X116321747Y-102843599D01*
X116307132Y-102823893D01*
X116294520Y-102802850D01*
X116284030Y-102780671D01*
X116275765Y-102757572D01*
X116269804Y-102733773D01*
X116266204Y-102709505D01*
X116265000Y-102685001D01*
X116265000Y-101784999D01*
X116266204Y-101760495D01*
X116269804Y-101736227D01*
X116275765Y-101712428D01*
X116284030Y-101689329D01*
X116294520Y-101667150D01*
X116307132Y-101646107D01*
X116321747Y-101626401D01*
X116338223Y-101608223D01*
X116356401Y-101591747D01*
X116376107Y-101577132D01*
X116397150Y-101564520D01*
X116419329Y-101554030D01*
X116442428Y-101545765D01*
X116466227Y-101539804D01*
X116490495Y-101536204D01*
X116514999Y-101535000D01*
X117165001Y-101535000D01*
X117189505Y-101536204D01*
X117189505Y-101536204D01*
G37*
D12*
X116840000Y-102235000D03*
D11*
G36*
X119239505Y-101536204D02*
X119263773Y-101539804D01*
X119287572Y-101545765D01*
X119310671Y-101554030D01*
X119332850Y-101564520D01*
X119353893Y-101577132D01*
X119373599Y-101591747D01*
X119391777Y-101608223D01*
X119408253Y-101626401D01*
X119422868Y-101646107D01*
X119435480Y-101667150D01*
X119445970Y-101689329D01*
X119454235Y-101712428D01*
X119460196Y-101736227D01*
X119463796Y-101760495D01*
X119465000Y-101784999D01*
X119465000Y-102685001D01*
X119463796Y-102709505D01*
X119460196Y-102733773D01*
X119454235Y-102757572D01*
X119445970Y-102780671D01*
X119435480Y-102802850D01*
X119422868Y-102823893D01*
X119408253Y-102843599D01*
X119391777Y-102861777D01*
X119373599Y-102878253D01*
X119353893Y-102892868D01*
X119332850Y-102905480D01*
X119310671Y-102915970D01*
X119287572Y-102924235D01*
X119263773Y-102930196D01*
X119239505Y-102933796D01*
X119215001Y-102935000D01*
X118564999Y-102935000D01*
X118540495Y-102933796D01*
X118516227Y-102930196D01*
X118492428Y-102924235D01*
X118469329Y-102915970D01*
X118447150Y-102905480D01*
X118426107Y-102892868D01*
X118406401Y-102878253D01*
X118388223Y-102861777D01*
X118371747Y-102843599D01*
X118357132Y-102823893D01*
X118344520Y-102802850D01*
X118334030Y-102780671D01*
X118325765Y-102757572D01*
X118319804Y-102733773D01*
X118316204Y-102709505D01*
X118315000Y-102685001D01*
X118315000Y-101784999D01*
X118316204Y-101760495D01*
X118319804Y-101736227D01*
X118325765Y-101712428D01*
X118334030Y-101689329D01*
X118344520Y-101667150D01*
X118357132Y-101646107D01*
X118371747Y-101626401D01*
X118388223Y-101608223D01*
X118406401Y-101591747D01*
X118426107Y-101577132D01*
X118447150Y-101564520D01*
X118469329Y-101554030D01*
X118492428Y-101545765D01*
X118516227Y-101539804D01*
X118540495Y-101536204D01*
X118564999Y-101535000D01*
X119215001Y-101535000D01*
X119239505Y-101536204D01*
X119239505Y-101536204D01*
G37*
D12*
X118890000Y-102235000D03*
G04 #@! TD*
D11*
G04 #@! TO.C,R7*
G36*
X131919505Y-99266204D02*
X131943773Y-99269804D01*
X131967572Y-99275765D01*
X131990671Y-99284030D01*
X132012850Y-99294520D01*
X132033893Y-99307132D01*
X132053599Y-99321747D01*
X132071777Y-99338223D01*
X132088253Y-99356401D01*
X132102868Y-99376107D01*
X132115480Y-99397150D01*
X132125970Y-99419329D01*
X132134235Y-99442428D01*
X132140196Y-99466227D01*
X132143796Y-99490495D01*
X132145000Y-99514999D01*
X132145000Y-100165001D01*
X132143796Y-100189505D01*
X132140196Y-100213773D01*
X132134235Y-100237572D01*
X132125970Y-100260671D01*
X132115480Y-100282850D01*
X132102868Y-100303893D01*
X132088253Y-100323599D01*
X132071777Y-100341777D01*
X132053599Y-100358253D01*
X132033893Y-100372868D01*
X132012850Y-100385480D01*
X131990671Y-100395970D01*
X131967572Y-100404235D01*
X131943773Y-100410196D01*
X131919505Y-100413796D01*
X131895001Y-100415000D01*
X130994999Y-100415000D01*
X130970495Y-100413796D01*
X130946227Y-100410196D01*
X130922428Y-100404235D01*
X130899329Y-100395970D01*
X130877150Y-100385480D01*
X130856107Y-100372868D01*
X130836401Y-100358253D01*
X130818223Y-100341777D01*
X130801747Y-100323599D01*
X130787132Y-100303893D01*
X130774520Y-100282850D01*
X130764030Y-100260671D01*
X130755765Y-100237572D01*
X130749804Y-100213773D01*
X130746204Y-100189505D01*
X130745000Y-100165001D01*
X130745000Y-99514999D01*
X130746204Y-99490495D01*
X130749804Y-99466227D01*
X130755765Y-99442428D01*
X130764030Y-99419329D01*
X130774520Y-99397150D01*
X130787132Y-99376107D01*
X130801747Y-99356401D01*
X130818223Y-99338223D01*
X130836401Y-99321747D01*
X130856107Y-99307132D01*
X130877150Y-99294520D01*
X130899329Y-99284030D01*
X130922428Y-99275765D01*
X130946227Y-99269804D01*
X130970495Y-99266204D01*
X130994999Y-99265000D01*
X131895001Y-99265000D01*
X131919505Y-99266204D01*
X131919505Y-99266204D01*
G37*
D12*
X131445000Y-99840000D03*
D11*
G36*
X131919505Y-97216204D02*
X131943773Y-97219804D01*
X131967572Y-97225765D01*
X131990671Y-97234030D01*
X132012850Y-97244520D01*
X132033893Y-97257132D01*
X132053599Y-97271747D01*
X132071777Y-97288223D01*
X132088253Y-97306401D01*
X132102868Y-97326107D01*
X132115480Y-97347150D01*
X132125970Y-97369329D01*
X132134235Y-97392428D01*
X132140196Y-97416227D01*
X132143796Y-97440495D01*
X132145000Y-97464999D01*
X132145000Y-98115001D01*
X132143796Y-98139505D01*
X132140196Y-98163773D01*
X132134235Y-98187572D01*
X132125970Y-98210671D01*
X132115480Y-98232850D01*
X132102868Y-98253893D01*
X132088253Y-98273599D01*
X132071777Y-98291777D01*
X132053599Y-98308253D01*
X132033893Y-98322868D01*
X132012850Y-98335480D01*
X131990671Y-98345970D01*
X131967572Y-98354235D01*
X131943773Y-98360196D01*
X131919505Y-98363796D01*
X131895001Y-98365000D01*
X130994999Y-98365000D01*
X130970495Y-98363796D01*
X130946227Y-98360196D01*
X130922428Y-98354235D01*
X130899329Y-98345970D01*
X130877150Y-98335480D01*
X130856107Y-98322868D01*
X130836401Y-98308253D01*
X130818223Y-98291777D01*
X130801747Y-98273599D01*
X130787132Y-98253893D01*
X130774520Y-98232850D01*
X130764030Y-98210671D01*
X130755765Y-98187572D01*
X130749804Y-98163773D01*
X130746204Y-98139505D01*
X130745000Y-98115001D01*
X130745000Y-97464999D01*
X130746204Y-97440495D01*
X130749804Y-97416227D01*
X130755765Y-97392428D01*
X130764030Y-97369329D01*
X130774520Y-97347150D01*
X130787132Y-97326107D01*
X130801747Y-97306401D01*
X130818223Y-97288223D01*
X130836401Y-97271747D01*
X130856107Y-97257132D01*
X130877150Y-97244520D01*
X130899329Y-97234030D01*
X130922428Y-97225765D01*
X130946227Y-97219804D01*
X130970495Y-97216204D01*
X130994999Y-97215000D01*
X131895001Y-97215000D01*
X131919505Y-97216204D01*
X131919505Y-97216204D01*
G37*
D12*
X131445000Y-97790000D03*
G04 #@! TD*
D11*
G04 #@! TO.C,R8*
G36*
X124934505Y-86176204D02*
X124958773Y-86179804D01*
X124982572Y-86185765D01*
X125005671Y-86194030D01*
X125027850Y-86204520D01*
X125048893Y-86217132D01*
X125068599Y-86231747D01*
X125086777Y-86248223D01*
X125103253Y-86266401D01*
X125117868Y-86286107D01*
X125130480Y-86307150D01*
X125140970Y-86329329D01*
X125149235Y-86352428D01*
X125155196Y-86376227D01*
X125158796Y-86400495D01*
X125160000Y-86424999D01*
X125160000Y-87075001D01*
X125158796Y-87099505D01*
X125155196Y-87123773D01*
X125149235Y-87147572D01*
X125140970Y-87170671D01*
X125130480Y-87192850D01*
X125117868Y-87213893D01*
X125103253Y-87233599D01*
X125086777Y-87251777D01*
X125068599Y-87268253D01*
X125048893Y-87282868D01*
X125027850Y-87295480D01*
X125005671Y-87305970D01*
X124982572Y-87314235D01*
X124958773Y-87320196D01*
X124934505Y-87323796D01*
X124910001Y-87325000D01*
X124009999Y-87325000D01*
X123985495Y-87323796D01*
X123961227Y-87320196D01*
X123937428Y-87314235D01*
X123914329Y-87305970D01*
X123892150Y-87295480D01*
X123871107Y-87282868D01*
X123851401Y-87268253D01*
X123833223Y-87251777D01*
X123816747Y-87233599D01*
X123802132Y-87213893D01*
X123789520Y-87192850D01*
X123779030Y-87170671D01*
X123770765Y-87147572D01*
X123764804Y-87123773D01*
X123761204Y-87099505D01*
X123760000Y-87075001D01*
X123760000Y-86424999D01*
X123761204Y-86400495D01*
X123764804Y-86376227D01*
X123770765Y-86352428D01*
X123779030Y-86329329D01*
X123789520Y-86307150D01*
X123802132Y-86286107D01*
X123816747Y-86266401D01*
X123833223Y-86248223D01*
X123851401Y-86231747D01*
X123871107Y-86217132D01*
X123892150Y-86204520D01*
X123914329Y-86194030D01*
X123937428Y-86185765D01*
X123961227Y-86179804D01*
X123985495Y-86176204D01*
X124009999Y-86175000D01*
X124910001Y-86175000D01*
X124934505Y-86176204D01*
X124934505Y-86176204D01*
G37*
D12*
X124460000Y-86750000D03*
D11*
G36*
X124934505Y-84126204D02*
X124958773Y-84129804D01*
X124982572Y-84135765D01*
X125005671Y-84144030D01*
X125027850Y-84154520D01*
X125048893Y-84167132D01*
X125068599Y-84181747D01*
X125086777Y-84198223D01*
X125103253Y-84216401D01*
X125117868Y-84236107D01*
X125130480Y-84257150D01*
X125140970Y-84279329D01*
X125149235Y-84302428D01*
X125155196Y-84326227D01*
X125158796Y-84350495D01*
X125160000Y-84374999D01*
X125160000Y-85025001D01*
X125158796Y-85049505D01*
X125155196Y-85073773D01*
X125149235Y-85097572D01*
X125140970Y-85120671D01*
X125130480Y-85142850D01*
X125117868Y-85163893D01*
X125103253Y-85183599D01*
X125086777Y-85201777D01*
X125068599Y-85218253D01*
X125048893Y-85232868D01*
X125027850Y-85245480D01*
X125005671Y-85255970D01*
X124982572Y-85264235D01*
X124958773Y-85270196D01*
X124934505Y-85273796D01*
X124910001Y-85275000D01*
X124009999Y-85275000D01*
X123985495Y-85273796D01*
X123961227Y-85270196D01*
X123937428Y-85264235D01*
X123914329Y-85255970D01*
X123892150Y-85245480D01*
X123871107Y-85232868D01*
X123851401Y-85218253D01*
X123833223Y-85201777D01*
X123816747Y-85183599D01*
X123802132Y-85163893D01*
X123789520Y-85142850D01*
X123779030Y-85120671D01*
X123770765Y-85097572D01*
X123764804Y-85073773D01*
X123761204Y-85049505D01*
X123760000Y-85025001D01*
X123760000Y-84374999D01*
X123761204Y-84350495D01*
X123764804Y-84326227D01*
X123770765Y-84302428D01*
X123779030Y-84279329D01*
X123789520Y-84257150D01*
X123802132Y-84236107D01*
X123816747Y-84216401D01*
X123833223Y-84198223D01*
X123851401Y-84181747D01*
X123871107Y-84167132D01*
X123892150Y-84154520D01*
X123914329Y-84144030D01*
X123937428Y-84135765D01*
X123961227Y-84129804D01*
X123985495Y-84126204D01*
X124009999Y-84125000D01*
X124910001Y-84125000D01*
X124934505Y-84126204D01*
X124934505Y-84126204D01*
G37*
D12*
X124460000Y-84700000D03*
G04 #@! TD*
D11*
G04 #@! TO.C,R9*
G36*
X139539505Y-89451204D02*
X139563773Y-89454804D01*
X139587572Y-89460765D01*
X139610671Y-89469030D01*
X139632850Y-89479520D01*
X139653893Y-89492132D01*
X139673599Y-89506747D01*
X139691777Y-89523223D01*
X139708253Y-89541401D01*
X139722868Y-89561107D01*
X139735480Y-89582150D01*
X139745970Y-89604329D01*
X139754235Y-89627428D01*
X139760196Y-89651227D01*
X139763796Y-89675495D01*
X139765000Y-89699999D01*
X139765000Y-90350001D01*
X139763796Y-90374505D01*
X139760196Y-90398773D01*
X139754235Y-90422572D01*
X139745970Y-90445671D01*
X139735480Y-90467850D01*
X139722868Y-90488893D01*
X139708253Y-90508599D01*
X139691777Y-90526777D01*
X139673599Y-90543253D01*
X139653893Y-90557868D01*
X139632850Y-90570480D01*
X139610671Y-90580970D01*
X139587572Y-90589235D01*
X139563773Y-90595196D01*
X139539505Y-90598796D01*
X139515001Y-90600000D01*
X138614999Y-90600000D01*
X138590495Y-90598796D01*
X138566227Y-90595196D01*
X138542428Y-90589235D01*
X138519329Y-90580970D01*
X138497150Y-90570480D01*
X138476107Y-90557868D01*
X138456401Y-90543253D01*
X138438223Y-90526777D01*
X138421747Y-90508599D01*
X138407132Y-90488893D01*
X138394520Y-90467850D01*
X138384030Y-90445671D01*
X138375765Y-90422572D01*
X138369804Y-90398773D01*
X138366204Y-90374505D01*
X138365000Y-90350001D01*
X138365000Y-89699999D01*
X138366204Y-89675495D01*
X138369804Y-89651227D01*
X138375765Y-89627428D01*
X138384030Y-89604329D01*
X138394520Y-89582150D01*
X138407132Y-89561107D01*
X138421747Y-89541401D01*
X138438223Y-89523223D01*
X138456401Y-89506747D01*
X138476107Y-89492132D01*
X138497150Y-89479520D01*
X138519329Y-89469030D01*
X138542428Y-89460765D01*
X138566227Y-89454804D01*
X138590495Y-89451204D01*
X138614999Y-89450000D01*
X139515001Y-89450000D01*
X139539505Y-89451204D01*
X139539505Y-89451204D01*
G37*
D12*
X139065000Y-90025000D03*
D11*
G36*
X139539505Y-91501204D02*
X139563773Y-91504804D01*
X139587572Y-91510765D01*
X139610671Y-91519030D01*
X139632850Y-91529520D01*
X139653893Y-91542132D01*
X139673599Y-91556747D01*
X139691777Y-91573223D01*
X139708253Y-91591401D01*
X139722868Y-91611107D01*
X139735480Y-91632150D01*
X139745970Y-91654329D01*
X139754235Y-91677428D01*
X139760196Y-91701227D01*
X139763796Y-91725495D01*
X139765000Y-91749999D01*
X139765000Y-92400001D01*
X139763796Y-92424505D01*
X139760196Y-92448773D01*
X139754235Y-92472572D01*
X139745970Y-92495671D01*
X139735480Y-92517850D01*
X139722868Y-92538893D01*
X139708253Y-92558599D01*
X139691777Y-92576777D01*
X139673599Y-92593253D01*
X139653893Y-92607868D01*
X139632850Y-92620480D01*
X139610671Y-92630970D01*
X139587572Y-92639235D01*
X139563773Y-92645196D01*
X139539505Y-92648796D01*
X139515001Y-92650000D01*
X138614999Y-92650000D01*
X138590495Y-92648796D01*
X138566227Y-92645196D01*
X138542428Y-92639235D01*
X138519329Y-92630970D01*
X138497150Y-92620480D01*
X138476107Y-92607868D01*
X138456401Y-92593253D01*
X138438223Y-92576777D01*
X138421747Y-92558599D01*
X138407132Y-92538893D01*
X138394520Y-92517850D01*
X138384030Y-92495671D01*
X138375765Y-92472572D01*
X138369804Y-92448773D01*
X138366204Y-92424505D01*
X138365000Y-92400001D01*
X138365000Y-91749999D01*
X138366204Y-91725495D01*
X138369804Y-91701227D01*
X138375765Y-91677428D01*
X138384030Y-91654329D01*
X138394520Y-91632150D01*
X138407132Y-91611107D01*
X138421747Y-91591401D01*
X138438223Y-91573223D01*
X138456401Y-91556747D01*
X138476107Y-91542132D01*
X138497150Y-91529520D01*
X138519329Y-91519030D01*
X138542428Y-91510765D01*
X138566227Y-91504804D01*
X138590495Y-91501204D01*
X138614999Y-91500000D01*
X139515001Y-91500000D01*
X139539505Y-91501204D01*
X139539505Y-91501204D01*
G37*
D12*
X139065000Y-92075000D03*
G04 #@! TD*
D11*
G04 #@! TO.C,R10*
G36*
X145909505Y-92646204D02*
X145933773Y-92649804D01*
X145957572Y-92655765D01*
X145980671Y-92664030D01*
X146002850Y-92674520D01*
X146023893Y-92687132D01*
X146043599Y-92701747D01*
X146061777Y-92718223D01*
X146078253Y-92736401D01*
X146092868Y-92756107D01*
X146105480Y-92777150D01*
X146115970Y-92799329D01*
X146124235Y-92822428D01*
X146130196Y-92846227D01*
X146133796Y-92870495D01*
X146135000Y-92894999D01*
X146135000Y-93795001D01*
X146133796Y-93819505D01*
X146130196Y-93843773D01*
X146124235Y-93867572D01*
X146115970Y-93890671D01*
X146105480Y-93912850D01*
X146092868Y-93933893D01*
X146078253Y-93953599D01*
X146061777Y-93971777D01*
X146043599Y-93988253D01*
X146023893Y-94002868D01*
X146002850Y-94015480D01*
X145980671Y-94025970D01*
X145957572Y-94034235D01*
X145933773Y-94040196D01*
X145909505Y-94043796D01*
X145885001Y-94045000D01*
X145234999Y-94045000D01*
X145210495Y-94043796D01*
X145186227Y-94040196D01*
X145162428Y-94034235D01*
X145139329Y-94025970D01*
X145117150Y-94015480D01*
X145096107Y-94002868D01*
X145076401Y-93988253D01*
X145058223Y-93971777D01*
X145041747Y-93953599D01*
X145027132Y-93933893D01*
X145014520Y-93912850D01*
X145004030Y-93890671D01*
X144995765Y-93867572D01*
X144989804Y-93843773D01*
X144986204Y-93819505D01*
X144985000Y-93795001D01*
X144985000Y-92894999D01*
X144986204Y-92870495D01*
X144989804Y-92846227D01*
X144995765Y-92822428D01*
X145004030Y-92799329D01*
X145014520Y-92777150D01*
X145027132Y-92756107D01*
X145041747Y-92736401D01*
X145058223Y-92718223D01*
X145076401Y-92701747D01*
X145096107Y-92687132D01*
X145117150Y-92674520D01*
X145139329Y-92664030D01*
X145162428Y-92655765D01*
X145186227Y-92649804D01*
X145210495Y-92646204D01*
X145234999Y-92645000D01*
X145885001Y-92645000D01*
X145909505Y-92646204D01*
X145909505Y-92646204D01*
G37*
D12*
X145560000Y-93345000D03*
D11*
G36*
X143859505Y-92646204D02*
X143883773Y-92649804D01*
X143907572Y-92655765D01*
X143930671Y-92664030D01*
X143952850Y-92674520D01*
X143973893Y-92687132D01*
X143993599Y-92701747D01*
X144011777Y-92718223D01*
X144028253Y-92736401D01*
X144042868Y-92756107D01*
X144055480Y-92777150D01*
X144065970Y-92799329D01*
X144074235Y-92822428D01*
X144080196Y-92846227D01*
X144083796Y-92870495D01*
X144085000Y-92894999D01*
X144085000Y-93795001D01*
X144083796Y-93819505D01*
X144080196Y-93843773D01*
X144074235Y-93867572D01*
X144065970Y-93890671D01*
X144055480Y-93912850D01*
X144042868Y-93933893D01*
X144028253Y-93953599D01*
X144011777Y-93971777D01*
X143993599Y-93988253D01*
X143973893Y-94002868D01*
X143952850Y-94015480D01*
X143930671Y-94025970D01*
X143907572Y-94034235D01*
X143883773Y-94040196D01*
X143859505Y-94043796D01*
X143835001Y-94045000D01*
X143184999Y-94045000D01*
X143160495Y-94043796D01*
X143136227Y-94040196D01*
X143112428Y-94034235D01*
X143089329Y-94025970D01*
X143067150Y-94015480D01*
X143046107Y-94002868D01*
X143026401Y-93988253D01*
X143008223Y-93971777D01*
X142991747Y-93953599D01*
X142977132Y-93933893D01*
X142964520Y-93912850D01*
X142954030Y-93890671D01*
X142945765Y-93867572D01*
X142939804Y-93843773D01*
X142936204Y-93819505D01*
X142935000Y-93795001D01*
X142935000Y-92894999D01*
X142936204Y-92870495D01*
X142939804Y-92846227D01*
X142945765Y-92822428D01*
X142954030Y-92799329D01*
X142964520Y-92777150D01*
X142977132Y-92756107D01*
X142991747Y-92736401D01*
X143008223Y-92718223D01*
X143026401Y-92701747D01*
X143046107Y-92687132D01*
X143067150Y-92674520D01*
X143089329Y-92664030D01*
X143112428Y-92655765D01*
X143136227Y-92649804D01*
X143160495Y-92646204D01*
X143184999Y-92645000D01*
X143835001Y-92645000D01*
X143859505Y-92646204D01*
X143859505Y-92646204D01*
G37*
D12*
X143510000Y-93345000D03*
G04 #@! TD*
D11*
G04 #@! TO.C,R11*
G36*
X146524505Y-97361204D02*
X146548773Y-97364804D01*
X146572572Y-97370765D01*
X146595671Y-97379030D01*
X146617850Y-97389520D01*
X146638893Y-97402132D01*
X146658599Y-97416747D01*
X146676777Y-97433223D01*
X146693253Y-97451401D01*
X146707868Y-97471107D01*
X146720480Y-97492150D01*
X146730970Y-97514329D01*
X146739235Y-97537428D01*
X146745196Y-97561227D01*
X146748796Y-97585495D01*
X146750000Y-97609999D01*
X146750000Y-98260001D01*
X146748796Y-98284505D01*
X146745196Y-98308773D01*
X146739235Y-98332572D01*
X146730970Y-98355671D01*
X146720480Y-98377850D01*
X146707868Y-98398893D01*
X146693253Y-98418599D01*
X146676777Y-98436777D01*
X146658599Y-98453253D01*
X146638893Y-98467868D01*
X146617850Y-98480480D01*
X146595671Y-98490970D01*
X146572572Y-98499235D01*
X146548773Y-98505196D01*
X146524505Y-98508796D01*
X146500001Y-98510000D01*
X145599999Y-98510000D01*
X145575495Y-98508796D01*
X145551227Y-98505196D01*
X145527428Y-98499235D01*
X145504329Y-98490970D01*
X145482150Y-98480480D01*
X145461107Y-98467868D01*
X145441401Y-98453253D01*
X145423223Y-98436777D01*
X145406747Y-98418599D01*
X145392132Y-98398893D01*
X145379520Y-98377850D01*
X145369030Y-98355671D01*
X145360765Y-98332572D01*
X145354804Y-98308773D01*
X145351204Y-98284505D01*
X145350000Y-98260001D01*
X145350000Y-97609999D01*
X145351204Y-97585495D01*
X145354804Y-97561227D01*
X145360765Y-97537428D01*
X145369030Y-97514329D01*
X145379520Y-97492150D01*
X145392132Y-97471107D01*
X145406747Y-97451401D01*
X145423223Y-97433223D01*
X145441401Y-97416747D01*
X145461107Y-97402132D01*
X145482150Y-97389520D01*
X145504329Y-97379030D01*
X145527428Y-97370765D01*
X145551227Y-97364804D01*
X145575495Y-97361204D01*
X145599999Y-97360000D01*
X146500001Y-97360000D01*
X146524505Y-97361204D01*
X146524505Y-97361204D01*
G37*
D12*
X146050000Y-97935000D03*
D11*
G36*
X146524505Y-95311204D02*
X146548773Y-95314804D01*
X146572572Y-95320765D01*
X146595671Y-95329030D01*
X146617850Y-95339520D01*
X146638893Y-95352132D01*
X146658599Y-95366747D01*
X146676777Y-95383223D01*
X146693253Y-95401401D01*
X146707868Y-95421107D01*
X146720480Y-95442150D01*
X146730970Y-95464329D01*
X146739235Y-95487428D01*
X146745196Y-95511227D01*
X146748796Y-95535495D01*
X146750000Y-95559999D01*
X146750000Y-96210001D01*
X146748796Y-96234505D01*
X146745196Y-96258773D01*
X146739235Y-96282572D01*
X146730970Y-96305671D01*
X146720480Y-96327850D01*
X146707868Y-96348893D01*
X146693253Y-96368599D01*
X146676777Y-96386777D01*
X146658599Y-96403253D01*
X146638893Y-96417868D01*
X146617850Y-96430480D01*
X146595671Y-96440970D01*
X146572572Y-96449235D01*
X146548773Y-96455196D01*
X146524505Y-96458796D01*
X146500001Y-96460000D01*
X145599999Y-96460000D01*
X145575495Y-96458796D01*
X145551227Y-96455196D01*
X145527428Y-96449235D01*
X145504329Y-96440970D01*
X145482150Y-96430480D01*
X145461107Y-96417868D01*
X145441401Y-96403253D01*
X145423223Y-96386777D01*
X145406747Y-96368599D01*
X145392132Y-96348893D01*
X145379520Y-96327850D01*
X145369030Y-96305671D01*
X145360765Y-96282572D01*
X145354804Y-96258773D01*
X145351204Y-96234505D01*
X145350000Y-96210001D01*
X145350000Y-95559999D01*
X145351204Y-95535495D01*
X145354804Y-95511227D01*
X145360765Y-95487428D01*
X145369030Y-95464329D01*
X145379520Y-95442150D01*
X145392132Y-95421107D01*
X145406747Y-95401401D01*
X145423223Y-95383223D01*
X145441401Y-95366747D01*
X145461107Y-95352132D01*
X145482150Y-95339520D01*
X145504329Y-95329030D01*
X145527428Y-95320765D01*
X145551227Y-95314804D01*
X145575495Y-95311204D01*
X145599999Y-95310000D01*
X146500001Y-95310000D01*
X146524505Y-95311204D01*
X146524505Y-95311204D01*
G37*
D12*
X146050000Y-95885000D03*
G04 #@! TD*
D11*
G04 #@! TO.C,R12*
G36*
X159224505Y-93406204D02*
X159248773Y-93409804D01*
X159272572Y-93415765D01*
X159295671Y-93424030D01*
X159317850Y-93434520D01*
X159338893Y-93447132D01*
X159358599Y-93461747D01*
X159376777Y-93478223D01*
X159393253Y-93496401D01*
X159407868Y-93516107D01*
X159420480Y-93537150D01*
X159430970Y-93559329D01*
X159439235Y-93582428D01*
X159445196Y-93606227D01*
X159448796Y-93630495D01*
X159450000Y-93654999D01*
X159450000Y-94305001D01*
X159448796Y-94329505D01*
X159445196Y-94353773D01*
X159439235Y-94377572D01*
X159430970Y-94400671D01*
X159420480Y-94422850D01*
X159407868Y-94443893D01*
X159393253Y-94463599D01*
X159376777Y-94481777D01*
X159358599Y-94498253D01*
X159338893Y-94512868D01*
X159317850Y-94525480D01*
X159295671Y-94535970D01*
X159272572Y-94544235D01*
X159248773Y-94550196D01*
X159224505Y-94553796D01*
X159200001Y-94555000D01*
X158299999Y-94555000D01*
X158275495Y-94553796D01*
X158251227Y-94550196D01*
X158227428Y-94544235D01*
X158204329Y-94535970D01*
X158182150Y-94525480D01*
X158161107Y-94512868D01*
X158141401Y-94498253D01*
X158123223Y-94481777D01*
X158106747Y-94463599D01*
X158092132Y-94443893D01*
X158079520Y-94422850D01*
X158069030Y-94400671D01*
X158060765Y-94377572D01*
X158054804Y-94353773D01*
X158051204Y-94329505D01*
X158050000Y-94305001D01*
X158050000Y-93654999D01*
X158051204Y-93630495D01*
X158054804Y-93606227D01*
X158060765Y-93582428D01*
X158069030Y-93559329D01*
X158079520Y-93537150D01*
X158092132Y-93516107D01*
X158106747Y-93496401D01*
X158123223Y-93478223D01*
X158141401Y-93461747D01*
X158161107Y-93447132D01*
X158182150Y-93434520D01*
X158204329Y-93424030D01*
X158227428Y-93415765D01*
X158251227Y-93409804D01*
X158275495Y-93406204D01*
X158299999Y-93405000D01*
X159200001Y-93405000D01*
X159224505Y-93406204D01*
X159224505Y-93406204D01*
G37*
D12*
X158750000Y-93980000D03*
D11*
G36*
X159224505Y-91356204D02*
X159248773Y-91359804D01*
X159272572Y-91365765D01*
X159295671Y-91374030D01*
X159317850Y-91384520D01*
X159338893Y-91397132D01*
X159358599Y-91411747D01*
X159376777Y-91428223D01*
X159393253Y-91446401D01*
X159407868Y-91466107D01*
X159420480Y-91487150D01*
X159430970Y-91509329D01*
X159439235Y-91532428D01*
X159445196Y-91556227D01*
X159448796Y-91580495D01*
X159450000Y-91604999D01*
X159450000Y-92255001D01*
X159448796Y-92279505D01*
X159445196Y-92303773D01*
X159439235Y-92327572D01*
X159430970Y-92350671D01*
X159420480Y-92372850D01*
X159407868Y-92393893D01*
X159393253Y-92413599D01*
X159376777Y-92431777D01*
X159358599Y-92448253D01*
X159338893Y-92462868D01*
X159317850Y-92475480D01*
X159295671Y-92485970D01*
X159272572Y-92494235D01*
X159248773Y-92500196D01*
X159224505Y-92503796D01*
X159200001Y-92505000D01*
X158299999Y-92505000D01*
X158275495Y-92503796D01*
X158251227Y-92500196D01*
X158227428Y-92494235D01*
X158204329Y-92485970D01*
X158182150Y-92475480D01*
X158161107Y-92462868D01*
X158141401Y-92448253D01*
X158123223Y-92431777D01*
X158106747Y-92413599D01*
X158092132Y-92393893D01*
X158079520Y-92372850D01*
X158069030Y-92350671D01*
X158060765Y-92327572D01*
X158054804Y-92303773D01*
X158051204Y-92279505D01*
X158050000Y-92255001D01*
X158050000Y-91604999D01*
X158051204Y-91580495D01*
X158054804Y-91556227D01*
X158060765Y-91532428D01*
X158069030Y-91509329D01*
X158079520Y-91487150D01*
X158092132Y-91466107D01*
X158106747Y-91446401D01*
X158123223Y-91428223D01*
X158141401Y-91411747D01*
X158161107Y-91397132D01*
X158182150Y-91384520D01*
X158204329Y-91374030D01*
X158227428Y-91365765D01*
X158251227Y-91359804D01*
X158275495Y-91356204D01*
X158299999Y-91355000D01*
X159200001Y-91355000D01*
X159224505Y-91356204D01*
X159224505Y-91356204D01*
G37*
D12*
X158750000Y-91930000D03*
G04 #@! TD*
D11*
G04 #@! TO.C,R13*
G36*
X161639505Y-93281204D02*
X161663773Y-93284804D01*
X161687572Y-93290765D01*
X161710671Y-93299030D01*
X161732850Y-93309520D01*
X161753893Y-93322132D01*
X161773599Y-93336747D01*
X161791777Y-93353223D01*
X161808253Y-93371401D01*
X161822868Y-93391107D01*
X161835480Y-93412150D01*
X161845970Y-93434329D01*
X161854235Y-93457428D01*
X161860196Y-93481227D01*
X161863796Y-93505495D01*
X161865000Y-93529999D01*
X161865000Y-94430001D01*
X161863796Y-94454505D01*
X161860196Y-94478773D01*
X161854235Y-94502572D01*
X161845970Y-94525671D01*
X161835480Y-94547850D01*
X161822868Y-94568893D01*
X161808253Y-94588599D01*
X161791777Y-94606777D01*
X161773599Y-94623253D01*
X161753893Y-94637868D01*
X161732850Y-94650480D01*
X161710671Y-94660970D01*
X161687572Y-94669235D01*
X161663773Y-94675196D01*
X161639505Y-94678796D01*
X161615001Y-94680000D01*
X160964999Y-94680000D01*
X160940495Y-94678796D01*
X160916227Y-94675196D01*
X160892428Y-94669235D01*
X160869329Y-94660970D01*
X160847150Y-94650480D01*
X160826107Y-94637868D01*
X160806401Y-94623253D01*
X160788223Y-94606777D01*
X160771747Y-94588599D01*
X160757132Y-94568893D01*
X160744520Y-94547850D01*
X160734030Y-94525671D01*
X160725765Y-94502572D01*
X160719804Y-94478773D01*
X160716204Y-94454505D01*
X160715000Y-94430001D01*
X160715000Y-93529999D01*
X160716204Y-93505495D01*
X160719804Y-93481227D01*
X160725765Y-93457428D01*
X160734030Y-93434329D01*
X160744520Y-93412150D01*
X160757132Y-93391107D01*
X160771747Y-93371401D01*
X160788223Y-93353223D01*
X160806401Y-93336747D01*
X160826107Y-93322132D01*
X160847150Y-93309520D01*
X160869329Y-93299030D01*
X160892428Y-93290765D01*
X160916227Y-93284804D01*
X160940495Y-93281204D01*
X160964999Y-93280000D01*
X161615001Y-93280000D01*
X161639505Y-93281204D01*
X161639505Y-93281204D01*
G37*
D12*
X161290000Y-93980000D03*
D11*
G36*
X163689505Y-93281204D02*
X163713773Y-93284804D01*
X163737572Y-93290765D01*
X163760671Y-93299030D01*
X163782850Y-93309520D01*
X163803893Y-93322132D01*
X163823599Y-93336747D01*
X163841777Y-93353223D01*
X163858253Y-93371401D01*
X163872868Y-93391107D01*
X163885480Y-93412150D01*
X163895970Y-93434329D01*
X163904235Y-93457428D01*
X163910196Y-93481227D01*
X163913796Y-93505495D01*
X163915000Y-93529999D01*
X163915000Y-94430001D01*
X163913796Y-94454505D01*
X163910196Y-94478773D01*
X163904235Y-94502572D01*
X163895970Y-94525671D01*
X163885480Y-94547850D01*
X163872868Y-94568893D01*
X163858253Y-94588599D01*
X163841777Y-94606777D01*
X163823599Y-94623253D01*
X163803893Y-94637868D01*
X163782850Y-94650480D01*
X163760671Y-94660970D01*
X163737572Y-94669235D01*
X163713773Y-94675196D01*
X163689505Y-94678796D01*
X163665001Y-94680000D01*
X163014999Y-94680000D01*
X162990495Y-94678796D01*
X162966227Y-94675196D01*
X162942428Y-94669235D01*
X162919329Y-94660970D01*
X162897150Y-94650480D01*
X162876107Y-94637868D01*
X162856401Y-94623253D01*
X162838223Y-94606777D01*
X162821747Y-94588599D01*
X162807132Y-94568893D01*
X162794520Y-94547850D01*
X162784030Y-94525671D01*
X162775765Y-94502572D01*
X162769804Y-94478773D01*
X162766204Y-94454505D01*
X162765000Y-94430001D01*
X162765000Y-93529999D01*
X162766204Y-93505495D01*
X162769804Y-93481227D01*
X162775765Y-93457428D01*
X162784030Y-93434329D01*
X162794520Y-93412150D01*
X162807132Y-93391107D01*
X162821747Y-93371401D01*
X162838223Y-93353223D01*
X162856401Y-93336747D01*
X162876107Y-93322132D01*
X162897150Y-93309520D01*
X162919329Y-93299030D01*
X162942428Y-93290765D01*
X162966227Y-93284804D01*
X162990495Y-93281204D01*
X163014999Y-93280000D01*
X163665001Y-93280000D01*
X163689505Y-93281204D01*
X163689505Y-93281204D01*
G37*
D12*
X163340000Y-93980000D03*
G04 #@! TD*
D11*
G04 #@! TO.C,R14*
G36*
X157194505Y-85661204D02*
X157218773Y-85664804D01*
X157242572Y-85670765D01*
X157265671Y-85679030D01*
X157287850Y-85689520D01*
X157308893Y-85702132D01*
X157328599Y-85716747D01*
X157346777Y-85733223D01*
X157363253Y-85751401D01*
X157377868Y-85771107D01*
X157390480Y-85792150D01*
X157400970Y-85814329D01*
X157409235Y-85837428D01*
X157415196Y-85861227D01*
X157418796Y-85885495D01*
X157420000Y-85909999D01*
X157420000Y-86810001D01*
X157418796Y-86834505D01*
X157415196Y-86858773D01*
X157409235Y-86882572D01*
X157400970Y-86905671D01*
X157390480Y-86927850D01*
X157377868Y-86948893D01*
X157363253Y-86968599D01*
X157346777Y-86986777D01*
X157328599Y-87003253D01*
X157308893Y-87017868D01*
X157287850Y-87030480D01*
X157265671Y-87040970D01*
X157242572Y-87049235D01*
X157218773Y-87055196D01*
X157194505Y-87058796D01*
X157170001Y-87060000D01*
X156519999Y-87060000D01*
X156495495Y-87058796D01*
X156471227Y-87055196D01*
X156447428Y-87049235D01*
X156424329Y-87040970D01*
X156402150Y-87030480D01*
X156381107Y-87017868D01*
X156361401Y-87003253D01*
X156343223Y-86986777D01*
X156326747Y-86968599D01*
X156312132Y-86948893D01*
X156299520Y-86927850D01*
X156289030Y-86905671D01*
X156280765Y-86882572D01*
X156274804Y-86858773D01*
X156271204Y-86834505D01*
X156270000Y-86810001D01*
X156270000Y-85909999D01*
X156271204Y-85885495D01*
X156274804Y-85861227D01*
X156280765Y-85837428D01*
X156289030Y-85814329D01*
X156299520Y-85792150D01*
X156312132Y-85771107D01*
X156326747Y-85751401D01*
X156343223Y-85733223D01*
X156361401Y-85716747D01*
X156381107Y-85702132D01*
X156402150Y-85689520D01*
X156424329Y-85679030D01*
X156447428Y-85670765D01*
X156471227Y-85664804D01*
X156495495Y-85661204D01*
X156519999Y-85660000D01*
X157170001Y-85660000D01*
X157194505Y-85661204D01*
X157194505Y-85661204D01*
G37*
D12*
X156845000Y-86360000D03*
D11*
G36*
X159244505Y-85661204D02*
X159268773Y-85664804D01*
X159292572Y-85670765D01*
X159315671Y-85679030D01*
X159337850Y-85689520D01*
X159358893Y-85702132D01*
X159378599Y-85716747D01*
X159396777Y-85733223D01*
X159413253Y-85751401D01*
X159427868Y-85771107D01*
X159440480Y-85792150D01*
X159450970Y-85814329D01*
X159459235Y-85837428D01*
X159465196Y-85861227D01*
X159468796Y-85885495D01*
X159470000Y-85909999D01*
X159470000Y-86810001D01*
X159468796Y-86834505D01*
X159465196Y-86858773D01*
X159459235Y-86882572D01*
X159450970Y-86905671D01*
X159440480Y-86927850D01*
X159427868Y-86948893D01*
X159413253Y-86968599D01*
X159396777Y-86986777D01*
X159378599Y-87003253D01*
X159358893Y-87017868D01*
X159337850Y-87030480D01*
X159315671Y-87040970D01*
X159292572Y-87049235D01*
X159268773Y-87055196D01*
X159244505Y-87058796D01*
X159220001Y-87060000D01*
X158569999Y-87060000D01*
X158545495Y-87058796D01*
X158521227Y-87055196D01*
X158497428Y-87049235D01*
X158474329Y-87040970D01*
X158452150Y-87030480D01*
X158431107Y-87017868D01*
X158411401Y-87003253D01*
X158393223Y-86986777D01*
X158376747Y-86968599D01*
X158362132Y-86948893D01*
X158349520Y-86927850D01*
X158339030Y-86905671D01*
X158330765Y-86882572D01*
X158324804Y-86858773D01*
X158321204Y-86834505D01*
X158320000Y-86810001D01*
X158320000Y-85909999D01*
X158321204Y-85885495D01*
X158324804Y-85861227D01*
X158330765Y-85837428D01*
X158339030Y-85814329D01*
X158349520Y-85792150D01*
X158362132Y-85771107D01*
X158376747Y-85751401D01*
X158393223Y-85733223D01*
X158411401Y-85716747D01*
X158431107Y-85702132D01*
X158452150Y-85689520D01*
X158474329Y-85679030D01*
X158497428Y-85670765D01*
X158521227Y-85664804D01*
X158545495Y-85661204D01*
X158569999Y-85660000D01*
X159220001Y-85660000D01*
X159244505Y-85661204D01*
X159244505Y-85661204D01*
G37*
D12*
X158895000Y-86360000D03*
G04 #@! TD*
D11*
G04 #@! TO.C,R15*
G36*
X149429505Y-83756204D02*
X149453773Y-83759804D01*
X149477572Y-83765765D01*
X149500671Y-83774030D01*
X149522850Y-83784520D01*
X149543893Y-83797132D01*
X149563599Y-83811747D01*
X149581777Y-83828223D01*
X149598253Y-83846401D01*
X149612868Y-83866107D01*
X149625480Y-83887150D01*
X149635970Y-83909329D01*
X149644235Y-83932428D01*
X149650196Y-83956227D01*
X149653796Y-83980495D01*
X149655000Y-84004999D01*
X149655000Y-84905001D01*
X149653796Y-84929505D01*
X149650196Y-84953773D01*
X149644235Y-84977572D01*
X149635970Y-85000671D01*
X149625480Y-85022850D01*
X149612868Y-85043893D01*
X149598253Y-85063599D01*
X149581777Y-85081777D01*
X149563599Y-85098253D01*
X149543893Y-85112868D01*
X149522850Y-85125480D01*
X149500671Y-85135970D01*
X149477572Y-85144235D01*
X149453773Y-85150196D01*
X149429505Y-85153796D01*
X149405001Y-85155000D01*
X148754999Y-85155000D01*
X148730495Y-85153796D01*
X148706227Y-85150196D01*
X148682428Y-85144235D01*
X148659329Y-85135970D01*
X148637150Y-85125480D01*
X148616107Y-85112868D01*
X148596401Y-85098253D01*
X148578223Y-85081777D01*
X148561747Y-85063599D01*
X148547132Y-85043893D01*
X148534520Y-85022850D01*
X148524030Y-85000671D01*
X148515765Y-84977572D01*
X148509804Y-84953773D01*
X148506204Y-84929505D01*
X148505000Y-84905001D01*
X148505000Y-84004999D01*
X148506204Y-83980495D01*
X148509804Y-83956227D01*
X148515765Y-83932428D01*
X148524030Y-83909329D01*
X148534520Y-83887150D01*
X148547132Y-83866107D01*
X148561747Y-83846401D01*
X148578223Y-83828223D01*
X148596401Y-83811747D01*
X148616107Y-83797132D01*
X148637150Y-83784520D01*
X148659329Y-83774030D01*
X148682428Y-83765765D01*
X148706227Y-83759804D01*
X148730495Y-83756204D01*
X148754999Y-83755000D01*
X149405001Y-83755000D01*
X149429505Y-83756204D01*
X149429505Y-83756204D01*
G37*
D12*
X149080000Y-84455000D03*
D11*
G36*
X151479505Y-83756204D02*
X151503773Y-83759804D01*
X151527572Y-83765765D01*
X151550671Y-83774030D01*
X151572850Y-83784520D01*
X151593893Y-83797132D01*
X151613599Y-83811747D01*
X151631777Y-83828223D01*
X151648253Y-83846401D01*
X151662868Y-83866107D01*
X151675480Y-83887150D01*
X151685970Y-83909329D01*
X151694235Y-83932428D01*
X151700196Y-83956227D01*
X151703796Y-83980495D01*
X151705000Y-84004999D01*
X151705000Y-84905001D01*
X151703796Y-84929505D01*
X151700196Y-84953773D01*
X151694235Y-84977572D01*
X151685970Y-85000671D01*
X151675480Y-85022850D01*
X151662868Y-85043893D01*
X151648253Y-85063599D01*
X151631777Y-85081777D01*
X151613599Y-85098253D01*
X151593893Y-85112868D01*
X151572850Y-85125480D01*
X151550671Y-85135970D01*
X151527572Y-85144235D01*
X151503773Y-85150196D01*
X151479505Y-85153796D01*
X151455001Y-85155000D01*
X150804999Y-85155000D01*
X150780495Y-85153796D01*
X150756227Y-85150196D01*
X150732428Y-85144235D01*
X150709329Y-85135970D01*
X150687150Y-85125480D01*
X150666107Y-85112868D01*
X150646401Y-85098253D01*
X150628223Y-85081777D01*
X150611747Y-85063599D01*
X150597132Y-85043893D01*
X150584520Y-85022850D01*
X150574030Y-85000671D01*
X150565765Y-84977572D01*
X150559804Y-84953773D01*
X150556204Y-84929505D01*
X150555000Y-84905001D01*
X150555000Y-84004999D01*
X150556204Y-83980495D01*
X150559804Y-83956227D01*
X150565765Y-83932428D01*
X150574030Y-83909329D01*
X150584520Y-83887150D01*
X150597132Y-83866107D01*
X150611747Y-83846401D01*
X150628223Y-83828223D01*
X150646401Y-83811747D01*
X150666107Y-83797132D01*
X150687150Y-83784520D01*
X150709329Y-83774030D01*
X150732428Y-83765765D01*
X150756227Y-83759804D01*
X150780495Y-83756204D01*
X150804999Y-83755000D01*
X151455001Y-83755000D01*
X151479505Y-83756204D01*
X151479505Y-83756204D01*
G37*
D12*
X151130000Y-84455000D03*
G04 #@! TD*
D11*
G04 #@! TO.C,R16*
G36*
X159879505Y-104711204D02*
X159903773Y-104714804D01*
X159927572Y-104720765D01*
X159950671Y-104729030D01*
X159972850Y-104739520D01*
X159993893Y-104752132D01*
X160013599Y-104766747D01*
X160031777Y-104783223D01*
X160048253Y-104801401D01*
X160062868Y-104821107D01*
X160075480Y-104842150D01*
X160085970Y-104864329D01*
X160094235Y-104887428D01*
X160100196Y-104911227D01*
X160103796Y-104935495D01*
X160105000Y-104959999D01*
X160105000Y-105860001D01*
X160103796Y-105884505D01*
X160100196Y-105908773D01*
X160094235Y-105932572D01*
X160085970Y-105955671D01*
X160075480Y-105977850D01*
X160062868Y-105998893D01*
X160048253Y-106018599D01*
X160031777Y-106036777D01*
X160013599Y-106053253D01*
X159993893Y-106067868D01*
X159972850Y-106080480D01*
X159950671Y-106090970D01*
X159927572Y-106099235D01*
X159903773Y-106105196D01*
X159879505Y-106108796D01*
X159855001Y-106110000D01*
X159204999Y-106110000D01*
X159180495Y-106108796D01*
X159156227Y-106105196D01*
X159132428Y-106099235D01*
X159109329Y-106090970D01*
X159087150Y-106080480D01*
X159066107Y-106067868D01*
X159046401Y-106053253D01*
X159028223Y-106036777D01*
X159011747Y-106018599D01*
X158997132Y-105998893D01*
X158984520Y-105977850D01*
X158974030Y-105955671D01*
X158965765Y-105932572D01*
X158959804Y-105908773D01*
X158956204Y-105884505D01*
X158955000Y-105860001D01*
X158955000Y-104959999D01*
X158956204Y-104935495D01*
X158959804Y-104911227D01*
X158965765Y-104887428D01*
X158974030Y-104864329D01*
X158984520Y-104842150D01*
X158997132Y-104821107D01*
X159011747Y-104801401D01*
X159028223Y-104783223D01*
X159046401Y-104766747D01*
X159066107Y-104752132D01*
X159087150Y-104739520D01*
X159109329Y-104729030D01*
X159132428Y-104720765D01*
X159156227Y-104714804D01*
X159180495Y-104711204D01*
X159204999Y-104710000D01*
X159855001Y-104710000D01*
X159879505Y-104711204D01*
X159879505Y-104711204D01*
G37*
D12*
X159530000Y-105410000D03*
D11*
G36*
X157829505Y-104711204D02*
X157853773Y-104714804D01*
X157877572Y-104720765D01*
X157900671Y-104729030D01*
X157922850Y-104739520D01*
X157943893Y-104752132D01*
X157963599Y-104766747D01*
X157981777Y-104783223D01*
X157998253Y-104801401D01*
X158012868Y-104821107D01*
X158025480Y-104842150D01*
X158035970Y-104864329D01*
X158044235Y-104887428D01*
X158050196Y-104911227D01*
X158053796Y-104935495D01*
X158055000Y-104959999D01*
X158055000Y-105860001D01*
X158053796Y-105884505D01*
X158050196Y-105908773D01*
X158044235Y-105932572D01*
X158035970Y-105955671D01*
X158025480Y-105977850D01*
X158012868Y-105998893D01*
X157998253Y-106018599D01*
X157981777Y-106036777D01*
X157963599Y-106053253D01*
X157943893Y-106067868D01*
X157922850Y-106080480D01*
X157900671Y-106090970D01*
X157877572Y-106099235D01*
X157853773Y-106105196D01*
X157829505Y-106108796D01*
X157805001Y-106110000D01*
X157154999Y-106110000D01*
X157130495Y-106108796D01*
X157106227Y-106105196D01*
X157082428Y-106099235D01*
X157059329Y-106090970D01*
X157037150Y-106080480D01*
X157016107Y-106067868D01*
X156996401Y-106053253D01*
X156978223Y-106036777D01*
X156961747Y-106018599D01*
X156947132Y-105998893D01*
X156934520Y-105977850D01*
X156924030Y-105955671D01*
X156915765Y-105932572D01*
X156909804Y-105908773D01*
X156906204Y-105884505D01*
X156905000Y-105860001D01*
X156905000Y-104959999D01*
X156906204Y-104935495D01*
X156909804Y-104911227D01*
X156915765Y-104887428D01*
X156924030Y-104864329D01*
X156934520Y-104842150D01*
X156947132Y-104821107D01*
X156961747Y-104801401D01*
X156978223Y-104783223D01*
X156996401Y-104766747D01*
X157016107Y-104752132D01*
X157037150Y-104739520D01*
X157059329Y-104729030D01*
X157082428Y-104720765D01*
X157106227Y-104714804D01*
X157130495Y-104711204D01*
X157154999Y-104710000D01*
X157805001Y-104710000D01*
X157829505Y-104711204D01*
X157829505Y-104711204D01*
G37*
D12*
X157480000Y-105410000D03*
G04 #@! TD*
D15*
G04 #@! TO.C,RV1*
X132695000Y-83460000D03*
D16*
X131445000Y-86360000D03*
D15*
X130195000Y-83460000D03*
G04 #@! TD*
G04 #@! TO.C,RV2*
X154920000Y-106405000D03*
D16*
X153670000Y-103505000D03*
D15*
X152420000Y-106405000D03*
G04 #@! TD*
D17*
G04 #@! TO.C,SW1*
X111125000Y-74295000D03*
X120015000Y-81915000D03*
X111125000Y-76835000D03*
X120015000Y-79375000D03*
X111125000Y-79375000D03*
X120015000Y-76835000D03*
X111125000Y-81915000D03*
X120015000Y-74295000D03*
G04 #@! TD*
D18*
G04 #@! TO.C,U2*
X151765000Y-93185000D03*
X153035000Y-93185000D03*
X154305000Y-93185000D03*
X155575000Y-93185000D03*
X155575000Y-98585000D03*
X154305000Y-98585000D03*
X153035000Y-98585000D03*
X151765000Y-98585000D03*
G04 #@! TD*
D19*
G04 #@! TO.C,U3*
X180975000Y-80940000D03*
X181925000Y-80940000D03*
X182875000Y-80940000D03*
X182875000Y-78740000D03*
X180975000Y-78740000D03*
G04 #@! TD*
D11*
G04 #@! TO.C,C3*
G36*
X128584504Y-100291204D02*
X128608773Y-100294804D01*
X128632571Y-100300765D01*
X128655671Y-100309030D01*
X128677849Y-100319520D01*
X128698893Y-100332133D01*
X128718598Y-100346747D01*
X128736777Y-100363223D01*
X128753253Y-100381402D01*
X128767867Y-100401107D01*
X128780480Y-100422151D01*
X128790970Y-100444329D01*
X128799235Y-100467429D01*
X128805196Y-100491227D01*
X128808796Y-100515496D01*
X128810000Y-100540000D01*
X128810000Y-101540000D01*
X128808796Y-101564504D01*
X128805196Y-101588773D01*
X128799235Y-101612571D01*
X128790970Y-101635671D01*
X128780480Y-101657849D01*
X128767867Y-101678893D01*
X128753253Y-101698598D01*
X128736777Y-101716777D01*
X128718598Y-101733253D01*
X128698893Y-101747867D01*
X128677849Y-101760480D01*
X128655671Y-101770970D01*
X128632571Y-101779235D01*
X128608773Y-101785196D01*
X128584504Y-101788796D01*
X128560000Y-101790000D01*
X126710000Y-101790000D01*
X126685496Y-101788796D01*
X126661227Y-101785196D01*
X126637429Y-101779235D01*
X126614329Y-101770970D01*
X126592151Y-101760480D01*
X126571107Y-101747867D01*
X126551402Y-101733253D01*
X126533223Y-101716777D01*
X126516747Y-101698598D01*
X126502133Y-101678893D01*
X126489520Y-101657849D01*
X126479030Y-101635671D01*
X126470765Y-101612571D01*
X126464804Y-101588773D01*
X126461204Y-101564504D01*
X126460000Y-101540000D01*
X126460000Y-100540000D01*
X126461204Y-100515496D01*
X126464804Y-100491227D01*
X126470765Y-100467429D01*
X126479030Y-100444329D01*
X126489520Y-100422151D01*
X126502133Y-100401107D01*
X126516747Y-100381402D01*
X126533223Y-100363223D01*
X126551402Y-100346747D01*
X126571107Y-100332133D01*
X126592151Y-100319520D01*
X126614329Y-100309030D01*
X126637429Y-100300765D01*
X126661227Y-100294804D01*
X126685496Y-100291204D01*
X126710000Y-100290000D01*
X128560000Y-100290000D01*
X128584504Y-100291204D01*
X128584504Y-100291204D01*
G37*
D20*
X127635000Y-101040000D03*
D11*
G36*
X128584504Y-97041204D02*
X128608773Y-97044804D01*
X128632571Y-97050765D01*
X128655671Y-97059030D01*
X128677849Y-97069520D01*
X128698893Y-97082133D01*
X128718598Y-97096747D01*
X128736777Y-97113223D01*
X128753253Y-97131402D01*
X128767867Y-97151107D01*
X128780480Y-97172151D01*
X128790970Y-97194329D01*
X128799235Y-97217429D01*
X128805196Y-97241227D01*
X128808796Y-97265496D01*
X128810000Y-97290000D01*
X128810000Y-98290000D01*
X128808796Y-98314504D01*
X128805196Y-98338773D01*
X128799235Y-98362571D01*
X128790970Y-98385671D01*
X128780480Y-98407849D01*
X128767867Y-98428893D01*
X128753253Y-98448598D01*
X128736777Y-98466777D01*
X128718598Y-98483253D01*
X128698893Y-98497867D01*
X128677849Y-98510480D01*
X128655671Y-98520970D01*
X128632571Y-98529235D01*
X128608773Y-98535196D01*
X128584504Y-98538796D01*
X128560000Y-98540000D01*
X126710000Y-98540000D01*
X126685496Y-98538796D01*
X126661227Y-98535196D01*
X126637429Y-98529235D01*
X126614329Y-98520970D01*
X126592151Y-98510480D01*
X126571107Y-98497867D01*
X126551402Y-98483253D01*
X126533223Y-98466777D01*
X126516747Y-98448598D01*
X126502133Y-98428893D01*
X126489520Y-98407849D01*
X126479030Y-98385671D01*
X126470765Y-98362571D01*
X126464804Y-98338773D01*
X126461204Y-98314504D01*
X126460000Y-98290000D01*
X126460000Y-97290000D01*
X126461204Y-97265496D01*
X126464804Y-97241227D01*
X126470765Y-97217429D01*
X126479030Y-97194329D01*
X126489520Y-97172151D01*
X126502133Y-97151107D01*
X126516747Y-97131402D01*
X126533223Y-97113223D01*
X126551402Y-97096747D01*
X126571107Y-97082133D01*
X126592151Y-97069520D01*
X126614329Y-97059030D01*
X126637429Y-97050765D01*
X126661227Y-97044804D01*
X126685496Y-97041204D01*
X126710000Y-97040000D01*
X128560000Y-97040000D01*
X128584504Y-97041204D01*
X128584504Y-97041204D01*
G37*
D20*
X127635000Y-97790000D03*
G04 #@! TD*
D11*
G04 #@! TO.C,C5*
G36*
X136204504Y-87796204D02*
X136228773Y-87799804D01*
X136252571Y-87805765D01*
X136275671Y-87814030D01*
X136297849Y-87824520D01*
X136318893Y-87837133D01*
X136338598Y-87851747D01*
X136356777Y-87868223D01*
X136373253Y-87886402D01*
X136387867Y-87906107D01*
X136400480Y-87927151D01*
X136410970Y-87949329D01*
X136419235Y-87972429D01*
X136425196Y-87996227D01*
X136428796Y-88020496D01*
X136430000Y-88045000D01*
X136430000Y-89045000D01*
X136428796Y-89069504D01*
X136425196Y-89093773D01*
X136419235Y-89117571D01*
X136410970Y-89140671D01*
X136400480Y-89162849D01*
X136387867Y-89183893D01*
X136373253Y-89203598D01*
X136356777Y-89221777D01*
X136338598Y-89238253D01*
X136318893Y-89252867D01*
X136297849Y-89265480D01*
X136275671Y-89275970D01*
X136252571Y-89284235D01*
X136228773Y-89290196D01*
X136204504Y-89293796D01*
X136180000Y-89295000D01*
X134330000Y-89295000D01*
X134305496Y-89293796D01*
X134281227Y-89290196D01*
X134257429Y-89284235D01*
X134234329Y-89275970D01*
X134212151Y-89265480D01*
X134191107Y-89252867D01*
X134171402Y-89238253D01*
X134153223Y-89221777D01*
X134136747Y-89203598D01*
X134122133Y-89183893D01*
X134109520Y-89162849D01*
X134099030Y-89140671D01*
X134090765Y-89117571D01*
X134084804Y-89093773D01*
X134081204Y-89069504D01*
X134080000Y-89045000D01*
X134080000Y-88045000D01*
X134081204Y-88020496D01*
X134084804Y-87996227D01*
X134090765Y-87972429D01*
X134099030Y-87949329D01*
X134109520Y-87927151D01*
X134122133Y-87906107D01*
X134136747Y-87886402D01*
X134153223Y-87868223D01*
X134171402Y-87851747D01*
X134191107Y-87837133D01*
X134212151Y-87824520D01*
X134234329Y-87814030D01*
X134257429Y-87805765D01*
X134281227Y-87799804D01*
X134305496Y-87796204D01*
X134330000Y-87795000D01*
X136180000Y-87795000D01*
X136204504Y-87796204D01*
X136204504Y-87796204D01*
G37*
D20*
X135255000Y-88545000D03*
D11*
G36*
X136204504Y-91046204D02*
X136228773Y-91049804D01*
X136252571Y-91055765D01*
X136275671Y-91064030D01*
X136297849Y-91074520D01*
X136318893Y-91087133D01*
X136338598Y-91101747D01*
X136356777Y-91118223D01*
X136373253Y-91136402D01*
X136387867Y-91156107D01*
X136400480Y-91177151D01*
X136410970Y-91199329D01*
X136419235Y-91222429D01*
X136425196Y-91246227D01*
X136428796Y-91270496D01*
X136430000Y-91295000D01*
X136430000Y-92295000D01*
X136428796Y-92319504D01*
X136425196Y-92343773D01*
X136419235Y-92367571D01*
X136410970Y-92390671D01*
X136400480Y-92412849D01*
X136387867Y-92433893D01*
X136373253Y-92453598D01*
X136356777Y-92471777D01*
X136338598Y-92488253D01*
X136318893Y-92502867D01*
X136297849Y-92515480D01*
X136275671Y-92525970D01*
X136252571Y-92534235D01*
X136228773Y-92540196D01*
X136204504Y-92543796D01*
X136180000Y-92545000D01*
X134330000Y-92545000D01*
X134305496Y-92543796D01*
X134281227Y-92540196D01*
X134257429Y-92534235D01*
X134234329Y-92525970D01*
X134212151Y-92515480D01*
X134191107Y-92502867D01*
X134171402Y-92488253D01*
X134153223Y-92471777D01*
X134136747Y-92453598D01*
X134122133Y-92433893D01*
X134109520Y-92412849D01*
X134099030Y-92390671D01*
X134090765Y-92367571D01*
X134084804Y-92343773D01*
X134081204Y-92319504D01*
X134080000Y-92295000D01*
X134080000Y-91295000D01*
X134081204Y-91270496D01*
X134084804Y-91246227D01*
X134090765Y-91222429D01*
X134099030Y-91199329D01*
X134109520Y-91177151D01*
X134122133Y-91156107D01*
X134136747Y-91136402D01*
X134153223Y-91118223D01*
X134171402Y-91101747D01*
X134191107Y-91087133D01*
X134212151Y-91074520D01*
X134234329Y-91064030D01*
X134257429Y-91055765D01*
X134281227Y-91049804D01*
X134305496Y-91046204D01*
X134330000Y-91045000D01*
X136180000Y-91045000D01*
X136204504Y-91046204D01*
X136204504Y-91046204D01*
G37*
D20*
X135255000Y-91795000D03*
G04 #@! TD*
D11*
G04 #@! TO.C,C10*
G36*
X158004504Y-101061204D02*
X158028773Y-101064804D01*
X158052571Y-101070765D01*
X158075671Y-101079030D01*
X158097849Y-101089520D01*
X158118893Y-101102133D01*
X158138598Y-101116747D01*
X158156777Y-101133223D01*
X158173253Y-101151402D01*
X158187867Y-101171107D01*
X158200480Y-101192151D01*
X158210970Y-101214329D01*
X158219235Y-101237429D01*
X158225196Y-101261227D01*
X158228796Y-101285496D01*
X158230000Y-101310000D01*
X158230000Y-103160000D01*
X158228796Y-103184504D01*
X158225196Y-103208773D01*
X158219235Y-103232571D01*
X158210970Y-103255671D01*
X158200480Y-103277849D01*
X158187867Y-103298893D01*
X158173253Y-103318598D01*
X158156777Y-103336777D01*
X158138598Y-103353253D01*
X158118893Y-103367867D01*
X158097849Y-103380480D01*
X158075671Y-103390970D01*
X158052571Y-103399235D01*
X158028773Y-103405196D01*
X158004504Y-103408796D01*
X157980000Y-103410000D01*
X156980000Y-103410000D01*
X156955496Y-103408796D01*
X156931227Y-103405196D01*
X156907429Y-103399235D01*
X156884329Y-103390970D01*
X156862151Y-103380480D01*
X156841107Y-103367867D01*
X156821402Y-103353253D01*
X156803223Y-103336777D01*
X156786747Y-103318598D01*
X156772133Y-103298893D01*
X156759520Y-103277849D01*
X156749030Y-103255671D01*
X156740765Y-103232571D01*
X156734804Y-103208773D01*
X156731204Y-103184504D01*
X156730000Y-103160000D01*
X156730000Y-101310000D01*
X156731204Y-101285496D01*
X156734804Y-101261227D01*
X156740765Y-101237429D01*
X156749030Y-101214329D01*
X156759520Y-101192151D01*
X156772133Y-101171107D01*
X156786747Y-101151402D01*
X156803223Y-101133223D01*
X156821402Y-101116747D01*
X156841107Y-101102133D01*
X156862151Y-101089520D01*
X156884329Y-101079030D01*
X156907429Y-101070765D01*
X156931227Y-101064804D01*
X156955496Y-101061204D01*
X156980000Y-101060000D01*
X157980000Y-101060000D01*
X158004504Y-101061204D01*
X158004504Y-101061204D01*
G37*
D20*
X157480000Y-102235000D03*
D11*
G36*
X161254504Y-101061204D02*
X161278773Y-101064804D01*
X161302571Y-101070765D01*
X161325671Y-101079030D01*
X161347849Y-101089520D01*
X161368893Y-101102133D01*
X161388598Y-101116747D01*
X161406777Y-101133223D01*
X161423253Y-101151402D01*
X161437867Y-101171107D01*
X161450480Y-101192151D01*
X161460970Y-101214329D01*
X161469235Y-101237429D01*
X161475196Y-101261227D01*
X161478796Y-101285496D01*
X161480000Y-101310000D01*
X161480000Y-103160000D01*
X161478796Y-103184504D01*
X161475196Y-103208773D01*
X161469235Y-103232571D01*
X161460970Y-103255671D01*
X161450480Y-103277849D01*
X161437867Y-103298893D01*
X161423253Y-103318598D01*
X161406777Y-103336777D01*
X161388598Y-103353253D01*
X161368893Y-103367867D01*
X161347849Y-103380480D01*
X161325671Y-103390970D01*
X161302571Y-103399235D01*
X161278773Y-103405196D01*
X161254504Y-103408796D01*
X161230000Y-103410000D01*
X160230000Y-103410000D01*
X160205496Y-103408796D01*
X160181227Y-103405196D01*
X160157429Y-103399235D01*
X160134329Y-103390970D01*
X160112151Y-103380480D01*
X160091107Y-103367867D01*
X160071402Y-103353253D01*
X160053223Y-103336777D01*
X160036747Y-103318598D01*
X160022133Y-103298893D01*
X160009520Y-103277849D01*
X159999030Y-103255671D01*
X159990765Y-103232571D01*
X159984804Y-103208773D01*
X159981204Y-103184504D01*
X159980000Y-103160000D01*
X159980000Y-101310000D01*
X159981204Y-101285496D01*
X159984804Y-101261227D01*
X159990765Y-101237429D01*
X159999030Y-101214329D01*
X160009520Y-101192151D01*
X160022133Y-101171107D01*
X160036747Y-101151402D01*
X160053223Y-101133223D01*
X160071402Y-101116747D01*
X160091107Y-101102133D01*
X160112151Y-101089520D01*
X160134329Y-101079030D01*
X160157429Y-101070765D01*
X160181227Y-101064804D01*
X160205496Y-101061204D01*
X160230000Y-101060000D01*
X161230000Y-101060000D01*
X161254504Y-101061204D01*
X161254504Y-101061204D01*
G37*
D20*
X160730000Y-102235000D03*
G04 #@! TD*
D11*
G04 #@! TO.C,C11*
G36*
X151374504Y-86456204D02*
X151398773Y-86459804D01*
X151422571Y-86465765D01*
X151445671Y-86474030D01*
X151467849Y-86484520D01*
X151488893Y-86497133D01*
X151508598Y-86511747D01*
X151526777Y-86528223D01*
X151543253Y-86546402D01*
X151557867Y-86566107D01*
X151570480Y-86587151D01*
X151580970Y-86609329D01*
X151589235Y-86632429D01*
X151595196Y-86656227D01*
X151598796Y-86680496D01*
X151600000Y-86705000D01*
X151600000Y-88555000D01*
X151598796Y-88579504D01*
X151595196Y-88603773D01*
X151589235Y-88627571D01*
X151580970Y-88650671D01*
X151570480Y-88672849D01*
X151557867Y-88693893D01*
X151543253Y-88713598D01*
X151526777Y-88731777D01*
X151508598Y-88748253D01*
X151488893Y-88762867D01*
X151467849Y-88775480D01*
X151445671Y-88785970D01*
X151422571Y-88794235D01*
X151398773Y-88800196D01*
X151374504Y-88803796D01*
X151350000Y-88805000D01*
X150350000Y-88805000D01*
X150325496Y-88803796D01*
X150301227Y-88800196D01*
X150277429Y-88794235D01*
X150254329Y-88785970D01*
X150232151Y-88775480D01*
X150211107Y-88762867D01*
X150191402Y-88748253D01*
X150173223Y-88731777D01*
X150156747Y-88713598D01*
X150142133Y-88693893D01*
X150129520Y-88672849D01*
X150119030Y-88650671D01*
X150110765Y-88627571D01*
X150104804Y-88603773D01*
X150101204Y-88579504D01*
X150100000Y-88555000D01*
X150100000Y-86705000D01*
X150101204Y-86680496D01*
X150104804Y-86656227D01*
X150110765Y-86632429D01*
X150119030Y-86609329D01*
X150129520Y-86587151D01*
X150142133Y-86566107D01*
X150156747Y-86546402D01*
X150173223Y-86528223D01*
X150191402Y-86511747D01*
X150211107Y-86497133D01*
X150232151Y-86484520D01*
X150254329Y-86474030D01*
X150277429Y-86465765D01*
X150301227Y-86459804D01*
X150325496Y-86456204D01*
X150350000Y-86455000D01*
X151350000Y-86455000D01*
X151374504Y-86456204D01*
X151374504Y-86456204D01*
G37*
D20*
X150850000Y-87630000D03*
D11*
G36*
X148124504Y-86456204D02*
X148148773Y-86459804D01*
X148172571Y-86465765D01*
X148195671Y-86474030D01*
X148217849Y-86484520D01*
X148238893Y-86497133D01*
X148258598Y-86511747D01*
X148276777Y-86528223D01*
X148293253Y-86546402D01*
X148307867Y-86566107D01*
X148320480Y-86587151D01*
X148330970Y-86609329D01*
X148339235Y-86632429D01*
X148345196Y-86656227D01*
X148348796Y-86680496D01*
X148350000Y-86705000D01*
X148350000Y-88555000D01*
X148348796Y-88579504D01*
X148345196Y-88603773D01*
X148339235Y-88627571D01*
X148330970Y-88650671D01*
X148320480Y-88672849D01*
X148307867Y-88693893D01*
X148293253Y-88713598D01*
X148276777Y-88731777D01*
X148258598Y-88748253D01*
X148238893Y-88762867D01*
X148217849Y-88775480D01*
X148195671Y-88785970D01*
X148172571Y-88794235D01*
X148148773Y-88800196D01*
X148124504Y-88803796D01*
X148100000Y-88805000D01*
X147100000Y-88805000D01*
X147075496Y-88803796D01*
X147051227Y-88800196D01*
X147027429Y-88794235D01*
X147004329Y-88785970D01*
X146982151Y-88775480D01*
X146961107Y-88762867D01*
X146941402Y-88748253D01*
X146923223Y-88731777D01*
X146906747Y-88713598D01*
X146892133Y-88693893D01*
X146879520Y-88672849D01*
X146869030Y-88650671D01*
X146860765Y-88627571D01*
X146854804Y-88603773D01*
X146851204Y-88579504D01*
X146850000Y-88555000D01*
X146850000Y-86705000D01*
X146851204Y-86680496D01*
X146854804Y-86656227D01*
X146860765Y-86632429D01*
X146869030Y-86609329D01*
X146879520Y-86587151D01*
X146892133Y-86566107D01*
X146906747Y-86546402D01*
X146923223Y-86528223D01*
X146941402Y-86511747D01*
X146961107Y-86497133D01*
X146982151Y-86484520D01*
X147004329Y-86474030D01*
X147027429Y-86465765D01*
X147051227Y-86459804D01*
X147075496Y-86456204D01*
X147100000Y-86455000D01*
X148100000Y-86455000D01*
X148124504Y-86456204D01*
X148124504Y-86456204D01*
G37*
D20*
X147600000Y-87630000D03*
G04 #@! TD*
M02*
