G04 #@! TF.GenerationSoftware,KiCad,Pcbnew,(5.0.1)-4*
G04 #@! TF.CreationDate,2019-01-25T14:15:17+03:00*
G04 #@! TF.ProjectId,Lab Ampl,4C616220416D706C2E6B696361645F70,rev?*
G04 #@! TF.SameCoordinates,Original*
G04 #@! TF.FileFunction,Soldermask,Bot*
G04 #@! TF.FilePolarity,Negative*
%FSLAX46Y46*%
G04 Gerber Fmt 4.6, Leading zero omitted, Abs format (unit mm)*
G04 Created by KiCad (PCBNEW (5.0.1)-4) date 25/01/2019 14:15:17*
%MOMM*%
%LPD*%
G01*
G04 APERTURE LIST*
%ADD10C,0.100000*%
G04 APERTURE END LIST*
D10*
G36*
X106044239Y-107301467D02*
X106358282Y-107363934D01*
X106949926Y-107609001D01*
X107478802Y-107962385D01*
X107482395Y-107964786D01*
X107935214Y-108417605D01*
X107935216Y-108417608D01*
X108290999Y-108950074D01*
X108536066Y-109541718D01*
X108661000Y-110169804D01*
X108661000Y-110810196D01*
X108536066Y-111438282D01*
X108290999Y-112029926D01*
X107937615Y-112558802D01*
X107935214Y-112562395D01*
X107482395Y-113015214D01*
X107482392Y-113015216D01*
X106949926Y-113370999D01*
X106358282Y-113616066D01*
X106044239Y-113678533D01*
X105730197Y-113741000D01*
X105089803Y-113741000D01*
X104775761Y-113678533D01*
X104461718Y-113616066D01*
X103870074Y-113370999D01*
X103337608Y-113015216D01*
X103337605Y-113015214D01*
X102884786Y-112562395D01*
X102882385Y-112558802D01*
X102529001Y-112029926D01*
X102283934Y-111438282D01*
X102159000Y-110810196D01*
X102159000Y-110169804D01*
X102283934Y-109541718D01*
X102529001Y-108950074D01*
X102884784Y-108417608D01*
X102884786Y-108417605D01*
X103337605Y-107964786D01*
X103341198Y-107962385D01*
X103870074Y-107609001D01*
X104461718Y-107363934D01*
X104775761Y-107301467D01*
X105089803Y-107239000D01*
X105730197Y-107239000D01*
X106044239Y-107301467D01*
X106044239Y-107301467D01*
G37*
G36*
X200024239Y-107301467D02*
X200338282Y-107363934D01*
X200929926Y-107609001D01*
X201458802Y-107962385D01*
X201462395Y-107964786D01*
X201915214Y-108417605D01*
X201915216Y-108417608D01*
X202270999Y-108950074D01*
X202516066Y-109541718D01*
X202641000Y-110169804D01*
X202641000Y-110810196D01*
X202516066Y-111438282D01*
X202270999Y-112029926D01*
X201917615Y-112558802D01*
X201915214Y-112562395D01*
X201462395Y-113015214D01*
X201462392Y-113015216D01*
X200929926Y-113370999D01*
X200338282Y-113616066D01*
X200024239Y-113678533D01*
X199710197Y-113741000D01*
X199069803Y-113741000D01*
X198755761Y-113678533D01*
X198441718Y-113616066D01*
X197850074Y-113370999D01*
X197317608Y-113015216D01*
X197317605Y-113015214D01*
X196864786Y-112562395D01*
X196862385Y-112558802D01*
X196509001Y-112029926D01*
X196263934Y-111438282D01*
X196139000Y-110810196D01*
X196139000Y-110169804D01*
X196263934Y-109541718D01*
X196509001Y-108950074D01*
X196864784Y-108417608D01*
X196864786Y-108417605D01*
X197317605Y-107964786D01*
X197321198Y-107962385D01*
X197850074Y-107609001D01*
X198441718Y-107363934D01*
X198755761Y-107301467D01*
X199069803Y-107239000D01*
X199710197Y-107239000D01*
X200024239Y-107301467D01*
X200024239Y-107301467D01*
G37*
G36*
X198472527Y-96278736D02*
X198572410Y-96298604D01*
X198854674Y-96415521D01*
X199108705Y-96585259D01*
X199324741Y-96801295D01*
X199494479Y-97055326D01*
X199611396Y-97337590D01*
X199611396Y-97337591D01*
X199665067Y-97607410D01*
X199671000Y-97637240D01*
X199671000Y-97942760D01*
X199611396Y-98242410D01*
X199494479Y-98524674D01*
X199324741Y-98778705D01*
X199108705Y-98994741D01*
X198854674Y-99164479D01*
X198572410Y-99281396D01*
X198472527Y-99301264D01*
X198272762Y-99341000D01*
X197967238Y-99341000D01*
X197767473Y-99301264D01*
X197667590Y-99281396D01*
X197385326Y-99164479D01*
X197131295Y-98994741D01*
X196915259Y-98778705D01*
X196745521Y-98524674D01*
X196628604Y-98242410D01*
X196569000Y-97942760D01*
X196569000Y-97637240D01*
X196574934Y-97607410D01*
X196628604Y-97337591D01*
X196628604Y-97337590D01*
X196745521Y-97055326D01*
X196915259Y-96801295D01*
X197131295Y-96585259D01*
X197385326Y-96415521D01*
X197667590Y-96298604D01*
X197767473Y-96278736D01*
X197967238Y-96239000D01*
X198272762Y-96239000D01*
X198472527Y-96278736D01*
X198472527Y-96278736D01*
G37*
G36*
X107032527Y-95643736D02*
X107132410Y-95663604D01*
X107414674Y-95780521D01*
X107668705Y-95950259D01*
X107884741Y-96166295D01*
X108054479Y-96420326D01*
X108122796Y-96585259D01*
X108171396Y-96702591D01*
X108231000Y-97002238D01*
X108231000Y-97307762D01*
X108191264Y-97507527D01*
X108171396Y-97607410D01*
X108054479Y-97889674D01*
X107884741Y-98143705D01*
X107668705Y-98359741D01*
X107414674Y-98529479D01*
X107132410Y-98646396D01*
X107032527Y-98666264D01*
X106832762Y-98706000D01*
X106527238Y-98706000D01*
X106327473Y-98666264D01*
X106227590Y-98646396D01*
X105945326Y-98529479D01*
X105691295Y-98359741D01*
X105475259Y-98143705D01*
X105305521Y-97889674D01*
X105188604Y-97607410D01*
X105168736Y-97507527D01*
X105129000Y-97307762D01*
X105129000Y-97002238D01*
X105188604Y-96702591D01*
X105237204Y-96585259D01*
X105305521Y-96420326D01*
X105475259Y-96166295D01*
X105691295Y-95950259D01*
X105945326Y-95780521D01*
X106227590Y-95663604D01*
X106327473Y-95643736D01*
X106527238Y-95604000D01*
X106832762Y-95604000D01*
X107032527Y-95643736D01*
X107032527Y-95643736D01*
G37*
G36*
X112066565Y-93604389D02*
X112257834Y-93683615D01*
X112429976Y-93798637D01*
X112576363Y-93945024D01*
X112691385Y-94117166D01*
X112770611Y-94308435D01*
X112811000Y-94511484D01*
X112811000Y-94718516D01*
X112770611Y-94921565D01*
X112691385Y-95112834D01*
X112576363Y-95284976D01*
X112429976Y-95431363D01*
X112257834Y-95546385D01*
X112066565Y-95625611D01*
X111863516Y-95666000D01*
X111656484Y-95666000D01*
X111453435Y-95625611D01*
X111262166Y-95546385D01*
X111090024Y-95431363D01*
X110943637Y-95284976D01*
X110828615Y-95112834D01*
X110749389Y-94921565D01*
X110709000Y-94718516D01*
X110709000Y-94511484D01*
X110749389Y-94308435D01*
X110828615Y-94117166D01*
X110943637Y-93945024D01*
X111090024Y-93798637D01*
X111262166Y-93683615D01*
X111453435Y-93604389D01*
X111656484Y-93564000D01*
X111863516Y-93564000D01*
X112066565Y-93604389D01*
X112066565Y-93604389D01*
G37*
G36*
X193346565Y-91699389D02*
X193537834Y-91778615D01*
X193709976Y-91893637D01*
X193856363Y-92040024D01*
X193971385Y-92212166D01*
X194050611Y-92403435D01*
X194091000Y-92606484D01*
X194091000Y-92813516D01*
X194050611Y-93016565D01*
X193971385Y-93207834D01*
X193856363Y-93379976D01*
X193709976Y-93526363D01*
X193537834Y-93641385D01*
X193346565Y-93720611D01*
X193143516Y-93761000D01*
X192936484Y-93761000D01*
X192733435Y-93720611D01*
X192542166Y-93641385D01*
X192370024Y-93526363D01*
X192223637Y-93379976D01*
X192108615Y-93207834D01*
X192029389Y-93016565D01*
X191989000Y-92813516D01*
X191989000Y-92606484D01*
X192029389Y-92403435D01*
X192108615Y-92212166D01*
X192223637Y-92040024D01*
X192370024Y-91893637D01*
X192542166Y-91778615D01*
X192733435Y-91699389D01*
X192936484Y-91659000D01*
X193143516Y-91659000D01*
X193346565Y-91699389D01*
X193346565Y-91699389D01*
G37*
G36*
X112066565Y-91064389D02*
X112257834Y-91143615D01*
X112429976Y-91258637D01*
X112576363Y-91405024D01*
X112691385Y-91577166D01*
X112770611Y-91768435D01*
X112811000Y-91971484D01*
X112811000Y-92178516D01*
X112770611Y-92381565D01*
X112691385Y-92572834D01*
X112576363Y-92744976D01*
X112429976Y-92891363D01*
X112257834Y-93006385D01*
X112066565Y-93085611D01*
X111863516Y-93126000D01*
X111656484Y-93126000D01*
X111453435Y-93085611D01*
X111262166Y-93006385D01*
X111090024Y-92891363D01*
X110943637Y-92744976D01*
X110828615Y-92572834D01*
X110749389Y-92381565D01*
X110709000Y-92178516D01*
X110709000Y-91971484D01*
X110749389Y-91768435D01*
X110828615Y-91577166D01*
X110943637Y-91405024D01*
X111090024Y-91258637D01*
X111262166Y-91143615D01*
X111453435Y-91064389D01*
X111656484Y-91024000D01*
X111863516Y-91024000D01*
X112066565Y-91064389D01*
X112066565Y-91064389D01*
G37*
G36*
X193346565Y-89159389D02*
X193537834Y-89238615D01*
X193709976Y-89353637D01*
X193856363Y-89500024D01*
X193971385Y-89672166D01*
X194050611Y-89863435D01*
X194091000Y-90066484D01*
X194091000Y-90273516D01*
X194050611Y-90476565D01*
X193971385Y-90667834D01*
X193856363Y-90839976D01*
X193709976Y-90986363D01*
X193537834Y-91101385D01*
X193346565Y-91180611D01*
X193143516Y-91221000D01*
X192936484Y-91221000D01*
X192733435Y-91180611D01*
X192542166Y-91101385D01*
X192370024Y-90986363D01*
X192223637Y-90839976D01*
X192108615Y-90667834D01*
X192029389Y-90476565D01*
X191989000Y-90273516D01*
X191989000Y-90066484D01*
X192029389Y-89863435D01*
X192108615Y-89672166D01*
X192223637Y-89500024D01*
X192370024Y-89353637D01*
X192542166Y-89238615D01*
X192733435Y-89159389D01*
X192936484Y-89119000D01*
X193143516Y-89119000D01*
X193346565Y-89159389D01*
X193346565Y-89159389D01*
G37*
G36*
X198472527Y-86118736D02*
X198572410Y-86138604D01*
X198854674Y-86255521D01*
X199108705Y-86425259D01*
X199324741Y-86641295D01*
X199494479Y-86895326D01*
X199611396Y-87177590D01*
X199611396Y-87177591D01*
X199665067Y-87447410D01*
X199671000Y-87477240D01*
X199671000Y-87782760D01*
X199611396Y-88082410D01*
X199494479Y-88364674D01*
X199324741Y-88618705D01*
X199108705Y-88834741D01*
X198854674Y-89004479D01*
X198572410Y-89121396D01*
X198472527Y-89141264D01*
X198272762Y-89181000D01*
X197967238Y-89181000D01*
X197767473Y-89141264D01*
X197667590Y-89121396D01*
X197385326Y-89004479D01*
X197131295Y-88834741D01*
X196915259Y-88618705D01*
X196745521Y-88364674D01*
X196628604Y-88082410D01*
X196569000Y-87782760D01*
X196569000Y-87477240D01*
X196574934Y-87447410D01*
X196628604Y-87177591D01*
X196628604Y-87177590D01*
X196745521Y-86895326D01*
X196915259Y-86641295D01*
X197131295Y-86425259D01*
X197385326Y-86255521D01*
X197667590Y-86138604D01*
X197767473Y-86118736D01*
X197967238Y-86079000D01*
X198272762Y-86079000D01*
X198472527Y-86118736D01*
X198472527Y-86118736D01*
G37*
G36*
X107032527Y-85483736D02*
X107132410Y-85503604D01*
X107414674Y-85620521D01*
X107668705Y-85790259D01*
X107884741Y-86006295D01*
X108054479Y-86260326D01*
X108122796Y-86425259D01*
X108171396Y-86542591D01*
X108231000Y-86842238D01*
X108231000Y-87147762D01*
X108191264Y-87347527D01*
X108171396Y-87447410D01*
X108054479Y-87729674D01*
X107884741Y-87983705D01*
X107668705Y-88199741D01*
X107414674Y-88369479D01*
X107132410Y-88486396D01*
X107032527Y-88506264D01*
X106832762Y-88546000D01*
X106527238Y-88546000D01*
X106327473Y-88506264D01*
X106227590Y-88486396D01*
X105945326Y-88369479D01*
X105691295Y-88199741D01*
X105475259Y-87983705D01*
X105305521Y-87729674D01*
X105188604Y-87447410D01*
X105168736Y-87347527D01*
X105129000Y-87147762D01*
X105129000Y-86842238D01*
X105188604Y-86542591D01*
X105237204Y-86425259D01*
X105305521Y-86260326D01*
X105475259Y-86006295D01*
X105691295Y-85790259D01*
X105945326Y-85620521D01*
X106227590Y-85503604D01*
X106327473Y-85483736D01*
X106527238Y-85444000D01*
X106832762Y-85444000D01*
X107032527Y-85483736D01*
X107032527Y-85483736D01*
G37*
G36*
X180476626Y-70717037D02*
X180589852Y-70751384D01*
X180646466Y-70768557D01*
X180802989Y-70852221D01*
X180940186Y-70964814D01*
X181023448Y-71066271D01*
X181052778Y-71102009D01*
X181052779Y-71102011D01*
X181136443Y-71258533D01*
X181153616Y-71315147D01*
X181187963Y-71428373D01*
X181201000Y-71560742D01*
X181201000Y-71949257D01*
X181187963Y-72081626D01*
X181136443Y-72251466D01*
X181052778Y-72407991D01*
X181052777Y-72407992D01*
X180940186Y-72545186D01*
X180845251Y-72623096D01*
X180802991Y-72657778D01*
X180802989Y-72657779D01*
X180646467Y-72741443D01*
X180605734Y-72753799D01*
X180476627Y-72792963D01*
X180300000Y-72810359D01*
X180123374Y-72792963D01*
X179994267Y-72753799D01*
X179953534Y-72741443D01*
X179797012Y-72657779D01*
X179797010Y-72657778D01*
X179659816Y-72545186D01*
X179659812Y-72545183D01*
X179547222Y-72407992D01*
X179463557Y-72251467D01*
X179446384Y-72194853D01*
X179412037Y-72081627D01*
X179399000Y-71949258D01*
X179399000Y-71560743D01*
X179412037Y-71428374D01*
X179463557Y-71258535D01*
X179463557Y-71258534D01*
X179547221Y-71102011D01*
X179659814Y-70964814D01*
X179761271Y-70881552D01*
X179797009Y-70852222D01*
X179814913Y-70842652D01*
X179953533Y-70768557D01*
X180010147Y-70751384D01*
X180123373Y-70717037D01*
X180300000Y-70699641D01*
X180476626Y-70717037D01*
X180476626Y-70717037D01*
G37*
G36*
X178558600Y-70707989D02*
X178591649Y-70718014D01*
X178622106Y-70734294D01*
X178648799Y-70756201D01*
X178670706Y-70782894D01*
X178686986Y-70813351D01*
X178697011Y-70846400D01*
X178701000Y-70886904D01*
X178701000Y-72623096D01*
X178697011Y-72663600D01*
X178686986Y-72696649D01*
X178670706Y-72727106D01*
X178648799Y-72753799D01*
X178622106Y-72775706D01*
X178591649Y-72791986D01*
X178558600Y-72802011D01*
X178518096Y-72806000D01*
X177081904Y-72806000D01*
X177041400Y-72802011D01*
X177008351Y-72791986D01*
X176977894Y-72775706D01*
X176951201Y-72753799D01*
X176929294Y-72727106D01*
X176913014Y-72696649D01*
X176902989Y-72663600D01*
X176899000Y-72623096D01*
X176899000Y-70886904D01*
X176902989Y-70846400D01*
X176913014Y-70813351D01*
X176929294Y-70782894D01*
X176951201Y-70756201D01*
X176977894Y-70734294D01*
X177008351Y-70718014D01*
X177041400Y-70707989D01*
X177081904Y-70704000D01*
X178518096Y-70704000D01*
X178558600Y-70707989D01*
X178558600Y-70707989D01*
G37*
G36*
X106044239Y-64121467D02*
X106358282Y-64183934D01*
X106949926Y-64429001D01*
X107478802Y-64782385D01*
X107482395Y-64784786D01*
X107935214Y-65237605D01*
X107935216Y-65237608D01*
X108290999Y-65770074D01*
X108536066Y-66361718D01*
X108661000Y-66989804D01*
X108661000Y-67630196D01*
X108536066Y-68258282D01*
X108290999Y-68849926D01*
X107937615Y-69378802D01*
X107935214Y-69382395D01*
X107482395Y-69835214D01*
X107482392Y-69835216D01*
X106949926Y-70190999D01*
X106358282Y-70436066D01*
X106044239Y-70498533D01*
X105730197Y-70561000D01*
X105089803Y-70561000D01*
X104775761Y-70498533D01*
X104461718Y-70436066D01*
X103870074Y-70190999D01*
X103337608Y-69835216D01*
X103337605Y-69835214D01*
X102884786Y-69382395D01*
X102882385Y-69378802D01*
X102529001Y-68849926D01*
X102283934Y-68258282D01*
X102159000Y-67630196D01*
X102159000Y-66989804D01*
X102283934Y-66361718D01*
X102529001Y-65770074D01*
X102884784Y-65237608D01*
X102884786Y-65237605D01*
X103337605Y-64784786D01*
X103341198Y-64782385D01*
X103870074Y-64429001D01*
X104461718Y-64183934D01*
X104775761Y-64121467D01*
X105089803Y-64059000D01*
X105730197Y-64059000D01*
X106044239Y-64121467D01*
X106044239Y-64121467D01*
G37*
G36*
X200024239Y-64121467D02*
X200338282Y-64183934D01*
X200929926Y-64429001D01*
X201458802Y-64782385D01*
X201462395Y-64784786D01*
X201915214Y-65237605D01*
X201915216Y-65237608D01*
X202270999Y-65770074D01*
X202516066Y-66361718D01*
X202641000Y-66989804D01*
X202641000Y-67630196D01*
X202516066Y-68258282D01*
X202270999Y-68849926D01*
X201917615Y-69378802D01*
X201915214Y-69382395D01*
X201462395Y-69835214D01*
X201462392Y-69835216D01*
X200929926Y-70190999D01*
X200338282Y-70436066D01*
X200024239Y-70498533D01*
X199710197Y-70561000D01*
X199069803Y-70561000D01*
X198755761Y-70498533D01*
X198441718Y-70436066D01*
X197850074Y-70190999D01*
X197317608Y-69835216D01*
X197317605Y-69835214D01*
X196864786Y-69382395D01*
X196862385Y-69378802D01*
X196509001Y-68849926D01*
X196263934Y-68258282D01*
X196139000Y-67630196D01*
X196139000Y-66989804D01*
X196263934Y-66361718D01*
X196509001Y-65770074D01*
X196864784Y-65237608D01*
X196864786Y-65237605D01*
X197317605Y-64784786D01*
X197321198Y-64782385D01*
X197850074Y-64429001D01*
X198441718Y-64183934D01*
X198755761Y-64121467D01*
X199069803Y-64059000D01*
X199710197Y-64059000D01*
X200024239Y-64121467D01*
X200024239Y-64121467D01*
G37*
M02*
