G04 #@! TF.GenerationSoftware,KiCad,Pcbnew,(5.0.1)-4*
G04 #@! TF.CreationDate,2019-01-25T14:15:16+03:00*
G04 #@! TF.ProjectId,Lab Ampl,4C616220416D706C2E6B696361645F70,rev?*
G04 #@! TF.SameCoordinates,Original*
G04 #@! TF.FileFunction,Soldermask,Top*
G04 #@! TF.FilePolarity,Negative*
%FSLAX46Y46*%
G04 Gerber Fmt 4.6, Leading zero omitted, Abs format (unit mm)*
G04 Created by KiCad (PCBNEW (5.0.1)-4) date 25/01/2019 14:15:16*
%MOMM*%
%LPD*%
G01*
G04 APERTURE LIST*
%ADD10C,0.100000*%
G04 APERTURE END LIST*
D10*
G36*
X199896208Y-107276000D02*
X200338282Y-107363934D01*
X200929926Y-107609001D01*
X201458802Y-107962385D01*
X201462395Y-107964786D01*
X201915214Y-108417605D01*
X201915216Y-108417608D01*
X202270999Y-108950074D01*
X202516066Y-109541718D01*
X202641000Y-110169804D01*
X202641000Y-110810196D01*
X202516066Y-111438282D01*
X202270999Y-112029926D01*
X201917615Y-112558802D01*
X201915214Y-112562395D01*
X201462395Y-113015214D01*
X201462392Y-113015216D01*
X200929926Y-113370999D01*
X200338282Y-113616066D01*
X200024239Y-113678533D01*
X199710197Y-113741000D01*
X199069803Y-113741000D01*
X198755761Y-113678533D01*
X198441718Y-113616066D01*
X197850074Y-113370999D01*
X197317608Y-113015216D01*
X197317605Y-113015214D01*
X196864786Y-112562395D01*
X196862385Y-112558802D01*
X196509001Y-112029926D01*
X196263934Y-111438282D01*
X196139000Y-110810196D01*
X196139000Y-110169804D01*
X196263934Y-109541718D01*
X196509001Y-108950074D01*
X196864784Y-108417608D01*
X196864786Y-108417605D01*
X197317605Y-107964786D01*
X197321198Y-107962385D01*
X197850074Y-107609001D01*
X198441718Y-107363934D01*
X198883792Y-107276000D01*
X199069803Y-107239000D01*
X199710197Y-107239000D01*
X199896208Y-107276000D01*
X199896208Y-107276000D01*
G37*
G36*
X105916208Y-107276000D02*
X106358282Y-107363934D01*
X106949926Y-107609001D01*
X107478802Y-107962385D01*
X107482395Y-107964786D01*
X107935214Y-108417605D01*
X107935216Y-108417608D01*
X108290999Y-108950074D01*
X108536066Y-109541718D01*
X108661000Y-110169804D01*
X108661000Y-110810196D01*
X108536066Y-111438282D01*
X108290999Y-112029926D01*
X107937615Y-112558802D01*
X107935214Y-112562395D01*
X107482395Y-113015214D01*
X107482392Y-113015216D01*
X106949926Y-113370999D01*
X106358282Y-113616066D01*
X106044239Y-113678533D01*
X105730197Y-113741000D01*
X105089803Y-113741000D01*
X104775761Y-113678533D01*
X104461718Y-113616066D01*
X103870074Y-113370999D01*
X103337608Y-113015216D01*
X103337605Y-113015214D01*
X102884786Y-112562395D01*
X102882385Y-112558802D01*
X102529001Y-112029926D01*
X102283934Y-111438282D01*
X102159000Y-110810196D01*
X102159000Y-110169804D01*
X102283934Y-109541718D01*
X102529001Y-108950074D01*
X102884784Y-108417608D01*
X102884786Y-108417605D01*
X103337605Y-107964786D01*
X103341198Y-107962385D01*
X103870074Y-107609001D01*
X104461718Y-107363934D01*
X104903792Y-107276000D01*
X105089803Y-107239000D01*
X105730197Y-107239000D01*
X105916208Y-107276000D01*
X105916208Y-107276000D01*
G37*
G36*
X118241000Y-107276000D02*
X117339000Y-107276000D01*
X117339000Y-106274000D01*
X118241000Y-106274000D01*
X118241000Y-107276000D01*
X118241000Y-107276000D01*
G37*
G36*
X155621000Y-107256000D02*
X154219000Y-107256000D01*
X154219000Y-105554000D01*
X155621000Y-105554000D01*
X155621000Y-107256000D01*
X155621000Y-107256000D01*
G37*
G36*
X153121000Y-107256000D02*
X151719000Y-107256000D01*
X151719000Y-105554000D01*
X153121000Y-105554000D01*
X153121000Y-107256000D01*
X153121000Y-107256000D01*
G37*
G36*
X159993677Y-104663465D02*
X160031364Y-104674898D01*
X160066103Y-104693466D01*
X160096548Y-104718452D01*
X160121534Y-104748897D01*
X160140102Y-104783636D01*
X160151535Y-104821323D01*
X160156000Y-104866661D01*
X160156000Y-105953339D01*
X160151535Y-105998677D01*
X160140102Y-106036364D01*
X160121534Y-106071103D01*
X160096548Y-106101548D01*
X160066103Y-106126534D01*
X160031364Y-106145102D01*
X159993677Y-106156535D01*
X159948339Y-106161000D01*
X159111661Y-106161000D01*
X159066323Y-106156535D01*
X159028636Y-106145102D01*
X158993897Y-106126534D01*
X158963452Y-106101548D01*
X158938466Y-106071103D01*
X158919898Y-106036364D01*
X158908465Y-105998677D01*
X158904000Y-105953339D01*
X158904000Y-104866661D01*
X158908465Y-104821323D01*
X158919898Y-104783636D01*
X158938466Y-104748897D01*
X158963452Y-104718452D01*
X158993897Y-104693466D01*
X159028636Y-104674898D01*
X159066323Y-104663465D01*
X159111661Y-104659000D01*
X159948339Y-104659000D01*
X159993677Y-104663465D01*
X159993677Y-104663465D01*
G37*
G36*
X157943677Y-104663465D02*
X157981364Y-104674898D01*
X158016103Y-104693466D01*
X158046548Y-104718452D01*
X158071534Y-104748897D01*
X158090102Y-104783636D01*
X158101535Y-104821323D01*
X158106000Y-104866661D01*
X158106000Y-105953339D01*
X158101535Y-105998677D01*
X158090102Y-106036364D01*
X158071534Y-106071103D01*
X158046548Y-106101548D01*
X158016103Y-106126534D01*
X157981364Y-106145102D01*
X157943677Y-106156535D01*
X157898339Y-106161000D01*
X157061661Y-106161000D01*
X157016323Y-106156535D01*
X156978636Y-106145102D01*
X156943897Y-106126534D01*
X156913452Y-106101548D01*
X156888466Y-106071103D01*
X156869898Y-106036364D01*
X156858465Y-105998677D01*
X156854000Y-105953339D01*
X156854000Y-104866661D01*
X156858465Y-104821323D01*
X156869898Y-104783636D01*
X156888466Y-104748897D01*
X156913452Y-104718452D01*
X156943897Y-104693466D01*
X156978636Y-104674898D01*
X157016323Y-104663465D01*
X157061661Y-104659000D01*
X157898339Y-104659000D01*
X157943677Y-104663465D01*
X157943677Y-104663465D01*
G37*
G36*
X119191000Y-105276000D02*
X118289000Y-105276000D01*
X118289000Y-104274000D01*
X119191000Y-104274000D01*
X119191000Y-105276000D01*
X119191000Y-105276000D01*
G37*
G36*
X117291000Y-105276000D02*
X116389000Y-105276000D01*
X116389000Y-104274000D01*
X117291000Y-104274000D01*
X117291000Y-105276000D01*
X117291000Y-105276000D01*
G37*
G36*
X148273677Y-103393465D02*
X148311364Y-103404898D01*
X148346103Y-103423466D01*
X148376548Y-103448452D01*
X148401534Y-103478897D01*
X148420102Y-103513636D01*
X148431535Y-103551323D01*
X148436000Y-103596661D01*
X148436000Y-104683339D01*
X148431535Y-104728677D01*
X148420102Y-104766364D01*
X148401534Y-104801103D01*
X148376548Y-104831548D01*
X148346103Y-104856534D01*
X148311364Y-104875102D01*
X148273677Y-104886535D01*
X148228339Y-104891000D01*
X147391661Y-104891000D01*
X147346323Y-104886535D01*
X147308636Y-104875102D01*
X147273897Y-104856534D01*
X147243452Y-104831548D01*
X147218466Y-104801103D01*
X147199898Y-104766364D01*
X147188465Y-104728677D01*
X147184000Y-104683339D01*
X147184000Y-103596661D01*
X147188465Y-103551323D01*
X147199898Y-103513636D01*
X147218466Y-103478897D01*
X147243452Y-103448452D01*
X147273897Y-103423466D01*
X147308636Y-103404898D01*
X147346323Y-103393465D01*
X147391661Y-103389000D01*
X148228339Y-103389000D01*
X148273677Y-103393465D01*
X148273677Y-103393465D01*
G37*
G36*
X150323677Y-103393465D02*
X150361364Y-103404898D01*
X150396103Y-103423466D01*
X150426548Y-103448452D01*
X150451534Y-103478897D01*
X150470102Y-103513636D01*
X150481535Y-103551323D01*
X150486000Y-103596661D01*
X150486000Y-104683339D01*
X150481535Y-104728677D01*
X150470102Y-104766364D01*
X150451534Y-104801103D01*
X150426548Y-104831548D01*
X150396103Y-104856534D01*
X150361364Y-104875102D01*
X150323677Y-104886535D01*
X150278339Y-104891000D01*
X149441661Y-104891000D01*
X149396323Y-104886535D01*
X149358636Y-104875102D01*
X149323897Y-104856534D01*
X149293452Y-104831548D01*
X149268466Y-104801103D01*
X149249898Y-104766364D01*
X149238465Y-104728677D01*
X149234000Y-104683339D01*
X149234000Y-103596661D01*
X149238465Y-103551323D01*
X149249898Y-103513636D01*
X149268466Y-103478897D01*
X149293452Y-103448452D01*
X149323897Y-103423466D01*
X149358636Y-103404898D01*
X149396323Y-103393465D01*
X149441661Y-103389000D01*
X150278339Y-103389000D01*
X150323677Y-103393465D01*
X150323677Y-103393465D01*
G37*
G36*
X154721000Y-104356000D02*
X152619000Y-104356000D01*
X152619000Y-102654000D01*
X154721000Y-102654000D01*
X154721000Y-104356000D01*
X154721000Y-104356000D01*
G37*
G36*
X158133043Y-101013122D02*
X158167390Y-101023541D01*
X158199035Y-101040456D01*
X158226777Y-101063223D01*
X158249544Y-101090965D01*
X158266459Y-101122610D01*
X158276878Y-101156957D01*
X158281000Y-101198807D01*
X158281000Y-103271193D01*
X158276878Y-103313043D01*
X158266459Y-103347390D01*
X158249544Y-103379035D01*
X158226777Y-103406777D01*
X158199035Y-103429544D01*
X158167390Y-103446459D01*
X158133043Y-103456878D01*
X158091193Y-103461000D01*
X156868807Y-103461000D01*
X156826957Y-103456878D01*
X156792610Y-103446459D01*
X156760965Y-103429544D01*
X156733223Y-103406777D01*
X156710456Y-103379035D01*
X156693541Y-103347390D01*
X156683122Y-103313043D01*
X156679000Y-103271193D01*
X156679000Y-101198807D01*
X156683122Y-101156957D01*
X156693541Y-101122610D01*
X156710456Y-101090965D01*
X156733223Y-101063223D01*
X156760965Y-101040456D01*
X156792610Y-101023541D01*
X156826957Y-101013122D01*
X156868807Y-101009000D01*
X158091193Y-101009000D01*
X158133043Y-101013122D01*
X158133043Y-101013122D01*
G37*
G36*
X161383043Y-101013122D02*
X161417390Y-101023541D01*
X161449035Y-101040456D01*
X161476777Y-101063223D01*
X161499544Y-101090965D01*
X161516459Y-101122610D01*
X161526878Y-101156957D01*
X161531000Y-101198807D01*
X161531000Y-103271193D01*
X161526878Y-103313043D01*
X161516459Y-103347390D01*
X161499544Y-103379035D01*
X161476777Y-103406777D01*
X161449035Y-103429544D01*
X161417390Y-103446459D01*
X161383043Y-103456878D01*
X161341193Y-103461000D01*
X160118807Y-103461000D01*
X160076957Y-103456878D01*
X160042610Y-103446459D01*
X160010965Y-103429544D01*
X159983223Y-103406777D01*
X159960456Y-103379035D01*
X159943541Y-103347390D01*
X159933122Y-103313043D01*
X159929000Y-103271193D01*
X159929000Y-101198807D01*
X159933122Y-101156957D01*
X159943541Y-101122610D01*
X159960456Y-101090965D01*
X159983223Y-101063223D01*
X160010965Y-101040456D01*
X160042610Y-101023541D01*
X160076957Y-101013122D01*
X160118807Y-101009000D01*
X161341193Y-101009000D01*
X161383043Y-101013122D01*
X161383043Y-101013122D01*
G37*
G36*
X119353677Y-101488465D02*
X119391364Y-101499898D01*
X119426103Y-101518466D01*
X119456548Y-101543452D01*
X119481534Y-101573897D01*
X119500102Y-101608636D01*
X119511535Y-101646323D01*
X119516000Y-101691661D01*
X119516000Y-102778339D01*
X119511535Y-102823677D01*
X119500102Y-102861364D01*
X119481534Y-102896103D01*
X119456548Y-102926548D01*
X119426103Y-102951534D01*
X119391364Y-102970102D01*
X119353677Y-102981535D01*
X119308339Y-102986000D01*
X118471661Y-102986000D01*
X118426323Y-102981535D01*
X118388636Y-102970102D01*
X118353897Y-102951534D01*
X118323452Y-102926548D01*
X118298466Y-102896103D01*
X118279898Y-102861364D01*
X118268465Y-102823677D01*
X118264000Y-102778339D01*
X118264000Y-101691661D01*
X118268465Y-101646323D01*
X118279898Y-101608636D01*
X118298466Y-101573897D01*
X118323452Y-101543452D01*
X118353897Y-101518466D01*
X118388636Y-101499898D01*
X118426323Y-101488465D01*
X118471661Y-101484000D01*
X119308339Y-101484000D01*
X119353677Y-101488465D01*
X119353677Y-101488465D01*
G37*
G36*
X117303677Y-101488465D02*
X117341364Y-101499898D01*
X117376103Y-101518466D01*
X117406548Y-101543452D01*
X117431534Y-101573897D01*
X117450102Y-101608636D01*
X117461535Y-101646323D01*
X117466000Y-101691661D01*
X117466000Y-102778339D01*
X117461535Y-102823677D01*
X117450102Y-102861364D01*
X117431534Y-102896103D01*
X117406548Y-102926548D01*
X117376103Y-102951534D01*
X117341364Y-102970102D01*
X117303677Y-102981535D01*
X117258339Y-102986000D01*
X116421661Y-102986000D01*
X116376323Y-102981535D01*
X116338636Y-102970102D01*
X116303897Y-102951534D01*
X116273452Y-102926548D01*
X116248466Y-102896103D01*
X116229898Y-102861364D01*
X116218465Y-102823677D01*
X116214000Y-102778339D01*
X116214000Y-101691661D01*
X116218465Y-101646323D01*
X116229898Y-101608636D01*
X116248466Y-101573897D01*
X116273452Y-101543452D01*
X116303897Y-101518466D01*
X116338636Y-101499898D01*
X116376323Y-101488465D01*
X116421661Y-101484000D01*
X117258339Y-101484000D01*
X117303677Y-101488465D01*
X117303677Y-101488465D01*
G37*
G36*
X142248321Y-101730574D02*
X142348595Y-101772109D01*
X142438845Y-101832412D01*
X142515588Y-101909155D01*
X142575891Y-101999405D01*
X142617426Y-102099679D01*
X142638600Y-102206130D01*
X142638600Y-102314670D01*
X142617426Y-102421121D01*
X142575891Y-102521395D01*
X142515588Y-102611645D01*
X142438845Y-102688388D01*
X142348595Y-102748691D01*
X142248321Y-102790226D01*
X142141870Y-102811400D01*
X142033330Y-102811400D01*
X141926879Y-102790226D01*
X141826605Y-102748691D01*
X141736355Y-102688388D01*
X141659612Y-102611645D01*
X141599309Y-102521395D01*
X141557774Y-102421121D01*
X141536600Y-102314670D01*
X141536600Y-102206130D01*
X141557774Y-102099679D01*
X141599309Y-101999405D01*
X141659612Y-101909155D01*
X141736355Y-101832412D01*
X141826605Y-101772109D01*
X141926879Y-101730574D01*
X142033330Y-101709400D01*
X142141870Y-101709400D01*
X142248321Y-101730574D01*
X142248321Y-101730574D01*
G37*
G36*
X144305721Y-101705174D02*
X144405995Y-101746709D01*
X144496245Y-101807012D01*
X144572988Y-101883755D01*
X144633291Y-101974005D01*
X144674826Y-102074279D01*
X144696000Y-102180730D01*
X144696000Y-102289270D01*
X144674826Y-102395721D01*
X144633291Y-102495995D01*
X144572988Y-102586245D01*
X144496245Y-102662988D01*
X144405995Y-102723291D01*
X144305721Y-102764826D01*
X144199270Y-102786000D01*
X144090730Y-102786000D01*
X143984279Y-102764826D01*
X143884005Y-102723291D01*
X143793755Y-102662988D01*
X143717012Y-102586245D01*
X143656709Y-102495995D01*
X143615174Y-102395721D01*
X143594000Y-102289270D01*
X143594000Y-102180730D01*
X143615174Y-102074279D01*
X143656709Y-101974005D01*
X143717012Y-101883755D01*
X143793755Y-101807012D01*
X143884005Y-101746709D01*
X143984279Y-101705174D01*
X144090730Y-101684000D01*
X144199270Y-101684000D01*
X144305721Y-101705174D01*
X144305721Y-101705174D01*
G37*
G36*
X128713043Y-100243122D02*
X128747390Y-100253541D01*
X128779035Y-100270456D01*
X128806777Y-100293223D01*
X128829544Y-100320965D01*
X128846459Y-100352610D01*
X128856878Y-100386957D01*
X128861000Y-100428807D01*
X128861000Y-101651193D01*
X128856878Y-101693043D01*
X128846459Y-101727390D01*
X128829544Y-101759035D01*
X128806777Y-101786777D01*
X128779035Y-101809544D01*
X128747390Y-101826459D01*
X128713043Y-101836878D01*
X128671193Y-101841000D01*
X126598807Y-101841000D01*
X126556957Y-101836878D01*
X126522610Y-101826459D01*
X126490965Y-101809544D01*
X126463223Y-101786777D01*
X126440456Y-101759035D01*
X126423541Y-101727390D01*
X126413122Y-101693043D01*
X126409000Y-101651193D01*
X126409000Y-100428807D01*
X126413122Y-100386957D01*
X126423541Y-100352610D01*
X126440456Y-100320965D01*
X126463223Y-100293223D01*
X126490965Y-100270456D01*
X126522610Y-100253541D01*
X126556957Y-100243122D01*
X126598807Y-100239000D01*
X128671193Y-100239000D01*
X128713043Y-100243122D01*
X128713043Y-100243122D01*
G37*
G36*
X132033677Y-99218465D02*
X132071364Y-99229898D01*
X132106103Y-99248466D01*
X132136548Y-99273452D01*
X132161534Y-99303897D01*
X132180102Y-99338636D01*
X132191535Y-99376323D01*
X132196000Y-99421661D01*
X132196000Y-100258339D01*
X132191535Y-100303677D01*
X132180102Y-100341364D01*
X132161534Y-100376103D01*
X132136548Y-100406548D01*
X132106103Y-100431534D01*
X132071364Y-100450102D01*
X132033677Y-100461535D01*
X131988339Y-100466000D01*
X130901661Y-100466000D01*
X130856323Y-100461535D01*
X130818636Y-100450102D01*
X130783897Y-100431534D01*
X130753452Y-100406548D01*
X130728466Y-100376103D01*
X130709898Y-100341364D01*
X130698465Y-100303677D01*
X130694000Y-100258339D01*
X130694000Y-99421661D01*
X130698465Y-99376323D01*
X130709898Y-99338636D01*
X130728466Y-99303897D01*
X130753452Y-99273452D01*
X130783897Y-99248466D01*
X130818636Y-99229898D01*
X130856323Y-99218465D01*
X130901661Y-99214000D01*
X131988339Y-99214000D01*
X132033677Y-99218465D01*
X132033677Y-99218465D01*
G37*
G36*
X117291000Y-100196000D02*
X116389000Y-100196000D01*
X116389000Y-99194000D01*
X117291000Y-99194000D01*
X117291000Y-100196000D01*
X117291000Y-100196000D01*
G37*
G36*
X119191000Y-100196000D02*
X118289000Y-100196000D01*
X118289000Y-99194000D01*
X119191000Y-99194000D01*
X119191000Y-100196000D01*
X119191000Y-100196000D01*
G37*
G36*
X124413677Y-98583465D02*
X124451364Y-98594898D01*
X124486103Y-98613466D01*
X124516548Y-98638452D01*
X124541534Y-98668897D01*
X124560102Y-98703636D01*
X124571535Y-98741323D01*
X124576000Y-98786661D01*
X124576000Y-99623339D01*
X124571535Y-99668677D01*
X124560102Y-99706364D01*
X124541534Y-99741103D01*
X124516548Y-99771548D01*
X124486103Y-99796534D01*
X124451364Y-99815102D01*
X124413677Y-99826535D01*
X124368339Y-99831000D01*
X123281661Y-99831000D01*
X123236323Y-99826535D01*
X123198636Y-99815102D01*
X123163897Y-99796534D01*
X123133452Y-99771548D01*
X123108466Y-99741103D01*
X123089898Y-99706364D01*
X123078465Y-99668677D01*
X123074000Y-99623339D01*
X123074000Y-98786661D01*
X123078465Y-98741323D01*
X123089898Y-98703636D01*
X123108466Y-98668897D01*
X123133452Y-98638452D01*
X123163897Y-98613466D01*
X123198636Y-98594898D01*
X123236323Y-98583465D01*
X123281661Y-98579000D01*
X124368339Y-98579000D01*
X124413677Y-98583465D01*
X124413677Y-98583465D01*
G37*
G36*
X159993677Y-98313465D02*
X160031364Y-98324898D01*
X160066103Y-98343466D01*
X160096548Y-98368452D01*
X160121534Y-98398897D01*
X160140102Y-98433636D01*
X160151535Y-98471323D01*
X160156000Y-98516661D01*
X160156000Y-99603339D01*
X160151535Y-99648677D01*
X160140102Y-99686364D01*
X160121534Y-99721103D01*
X160096548Y-99751548D01*
X160066103Y-99776534D01*
X160031364Y-99795102D01*
X159993677Y-99806535D01*
X159948339Y-99811000D01*
X159111661Y-99811000D01*
X159066323Y-99806535D01*
X159028636Y-99795102D01*
X158993897Y-99776534D01*
X158963452Y-99751548D01*
X158938466Y-99721103D01*
X158919898Y-99686364D01*
X158908465Y-99648677D01*
X158904000Y-99603339D01*
X158904000Y-98516661D01*
X158908465Y-98471323D01*
X158919898Y-98433636D01*
X158938466Y-98398897D01*
X158963452Y-98368452D01*
X158993897Y-98343466D01*
X159028636Y-98324898D01*
X159066323Y-98313465D01*
X159111661Y-98309000D01*
X159948339Y-98309000D01*
X159993677Y-98313465D01*
X159993677Y-98313465D01*
G37*
G36*
X157943677Y-98313465D02*
X157981364Y-98324898D01*
X158016103Y-98343466D01*
X158046548Y-98368452D01*
X158071534Y-98398897D01*
X158090102Y-98433636D01*
X158101535Y-98471323D01*
X158106000Y-98516661D01*
X158106000Y-99603339D01*
X158101535Y-99648677D01*
X158090102Y-99686364D01*
X158071534Y-99721103D01*
X158046548Y-99751548D01*
X158016103Y-99776534D01*
X157981364Y-99795102D01*
X157943677Y-99806535D01*
X157898339Y-99811000D01*
X157061661Y-99811000D01*
X157016323Y-99806535D01*
X156978636Y-99795102D01*
X156943897Y-99776534D01*
X156913452Y-99751548D01*
X156888466Y-99721103D01*
X156869898Y-99686364D01*
X156858465Y-99648677D01*
X156854000Y-99603339D01*
X156854000Y-98516661D01*
X156858465Y-98471323D01*
X156869898Y-98433636D01*
X156888466Y-98398897D01*
X156913452Y-98368452D01*
X156943897Y-98343466D01*
X156978636Y-98324898D01*
X157016323Y-98313465D01*
X157061661Y-98309000D01*
X157898339Y-98309000D01*
X157943677Y-98313465D01*
X157943677Y-98313465D01*
G37*
G36*
X153386000Y-99411000D02*
X152684000Y-99411000D01*
X152684000Y-97759000D01*
X153386000Y-97759000D01*
X153386000Y-99411000D01*
X153386000Y-99411000D01*
G37*
G36*
X152116000Y-99411000D02*
X151414000Y-99411000D01*
X151414000Y-97759000D01*
X152116000Y-97759000D01*
X152116000Y-99411000D01*
X152116000Y-99411000D01*
G37*
G36*
X154656000Y-99411000D02*
X153954000Y-99411000D01*
X153954000Y-97759000D01*
X154656000Y-97759000D01*
X154656000Y-99411000D01*
X154656000Y-99411000D01*
G37*
G36*
X155926000Y-99411000D02*
X155224000Y-99411000D01*
X155224000Y-97759000D01*
X155926000Y-97759000D01*
X155926000Y-99411000D01*
X155926000Y-99411000D01*
G37*
G36*
X198472527Y-96278736D02*
X198572410Y-96298604D01*
X198854674Y-96415521D01*
X199108705Y-96585259D01*
X199324741Y-96801295D01*
X199494479Y-97055326D01*
X199611396Y-97337590D01*
X199621566Y-97388718D01*
X199665067Y-97607410D01*
X199671000Y-97637240D01*
X199671000Y-97942760D01*
X199611396Y-98242410D01*
X199494479Y-98524674D01*
X199324741Y-98778705D01*
X199108705Y-98994741D01*
X198854674Y-99164479D01*
X198572410Y-99281396D01*
X198510463Y-99293718D01*
X198272762Y-99341000D01*
X197967238Y-99341000D01*
X197729537Y-99293718D01*
X197667590Y-99281396D01*
X197385326Y-99164479D01*
X197131295Y-98994741D01*
X196915259Y-98778705D01*
X196745521Y-98524674D01*
X196628604Y-98242410D01*
X196569000Y-97942760D01*
X196569000Y-97637240D01*
X196574934Y-97607410D01*
X196618434Y-97388718D01*
X196628604Y-97337590D01*
X196745521Y-97055326D01*
X196915259Y-96801295D01*
X197131295Y-96585259D01*
X197385326Y-96415521D01*
X197667590Y-96298604D01*
X197767473Y-96278736D01*
X197967238Y-96239000D01*
X198272762Y-96239000D01*
X198472527Y-96278736D01*
X198472527Y-96278736D01*
G37*
G36*
X107032527Y-95643736D02*
X107132410Y-95663604D01*
X107414674Y-95780521D01*
X107668705Y-95950259D01*
X107884741Y-96166295D01*
X108054479Y-96420326D01*
X108171396Y-96702590D01*
X108186992Y-96780995D01*
X108231000Y-97002238D01*
X108231000Y-97307762D01*
X108212872Y-97398897D01*
X108171396Y-97607410D01*
X108054479Y-97889674D01*
X107884741Y-98143705D01*
X107668705Y-98359741D01*
X107414674Y-98529479D01*
X107132410Y-98646396D01*
X107070463Y-98658718D01*
X106832762Y-98706000D01*
X106527238Y-98706000D01*
X106289537Y-98658718D01*
X106227590Y-98646396D01*
X105945326Y-98529479D01*
X105691295Y-98359741D01*
X105475259Y-98143705D01*
X105305521Y-97889674D01*
X105188604Y-97607410D01*
X105147128Y-97398897D01*
X105129000Y-97307762D01*
X105129000Y-97002238D01*
X105173008Y-96780995D01*
X105188604Y-96702590D01*
X105305521Y-96420326D01*
X105475259Y-96166295D01*
X105691295Y-95950259D01*
X105945326Y-95780521D01*
X106227590Y-95663604D01*
X106327473Y-95643736D01*
X106527238Y-95604000D01*
X106832762Y-95604000D01*
X107032527Y-95643736D01*
X107032527Y-95643736D01*
G37*
G36*
X128713043Y-96993122D02*
X128747390Y-97003541D01*
X128779035Y-97020456D01*
X128806777Y-97043223D01*
X128829544Y-97070965D01*
X128846459Y-97102610D01*
X128856878Y-97136957D01*
X128861000Y-97178807D01*
X128861000Y-98401193D01*
X128856878Y-98443043D01*
X128846459Y-98477390D01*
X128829544Y-98509035D01*
X128806777Y-98536777D01*
X128779035Y-98559544D01*
X128747390Y-98576459D01*
X128713043Y-98586878D01*
X128671193Y-98591000D01*
X126598807Y-98591000D01*
X126556957Y-98586878D01*
X126522610Y-98576459D01*
X126490965Y-98559544D01*
X126463223Y-98536777D01*
X126440456Y-98509035D01*
X126423541Y-98477390D01*
X126413122Y-98443043D01*
X126409000Y-98401193D01*
X126409000Y-97178807D01*
X126413122Y-97136957D01*
X126423541Y-97102610D01*
X126440456Y-97070965D01*
X126463223Y-97043223D01*
X126490965Y-97020456D01*
X126522610Y-97003541D01*
X126556957Y-96993122D01*
X126598807Y-96989000D01*
X128671193Y-96989000D01*
X128713043Y-96993122D01*
X128713043Y-96993122D01*
G37*
G36*
X146638677Y-97313465D02*
X146676364Y-97324898D01*
X146711103Y-97343466D01*
X146741548Y-97368452D01*
X146766534Y-97398897D01*
X146785102Y-97433636D01*
X146796535Y-97471323D01*
X146801000Y-97516661D01*
X146801000Y-98353339D01*
X146796535Y-98398677D01*
X146785102Y-98436364D01*
X146766534Y-98471103D01*
X146741548Y-98501548D01*
X146711103Y-98526534D01*
X146676364Y-98545102D01*
X146638677Y-98556535D01*
X146593339Y-98561000D01*
X145506661Y-98561000D01*
X145461323Y-98556535D01*
X145423636Y-98545102D01*
X145388897Y-98526534D01*
X145358452Y-98501548D01*
X145333466Y-98471103D01*
X145314898Y-98436364D01*
X145303465Y-98398677D01*
X145299000Y-98353339D01*
X145299000Y-97516661D01*
X145303465Y-97471323D01*
X145314898Y-97433636D01*
X145333466Y-97398897D01*
X145358452Y-97368452D01*
X145388897Y-97343466D01*
X145423636Y-97324898D01*
X145461323Y-97313465D01*
X145506661Y-97309000D01*
X146593339Y-97309000D01*
X146638677Y-97313465D01*
X146638677Y-97313465D01*
G37*
G36*
X132033677Y-97168465D02*
X132071364Y-97179898D01*
X132106103Y-97198466D01*
X132136548Y-97223452D01*
X132161534Y-97253897D01*
X132180102Y-97288636D01*
X132191535Y-97326323D01*
X132196000Y-97371661D01*
X132196000Y-98208339D01*
X132191535Y-98253677D01*
X132180102Y-98291364D01*
X132161534Y-98326103D01*
X132136548Y-98356548D01*
X132106103Y-98381534D01*
X132071364Y-98400102D01*
X132033677Y-98411535D01*
X131988339Y-98416000D01*
X130901661Y-98416000D01*
X130856323Y-98411535D01*
X130818636Y-98400102D01*
X130783897Y-98381534D01*
X130753452Y-98356548D01*
X130728466Y-98326103D01*
X130709898Y-98291364D01*
X130698465Y-98253677D01*
X130694000Y-98208339D01*
X130694000Y-97371661D01*
X130698465Y-97326323D01*
X130709898Y-97288636D01*
X130728466Y-97253897D01*
X130753452Y-97223452D01*
X130783897Y-97198466D01*
X130818636Y-97179898D01*
X130856323Y-97168465D01*
X130901661Y-97164000D01*
X131988339Y-97164000D01*
X132033677Y-97168465D01*
X132033677Y-97168465D01*
G37*
G36*
X118241000Y-98196000D02*
X117339000Y-98196000D01*
X117339000Y-97194000D01*
X118241000Y-97194000D01*
X118241000Y-98196000D01*
X118241000Y-98196000D01*
G37*
G36*
X124413677Y-96533465D02*
X124451364Y-96544898D01*
X124486103Y-96563466D01*
X124516548Y-96588452D01*
X124541534Y-96618897D01*
X124560102Y-96653636D01*
X124571535Y-96691323D01*
X124576000Y-96736661D01*
X124576000Y-97573339D01*
X124571535Y-97618677D01*
X124560102Y-97656364D01*
X124541534Y-97691103D01*
X124516548Y-97721548D01*
X124486103Y-97746534D01*
X124451364Y-97765102D01*
X124413677Y-97776535D01*
X124368339Y-97781000D01*
X123281661Y-97781000D01*
X123236323Y-97776535D01*
X123198636Y-97765102D01*
X123163897Y-97746534D01*
X123133452Y-97721548D01*
X123108466Y-97691103D01*
X123089898Y-97656364D01*
X123078465Y-97618677D01*
X123074000Y-97573339D01*
X123074000Y-96736661D01*
X123078465Y-96691323D01*
X123089898Y-96653636D01*
X123108466Y-96618897D01*
X123133452Y-96588452D01*
X123163897Y-96563466D01*
X123198636Y-96544898D01*
X123236323Y-96533465D01*
X123281661Y-96529000D01*
X124368339Y-96529000D01*
X124413677Y-96533465D01*
X124413677Y-96533465D01*
G37*
G36*
X134780721Y-95990174D02*
X134880995Y-96031709D01*
X134971245Y-96092012D01*
X135047988Y-96168755D01*
X135108291Y-96259005D01*
X135149826Y-96359279D01*
X135171000Y-96465730D01*
X135171000Y-96574270D01*
X135149826Y-96680721D01*
X135108291Y-96780995D01*
X135047988Y-96871245D01*
X134971245Y-96947988D01*
X134880995Y-97008291D01*
X134780721Y-97049826D01*
X134674270Y-97071000D01*
X134565730Y-97071000D01*
X134459279Y-97049826D01*
X134359005Y-97008291D01*
X134268755Y-96947988D01*
X134192012Y-96871245D01*
X134131709Y-96780995D01*
X134090174Y-96680721D01*
X134069000Y-96574270D01*
X134069000Y-96465730D01*
X134090174Y-96359279D01*
X134131709Y-96259005D01*
X134192012Y-96168755D01*
X134268755Y-96092012D01*
X134359005Y-96031709D01*
X134459279Y-95990174D01*
X134565730Y-95969000D01*
X134674270Y-95969000D01*
X134780721Y-95990174D01*
X134780721Y-95990174D01*
G37*
G36*
X136812721Y-95990174D02*
X136912995Y-96031709D01*
X137003245Y-96092012D01*
X137079988Y-96168755D01*
X137140291Y-96259005D01*
X137181826Y-96359279D01*
X137203000Y-96465730D01*
X137203000Y-96574270D01*
X137181826Y-96680721D01*
X137140291Y-96780995D01*
X137079988Y-96871245D01*
X137003245Y-96947988D01*
X136912995Y-97008291D01*
X136812721Y-97049826D01*
X136706270Y-97071000D01*
X136597730Y-97071000D01*
X136491279Y-97049826D01*
X136391005Y-97008291D01*
X136300755Y-96947988D01*
X136224012Y-96871245D01*
X136163709Y-96780995D01*
X136122174Y-96680721D01*
X136101000Y-96574270D01*
X136101000Y-96465730D01*
X136122174Y-96359279D01*
X136163709Y-96259005D01*
X136224012Y-96168755D01*
X136300755Y-96092012D01*
X136391005Y-96031709D01*
X136491279Y-95990174D01*
X136597730Y-95969000D01*
X136706270Y-95969000D01*
X136812721Y-95990174D01*
X136812721Y-95990174D01*
G37*
G36*
X146638677Y-95263465D02*
X146676364Y-95274898D01*
X146711103Y-95293466D01*
X146741548Y-95318452D01*
X146766534Y-95348897D01*
X146785102Y-95383636D01*
X146796535Y-95421323D01*
X146801000Y-95466661D01*
X146801000Y-96303339D01*
X146796535Y-96348677D01*
X146785102Y-96386364D01*
X146766534Y-96421103D01*
X146741548Y-96451548D01*
X146711103Y-96476534D01*
X146676364Y-96495102D01*
X146638677Y-96506535D01*
X146593339Y-96511000D01*
X145506661Y-96511000D01*
X145461323Y-96506535D01*
X145423636Y-96495102D01*
X145388897Y-96476534D01*
X145358452Y-96451548D01*
X145333466Y-96421103D01*
X145314898Y-96386364D01*
X145303465Y-96348677D01*
X145299000Y-96303339D01*
X145299000Y-95466661D01*
X145303465Y-95421323D01*
X145314898Y-95383636D01*
X145333466Y-95348897D01*
X145358452Y-95318452D01*
X145388897Y-95293466D01*
X145423636Y-95274898D01*
X145461323Y-95263465D01*
X145506661Y-95259000D01*
X146593339Y-95259000D01*
X146638677Y-95263465D01*
X146638677Y-95263465D01*
G37*
G36*
X112066565Y-93604389D02*
X112257834Y-93683615D01*
X112429976Y-93798637D01*
X112576363Y-93945024D01*
X112691385Y-94117166D01*
X112770611Y-94308435D01*
X112811000Y-94511484D01*
X112811000Y-94718516D01*
X112770611Y-94921565D01*
X112691385Y-95112834D01*
X112576363Y-95284976D01*
X112429976Y-95431363D01*
X112257834Y-95546385D01*
X112066565Y-95625611D01*
X111863516Y-95666000D01*
X111656484Y-95666000D01*
X111453435Y-95625611D01*
X111262166Y-95546385D01*
X111090024Y-95431363D01*
X110943637Y-95284976D01*
X110828615Y-95112834D01*
X110749389Y-94921565D01*
X110709000Y-94718516D01*
X110709000Y-94511484D01*
X110749389Y-94308435D01*
X110828615Y-94117166D01*
X110943637Y-93945024D01*
X111090024Y-93798637D01*
X111262166Y-93683615D01*
X111453435Y-93604389D01*
X111656484Y-93564000D01*
X111863516Y-93564000D01*
X112066565Y-93604389D01*
X112066565Y-93604389D01*
G37*
G36*
X125126000Y-95601000D02*
X123474000Y-95601000D01*
X123474000Y-94899000D01*
X125126000Y-94899000D01*
X125126000Y-95601000D01*
X125126000Y-95601000D01*
G37*
G36*
X130526000Y-95601000D02*
X128874000Y-95601000D01*
X128874000Y-94899000D01*
X130526000Y-94899000D01*
X130526000Y-95601000D01*
X130526000Y-95601000D01*
G37*
G36*
X119843677Y-93868465D02*
X119881364Y-93879898D01*
X119916103Y-93898466D01*
X119946548Y-93923452D01*
X119971534Y-93953897D01*
X119990102Y-93988636D01*
X120001535Y-94026323D01*
X120006000Y-94071661D01*
X120006000Y-95158339D01*
X120001535Y-95203677D01*
X119990102Y-95241364D01*
X119971534Y-95276103D01*
X119946548Y-95306548D01*
X119916103Y-95331534D01*
X119881364Y-95350102D01*
X119843677Y-95361535D01*
X119798339Y-95366000D01*
X118961661Y-95366000D01*
X118916323Y-95361535D01*
X118878636Y-95350102D01*
X118843897Y-95331534D01*
X118813452Y-95306548D01*
X118788466Y-95276103D01*
X118769898Y-95241364D01*
X118758465Y-95203677D01*
X118754000Y-95158339D01*
X118754000Y-94071661D01*
X118758465Y-94026323D01*
X118769898Y-93988636D01*
X118788466Y-93953897D01*
X118813452Y-93923452D01*
X118843897Y-93898466D01*
X118878636Y-93879898D01*
X118916323Y-93868465D01*
X118961661Y-93864000D01*
X119798339Y-93864000D01*
X119843677Y-93868465D01*
X119843677Y-93868465D01*
G37*
G36*
X121893677Y-93868465D02*
X121931364Y-93879898D01*
X121966103Y-93898466D01*
X121996548Y-93923452D01*
X122021534Y-93953897D01*
X122040102Y-93988636D01*
X122051535Y-94026323D01*
X122056000Y-94071661D01*
X122056000Y-95158339D01*
X122051535Y-95203677D01*
X122040102Y-95241364D01*
X122021534Y-95276103D01*
X121996548Y-95306548D01*
X121966103Y-95331534D01*
X121931364Y-95350102D01*
X121893677Y-95361535D01*
X121848339Y-95366000D01*
X121011661Y-95366000D01*
X120966323Y-95361535D01*
X120928636Y-95350102D01*
X120893897Y-95331534D01*
X120863452Y-95306548D01*
X120838466Y-95276103D01*
X120819898Y-95241364D01*
X120808465Y-95203677D01*
X120804000Y-95158339D01*
X120804000Y-94071661D01*
X120808465Y-94026323D01*
X120819898Y-93988636D01*
X120838466Y-93953897D01*
X120863452Y-93923452D01*
X120893897Y-93898466D01*
X120928636Y-93879898D01*
X120966323Y-93868465D01*
X121011661Y-93864000D01*
X121848339Y-93864000D01*
X121893677Y-93868465D01*
X121893677Y-93868465D01*
G37*
G36*
X117428677Y-93503465D02*
X117466364Y-93514898D01*
X117501103Y-93533466D01*
X117531548Y-93558452D01*
X117556534Y-93588897D01*
X117575102Y-93623636D01*
X117586535Y-93661323D01*
X117591000Y-93706661D01*
X117591000Y-94543339D01*
X117586535Y-94588677D01*
X117575102Y-94626364D01*
X117556534Y-94661103D01*
X117531548Y-94691548D01*
X117501103Y-94716534D01*
X117466364Y-94735102D01*
X117428677Y-94746535D01*
X117383339Y-94751000D01*
X116296661Y-94751000D01*
X116251323Y-94746535D01*
X116213636Y-94735102D01*
X116178897Y-94716534D01*
X116148452Y-94691548D01*
X116123466Y-94661103D01*
X116104898Y-94626364D01*
X116093465Y-94588677D01*
X116089000Y-94543339D01*
X116089000Y-93706661D01*
X116093465Y-93661323D01*
X116104898Y-93623636D01*
X116123466Y-93588897D01*
X116148452Y-93558452D01*
X116178897Y-93533466D01*
X116213636Y-93514898D01*
X116251323Y-93503465D01*
X116296661Y-93499000D01*
X117383339Y-93499000D01*
X117428677Y-93503465D01*
X117428677Y-93503465D01*
G37*
G36*
X161753677Y-93233465D02*
X161791364Y-93244898D01*
X161826103Y-93263466D01*
X161856548Y-93288452D01*
X161881534Y-93318897D01*
X161900102Y-93353636D01*
X161911535Y-93391323D01*
X161916000Y-93436661D01*
X161916000Y-94523339D01*
X161911535Y-94568677D01*
X161900102Y-94606364D01*
X161881534Y-94641103D01*
X161856548Y-94671548D01*
X161826103Y-94696534D01*
X161791364Y-94715102D01*
X161753677Y-94726535D01*
X161708339Y-94731000D01*
X160871661Y-94731000D01*
X160826323Y-94726535D01*
X160788636Y-94715102D01*
X160753897Y-94696534D01*
X160723452Y-94671548D01*
X160698466Y-94641103D01*
X160679898Y-94606364D01*
X160668465Y-94568677D01*
X160664000Y-94523339D01*
X160664000Y-93436661D01*
X160668465Y-93391323D01*
X160679898Y-93353636D01*
X160698466Y-93318897D01*
X160723452Y-93288452D01*
X160753897Y-93263466D01*
X160788636Y-93244898D01*
X160826323Y-93233465D01*
X160871661Y-93229000D01*
X161708339Y-93229000D01*
X161753677Y-93233465D01*
X161753677Y-93233465D01*
G37*
G36*
X163803677Y-93233465D02*
X163841364Y-93244898D01*
X163876103Y-93263466D01*
X163906548Y-93288452D01*
X163931534Y-93318897D01*
X163950102Y-93353636D01*
X163961535Y-93391323D01*
X163966000Y-93436661D01*
X163966000Y-94523339D01*
X163961535Y-94568677D01*
X163950102Y-94606364D01*
X163931534Y-94641103D01*
X163906548Y-94671548D01*
X163876103Y-94696534D01*
X163841364Y-94715102D01*
X163803677Y-94726535D01*
X163758339Y-94731000D01*
X162921661Y-94731000D01*
X162876323Y-94726535D01*
X162838636Y-94715102D01*
X162803897Y-94696534D01*
X162773452Y-94671548D01*
X162748466Y-94641103D01*
X162729898Y-94606364D01*
X162718465Y-94568677D01*
X162714000Y-94523339D01*
X162714000Y-93436661D01*
X162718465Y-93391323D01*
X162729898Y-93353636D01*
X162748466Y-93318897D01*
X162773452Y-93288452D01*
X162803897Y-93263466D01*
X162838636Y-93244898D01*
X162876323Y-93233465D01*
X162921661Y-93229000D01*
X163758339Y-93229000D01*
X163803677Y-93233465D01*
X163803677Y-93233465D01*
G37*
G36*
X159338677Y-93358465D02*
X159376364Y-93369898D01*
X159411103Y-93388466D01*
X159441548Y-93413452D01*
X159466534Y-93443897D01*
X159485102Y-93478636D01*
X159496535Y-93516323D01*
X159501000Y-93561661D01*
X159501000Y-94398339D01*
X159496535Y-94443677D01*
X159485102Y-94481364D01*
X159466534Y-94516103D01*
X159441548Y-94546548D01*
X159411103Y-94571534D01*
X159376364Y-94590102D01*
X159338677Y-94601535D01*
X159293339Y-94606000D01*
X158206661Y-94606000D01*
X158161323Y-94601535D01*
X158123636Y-94590102D01*
X158088897Y-94571534D01*
X158058452Y-94546548D01*
X158033466Y-94516103D01*
X158014898Y-94481364D01*
X158003465Y-94443677D01*
X157999000Y-94398339D01*
X157999000Y-93561661D01*
X158003465Y-93516323D01*
X158014898Y-93478636D01*
X158033466Y-93443897D01*
X158058452Y-93413452D01*
X158088897Y-93388466D01*
X158123636Y-93369898D01*
X158161323Y-93358465D01*
X158206661Y-93354000D01*
X159293339Y-93354000D01*
X159338677Y-93358465D01*
X159338677Y-93358465D01*
G37*
G36*
X125126000Y-94331000D02*
X123474000Y-94331000D01*
X123474000Y-93629000D01*
X125126000Y-93629000D01*
X125126000Y-94331000D01*
X125126000Y-94331000D01*
G37*
G36*
X130526000Y-94331000D02*
X128874000Y-94331000D01*
X128874000Y-93629000D01*
X130526000Y-93629000D01*
X130526000Y-94331000D01*
X130526000Y-94331000D01*
G37*
G36*
X146023677Y-92598465D02*
X146061364Y-92609898D01*
X146096103Y-92628466D01*
X146126548Y-92653452D01*
X146151534Y-92683897D01*
X146170102Y-92718636D01*
X146181535Y-92756323D01*
X146186000Y-92801661D01*
X146186000Y-93888339D01*
X146181535Y-93933677D01*
X146170102Y-93971364D01*
X146151534Y-94006103D01*
X146126548Y-94036548D01*
X146096103Y-94061534D01*
X146061364Y-94080102D01*
X146023677Y-94091535D01*
X145978339Y-94096000D01*
X145141661Y-94096000D01*
X145096323Y-94091535D01*
X145058636Y-94080102D01*
X145023897Y-94061534D01*
X144993452Y-94036548D01*
X144968466Y-94006103D01*
X144949898Y-93971364D01*
X144938465Y-93933677D01*
X144934000Y-93888339D01*
X144934000Y-92801661D01*
X144938465Y-92756323D01*
X144949898Y-92718636D01*
X144968466Y-92683897D01*
X144993452Y-92653452D01*
X145023897Y-92628466D01*
X145058636Y-92609898D01*
X145096323Y-92598465D01*
X145141661Y-92594000D01*
X145978339Y-92594000D01*
X146023677Y-92598465D01*
X146023677Y-92598465D01*
G37*
G36*
X143973677Y-92598465D02*
X144011364Y-92609898D01*
X144046103Y-92628466D01*
X144076548Y-92653452D01*
X144101534Y-92683897D01*
X144120102Y-92718636D01*
X144131535Y-92756323D01*
X144136000Y-92801661D01*
X144136000Y-93888339D01*
X144131535Y-93933677D01*
X144120102Y-93971364D01*
X144101534Y-94006103D01*
X144076548Y-94036548D01*
X144046103Y-94061534D01*
X144011364Y-94080102D01*
X143973677Y-94091535D01*
X143928339Y-94096000D01*
X143091661Y-94096000D01*
X143046323Y-94091535D01*
X143008636Y-94080102D01*
X142973897Y-94061534D01*
X142943452Y-94036548D01*
X142918466Y-94006103D01*
X142899898Y-93971364D01*
X142888465Y-93933677D01*
X142884000Y-93888339D01*
X142884000Y-92801661D01*
X142888465Y-92756323D01*
X142899898Y-92718636D01*
X142918466Y-92683897D01*
X142943452Y-92653452D01*
X142973897Y-92628466D01*
X143008636Y-92609898D01*
X143046323Y-92598465D01*
X143091661Y-92594000D01*
X143928339Y-92594000D01*
X143973677Y-92598465D01*
X143973677Y-92598465D01*
G37*
G36*
X155926000Y-94011000D02*
X155224000Y-94011000D01*
X155224000Y-92359000D01*
X155926000Y-92359000D01*
X155926000Y-94011000D01*
X155926000Y-94011000D01*
G37*
G36*
X154656000Y-94011000D02*
X153954000Y-94011000D01*
X153954000Y-92359000D01*
X154656000Y-92359000D01*
X154656000Y-94011000D01*
X154656000Y-94011000D01*
G37*
G36*
X153386000Y-94011000D02*
X152684000Y-94011000D01*
X152684000Y-92359000D01*
X153386000Y-92359000D01*
X153386000Y-94011000D01*
X153386000Y-94011000D01*
G37*
G36*
X152116000Y-94011000D02*
X151414000Y-94011000D01*
X151414000Y-92359000D01*
X152116000Y-92359000D01*
X152116000Y-94011000D01*
X152116000Y-94011000D01*
G37*
G36*
X193346565Y-91699389D02*
X193537834Y-91778615D01*
X193709976Y-91893637D01*
X193856363Y-92040024D01*
X193971385Y-92212166D01*
X194050611Y-92403435D01*
X194091000Y-92606484D01*
X194091000Y-92813516D01*
X194050611Y-93016565D01*
X193971385Y-93207834D01*
X193856363Y-93379976D01*
X193709976Y-93526363D01*
X193537834Y-93641385D01*
X193346565Y-93720611D01*
X193143516Y-93761000D01*
X192936484Y-93761000D01*
X192733435Y-93720611D01*
X192542166Y-93641385D01*
X192370024Y-93526363D01*
X192223637Y-93379976D01*
X192108615Y-93207834D01*
X192029389Y-93016565D01*
X191989000Y-92813516D01*
X191989000Y-92606484D01*
X192029389Y-92403435D01*
X192108615Y-92212166D01*
X192223637Y-92040024D01*
X192370024Y-91893637D01*
X192542166Y-91778615D01*
X192733435Y-91699389D01*
X192936484Y-91659000D01*
X193143516Y-91659000D01*
X193346565Y-91699389D01*
X193346565Y-91699389D01*
G37*
G36*
X112066565Y-91064389D02*
X112257834Y-91143615D01*
X112429976Y-91258637D01*
X112576363Y-91405024D01*
X112691385Y-91577166D01*
X112770611Y-91768435D01*
X112811000Y-91971484D01*
X112811000Y-92178516D01*
X112770611Y-92381565D01*
X112691385Y-92572834D01*
X112576363Y-92744976D01*
X112429976Y-92891363D01*
X112257834Y-93006385D01*
X112066565Y-93085611D01*
X111863516Y-93126000D01*
X111656484Y-93126000D01*
X111453435Y-93085611D01*
X111262166Y-93006385D01*
X111090024Y-92891363D01*
X110943637Y-92744976D01*
X110828615Y-92572834D01*
X110749389Y-92381565D01*
X110709000Y-92178516D01*
X110709000Y-91971484D01*
X110749389Y-91768435D01*
X110828615Y-91577166D01*
X110943637Y-91405024D01*
X111090024Y-91258637D01*
X111262166Y-91143615D01*
X111453435Y-91064389D01*
X111656484Y-91024000D01*
X111863516Y-91024000D01*
X112066565Y-91064389D01*
X112066565Y-91064389D01*
G37*
G36*
X130526000Y-93061000D02*
X128874000Y-93061000D01*
X128874000Y-92359000D01*
X130526000Y-92359000D01*
X130526000Y-93061000D01*
X130526000Y-93061000D01*
G37*
G36*
X125126000Y-93061000D02*
X123474000Y-93061000D01*
X123474000Y-92359000D01*
X125126000Y-92359000D01*
X125126000Y-93061000D01*
X125126000Y-93061000D01*
G37*
G36*
X119843677Y-91328465D02*
X119881364Y-91339898D01*
X119916103Y-91358466D01*
X119946548Y-91383452D01*
X119971534Y-91413897D01*
X119990102Y-91448636D01*
X120001535Y-91486323D01*
X120006000Y-91531661D01*
X120006000Y-92618339D01*
X120001535Y-92663677D01*
X119990102Y-92701364D01*
X119971534Y-92736103D01*
X119946548Y-92766548D01*
X119916103Y-92791534D01*
X119881364Y-92810102D01*
X119843677Y-92821535D01*
X119798339Y-92826000D01*
X118961661Y-92826000D01*
X118916323Y-92821535D01*
X118878636Y-92810102D01*
X118843897Y-92791534D01*
X118813452Y-92766548D01*
X118788466Y-92736103D01*
X118769898Y-92701364D01*
X118758465Y-92663677D01*
X118754000Y-92618339D01*
X118754000Y-91531661D01*
X118758465Y-91486323D01*
X118769898Y-91448636D01*
X118788466Y-91413897D01*
X118813452Y-91383452D01*
X118843897Y-91358466D01*
X118878636Y-91339898D01*
X118916323Y-91328465D01*
X118961661Y-91324000D01*
X119798339Y-91324000D01*
X119843677Y-91328465D01*
X119843677Y-91328465D01*
G37*
G36*
X121893677Y-91328465D02*
X121931364Y-91339898D01*
X121966103Y-91358466D01*
X121996548Y-91383452D01*
X122021534Y-91413897D01*
X122040102Y-91448636D01*
X122051535Y-91486323D01*
X122056000Y-91531661D01*
X122056000Y-92618339D01*
X122051535Y-92663677D01*
X122040102Y-92701364D01*
X122021534Y-92736103D01*
X121996548Y-92766548D01*
X121966103Y-92791534D01*
X121931364Y-92810102D01*
X121893677Y-92821535D01*
X121848339Y-92826000D01*
X121011661Y-92826000D01*
X120966323Y-92821535D01*
X120928636Y-92810102D01*
X120893897Y-92791534D01*
X120863452Y-92766548D01*
X120838466Y-92736103D01*
X120819898Y-92701364D01*
X120808465Y-92663677D01*
X120804000Y-92618339D01*
X120804000Y-91531661D01*
X120808465Y-91486323D01*
X120819898Y-91448636D01*
X120838466Y-91413897D01*
X120863452Y-91383452D01*
X120893897Y-91358466D01*
X120928636Y-91339898D01*
X120966323Y-91328465D01*
X121011661Y-91324000D01*
X121848339Y-91324000D01*
X121893677Y-91328465D01*
X121893677Y-91328465D01*
G37*
G36*
X132668677Y-91453465D02*
X132706364Y-91464898D01*
X132741103Y-91483466D01*
X132771548Y-91508452D01*
X132796534Y-91538897D01*
X132815102Y-91573636D01*
X132826535Y-91611323D01*
X132831000Y-91656661D01*
X132831000Y-92493339D01*
X132826535Y-92538677D01*
X132815102Y-92576364D01*
X132796534Y-92611103D01*
X132771548Y-92641548D01*
X132741103Y-92666534D01*
X132706364Y-92685102D01*
X132668677Y-92696535D01*
X132623339Y-92701000D01*
X131536661Y-92701000D01*
X131491323Y-92696535D01*
X131453636Y-92685102D01*
X131418897Y-92666534D01*
X131388452Y-92641548D01*
X131363466Y-92611103D01*
X131344898Y-92576364D01*
X131333465Y-92538677D01*
X131329000Y-92493339D01*
X131329000Y-91656661D01*
X131333465Y-91611323D01*
X131344898Y-91573636D01*
X131363466Y-91538897D01*
X131388452Y-91508452D01*
X131418897Y-91483466D01*
X131453636Y-91464898D01*
X131491323Y-91453465D01*
X131536661Y-91449000D01*
X132623339Y-91449000D01*
X132668677Y-91453465D01*
X132668677Y-91453465D01*
G37*
G36*
X139653677Y-91453465D02*
X139691364Y-91464898D01*
X139726103Y-91483466D01*
X139756548Y-91508452D01*
X139781534Y-91538897D01*
X139800102Y-91573636D01*
X139811535Y-91611323D01*
X139816000Y-91656661D01*
X139816000Y-92493339D01*
X139811535Y-92538677D01*
X139800102Y-92576364D01*
X139781534Y-92611103D01*
X139756548Y-92641548D01*
X139726103Y-92666534D01*
X139691364Y-92685102D01*
X139653677Y-92696535D01*
X139608339Y-92701000D01*
X138521661Y-92701000D01*
X138476323Y-92696535D01*
X138438636Y-92685102D01*
X138403897Y-92666534D01*
X138373452Y-92641548D01*
X138348466Y-92611103D01*
X138329898Y-92576364D01*
X138318465Y-92538677D01*
X138314000Y-92493339D01*
X138314000Y-91656661D01*
X138318465Y-91611323D01*
X138329898Y-91573636D01*
X138348466Y-91538897D01*
X138373452Y-91508452D01*
X138403897Y-91483466D01*
X138438636Y-91464898D01*
X138476323Y-91453465D01*
X138521661Y-91449000D01*
X139608339Y-91449000D01*
X139653677Y-91453465D01*
X139653677Y-91453465D01*
G37*
G36*
X117428677Y-91453465D02*
X117466364Y-91464898D01*
X117501103Y-91483466D01*
X117531548Y-91508452D01*
X117556534Y-91538897D01*
X117575102Y-91573636D01*
X117586535Y-91611323D01*
X117591000Y-91656661D01*
X117591000Y-92493339D01*
X117586535Y-92538677D01*
X117575102Y-92576364D01*
X117556534Y-92611103D01*
X117531548Y-92641548D01*
X117501103Y-92666534D01*
X117466364Y-92685102D01*
X117428677Y-92696535D01*
X117383339Y-92701000D01*
X116296661Y-92701000D01*
X116251323Y-92696535D01*
X116213636Y-92685102D01*
X116178897Y-92666534D01*
X116148452Y-92641548D01*
X116123466Y-92611103D01*
X116104898Y-92576364D01*
X116093465Y-92538677D01*
X116089000Y-92493339D01*
X116089000Y-91656661D01*
X116093465Y-91611323D01*
X116104898Y-91573636D01*
X116123466Y-91538897D01*
X116148452Y-91508452D01*
X116178897Y-91483466D01*
X116213636Y-91464898D01*
X116251323Y-91453465D01*
X116296661Y-91449000D01*
X117383339Y-91449000D01*
X117428677Y-91453465D01*
X117428677Y-91453465D01*
G37*
G36*
X136333043Y-90998122D02*
X136367390Y-91008541D01*
X136399035Y-91025456D01*
X136426777Y-91048223D01*
X136449544Y-91075965D01*
X136466459Y-91107610D01*
X136476878Y-91141957D01*
X136481000Y-91183807D01*
X136481000Y-92406193D01*
X136476878Y-92448043D01*
X136466459Y-92482390D01*
X136449544Y-92514035D01*
X136426777Y-92541777D01*
X136399035Y-92564544D01*
X136367390Y-92581459D01*
X136333043Y-92591878D01*
X136291193Y-92596000D01*
X134218807Y-92596000D01*
X134176957Y-92591878D01*
X134142610Y-92581459D01*
X134110965Y-92564544D01*
X134083223Y-92541777D01*
X134060456Y-92514035D01*
X134043541Y-92482390D01*
X134033122Y-92448043D01*
X134029000Y-92406193D01*
X134029000Y-91183807D01*
X134033122Y-91141957D01*
X134043541Y-91107610D01*
X134060456Y-91075965D01*
X134083223Y-91048223D01*
X134110965Y-91025456D01*
X134142610Y-91008541D01*
X134176957Y-90998122D01*
X134218807Y-90994000D01*
X136291193Y-90994000D01*
X136333043Y-90998122D01*
X136333043Y-90998122D01*
G37*
G36*
X159338677Y-91308465D02*
X159376364Y-91319898D01*
X159411103Y-91338466D01*
X159441548Y-91363452D01*
X159466534Y-91393897D01*
X159485102Y-91428636D01*
X159496535Y-91466323D01*
X159501000Y-91511661D01*
X159501000Y-92348339D01*
X159496535Y-92393677D01*
X159485102Y-92431364D01*
X159466534Y-92466103D01*
X159441548Y-92496548D01*
X159411103Y-92521534D01*
X159376364Y-92540102D01*
X159338677Y-92551535D01*
X159293339Y-92556000D01*
X158206661Y-92556000D01*
X158161323Y-92551535D01*
X158123636Y-92540102D01*
X158088897Y-92521534D01*
X158058452Y-92496548D01*
X158033466Y-92466103D01*
X158014898Y-92431364D01*
X158003465Y-92393677D01*
X157999000Y-92348339D01*
X157999000Y-91511661D01*
X158003465Y-91466323D01*
X158014898Y-91428636D01*
X158033466Y-91393897D01*
X158058452Y-91363452D01*
X158088897Y-91338466D01*
X158123636Y-91319898D01*
X158161323Y-91308465D01*
X158206661Y-91304000D01*
X159293339Y-91304000D01*
X159338677Y-91308465D01*
X159338677Y-91308465D01*
G37*
G36*
X125126000Y-91791000D02*
X123474000Y-91791000D01*
X123474000Y-91089000D01*
X125126000Y-91089000D01*
X125126000Y-91791000D01*
X125126000Y-91791000D01*
G37*
G36*
X130526000Y-91791000D02*
X128874000Y-91791000D01*
X128874000Y-91089000D01*
X130526000Y-91089000D01*
X130526000Y-91791000D01*
X130526000Y-91791000D01*
G37*
G36*
X151593677Y-90058465D02*
X151631364Y-90069898D01*
X151666103Y-90088466D01*
X151696548Y-90113452D01*
X151721534Y-90143897D01*
X151740102Y-90178636D01*
X151751535Y-90216323D01*
X151756000Y-90261661D01*
X151756000Y-91348339D01*
X151751535Y-91393677D01*
X151740102Y-91431364D01*
X151721534Y-91466103D01*
X151696548Y-91496548D01*
X151666103Y-91521534D01*
X151631364Y-91540102D01*
X151593677Y-91551535D01*
X151548339Y-91556000D01*
X150711661Y-91556000D01*
X150666323Y-91551535D01*
X150628636Y-91540102D01*
X150593897Y-91521534D01*
X150563452Y-91496548D01*
X150538466Y-91466103D01*
X150519898Y-91431364D01*
X150508465Y-91393677D01*
X150504000Y-91348339D01*
X150504000Y-90261661D01*
X150508465Y-90216323D01*
X150519898Y-90178636D01*
X150538466Y-90143897D01*
X150563452Y-90113452D01*
X150593897Y-90088466D01*
X150628636Y-90069898D01*
X150666323Y-90058465D01*
X150711661Y-90054000D01*
X151548339Y-90054000D01*
X151593677Y-90058465D01*
X151593677Y-90058465D01*
G37*
G36*
X149543677Y-90058465D02*
X149581364Y-90069898D01*
X149616103Y-90088466D01*
X149646548Y-90113452D01*
X149671534Y-90143897D01*
X149690102Y-90178636D01*
X149701535Y-90216323D01*
X149706000Y-90261661D01*
X149706000Y-91348339D01*
X149701535Y-91393677D01*
X149690102Y-91431364D01*
X149671534Y-91466103D01*
X149646548Y-91496548D01*
X149616103Y-91521534D01*
X149581364Y-91540102D01*
X149543677Y-91551535D01*
X149498339Y-91556000D01*
X148661661Y-91556000D01*
X148616323Y-91551535D01*
X148578636Y-91540102D01*
X148543897Y-91521534D01*
X148513452Y-91496548D01*
X148488466Y-91466103D01*
X148469898Y-91431364D01*
X148458465Y-91393677D01*
X148454000Y-91348339D01*
X148454000Y-90261661D01*
X148458465Y-90216323D01*
X148469898Y-90178636D01*
X148488466Y-90143897D01*
X148513452Y-90113452D01*
X148543897Y-90088466D01*
X148578636Y-90069898D01*
X148616323Y-90058465D01*
X148661661Y-90054000D01*
X149498339Y-90054000D01*
X149543677Y-90058465D01*
X149543677Y-90058465D01*
G37*
G36*
X193346565Y-89159389D02*
X193537834Y-89238615D01*
X193709976Y-89353637D01*
X193856363Y-89500024D01*
X193971385Y-89672166D01*
X194050611Y-89863435D01*
X194091000Y-90066484D01*
X194091000Y-90273516D01*
X194050611Y-90476565D01*
X193971385Y-90667834D01*
X193856363Y-90839976D01*
X193709976Y-90986363D01*
X193537834Y-91101385D01*
X193346565Y-91180611D01*
X193143516Y-91221000D01*
X192936484Y-91221000D01*
X192733435Y-91180611D01*
X192542166Y-91101385D01*
X192370024Y-90986363D01*
X192223637Y-90839976D01*
X192108615Y-90667834D01*
X192029389Y-90476565D01*
X191989000Y-90273516D01*
X191989000Y-90066484D01*
X192029389Y-89863435D01*
X192108615Y-89672166D01*
X192223637Y-89500024D01*
X192370024Y-89353637D01*
X192542166Y-89238615D01*
X192733435Y-89159389D01*
X192936484Y-89119000D01*
X193143516Y-89119000D01*
X193346565Y-89159389D01*
X193346565Y-89159389D01*
G37*
G36*
X156428677Y-89423465D02*
X156466364Y-89434898D01*
X156501103Y-89453466D01*
X156531548Y-89478452D01*
X156556534Y-89508897D01*
X156575102Y-89543636D01*
X156586535Y-89581323D01*
X156591000Y-89626661D01*
X156591000Y-90713339D01*
X156586535Y-90758677D01*
X156575102Y-90796364D01*
X156556534Y-90831103D01*
X156531548Y-90861548D01*
X156501103Y-90886534D01*
X156466364Y-90905102D01*
X156428677Y-90916535D01*
X156383339Y-90921000D01*
X155546661Y-90921000D01*
X155501323Y-90916535D01*
X155463636Y-90905102D01*
X155428897Y-90886534D01*
X155398452Y-90861548D01*
X155373466Y-90831103D01*
X155354898Y-90796364D01*
X155343465Y-90758677D01*
X155339000Y-90713339D01*
X155339000Y-89626661D01*
X155343465Y-89581323D01*
X155354898Y-89543636D01*
X155373466Y-89508897D01*
X155398452Y-89478452D01*
X155428897Y-89453466D01*
X155463636Y-89434898D01*
X155501323Y-89423465D01*
X155546661Y-89419000D01*
X156383339Y-89419000D01*
X156428677Y-89423465D01*
X156428677Y-89423465D01*
G37*
G36*
X154378677Y-89423465D02*
X154416364Y-89434898D01*
X154451103Y-89453466D01*
X154481548Y-89478452D01*
X154506534Y-89508897D01*
X154525102Y-89543636D01*
X154536535Y-89581323D01*
X154541000Y-89626661D01*
X154541000Y-90713339D01*
X154536535Y-90758677D01*
X154525102Y-90796364D01*
X154506534Y-90831103D01*
X154481548Y-90861548D01*
X154451103Y-90886534D01*
X154416364Y-90905102D01*
X154378677Y-90916535D01*
X154333339Y-90921000D01*
X153496661Y-90921000D01*
X153451323Y-90916535D01*
X153413636Y-90905102D01*
X153378897Y-90886534D01*
X153348452Y-90861548D01*
X153323466Y-90831103D01*
X153304898Y-90796364D01*
X153293465Y-90758677D01*
X153289000Y-90713339D01*
X153289000Y-89626661D01*
X153293465Y-89581323D01*
X153304898Y-89543636D01*
X153323466Y-89508897D01*
X153348452Y-89478452D01*
X153378897Y-89453466D01*
X153413636Y-89434898D01*
X153451323Y-89423465D01*
X153496661Y-89419000D01*
X154333339Y-89419000D01*
X154378677Y-89423465D01*
X154378677Y-89423465D01*
G37*
G36*
X139653677Y-89403465D02*
X139691364Y-89414898D01*
X139726103Y-89433466D01*
X139756548Y-89458452D01*
X139781534Y-89488897D01*
X139800102Y-89523636D01*
X139811535Y-89561323D01*
X139816000Y-89606661D01*
X139816000Y-90443339D01*
X139811535Y-90488677D01*
X139800102Y-90526364D01*
X139781534Y-90561103D01*
X139756548Y-90591548D01*
X139726103Y-90616534D01*
X139691364Y-90635102D01*
X139653677Y-90646535D01*
X139608339Y-90651000D01*
X138521661Y-90651000D01*
X138476323Y-90646535D01*
X138438636Y-90635102D01*
X138403897Y-90616534D01*
X138373452Y-90591548D01*
X138348466Y-90561103D01*
X138329898Y-90526364D01*
X138318465Y-90488677D01*
X138314000Y-90443339D01*
X138314000Y-89606661D01*
X138318465Y-89561323D01*
X138329898Y-89523636D01*
X138348466Y-89488897D01*
X138373452Y-89458452D01*
X138403897Y-89433466D01*
X138438636Y-89414898D01*
X138476323Y-89403465D01*
X138521661Y-89399000D01*
X139608339Y-89399000D01*
X139653677Y-89403465D01*
X139653677Y-89403465D01*
G37*
G36*
X132668677Y-89403465D02*
X132706364Y-89414898D01*
X132741103Y-89433466D01*
X132771548Y-89458452D01*
X132796534Y-89488897D01*
X132815102Y-89523636D01*
X132826535Y-89561323D01*
X132831000Y-89606661D01*
X132831000Y-90443339D01*
X132826535Y-90488677D01*
X132815102Y-90526364D01*
X132796534Y-90561103D01*
X132771548Y-90591548D01*
X132741103Y-90616534D01*
X132706364Y-90635102D01*
X132668677Y-90646535D01*
X132623339Y-90651000D01*
X131536661Y-90651000D01*
X131491323Y-90646535D01*
X131453636Y-90635102D01*
X131418897Y-90616534D01*
X131388452Y-90591548D01*
X131363466Y-90561103D01*
X131344898Y-90526364D01*
X131333465Y-90488677D01*
X131329000Y-90443339D01*
X131329000Y-89606661D01*
X131333465Y-89561323D01*
X131344898Y-89523636D01*
X131363466Y-89488897D01*
X131388452Y-89458452D01*
X131418897Y-89433466D01*
X131453636Y-89414898D01*
X131491323Y-89403465D01*
X131536661Y-89399000D01*
X132623339Y-89399000D01*
X132668677Y-89403465D01*
X132668677Y-89403465D01*
G37*
G36*
X117291000Y-90036000D02*
X116389000Y-90036000D01*
X116389000Y-89034000D01*
X117291000Y-89034000D01*
X117291000Y-90036000D01*
X117291000Y-90036000D01*
G37*
G36*
X119191000Y-90036000D02*
X118289000Y-90036000D01*
X118289000Y-89034000D01*
X119191000Y-89034000D01*
X119191000Y-90036000D01*
X119191000Y-90036000D01*
G37*
G36*
X126438677Y-88153465D02*
X126476364Y-88164898D01*
X126511103Y-88183466D01*
X126541548Y-88208452D01*
X126566534Y-88238897D01*
X126585102Y-88273636D01*
X126596535Y-88311323D01*
X126601000Y-88356661D01*
X126601000Y-89443339D01*
X126596535Y-89488677D01*
X126585102Y-89526364D01*
X126566534Y-89561103D01*
X126541548Y-89591548D01*
X126511103Y-89616534D01*
X126476364Y-89635102D01*
X126438677Y-89646535D01*
X126393339Y-89651000D01*
X125556661Y-89651000D01*
X125511323Y-89646535D01*
X125473636Y-89635102D01*
X125438897Y-89616534D01*
X125408452Y-89591548D01*
X125383466Y-89561103D01*
X125364898Y-89526364D01*
X125353465Y-89488677D01*
X125349000Y-89443339D01*
X125349000Y-88356661D01*
X125353465Y-88311323D01*
X125364898Y-88273636D01*
X125383466Y-88238897D01*
X125408452Y-88208452D01*
X125438897Y-88183466D01*
X125473636Y-88164898D01*
X125511323Y-88153465D01*
X125556661Y-88149000D01*
X126393339Y-88149000D01*
X126438677Y-88153465D01*
X126438677Y-88153465D01*
G37*
G36*
X128488677Y-88153465D02*
X128526364Y-88164898D01*
X128561103Y-88183466D01*
X128591548Y-88208452D01*
X128616534Y-88238897D01*
X128635102Y-88273636D01*
X128646535Y-88311323D01*
X128651000Y-88356661D01*
X128651000Y-89443339D01*
X128646535Y-89488677D01*
X128635102Y-89526364D01*
X128616534Y-89561103D01*
X128591548Y-89591548D01*
X128561103Y-89616534D01*
X128526364Y-89635102D01*
X128488677Y-89646535D01*
X128443339Y-89651000D01*
X127606661Y-89651000D01*
X127561323Y-89646535D01*
X127523636Y-89635102D01*
X127488897Y-89616534D01*
X127458452Y-89591548D01*
X127433466Y-89561103D01*
X127414898Y-89526364D01*
X127403465Y-89488677D01*
X127399000Y-89443339D01*
X127399000Y-88356661D01*
X127403465Y-88311323D01*
X127414898Y-88273636D01*
X127433466Y-88238897D01*
X127458452Y-88208452D01*
X127488897Y-88183466D01*
X127523636Y-88164898D01*
X127561323Y-88153465D01*
X127606661Y-88149000D01*
X128443339Y-88149000D01*
X128488677Y-88153465D01*
X128488677Y-88153465D01*
G37*
G36*
X136333043Y-87748122D02*
X136367390Y-87758541D01*
X136399035Y-87775456D01*
X136426777Y-87798223D01*
X136449544Y-87825965D01*
X136466459Y-87857610D01*
X136476878Y-87891957D01*
X136481000Y-87933807D01*
X136481000Y-89156193D01*
X136476878Y-89198043D01*
X136466459Y-89232390D01*
X136449544Y-89264035D01*
X136426777Y-89291777D01*
X136399035Y-89314544D01*
X136367390Y-89331459D01*
X136333043Y-89341878D01*
X136291193Y-89346000D01*
X134218807Y-89346000D01*
X134176957Y-89341878D01*
X134142610Y-89331459D01*
X134110965Y-89314544D01*
X134083223Y-89291777D01*
X134060456Y-89264035D01*
X134043541Y-89232390D01*
X134033122Y-89198043D01*
X134029000Y-89156193D01*
X134029000Y-87933807D01*
X134033122Y-87891957D01*
X134043541Y-87857610D01*
X134060456Y-87825965D01*
X134083223Y-87798223D01*
X134110965Y-87775456D01*
X134142610Y-87758541D01*
X134176957Y-87748122D01*
X134218807Y-87744000D01*
X136291193Y-87744000D01*
X136333043Y-87748122D01*
X136333043Y-87748122D01*
G37*
G36*
X198472527Y-86118736D02*
X198572410Y-86138604D01*
X198854674Y-86255521D01*
X199108705Y-86425259D01*
X199324741Y-86641295D01*
X199494479Y-86895326D01*
X199611396Y-87177590D01*
X199626801Y-87255038D01*
X199671000Y-87477238D01*
X199671000Y-87782762D01*
X199645924Y-87908824D01*
X199611396Y-88082410D01*
X199494479Y-88364674D01*
X199324741Y-88618705D01*
X199108705Y-88834741D01*
X198854674Y-89004479D01*
X198572410Y-89121396D01*
X198472527Y-89141264D01*
X198272762Y-89181000D01*
X197967238Y-89181000D01*
X197767473Y-89141264D01*
X197667590Y-89121396D01*
X197385326Y-89004479D01*
X197131295Y-88834741D01*
X196915259Y-88618705D01*
X196745521Y-88364674D01*
X196628604Y-88082410D01*
X196594076Y-87908824D01*
X196569000Y-87782762D01*
X196569000Y-87477238D01*
X196613199Y-87255038D01*
X196628604Y-87177590D01*
X196745521Y-86895326D01*
X196915259Y-86641295D01*
X197131295Y-86425259D01*
X197385326Y-86255521D01*
X197667590Y-86138604D01*
X197767473Y-86118736D01*
X197967238Y-86079000D01*
X198272762Y-86079000D01*
X198472527Y-86118736D01*
X198472527Y-86118736D01*
G37*
G36*
X148253043Y-86408122D02*
X148287390Y-86418541D01*
X148319035Y-86435456D01*
X148346777Y-86458223D01*
X148369544Y-86485965D01*
X148386459Y-86517610D01*
X148396878Y-86551957D01*
X148401000Y-86593807D01*
X148401000Y-88666193D01*
X148396878Y-88708043D01*
X148386459Y-88742390D01*
X148369544Y-88774035D01*
X148346777Y-88801777D01*
X148319035Y-88824544D01*
X148287390Y-88841459D01*
X148253043Y-88851878D01*
X148211193Y-88856000D01*
X146988807Y-88856000D01*
X146946957Y-88851878D01*
X146912610Y-88841459D01*
X146880965Y-88824544D01*
X146853223Y-88801777D01*
X146830456Y-88774035D01*
X146813541Y-88742390D01*
X146803122Y-88708043D01*
X146799000Y-88666193D01*
X146799000Y-86593807D01*
X146803122Y-86551957D01*
X146813541Y-86517610D01*
X146830456Y-86485965D01*
X146853223Y-86458223D01*
X146880965Y-86435456D01*
X146912610Y-86418541D01*
X146946957Y-86408122D01*
X146988807Y-86404000D01*
X148211193Y-86404000D01*
X148253043Y-86408122D01*
X148253043Y-86408122D01*
G37*
G36*
X151503043Y-86408122D02*
X151537390Y-86418541D01*
X151569035Y-86435456D01*
X151596777Y-86458223D01*
X151619544Y-86485965D01*
X151636459Y-86517610D01*
X151646878Y-86551957D01*
X151651000Y-86593807D01*
X151651000Y-88666193D01*
X151646878Y-88708043D01*
X151636459Y-88742390D01*
X151619544Y-88774035D01*
X151596777Y-88801777D01*
X151569035Y-88824544D01*
X151537390Y-88841459D01*
X151503043Y-88851878D01*
X151461193Y-88856000D01*
X150238807Y-88856000D01*
X150196957Y-88851878D01*
X150162610Y-88841459D01*
X150130965Y-88824544D01*
X150103223Y-88801777D01*
X150080456Y-88774035D01*
X150063541Y-88742390D01*
X150053122Y-88708043D01*
X150049000Y-88666193D01*
X150049000Y-86593807D01*
X150053122Y-86551957D01*
X150063541Y-86517610D01*
X150080456Y-86485965D01*
X150103223Y-86458223D01*
X150130965Y-86435456D01*
X150162610Y-86418541D01*
X150196957Y-86408122D01*
X150238807Y-86404000D01*
X151461193Y-86404000D01*
X151503043Y-86408122D01*
X151503043Y-86408122D01*
G37*
G36*
X107032527Y-85483736D02*
X107132410Y-85503604D01*
X107414674Y-85620521D01*
X107668705Y-85790259D01*
X107884741Y-86006295D01*
X108054479Y-86260326D01*
X108147941Y-86485965D01*
X108171396Y-86542591D01*
X108231000Y-86842238D01*
X108231000Y-87147762D01*
X108210392Y-87251364D01*
X108171396Y-87447410D01*
X108054479Y-87729674D01*
X107884741Y-87983705D01*
X107668705Y-88199741D01*
X107414674Y-88369479D01*
X107132410Y-88486396D01*
X107032527Y-88506264D01*
X106832762Y-88546000D01*
X106527238Y-88546000D01*
X106327473Y-88506264D01*
X106227590Y-88486396D01*
X105945326Y-88369479D01*
X105691295Y-88199741D01*
X105475259Y-87983705D01*
X105305521Y-87729674D01*
X105188604Y-87447410D01*
X105149608Y-87251364D01*
X105129000Y-87147762D01*
X105129000Y-86842238D01*
X105188604Y-86542591D01*
X105212059Y-86485965D01*
X105305521Y-86260326D01*
X105475259Y-86006295D01*
X105691295Y-85790259D01*
X105945326Y-85620521D01*
X106227590Y-85503604D01*
X106327473Y-85483736D01*
X106527238Y-85444000D01*
X106832762Y-85444000D01*
X107032527Y-85483736D01*
X107032527Y-85483736D01*
G37*
G36*
X118241000Y-88036000D02*
X117339000Y-88036000D01*
X117339000Y-87034000D01*
X118241000Y-87034000D01*
X118241000Y-88036000D01*
X118241000Y-88036000D01*
G37*
G36*
X125048677Y-86128465D02*
X125086364Y-86139898D01*
X125121103Y-86158466D01*
X125151548Y-86183452D01*
X125176534Y-86213897D01*
X125195102Y-86248636D01*
X125206535Y-86286323D01*
X125211000Y-86331661D01*
X125211000Y-87168339D01*
X125206535Y-87213677D01*
X125195102Y-87251364D01*
X125176534Y-87286103D01*
X125151548Y-87316548D01*
X125121103Y-87341534D01*
X125086364Y-87360102D01*
X125048677Y-87371535D01*
X125003339Y-87376000D01*
X123916661Y-87376000D01*
X123871323Y-87371535D01*
X123833636Y-87360102D01*
X123798897Y-87341534D01*
X123768452Y-87316548D01*
X123743466Y-87286103D01*
X123724898Y-87251364D01*
X123713465Y-87213677D01*
X123709000Y-87168339D01*
X123709000Y-86331661D01*
X123713465Y-86286323D01*
X123724898Y-86248636D01*
X123743466Y-86213897D01*
X123768452Y-86183452D01*
X123798897Y-86158466D01*
X123833636Y-86139898D01*
X123871323Y-86128465D01*
X123916661Y-86124000D01*
X125003339Y-86124000D01*
X125048677Y-86128465D01*
X125048677Y-86128465D01*
G37*
G36*
X132496000Y-87211000D02*
X130394000Y-87211000D01*
X130394000Y-85509000D01*
X132496000Y-85509000D01*
X132496000Y-87211000D01*
X132496000Y-87211000D01*
G37*
G36*
X159358677Y-85613465D02*
X159396364Y-85624898D01*
X159431103Y-85643466D01*
X159461548Y-85668452D01*
X159486534Y-85698897D01*
X159505102Y-85733636D01*
X159516535Y-85771323D01*
X159521000Y-85816661D01*
X159521000Y-86903339D01*
X159516535Y-86948677D01*
X159505102Y-86986364D01*
X159486534Y-87021103D01*
X159461548Y-87051548D01*
X159431103Y-87076534D01*
X159396364Y-87095102D01*
X159358677Y-87106535D01*
X159313339Y-87111000D01*
X158476661Y-87111000D01*
X158431323Y-87106535D01*
X158393636Y-87095102D01*
X158358897Y-87076534D01*
X158328452Y-87051548D01*
X158303466Y-87021103D01*
X158284898Y-86986364D01*
X158273465Y-86948677D01*
X158269000Y-86903339D01*
X158269000Y-85816661D01*
X158273465Y-85771323D01*
X158284898Y-85733636D01*
X158303466Y-85698897D01*
X158328452Y-85668452D01*
X158358897Y-85643466D01*
X158393636Y-85624898D01*
X158431323Y-85613465D01*
X158476661Y-85609000D01*
X159313339Y-85609000D01*
X159358677Y-85613465D01*
X159358677Y-85613465D01*
G37*
G36*
X157308677Y-85613465D02*
X157346364Y-85624898D01*
X157381103Y-85643466D01*
X157411548Y-85668452D01*
X157436534Y-85698897D01*
X157455102Y-85733636D01*
X157466535Y-85771323D01*
X157471000Y-85816661D01*
X157471000Y-86903339D01*
X157466535Y-86948677D01*
X157455102Y-86986364D01*
X157436534Y-87021103D01*
X157411548Y-87051548D01*
X157381103Y-87076534D01*
X157346364Y-87095102D01*
X157308677Y-87106535D01*
X157263339Y-87111000D01*
X156426661Y-87111000D01*
X156381323Y-87106535D01*
X156343636Y-87095102D01*
X156308897Y-87076534D01*
X156278452Y-87051548D01*
X156253466Y-87021103D01*
X156234898Y-86986364D01*
X156223465Y-86948677D01*
X156219000Y-86903339D01*
X156219000Y-85816661D01*
X156223465Y-85771323D01*
X156234898Y-85733636D01*
X156253466Y-85698897D01*
X156278452Y-85668452D01*
X156308897Y-85643466D01*
X156343636Y-85624898D01*
X156381323Y-85613465D01*
X156426661Y-85609000D01*
X157263339Y-85609000D01*
X157308677Y-85613465D01*
X157308677Y-85613465D01*
G37*
G36*
X182833677Y-84858465D02*
X182871364Y-84869898D01*
X182906103Y-84888466D01*
X182936548Y-84913452D01*
X182961534Y-84943897D01*
X182980102Y-84978636D01*
X182991535Y-85016323D01*
X182996000Y-85061661D01*
X182996000Y-85898339D01*
X182991535Y-85943677D01*
X182980102Y-85981364D01*
X182961534Y-86016103D01*
X182936548Y-86046548D01*
X182906103Y-86071534D01*
X182871364Y-86090102D01*
X182833677Y-86101535D01*
X182788339Y-86106000D01*
X181701661Y-86106000D01*
X181656323Y-86101535D01*
X181618636Y-86090102D01*
X181583897Y-86071534D01*
X181553452Y-86046548D01*
X181528466Y-86016103D01*
X181509898Y-85981364D01*
X181498465Y-85943677D01*
X181494000Y-85898339D01*
X181494000Y-85061661D01*
X181498465Y-85016323D01*
X181509898Y-84978636D01*
X181528466Y-84943897D01*
X181553452Y-84913452D01*
X181583897Y-84888466D01*
X181618636Y-84869898D01*
X181656323Y-84858465D01*
X181701661Y-84854000D01*
X182788339Y-84854000D01*
X182833677Y-84858465D01*
X182833677Y-84858465D01*
G37*
G36*
X125048677Y-84078465D02*
X125086364Y-84089898D01*
X125121103Y-84108466D01*
X125151548Y-84133452D01*
X125176534Y-84163897D01*
X125195102Y-84198636D01*
X125206535Y-84236323D01*
X125211000Y-84281661D01*
X125211000Y-85118339D01*
X125206535Y-85163677D01*
X125195102Y-85201364D01*
X125176534Y-85236103D01*
X125151548Y-85266548D01*
X125121103Y-85291534D01*
X125086364Y-85310102D01*
X125048677Y-85321535D01*
X125003339Y-85326000D01*
X123916661Y-85326000D01*
X123871323Y-85321535D01*
X123833636Y-85310102D01*
X123798897Y-85291534D01*
X123768452Y-85266548D01*
X123743466Y-85236103D01*
X123724898Y-85201364D01*
X123713465Y-85163677D01*
X123709000Y-85118339D01*
X123709000Y-84281661D01*
X123713465Y-84236323D01*
X123724898Y-84198636D01*
X123743466Y-84163897D01*
X123768452Y-84133452D01*
X123798897Y-84108466D01*
X123833636Y-84089898D01*
X123871323Y-84078465D01*
X123916661Y-84074000D01*
X125003339Y-84074000D01*
X125048677Y-84078465D01*
X125048677Y-84078465D01*
G37*
G36*
X151593677Y-83708465D02*
X151631364Y-83719898D01*
X151666103Y-83738466D01*
X151696548Y-83763452D01*
X151721534Y-83793897D01*
X151740102Y-83828636D01*
X151751535Y-83866323D01*
X151756000Y-83911661D01*
X151756000Y-84998339D01*
X151751535Y-85043677D01*
X151740102Y-85081364D01*
X151721534Y-85116103D01*
X151696548Y-85146548D01*
X151666103Y-85171534D01*
X151631364Y-85190102D01*
X151593677Y-85201535D01*
X151548339Y-85206000D01*
X150711661Y-85206000D01*
X150666323Y-85201535D01*
X150628636Y-85190102D01*
X150593897Y-85171534D01*
X150563452Y-85146548D01*
X150538466Y-85116103D01*
X150519898Y-85081364D01*
X150508465Y-85043677D01*
X150504000Y-84998339D01*
X150504000Y-83911661D01*
X150508465Y-83866323D01*
X150519898Y-83828636D01*
X150538466Y-83793897D01*
X150563452Y-83763452D01*
X150593897Y-83738466D01*
X150628636Y-83719898D01*
X150666323Y-83708465D01*
X150711661Y-83704000D01*
X151548339Y-83704000D01*
X151593677Y-83708465D01*
X151593677Y-83708465D01*
G37*
G36*
X149543677Y-83708465D02*
X149581364Y-83719898D01*
X149616103Y-83738466D01*
X149646548Y-83763452D01*
X149671534Y-83793897D01*
X149690102Y-83828636D01*
X149701535Y-83866323D01*
X149706000Y-83911661D01*
X149706000Y-84998339D01*
X149701535Y-85043677D01*
X149690102Y-85081364D01*
X149671534Y-85116103D01*
X149646548Y-85146548D01*
X149616103Y-85171534D01*
X149581364Y-85190102D01*
X149543677Y-85201535D01*
X149498339Y-85206000D01*
X148661661Y-85206000D01*
X148616323Y-85201535D01*
X148578636Y-85190102D01*
X148543897Y-85171534D01*
X148513452Y-85146548D01*
X148488466Y-85116103D01*
X148469898Y-85081364D01*
X148458465Y-85043677D01*
X148454000Y-84998339D01*
X148454000Y-83911661D01*
X148458465Y-83866323D01*
X148469898Y-83828636D01*
X148488466Y-83793897D01*
X148513452Y-83763452D01*
X148543897Y-83738466D01*
X148578636Y-83719898D01*
X148616323Y-83708465D01*
X148661661Y-83704000D01*
X149498339Y-83704000D01*
X149543677Y-83708465D01*
X149543677Y-83708465D01*
G37*
G36*
X130896000Y-84311000D02*
X129494000Y-84311000D01*
X129494000Y-82609000D01*
X130896000Y-82609000D01*
X130896000Y-84311000D01*
X130896000Y-84311000D01*
G37*
G36*
X133396000Y-84311000D02*
X131994000Y-84311000D01*
X131994000Y-82609000D01*
X133396000Y-82609000D01*
X133396000Y-84311000D01*
X133396000Y-84311000D01*
G37*
G36*
X182833677Y-82808465D02*
X182871364Y-82819898D01*
X182906103Y-82838466D01*
X182936548Y-82863452D01*
X182961534Y-82893897D01*
X182980102Y-82928636D01*
X182991535Y-82966323D01*
X182996000Y-83011661D01*
X182996000Y-83848339D01*
X182991535Y-83893677D01*
X182980102Y-83931364D01*
X182961534Y-83966103D01*
X182936548Y-83996548D01*
X182906103Y-84021534D01*
X182871364Y-84040102D01*
X182833677Y-84051535D01*
X182788339Y-84056000D01*
X181701661Y-84056000D01*
X181656323Y-84051535D01*
X181618636Y-84040102D01*
X181583897Y-84021534D01*
X181553452Y-83996548D01*
X181528466Y-83966103D01*
X181509898Y-83931364D01*
X181498465Y-83893677D01*
X181494000Y-83848339D01*
X181494000Y-83011661D01*
X181498465Y-82966323D01*
X181509898Y-82928636D01*
X181528466Y-82893897D01*
X181553452Y-82863452D01*
X181583897Y-82838466D01*
X181618636Y-82819898D01*
X181656323Y-82808465D01*
X181701661Y-82804000D01*
X182788339Y-82804000D01*
X182833677Y-82808465D01*
X182833677Y-82808465D01*
G37*
G36*
X112726000Y-82766000D02*
X109524000Y-82766000D01*
X109524000Y-81064000D01*
X112726000Y-81064000D01*
X112726000Y-82766000D01*
X112726000Y-82766000D01*
G37*
G36*
X121616000Y-82766000D02*
X118414000Y-82766000D01*
X118414000Y-81064000D01*
X121616000Y-81064000D01*
X121616000Y-82766000D01*
X121616000Y-82766000D01*
G37*
G36*
X168228677Y-81438465D02*
X168266364Y-81449898D01*
X168301103Y-81468466D01*
X168331548Y-81493452D01*
X168356534Y-81523897D01*
X168375102Y-81558636D01*
X168386535Y-81596323D01*
X168391000Y-81641661D01*
X168391000Y-82478339D01*
X168386535Y-82523677D01*
X168375102Y-82561364D01*
X168356534Y-82596103D01*
X168331548Y-82626548D01*
X168301103Y-82651534D01*
X168266364Y-82670102D01*
X168228677Y-82681535D01*
X168183339Y-82686000D01*
X167096661Y-82686000D01*
X167051323Y-82681535D01*
X167013636Y-82670102D01*
X166978897Y-82651534D01*
X166948452Y-82626548D01*
X166923466Y-82596103D01*
X166904898Y-82561364D01*
X166893465Y-82523677D01*
X166889000Y-82478339D01*
X166889000Y-81641661D01*
X166893465Y-81596323D01*
X166904898Y-81558636D01*
X166923466Y-81523897D01*
X166948452Y-81493452D01*
X166978897Y-81468466D01*
X167013636Y-81449898D01*
X167051323Y-81438465D01*
X167096661Y-81434000D01*
X168183339Y-81434000D01*
X168228677Y-81438465D01*
X168228677Y-81438465D01*
G37*
G36*
X178388677Y-80413465D02*
X178426364Y-80424898D01*
X178461103Y-80443466D01*
X178491548Y-80468452D01*
X178516534Y-80498897D01*
X178535102Y-80533636D01*
X178546535Y-80571323D01*
X178551000Y-80616661D01*
X178551000Y-81453339D01*
X178546535Y-81498677D01*
X178535102Y-81536364D01*
X178516534Y-81571103D01*
X178491548Y-81601548D01*
X178461103Y-81626534D01*
X178426364Y-81645102D01*
X178388677Y-81656535D01*
X178343339Y-81661000D01*
X177256661Y-81661000D01*
X177211323Y-81656535D01*
X177173636Y-81645102D01*
X177138897Y-81626534D01*
X177108452Y-81601548D01*
X177083466Y-81571103D01*
X177064898Y-81536364D01*
X177053465Y-81498677D01*
X177049000Y-81453339D01*
X177049000Y-80616661D01*
X177053465Y-80571323D01*
X177064898Y-80533636D01*
X177083466Y-80498897D01*
X177108452Y-80468452D01*
X177138897Y-80443466D01*
X177173636Y-80424898D01*
X177211323Y-80413465D01*
X177256661Y-80409000D01*
X178343339Y-80409000D01*
X178388677Y-80413465D01*
X178388677Y-80413465D01*
G37*
G36*
X187278677Y-80413465D02*
X187316364Y-80424898D01*
X187351103Y-80443466D01*
X187381548Y-80468452D01*
X187406534Y-80498897D01*
X187425102Y-80533636D01*
X187436535Y-80571323D01*
X187441000Y-80616661D01*
X187441000Y-81453339D01*
X187436535Y-81498677D01*
X187425102Y-81536364D01*
X187406534Y-81571103D01*
X187381548Y-81601548D01*
X187351103Y-81626534D01*
X187316364Y-81645102D01*
X187278677Y-81656535D01*
X187233339Y-81661000D01*
X186146661Y-81661000D01*
X186101323Y-81656535D01*
X186063636Y-81645102D01*
X186028897Y-81626534D01*
X185998452Y-81601548D01*
X185973466Y-81571103D01*
X185954898Y-81536364D01*
X185943465Y-81498677D01*
X185939000Y-81453339D01*
X185939000Y-80616661D01*
X185943465Y-80571323D01*
X185954898Y-80533636D01*
X185973466Y-80498897D01*
X185998452Y-80468452D01*
X186028897Y-80443466D01*
X186063636Y-80424898D01*
X186101323Y-80413465D01*
X186146661Y-80409000D01*
X187233339Y-80409000D01*
X187278677Y-80413465D01*
X187278677Y-80413465D01*
G37*
G36*
X183251000Y-81521000D02*
X180599000Y-81521000D01*
X180599000Y-80359000D01*
X183251000Y-80359000D01*
X183251000Y-81521000D01*
X183251000Y-81521000D01*
G37*
G36*
X168228677Y-79388465D02*
X168266364Y-79399898D01*
X168301103Y-79418466D01*
X168331548Y-79443452D01*
X168356534Y-79473897D01*
X168375102Y-79508636D01*
X168386535Y-79546323D01*
X168391000Y-79591661D01*
X168391000Y-80428339D01*
X168386535Y-80473677D01*
X168375102Y-80511364D01*
X168356534Y-80546103D01*
X168331548Y-80576548D01*
X168301103Y-80601534D01*
X168266364Y-80620102D01*
X168228677Y-80631535D01*
X168183339Y-80636000D01*
X167096661Y-80636000D01*
X167051323Y-80631535D01*
X167013636Y-80620102D01*
X166978897Y-80601534D01*
X166948452Y-80576548D01*
X166923466Y-80546103D01*
X166904898Y-80511364D01*
X166893465Y-80473677D01*
X166889000Y-80428339D01*
X166889000Y-79591661D01*
X166893465Y-79546323D01*
X166904898Y-79508636D01*
X166923466Y-79473897D01*
X166948452Y-79443452D01*
X166978897Y-79418466D01*
X167013636Y-79399898D01*
X167051323Y-79388465D01*
X167096661Y-79384000D01*
X168183339Y-79384000D01*
X168228677Y-79388465D01*
X168228677Y-79388465D01*
G37*
G36*
X121616000Y-80226000D02*
X118414000Y-80226000D01*
X118414000Y-78524000D01*
X121616000Y-78524000D01*
X121616000Y-80226000D01*
X121616000Y-80226000D01*
G37*
G36*
X112726000Y-80226000D02*
X109524000Y-80226000D01*
X109524000Y-78524000D01*
X112726000Y-78524000D01*
X112726000Y-80226000D01*
X112726000Y-80226000D01*
G37*
G36*
X125703677Y-78628465D02*
X125741364Y-78639898D01*
X125776103Y-78658466D01*
X125806548Y-78683452D01*
X125831534Y-78713897D01*
X125850102Y-78748636D01*
X125861535Y-78786323D01*
X125866000Y-78831661D01*
X125866000Y-79918339D01*
X125861535Y-79963677D01*
X125850102Y-80001364D01*
X125831534Y-80036103D01*
X125806548Y-80066548D01*
X125776103Y-80091534D01*
X125741364Y-80110102D01*
X125703677Y-80121535D01*
X125658339Y-80126000D01*
X124821661Y-80126000D01*
X124776323Y-80121535D01*
X124738636Y-80110102D01*
X124703897Y-80091534D01*
X124673452Y-80066548D01*
X124648466Y-80036103D01*
X124629898Y-80001364D01*
X124618465Y-79963677D01*
X124614000Y-79918339D01*
X124614000Y-78831661D01*
X124618465Y-78786323D01*
X124629898Y-78748636D01*
X124648466Y-78713897D01*
X124673452Y-78683452D01*
X124703897Y-78658466D01*
X124738636Y-78639898D01*
X124776323Y-78628465D01*
X124821661Y-78624000D01*
X125658339Y-78624000D01*
X125703677Y-78628465D01*
X125703677Y-78628465D01*
G37*
G36*
X123653677Y-78628465D02*
X123691364Y-78639898D01*
X123726103Y-78658466D01*
X123756548Y-78683452D01*
X123781534Y-78713897D01*
X123800102Y-78748636D01*
X123811535Y-78786323D01*
X123816000Y-78831661D01*
X123816000Y-79918339D01*
X123811535Y-79963677D01*
X123800102Y-80001364D01*
X123781534Y-80036103D01*
X123756548Y-80066548D01*
X123726103Y-80091534D01*
X123691364Y-80110102D01*
X123653677Y-80121535D01*
X123608339Y-80126000D01*
X122771661Y-80126000D01*
X122726323Y-80121535D01*
X122688636Y-80110102D01*
X122653897Y-80091534D01*
X122623452Y-80066548D01*
X122598466Y-80036103D01*
X122579898Y-80001364D01*
X122568465Y-79963677D01*
X122564000Y-79918339D01*
X122564000Y-78831661D01*
X122568465Y-78786323D01*
X122579898Y-78748636D01*
X122598466Y-78713897D01*
X122623452Y-78683452D01*
X122653897Y-78658466D01*
X122688636Y-78639898D01*
X122726323Y-78628465D01*
X122771661Y-78624000D01*
X123608339Y-78624000D01*
X123653677Y-78628465D01*
X123653677Y-78628465D01*
G37*
G36*
X178388677Y-78363465D02*
X178426364Y-78374898D01*
X178461103Y-78393466D01*
X178491548Y-78418452D01*
X178516534Y-78448897D01*
X178535102Y-78483636D01*
X178546535Y-78521323D01*
X178551000Y-78566661D01*
X178551000Y-79403339D01*
X178546535Y-79448677D01*
X178535102Y-79486364D01*
X178516534Y-79521103D01*
X178491548Y-79551548D01*
X178461103Y-79576534D01*
X178426364Y-79595102D01*
X178388677Y-79606535D01*
X178343339Y-79611000D01*
X177256661Y-79611000D01*
X177211323Y-79606535D01*
X177173636Y-79595102D01*
X177138897Y-79576534D01*
X177108452Y-79551548D01*
X177083466Y-79521103D01*
X177064898Y-79486364D01*
X177053465Y-79448677D01*
X177049000Y-79403339D01*
X177049000Y-78566661D01*
X177053465Y-78521323D01*
X177064898Y-78483636D01*
X177083466Y-78448897D01*
X177108452Y-78418452D01*
X177138897Y-78393466D01*
X177173636Y-78374898D01*
X177211323Y-78363465D01*
X177256661Y-78359000D01*
X178343339Y-78359000D01*
X178388677Y-78363465D01*
X178388677Y-78363465D01*
G37*
G36*
X187278677Y-78363465D02*
X187316364Y-78374898D01*
X187351103Y-78393466D01*
X187381548Y-78418452D01*
X187406534Y-78448897D01*
X187425102Y-78483636D01*
X187436535Y-78521323D01*
X187441000Y-78566661D01*
X187441000Y-79403339D01*
X187436535Y-79448677D01*
X187425102Y-79486364D01*
X187406534Y-79521103D01*
X187381548Y-79551548D01*
X187351103Y-79576534D01*
X187316364Y-79595102D01*
X187278677Y-79606535D01*
X187233339Y-79611000D01*
X186146661Y-79611000D01*
X186101323Y-79606535D01*
X186063636Y-79595102D01*
X186028897Y-79576534D01*
X185998452Y-79551548D01*
X185973466Y-79521103D01*
X185954898Y-79486364D01*
X185943465Y-79448677D01*
X185939000Y-79403339D01*
X185939000Y-78566661D01*
X185943465Y-78521323D01*
X185954898Y-78483636D01*
X185973466Y-78448897D01*
X185998452Y-78418452D01*
X186028897Y-78393466D01*
X186063636Y-78374898D01*
X186101323Y-78363465D01*
X186146661Y-78359000D01*
X187233339Y-78359000D01*
X187278677Y-78363465D01*
X187278677Y-78363465D01*
G37*
G36*
X181351000Y-79321000D02*
X180599000Y-79321000D01*
X180599000Y-78159000D01*
X181351000Y-78159000D01*
X181351000Y-79321000D01*
X181351000Y-79321000D01*
G37*
G36*
X183251000Y-79321000D02*
X182499000Y-79321000D01*
X182499000Y-78159000D01*
X183251000Y-78159000D01*
X183251000Y-79321000D01*
X183251000Y-79321000D01*
G37*
G36*
X121616000Y-77686000D02*
X118414000Y-77686000D01*
X118414000Y-75984000D01*
X121616000Y-75984000D01*
X121616000Y-77686000D01*
X121616000Y-77686000D01*
G37*
G36*
X112726000Y-77686000D02*
X109524000Y-77686000D01*
X109524000Y-75984000D01*
X112726000Y-75984000D01*
X112726000Y-77686000D01*
X112726000Y-77686000D01*
G37*
G36*
X125703677Y-76088465D02*
X125741364Y-76099898D01*
X125776103Y-76118466D01*
X125806548Y-76143452D01*
X125831534Y-76173897D01*
X125850102Y-76208636D01*
X125861535Y-76246323D01*
X125866000Y-76291661D01*
X125866000Y-77378339D01*
X125861535Y-77423677D01*
X125850102Y-77461364D01*
X125831534Y-77496103D01*
X125806548Y-77526548D01*
X125776103Y-77551534D01*
X125741364Y-77570102D01*
X125703677Y-77581535D01*
X125658339Y-77586000D01*
X124821661Y-77586000D01*
X124776323Y-77581535D01*
X124738636Y-77570102D01*
X124703897Y-77551534D01*
X124673452Y-77526548D01*
X124648466Y-77496103D01*
X124629898Y-77461364D01*
X124618465Y-77423677D01*
X124614000Y-77378339D01*
X124614000Y-76291661D01*
X124618465Y-76246323D01*
X124629898Y-76208636D01*
X124648466Y-76173897D01*
X124673452Y-76143452D01*
X124703897Y-76118466D01*
X124738636Y-76099898D01*
X124776323Y-76088465D01*
X124821661Y-76084000D01*
X125658339Y-76084000D01*
X125703677Y-76088465D01*
X125703677Y-76088465D01*
G37*
G36*
X123653677Y-76088465D02*
X123691364Y-76099898D01*
X123726103Y-76118466D01*
X123756548Y-76143452D01*
X123781534Y-76173897D01*
X123800102Y-76208636D01*
X123811535Y-76246323D01*
X123816000Y-76291661D01*
X123816000Y-77378339D01*
X123811535Y-77423677D01*
X123800102Y-77461364D01*
X123781534Y-77496103D01*
X123756548Y-77526548D01*
X123726103Y-77551534D01*
X123691364Y-77570102D01*
X123653677Y-77581535D01*
X123608339Y-77586000D01*
X122771661Y-77586000D01*
X122726323Y-77581535D01*
X122688636Y-77570102D01*
X122653897Y-77551534D01*
X122623452Y-77526548D01*
X122598466Y-77496103D01*
X122579898Y-77461364D01*
X122568465Y-77423677D01*
X122564000Y-77378339D01*
X122564000Y-76291661D01*
X122568465Y-76246323D01*
X122579898Y-76208636D01*
X122598466Y-76173897D01*
X122623452Y-76143452D01*
X122653897Y-76118466D01*
X122688636Y-76099898D01*
X122726323Y-76088465D01*
X122771661Y-76084000D01*
X123608339Y-76084000D01*
X123653677Y-76088465D01*
X123653677Y-76088465D01*
G37*
G36*
X168158604Y-74828347D02*
X168195145Y-74839432D01*
X168228820Y-74857431D01*
X168258341Y-74881659D01*
X168282569Y-74911180D01*
X168300568Y-74944855D01*
X168311653Y-74981396D01*
X168316000Y-75025538D01*
X168316000Y-77374462D01*
X168311653Y-77418604D01*
X168300568Y-77455145D01*
X168282569Y-77488820D01*
X168258341Y-77518341D01*
X168228820Y-77542569D01*
X168195145Y-77560568D01*
X168158604Y-77571653D01*
X168114462Y-77576000D01*
X167165538Y-77576000D01*
X167121396Y-77571653D01*
X167084855Y-77560568D01*
X167051180Y-77542569D01*
X167021659Y-77518341D01*
X166997431Y-77488820D01*
X166979432Y-77455145D01*
X166968347Y-77418604D01*
X166964000Y-77374462D01*
X166964000Y-75025538D01*
X166968347Y-74981396D01*
X166979432Y-74944855D01*
X166997431Y-74911180D01*
X167021659Y-74881659D01*
X167051180Y-74857431D01*
X167084855Y-74839432D01*
X167121396Y-74828347D01*
X167165538Y-74824000D01*
X168114462Y-74824000D01*
X168158604Y-74828347D01*
X168158604Y-74828347D01*
G37*
G36*
X170958604Y-74828347D02*
X170995145Y-74839432D01*
X171028820Y-74857431D01*
X171058341Y-74881659D01*
X171082569Y-74911180D01*
X171100568Y-74944855D01*
X171111653Y-74981396D01*
X171116000Y-75025538D01*
X171116000Y-77374462D01*
X171111653Y-77418604D01*
X171100568Y-77455145D01*
X171082569Y-77488820D01*
X171058341Y-77518341D01*
X171028820Y-77542569D01*
X170995145Y-77560568D01*
X170958604Y-77571653D01*
X170914462Y-77576000D01*
X169965538Y-77576000D01*
X169921396Y-77571653D01*
X169884855Y-77560568D01*
X169851180Y-77542569D01*
X169821659Y-77518341D01*
X169797431Y-77488820D01*
X169779432Y-77455145D01*
X169768347Y-77418604D01*
X169764000Y-77374462D01*
X169764000Y-75025538D01*
X169768347Y-74981396D01*
X169779432Y-74944855D01*
X169797431Y-74911180D01*
X169821659Y-74881659D01*
X169851180Y-74857431D01*
X169884855Y-74839432D01*
X169921396Y-74828347D01*
X169965538Y-74824000D01*
X170914462Y-74824000D01*
X170958604Y-74828347D01*
X170958604Y-74828347D01*
G37*
G36*
X112726000Y-75146000D02*
X109524000Y-75146000D01*
X109524000Y-73444000D01*
X112726000Y-73444000D01*
X112726000Y-75146000D01*
X112726000Y-75146000D01*
G37*
G36*
X121616000Y-75146000D02*
X118414000Y-75146000D01*
X118414000Y-73444000D01*
X121616000Y-73444000D01*
X121616000Y-75146000D01*
X121616000Y-75146000D01*
G37*
G36*
X123653677Y-73548465D02*
X123691364Y-73559898D01*
X123726103Y-73578466D01*
X123756548Y-73603452D01*
X123781534Y-73633897D01*
X123800102Y-73668636D01*
X123811535Y-73706323D01*
X123816000Y-73751661D01*
X123816000Y-74838339D01*
X123811535Y-74883677D01*
X123800102Y-74921364D01*
X123781534Y-74956103D01*
X123756548Y-74986548D01*
X123726103Y-75011534D01*
X123691364Y-75030102D01*
X123653677Y-75041535D01*
X123608339Y-75046000D01*
X122771661Y-75046000D01*
X122726323Y-75041535D01*
X122688636Y-75030102D01*
X122653897Y-75011534D01*
X122623452Y-74986548D01*
X122598466Y-74956103D01*
X122579898Y-74921364D01*
X122568465Y-74883677D01*
X122564000Y-74838339D01*
X122564000Y-73751661D01*
X122568465Y-73706323D01*
X122579898Y-73668636D01*
X122598466Y-73633897D01*
X122623452Y-73603452D01*
X122653897Y-73578466D01*
X122688636Y-73559898D01*
X122726323Y-73548465D01*
X122771661Y-73544000D01*
X123608339Y-73544000D01*
X123653677Y-73548465D01*
X123653677Y-73548465D01*
G37*
G36*
X125703677Y-73548465D02*
X125741364Y-73559898D01*
X125776103Y-73578466D01*
X125806548Y-73603452D01*
X125831534Y-73633897D01*
X125850102Y-73668636D01*
X125861535Y-73706323D01*
X125866000Y-73751661D01*
X125866000Y-74838339D01*
X125861535Y-74883677D01*
X125850102Y-74921364D01*
X125831534Y-74956103D01*
X125806548Y-74986548D01*
X125776103Y-75011534D01*
X125741364Y-75030102D01*
X125703677Y-75041535D01*
X125658339Y-75046000D01*
X124821661Y-75046000D01*
X124776323Y-75041535D01*
X124738636Y-75030102D01*
X124703897Y-75011534D01*
X124673452Y-74986548D01*
X124648466Y-74956103D01*
X124629898Y-74921364D01*
X124618465Y-74883677D01*
X124614000Y-74838339D01*
X124614000Y-73751661D01*
X124618465Y-73706323D01*
X124629898Y-73668636D01*
X124648466Y-73633897D01*
X124673452Y-73603452D01*
X124703897Y-73578466D01*
X124738636Y-73559898D01*
X124776323Y-73548465D01*
X124821661Y-73544000D01*
X125658339Y-73544000D01*
X125703677Y-73548465D01*
X125703677Y-73548465D01*
G37*
G36*
X164418677Y-72548465D02*
X164456364Y-72559898D01*
X164491103Y-72578466D01*
X164521548Y-72603452D01*
X164546534Y-72633897D01*
X164565102Y-72668636D01*
X164576535Y-72706323D01*
X164581000Y-72751661D01*
X164581000Y-73588339D01*
X164576535Y-73633677D01*
X164565102Y-73671364D01*
X164546534Y-73706103D01*
X164521548Y-73736548D01*
X164491103Y-73761534D01*
X164456364Y-73780102D01*
X164418677Y-73791535D01*
X164373339Y-73796000D01*
X163286661Y-73796000D01*
X163241323Y-73791535D01*
X163203636Y-73780102D01*
X163168897Y-73761534D01*
X163138452Y-73736548D01*
X163113466Y-73706103D01*
X163094898Y-73671364D01*
X163083465Y-73633677D01*
X163079000Y-73588339D01*
X163079000Y-72751661D01*
X163083465Y-72706323D01*
X163094898Y-72668636D01*
X163113466Y-72633897D01*
X163138452Y-72603452D01*
X163168897Y-72578466D01*
X163203636Y-72559898D01*
X163241323Y-72548465D01*
X163286661Y-72544000D01*
X164373339Y-72544000D01*
X164418677Y-72548465D01*
X164418677Y-72548465D01*
G37*
G36*
X167898604Y-70383347D02*
X167935145Y-70394432D01*
X167968820Y-70412431D01*
X167998341Y-70436659D01*
X168022569Y-70466180D01*
X168040568Y-70499855D01*
X168051653Y-70536396D01*
X168056000Y-70580538D01*
X168056000Y-72929462D01*
X168051653Y-72973604D01*
X168040568Y-73010145D01*
X168022569Y-73043820D01*
X167998341Y-73073341D01*
X167968820Y-73097569D01*
X167935145Y-73115568D01*
X167898604Y-73126653D01*
X167854462Y-73131000D01*
X166905538Y-73131000D01*
X166861396Y-73126653D01*
X166824855Y-73115568D01*
X166791180Y-73097569D01*
X166761659Y-73073341D01*
X166737431Y-73043820D01*
X166719432Y-73010145D01*
X166708347Y-72973604D01*
X166704000Y-72929462D01*
X166704000Y-70580538D01*
X166708347Y-70536396D01*
X166719432Y-70499855D01*
X166737431Y-70466180D01*
X166761659Y-70436659D01*
X166791180Y-70412431D01*
X166824855Y-70394432D01*
X166861396Y-70383347D01*
X166905538Y-70379000D01*
X167854462Y-70379000D01*
X167898604Y-70383347D01*
X167898604Y-70383347D01*
G37*
G36*
X170698604Y-70383347D02*
X170735145Y-70394432D01*
X170768820Y-70412431D01*
X170798341Y-70436659D01*
X170822569Y-70466180D01*
X170840568Y-70499855D01*
X170851653Y-70536396D01*
X170856000Y-70580538D01*
X170856000Y-72929462D01*
X170851653Y-72973604D01*
X170840568Y-73010145D01*
X170822569Y-73043820D01*
X170798341Y-73073341D01*
X170768820Y-73097569D01*
X170735145Y-73115568D01*
X170698604Y-73126653D01*
X170654462Y-73131000D01*
X169705538Y-73131000D01*
X169661396Y-73126653D01*
X169624855Y-73115568D01*
X169591180Y-73097569D01*
X169561659Y-73073341D01*
X169537431Y-73043820D01*
X169519432Y-73010145D01*
X169508347Y-72973604D01*
X169504000Y-72929462D01*
X169504000Y-70580538D01*
X169508347Y-70536396D01*
X169519432Y-70499855D01*
X169537431Y-70466180D01*
X169561659Y-70436659D01*
X169591180Y-70412431D01*
X169624855Y-70394432D01*
X169661396Y-70383347D01*
X169705538Y-70379000D01*
X170654462Y-70379000D01*
X170698604Y-70383347D01*
X170698604Y-70383347D01*
G37*
G36*
X180476626Y-70717037D02*
X180589852Y-70751384D01*
X180646466Y-70768557D01*
X180802989Y-70852221D01*
X180940186Y-70964814D01*
X181023448Y-71066271D01*
X181052778Y-71102009D01*
X181052779Y-71102011D01*
X181136443Y-71258533D01*
X181153616Y-71315147D01*
X181187963Y-71428373D01*
X181201000Y-71560742D01*
X181201000Y-71949257D01*
X181187963Y-72081626D01*
X181136443Y-72251466D01*
X181052778Y-72407991D01*
X181052777Y-72407992D01*
X180940186Y-72545186D01*
X180845251Y-72623096D01*
X180802991Y-72657778D01*
X180802989Y-72657779D01*
X180646467Y-72741443D01*
X180612782Y-72751661D01*
X180476627Y-72792963D01*
X180300000Y-72810359D01*
X180123374Y-72792963D01*
X179987219Y-72751661D01*
X179953534Y-72741443D01*
X179797012Y-72657779D01*
X179797010Y-72657778D01*
X179683616Y-72564718D01*
X179659812Y-72545183D01*
X179547222Y-72407992D01*
X179463557Y-72251467D01*
X179446384Y-72194853D01*
X179412037Y-72081627D01*
X179399000Y-71949258D01*
X179399000Y-71560743D01*
X179401207Y-71538339D01*
X179412037Y-71428376D01*
X179412037Y-71428374D01*
X179463557Y-71258535D01*
X179463557Y-71258534D01*
X179547221Y-71102011D01*
X179659814Y-70964814D01*
X179761271Y-70881552D01*
X179797009Y-70852222D01*
X179814913Y-70842652D01*
X179953533Y-70768557D01*
X180010147Y-70751384D01*
X180123373Y-70717037D01*
X180300000Y-70699641D01*
X180476626Y-70717037D01*
X180476626Y-70717037D01*
G37*
G36*
X178558600Y-70707989D02*
X178591649Y-70718014D01*
X178622106Y-70734294D01*
X178648799Y-70756201D01*
X178670706Y-70782894D01*
X178686986Y-70813351D01*
X178697011Y-70846400D01*
X178701000Y-70886904D01*
X178701000Y-72623096D01*
X178697011Y-72663600D01*
X178686986Y-72696649D01*
X178670706Y-72727106D01*
X178648799Y-72753799D01*
X178622106Y-72775706D01*
X178591649Y-72791986D01*
X178558600Y-72802011D01*
X178518096Y-72806000D01*
X177081904Y-72806000D01*
X177041400Y-72802011D01*
X177008351Y-72791986D01*
X176977894Y-72775706D01*
X176951201Y-72753799D01*
X176929294Y-72727106D01*
X176913014Y-72696649D01*
X176902989Y-72663600D01*
X176899000Y-72623096D01*
X176899000Y-70886904D01*
X176902989Y-70846400D01*
X176913014Y-70813351D01*
X176929294Y-70782894D01*
X176951201Y-70756201D01*
X176977894Y-70734294D01*
X177008351Y-70718014D01*
X177041400Y-70707989D01*
X177081904Y-70704000D01*
X178518096Y-70704000D01*
X178558600Y-70707989D01*
X178558600Y-70707989D01*
G37*
G36*
X164418677Y-70498465D02*
X164456364Y-70509898D01*
X164491103Y-70528466D01*
X164521548Y-70553452D01*
X164546534Y-70583897D01*
X164565102Y-70618636D01*
X164576535Y-70656323D01*
X164581000Y-70701661D01*
X164581000Y-71538339D01*
X164576535Y-71583677D01*
X164565102Y-71621364D01*
X164546534Y-71656103D01*
X164521548Y-71686548D01*
X164491103Y-71711534D01*
X164456364Y-71730102D01*
X164418677Y-71741535D01*
X164373339Y-71746000D01*
X163286661Y-71746000D01*
X163241323Y-71741535D01*
X163203636Y-71730102D01*
X163168897Y-71711534D01*
X163138452Y-71686548D01*
X163113466Y-71656103D01*
X163094898Y-71621364D01*
X163083465Y-71583677D01*
X163079000Y-71538339D01*
X163079000Y-70701661D01*
X163083465Y-70656323D01*
X163094898Y-70618636D01*
X163113466Y-70583897D01*
X163138452Y-70553452D01*
X163168897Y-70528466D01*
X163203636Y-70509898D01*
X163241323Y-70498465D01*
X163286661Y-70494000D01*
X164373339Y-70494000D01*
X164418677Y-70498465D01*
X164418677Y-70498465D01*
G37*
G36*
X106044239Y-64121467D02*
X106358282Y-64183934D01*
X106949926Y-64429001D01*
X107478802Y-64782385D01*
X107482395Y-64784786D01*
X107935214Y-65237605D01*
X107935216Y-65237608D01*
X108290999Y-65770074D01*
X108536066Y-66361718D01*
X108661000Y-66989804D01*
X108661000Y-67630196D01*
X108536066Y-68258282D01*
X108290999Y-68849926D01*
X107937615Y-69378802D01*
X107935214Y-69382395D01*
X107482395Y-69835214D01*
X107482392Y-69835216D01*
X106949926Y-70190999D01*
X106358282Y-70436066D01*
X106067028Y-70494000D01*
X105730197Y-70561000D01*
X105089803Y-70561000D01*
X104752972Y-70494000D01*
X104461718Y-70436066D01*
X103870074Y-70190999D01*
X103337608Y-69835216D01*
X103337605Y-69835214D01*
X102884786Y-69382395D01*
X102882385Y-69378802D01*
X102529001Y-68849926D01*
X102283934Y-68258282D01*
X102159000Y-67630196D01*
X102159000Y-66989804D01*
X102283934Y-66361718D01*
X102529001Y-65770074D01*
X102884784Y-65237608D01*
X102884786Y-65237605D01*
X103337605Y-64784786D01*
X103341198Y-64782385D01*
X103870074Y-64429001D01*
X104461718Y-64183934D01*
X104775761Y-64121467D01*
X105089803Y-64059000D01*
X105730197Y-64059000D01*
X106044239Y-64121467D01*
X106044239Y-64121467D01*
G37*
G36*
X200024239Y-64121467D02*
X200338282Y-64183934D01*
X200929926Y-64429001D01*
X201458802Y-64782385D01*
X201462395Y-64784786D01*
X201915214Y-65237605D01*
X201915216Y-65237608D01*
X202270999Y-65770074D01*
X202516066Y-66361718D01*
X202641000Y-66989804D01*
X202641000Y-67630196D01*
X202516066Y-68258282D01*
X202270999Y-68849926D01*
X201917615Y-69378802D01*
X201915214Y-69382395D01*
X201462395Y-69835214D01*
X201462392Y-69835216D01*
X200929926Y-70190999D01*
X200338282Y-70436066D01*
X200047028Y-70494000D01*
X199710197Y-70561000D01*
X199069803Y-70561000D01*
X198732972Y-70494000D01*
X198441718Y-70436066D01*
X197850074Y-70190999D01*
X197317608Y-69835216D01*
X197317605Y-69835214D01*
X196864786Y-69382395D01*
X196862385Y-69378802D01*
X196509001Y-68849926D01*
X196263934Y-68258282D01*
X196139000Y-67630196D01*
X196139000Y-66989804D01*
X196263934Y-66361718D01*
X196509001Y-65770074D01*
X196864784Y-65237608D01*
X196864786Y-65237605D01*
X197317605Y-64784786D01*
X197321198Y-64782385D01*
X197850074Y-64429001D01*
X198441718Y-64183934D01*
X198755761Y-64121467D01*
X199069803Y-64059000D01*
X199710197Y-64059000D01*
X200024239Y-64121467D01*
X200024239Y-64121467D01*
G37*
M02*
