G04 #@! TF.GenerationSoftware,KiCad,Pcbnew,(5.0.1)-4*
G04 #@! TF.CreationDate,2019-01-25T14:15:16+03:00*
G04 #@! TF.ProjectId,Lab Ampl,4C616220416D706C2E6B696361645F70,rev?*
G04 #@! TF.SameCoordinates,Original*
G04 #@! TF.FileFunction,Legend,Top*
G04 #@! TF.FilePolarity,Positive*
%FSLAX46Y46*%
G04 Gerber Fmt 4.6, Leading zero omitted, Abs format (unit mm)*
G04 Created by KiCad (PCBNEW (5.0.1)-4) date 25/01/2019 14:15:16*
%MOMM*%
%LPD*%
G01*
G04 APERTURE LIST*
%ADD10C,0.300000*%
%ADD11C,0.120000*%
%ADD12C,0.150000*%
G04 APERTURE END LIST*
D10*
X177042857Y-110533571D02*
X177042857Y-109533571D01*
X177042857Y-109819285D02*
X177114285Y-109676428D01*
X177185714Y-109605000D01*
X177328571Y-109533571D01*
X177471428Y-109533571D01*
X178542857Y-110462142D02*
X178400000Y-110533571D01*
X178114285Y-110533571D01*
X177971428Y-110462142D01*
X177900000Y-110319285D01*
X177900000Y-109747857D01*
X177971428Y-109605000D01*
X178114285Y-109533571D01*
X178400000Y-109533571D01*
X178542857Y-109605000D01*
X178614285Y-109747857D01*
X178614285Y-109890714D01*
X177900000Y-110033571D01*
X179114285Y-109533571D02*
X179471428Y-110533571D01*
X179828571Y-109533571D01*
X182328571Y-110533571D02*
X181471428Y-110533571D01*
X181900000Y-110533571D02*
X181900000Y-109033571D01*
X181757142Y-109247857D01*
X181614285Y-109390714D01*
X181471428Y-109462142D01*
X182971428Y-110390714D02*
X183042857Y-110462142D01*
X182971428Y-110533571D01*
X182900000Y-110462142D01*
X182971428Y-110390714D01*
X182971428Y-110533571D01*
X183971428Y-109033571D02*
X184114285Y-109033571D01*
X184257142Y-109105000D01*
X184328571Y-109176428D01*
X184400000Y-109319285D01*
X184471428Y-109605000D01*
X184471428Y-109962142D01*
X184400000Y-110247857D01*
X184328571Y-110390714D01*
X184257142Y-110462142D01*
X184114285Y-110533571D01*
X183971428Y-110533571D01*
X183828571Y-110462142D01*
X183757142Y-110390714D01*
X183685714Y-110247857D01*
X183614285Y-109962142D01*
X183614285Y-109605000D01*
X183685714Y-109319285D01*
X183757142Y-109176428D01*
X183828571Y-109105000D01*
X183971428Y-109033571D01*
X186185714Y-109176428D02*
X186257142Y-109105000D01*
X186400000Y-109033571D01*
X186757142Y-109033571D01*
X186900000Y-109105000D01*
X186971428Y-109176428D01*
X187042857Y-109319285D01*
X187042857Y-109462142D01*
X186971428Y-109676428D01*
X186114285Y-110533571D01*
X187042857Y-110533571D01*
X187971428Y-109033571D02*
X188114285Y-109033571D01*
X188257142Y-109105000D01*
X188328571Y-109176428D01*
X188400000Y-109319285D01*
X188471428Y-109605000D01*
X188471428Y-109962142D01*
X188400000Y-110247857D01*
X188328571Y-110390714D01*
X188257142Y-110462142D01*
X188114285Y-110533571D01*
X187971428Y-110533571D01*
X187828571Y-110462142D01*
X187757142Y-110390714D01*
X187685714Y-110247857D01*
X187614285Y-109962142D01*
X187614285Y-109605000D01*
X187685714Y-109319285D01*
X187757142Y-109176428D01*
X187828571Y-109105000D01*
X187971428Y-109033571D01*
X189900000Y-110533571D02*
X189042857Y-110533571D01*
X189471428Y-110533571D02*
X189471428Y-109033571D01*
X189328571Y-109247857D01*
X189185714Y-109390714D01*
X189042857Y-109462142D01*
X190614285Y-110533571D02*
X190900000Y-110533571D01*
X191042857Y-110462142D01*
X191114285Y-110390714D01*
X191257142Y-110176428D01*
X191328571Y-109890714D01*
X191328571Y-109319285D01*
X191257142Y-109176428D01*
X191185714Y-109105000D01*
X191042857Y-109033571D01*
X190757142Y-109033571D01*
X190614285Y-109105000D01*
X190542857Y-109176428D01*
X190471428Y-109319285D01*
X190471428Y-109676428D01*
X190542857Y-109819285D01*
X190614285Y-109890714D01*
X190757142Y-109962142D01*
X191042857Y-109962142D01*
X191185714Y-109890714D01*
X191257142Y-109819285D01*
X191328571Y-109676428D01*
X130012857Y-78553571D02*
X129727142Y-78553571D01*
X129584285Y-78625000D01*
X129512857Y-78696428D01*
X129370000Y-78910714D01*
X129298571Y-79196428D01*
X129298571Y-79767857D01*
X129370000Y-79910714D01*
X129441428Y-79982142D01*
X129584285Y-80053571D01*
X129870000Y-80053571D01*
X130012857Y-79982142D01*
X130084285Y-79910714D01*
X130155714Y-79767857D01*
X130155714Y-79410714D01*
X130084285Y-79267857D01*
X130012857Y-79196428D01*
X129870000Y-79125000D01*
X129584285Y-79125000D01*
X129441428Y-79196428D01*
X129370000Y-79267857D01*
X129298571Y-79410714D01*
X132584285Y-80053571D02*
X132584285Y-78553571D01*
X132584285Y-79982142D02*
X132441428Y-80053571D01*
X132155714Y-80053571D01*
X132012857Y-79982142D01*
X131941428Y-79910714D01*
X131870000Y-79767857D01*
X131870000Y-79339285D01*
X131941428Y-79196428D01*
X132012857Y-79125000D01*
X132155714Y-79053571D01*
X132441428Y-79053571D01*
X132584285Y-79125000D01*
X133798571Y-79267857D02*
X134012857Y-79339285D01*
X134084285Y-79410714D01*
X134155714Y-79553571D01*
X134155714Y-79767857D01*
X134084285Y-79910714D01*
X134012857Y-79982142D01*
X133870000Y-80053571D01*
X133298571Y-80053571D01*
X133298571Y-78553571D01*
X133798571Y-78553571D01*
X133941428Y-78625000D01*
X134012857Y-78696428D01*
X134084285Y-78839285D01*
X134084285Y-78982142D01*
X134012857Y-79125000D01*
X133941428Y-79196428D01*
X133798571Y-79267857D01*
X133298571Y-79267857D01*
X136370000Y-80625000D02*
X136298571Y-80553571D01*
X136155714Y-80339285D01*
X136084285Y-80196428D01*
X136012857Y-79982142D01*
X135941428Y-79625000D01*
X135941428Y-79339285D01*
X136012857Y-78982142D01*
X136084285Y-78767857D01*
X136155714Y-78625000D01*
X136298571Y-78410714D01*
X136370000Y-78339285D01*
X136798571Y-80053571D02*
X137584285Y-79053571D01*
X136798571Y-79053571D02*
X137584285Y-80053571D01*
X138084285Y-78696428D02*
X138155714Y-78625000D01*
X138298571Y-78553571D01*
X138655714Y-78553571D01*
X138798571Y-78625000D01*
X138870000Y-78696428D01*
X138941428Y-78839285D01*
X138941428Y-78982142D01*
X138870000Y-79196428D01*
X138012857Y-80053571D01*
X138941428Y-80053571D01*
X139441428Y-80625000D02*
X139512857Y-80553571D01*
X139655714Y-80339285D01*
X139727142Y-80196428D01*
X139798571Y-79982142D01*
X139870000Y-79625000D01*
X139870000Y-79339285D01*
X139798571Y-78982142D01*
X139727142Y-78767857D01*
X139655714Y-78625000D01*
X139512857Y-78410714D01*
X139441428Y-78339285D01*
X130076428Y-77513571D02*
X129219285Y-77513571D01*
X129647857Y-77513571D02*
X129647857Y-76013571D01*
X129505000Y-76227857D01*
X129362142Y-76370714D01*
X129219285Y-76442142D01*
X131362142Y-76513571D02*
X131362142Y-77513571D01*
X131005000Y-75942142D02*
X130647857Y-77013571D01*
X131576428Y-77013571D01*
X133933571Y-77513571D02*
X133933571Y-76013571D01*
X133933571Y-77442142D02*
X133790714Y-77513571D01*
X133505000Y-77513571D01*
X133362142Y-77442142D01*
X133290714Y-77370714D01*
X133219285Y-77227857D01*
X133219285Y-76799285D01*
X133290714Y-76656428D01*
X133362142Y-76585000D01*
X133505000Y-76513571D01*
X133790714Y-76513571D01*
X133933571Y-76585000D01*
X135147857Y-76727857D02*
X135362142Y-76799285D01*
X135433571Y-76870714D01*
X135505000Y-77013571D01*
X135505000Y-77227857D01*
X135433571Y-77370714D01*
X135362142Y-77442142D01*
X135219285Y-77513571D01*
X134647857Y-77513571D01*
X134647857Y-76013571D01*
X135147857Y-76013571D01*
X135290714Y-76085000D01*
X135362142Y-76156428D01*
X135433571Y-76299285D01*
X135433571Y-76442142D01*
X135362142Y-76585000D01*
X135290714Y-76656428D01*
X135147857Y-76727857D01*
X134647857Y-76727857D01*
X137719285Y-78085000D02*
X137647857Y-78013571D01*
X137505000Y-77799285D01*
X137433571Y-77656428D01*
X137362142Y-77442142D01*
X137290714Y-77085000D01*
X137290714Y-76799285D01*
X137362142Y-76442142D01*
X137433571Y-76227857D01*
X137505000Y-76085000D01*
X137647857Y-75870714D01*
X137719285Y-75799285D01*
X138147857Y-77513571D02*
X138933571Y-76513571D01*
X138147857Y-76513571D02*
X138933571Y-77513571D01*
X140219285Y-76013571D02*
X139505000Y-76013571D01*
X139433571Y-76727857D01*
X139505000Y-76656428D01*
X139647857Y-76585000D01*
X140005000Y-76585000D01*
X140147857Y-76656428D01*
X140219285Y-76727857D01*
X140290714Y-76870714D01*
X140290714Y-77227857D01*
X140219285Y-77370714D01*
X140147857Y-77442142D01*
X140005000Y-77513571D01*
X139647857Y-77513571D01*
X139505000Y-77442142D01*
X139433571Y-77370714D01*
X140790714Y-78085000D02*
X140862142Y-78013571D01*
X141005000Y-77799285D01*
X141076428Y-77656428D01*
X141147857Y-77442142D01*
X141219285Y-77085000D01*
X141219285Y-76799285D01*
X141147857Y-76442142D01*
X141076428Y-76227857D01*
X141005000Y-76085000D01*
X140862142Y-75870714D01*
X140790714Y-75799285D01*
X129140000Y-73616428D02*
X129211428Y-73545000D01*
X129354285Y-73473571D01*
X129711428Y-73473571D01*
X129854285Y-73545000D01*
X129925714Y-73616428D01*
X129997142Y-73759285D01*
X129997142Y-73902142D01*
X129925714Y-74116428D01*
X129068571Y-74973571D01*
X129997142Y-74973571D01*
X130925714Y-73473571D02*
X131068571Y-73473571D01*
X131211428Y-73545000D01*
X131282857Y-73616428D01*
X131354285Y-73759285D01*
X131425714Y-74045000D01*
X131425714Y-74402142D01*
X131354285Y-74687857D01*
X131282857Y-74830714D01*
X131211428Y-74902142D01*
X131068571Y-74973571D01*
X130925714Y-74973571D01*
X130782857Y-74902142D01*
X130711428Y-74830714D01*
X130640000Y-74687857D01*
X130568571Y-74402142D01*
X130568571Y-74045000D01*
X130640000Y-73759285D01*
X130711428Y-73616428D01*
X130782857Y-73545000D01*
X130925714Y-73473571D01*
X133854285Y-74973571D02*
X133854285Y-73473571D01*
X133854285Y-74902142D02*
X133711428Y-74973571D01*
X133425714Y-74973571D01*
X133282857Y-74902142D01*
X133211428Y-74830714D01*
X133140000Y-74687857D01*
X133140000Y-74259285D01*
X133211428Y-74116428D01*
X133282857Y-74045000D01*
X133425714Y-73973571D01*
X133711428Y-73973571D01*
X133854285Y-74045000D01*
X135068571Y-74187857D02*
X135282857Y-74259285D01*
X135354285Y-74330714D01*
X135425714Y-74473571D01*
X135425714Y-74687857D01*
X135354285Y-74830714D01*
X135282857Y-74902142D01*
X135140000Y-74973571D01*
X134568571Y-74973571D01*
X134568571Y-73473571D01*
X135068571Y-73473571D01*
X135211428Y-73545000D01*
X135282857Y-73616428D01*
X135354285Y-73759285D01*
X135354285Y-73902142D01*
X135282857Y-74045000D01*
X135211428Y-74116428D01*
X135068571Y-74187857D01*
X134568571Y-74187857D01*
X137640000Y-75545000D02*
X137568571Y-75473571D01*
X137425714Y-75259285D01*
X137354285Y-75116428D01*
X137282857Y-74902142D01*
X137211428Y-74545000D01*
X137211428Y-74259285D01*
X137282857Y-73902142D01*
X137354285Y-73687857D01*
X137425714Y-73545000D01*
X137568571Y-73330714D01*
X137640000Y-73259285D01*
X138068571Y-74973571D02*
X138854285Y-73973571D01*
X138068571Y-73973571D02*
X138854285Y-74973571D01*
X140211428Y-74973571D02*
X139354285Y-74973571D01*
X139782857Y-74973571D02*
X139782857Y-73473571D01*
X139640000Y-73687857D01*
X139497142Y-73830714D01*
X139354285Y-73902142D01*
X141140000Y-73473571D02*
X141282857Y-73473571D01*
X141425714Y-73545000D01*
X141497142Y-73616428D01*
X141568571Y-73759285D01*
X141640000Y-74045000D01*
X141640000Y-74402142D01*
X141568571Y-74687857D01*
X141497142Y-74830714D01*
X141425714Y-74902142D01*
X141282857Y-74973571D01*
X141140000Y-74973571D01*
X140997142Y-74902142D01*
X140925714Y-74830714D01*
X140854285Y-74687857D01*
X140782857Y-74402142D01*
X140782857Y-74045000D01*
X140854285Y-73759285D01*
X140925714Y-73616428D01*
X140997142Y-73545000D01*
X141140000Y-73473571D01*
X142140000Y-75545000D02*
X142211428Y-75473571D01*
X142354285Y-75259285D01*
X142425714Y-75116428D01*
X142497142Y-74902142D01*
X142568571Y-74545000D01*
X142568571Y-74259285D01*
X142497142Y-73902142D01*
X142425714Y-73687857D01*
X142354285Y-73545000D01*
X142211428Y-73330714D01*
X142140000Y-73259285D01*
D11*
G04 #@! TO.C,REF\002A\002A*
X142787600Y-102260400D02*
G75*
G03X142787600Y-102260400I-700000J0D01*
G01*
D12*
G04 #@! TO.C,U1*
X124925000Y-90770000D02*
X124925000Y-90820000D01*
X129075000Y-90770000D02*
X129075000Y-90915000D01*
X129075000Y-95920000D02*
X129075000Y-95775000D01*
X124925000Y-95920000D02*
X124925000Y-95775000D01*
X124925000Y-90770000D02*
X129075000Y-90770000D01*
X124925000Y-95920000D02*
X129075000Y-95920000D01*
X124925000Y-90820000D02*
X123525000Y-90820000D01*
D11*
G04 #@! TO.C,C1*
X120666252Y-95325000D02*
X120143748Y-95325000D01*
X120666252Y-93905000D02*
X120143748Y-93905000D01*
G04 #@! TO.C,C2*
X124535000Y-98441252D02*
X124535000Y-97918748D01*
X123115000Y-98441252D02*
X123115000Y-97918748D01*
G04 #@! TO.C,C4*
X127261252Y-89610000D02*
X126738748Y-89610000D01*
X127261252Y-88190000D02*
X126738748Y-88190000D01*
G04 #@! TO.C,C6*
X131370000Y-91311252D02*
X131370000Y-90788748D01*
X132790000Y-91311252D02*
X132790000Y-90788748D01*
G04 #@! TO.C,C7*
X149096252Y-103430000D02*
X148573748Y-103430000D01*
X149096252Y-104850000D02*
X148573748Y-104850000D01*
G04 #@! TO.C,C8*
X154678748Y-90880000D02*
X155201252Y-90880000D01*
X154678748Y-89460000D02*
X155201252Y-89460000D01*
G04 #@! TO.C,C9*
X158766252Y-99770000D02*
X158243748Y-99770000D01*
X158766252Y-98350000D02*
X158243748Y-98350000D01*
G04 #@! TO.C,C12*
X150366252Y-91515000D02*
X149843748Y-91515000D01*
X150366252Y-90095000D02*
X149843748Y-90095000D01*
G04 #@! TO.C,C13*
X182955000Y-84193748D02*
X182955000Y-84716252D01*
X181535000Y-84193748D02*
X181535000Y-84716252D01*
G04 #@! TO.C,C14*
X185980000Y-79748748D02*
X185980000Y-80271252D01*
X187400000Y-79748748D02*
X187400000Y-80271252D01*
G04 #@! TO.C,C15*
X163120000Y-71883748D02*
X163120000Y-72406252D01*
X164540000Y-71883748D02*
X164540000Y-72406252D01*
G04 #@! TO.C,C16*
X178510000Y-80271252D02*
X178510000Y-79748748D01*
X177090000Y-80271252D02*
X177090000Y-79748748D01*
G04 #@! TO.C,C17*
X168350000Y-80773748D02*
X168350000Y-81296252D01*
X166930000Y-80773748D02*
X166930000Y-81296252D01*
G04 #@! TO.C,D1*
X119370000Y-87775000D02*
X118440000Y-87775000D01*
X116210000Y-87775000D02*
X117140000Y-87775000D01*
X116210000Y-87775000D02*
X116210000Y-89935000D01*
X119370000Y-87775000D02*
X119370000Y-89235000D01*
G04 #@! TO.C,D2*
X119370000Y-97935000D02*
X119370000Y-99395000D01*
X116210000Y-97935000D02*
X116210000Y-100095000D01*
X116210000Y-97935000D02*
X117140000Y-97935000D01*
X119370000Y-97935000D02*
X118440000Y-97935000D01*
G04 #@! TO.C,D3*
X116210000Y-106535000D02*
X117140000Y-106535000D01*
X119370000Y-106535000D02*
X118440000Y-106535000D01*
X119370000Y-106535000D02*
X119370000Y-104375000D01*
X116210000Y-106535000D02*
X116210000Y-105075000D01*
G04 #@! TO.C,J3*
X175190000Y-70045000D02*
X175190000Y-74065000D01*
X175190000Y-74065000D02*
X182910000Y-74065000D01*
X182910000Y-74065000D02*
X182910000Y-70045000D01*
X182910000Y-70045000D02*
X175190000Y-70045000D01*
X175190000Y-71755000D02*
X175690000Y-71755000D01*
X175690000Y-71755000D02*
X175690000Y-70545000D01*
X175690000Y-70545000D02*
X182410000Y-70545000D01*
X182410000Y-70545000D02*
X182410000Y-71755000D01*
X182410000Y-71755000D02*
X182910000Y-71755000D01*
X175190000Y-72565000D02*
X176190000Y-72565000D01*
X176190000Y-72565000D02*
X176190000Y-74065000D01*
X182910000Y-72565000D02*
X181910000Y-72565000D01*
X181910000Y-72565000D02*
X181910000Y-74065000D01*
X174890000Y-71865000D02*
X174890000Y-74365000D01*
X174890000Y-74365000D02*
X177390000Y-74365000D01*
G04 #@! TO.C,L1*
X169382064Y-73115000D02*
X168177936Y-73115000D01*
X169382064Y-70395000D02*
X168177936Y-70395000D01*
G04 #@! TO.C,L2*
X169642064Y-74840000D02*
X168437936Y-74840000D01*
X169642064Y-77560000D02*
X168437936Y-77560000D01*
G04 #@! TO.C,R1*
X117550000Y-92838748D02*
X117550000Y-93361252D01*
X116130000Y-92838748D02*
X116130000Y-93361252D01*
G04 #@! TO.C,R2*
X120666252Y-92785000D02*
X120143748Y-92785000D01*
X120666252Y-91365000D02*
X120143748Y-91365000D01*
G04 #@! TO.C,R3*
X124476252Y-75005000D02*
X123953748Y-75005000D01*
X124476252Y-73585000D02*
X123953748Y-73585000D01*
G04 #@! TO.C,R4*
X124476252Y-76125000D02*
X123953748Y-76125000D01*
X124476252Y-77545000D02*
X123953748Y-77545000D01*
G04 #@! TO.C,R5*
X124476252Y-80085000D02*
X123953748Y-80085000D01*
X124476252Y-78665000D02*
X123953748Y-78665000D01*
G04 #@! TO.C,R6*
X118126252Y-101525000D02*
X117603748Y-101525000D01*
X118126252Y-102945000D02*
X117603748Y-102945000D01*
G04 #@! TO.C,R7*
X130735000Y-98553748D02*
X130735000Y-99076252D01*
X132155000Y-98553748D02*
X132155000Y-99076252D01*
G04 #@! TO.C,R8*
X123750000Y-85463748D02*
X123750000Y-85986252D01*
X125170000Y-85463748D02*
X125170000Y-85986252D01*
G04 #@! TO.C,R9*
X139775000Y-90788748D02*
X139775000Y-91311252D01*
X138355000Y-90788748D02*
X138355000Y-91311252D01*
G04 #@! TO.C,R10*
X144796252Y-94055000D02*
X144273748Y-94055000D01*
X144796252Y-92635000D02*
X144273748Y-92635000D01*
G04 #@! TO.C,R11*
X145340000Y-96648748D02*
X145340000Y-97171252D01*
X146760000Y-96648748D02*
X146760000Y-97171252D01*
G04 #@! TO.C,R12*
X158040000Y-93216252D02*
X158040000Y-92693748D01*
X159460000Y-93216252D02*
X159460000Y-92693748D01*
G04 #@! TO.C,R13*
X162576252Y-93270000D02*
X162053748Y-93270000D01*
X162576252Y-94690000D02*
X162053748Y-94690000D01*
G04 #@! TO.C,R14*
X158131252Y-85650000D02*
X157608748Y-85650000D01*
X158131252Y-87070000D02*
X157608748Y-87070000D01*
G04 #@! TO.C,R15*
X149843748Y-83745000D02*
X150366252Y-83745000D01*
X149843748Y-85165000D02*
X150366252Y-85165000D01*
G04 #@! TO.C,R16*
X158243748Y-106120000D02*
X158766252Y-106120000D01*
X158243748Y-104700000D02*
X158766252Y-104700000D01*
G04 #@! TO.C,RV1*
X133585000Y-83040000D02*
X133965000Y-83040000D01*
X128925000Y-83040000D02*
X129305000Y-83040000D01*
X131085000Y-83040000D02*
X131805000Y-83040000D01*
X128925000Y-86780000D02*
X130205000Y-86780000D01*
X132685000Y-86780000D02*
X133965000Y-86780000D01*
X128925000Y-83040000D02*
X128925000Y-86780000D01*
X133965000Y-83040000D02*
X133965000Y-86780000D01*
G04 #@! TO.C,RV2*
X151150000Y-106825000D02*
X151150000Y-103085000D01*
X156190000Y-106825000D02*
X156190000Y-103085000D01*
X152430000Y-103085000D02*
X151150000Y-103085000D01*
X156190000Y-103085000D02*
X154910000Y-103085000D01*
X154030000Y-106825000D02*
X153310000Y-106825000D01*
X156190000Y-106825000D02*
X155810000Y-106825000D01*
X151530000Y-106825000D02*
X151150000Y-106825000D01*
G04 #@! TO.C,SW1*
X116570000Y-72965000D02*
G75*
G02X114570000Y-72965000I-1000000J0D01*
G01*
X114570000Y-72965000D02*
X113035000Y-72965000D01*
X113035000Y-72965000D02*
X113035000Y-83245000D01*
X113035000Y-83245000D02*
X118105000Y-83245000D01*
X118105000Y-83245000D02*
X118105000Y-72965000D01*
X118105000Y-72965000D02*
X116570000Y-72965000D01*
X109335000Y-72905000D02*
X109335000Y-83305000D01*
X109335000Y-83305000D02*
X121805000Y-83305000D01*
X121805000Y-83305000D02*
X121805000Y-72905000D01*
X121805000Y-72905000D02*
X109335000Y-72905000D01*
D12*
G04 #@! TO.C,U2*
X151145000Y-97960000D02*
X151145000Y-99360000D01*
X156245000Y-97960000D02*
X156245000Y-93810000D01*
X151095000Y-97960000D02*
X151095000Y-93810000D01*
X156245000Y-97960000D02*
X156100000Y-97960000D01*
X156245000Y-93810000D02*
X156100000Y-93810000D01*
X151095000Y-93810000D02*
X151240000Y-93810000D01*
X151095000Y-97960000D02*
X151145000Y-97960000D01*
D11*
G04 #@! TO.C,U3*
X183535000Y-80740000D02*
X183535000Y-78940000D01*
X180315000Y-78940000D02*
X180315000Y-81390000D01*
G04 #@! TO.C,C3*
X126125000Y-97665000D02*
X126125000Y-102050000D01*
X126125000Y-102050000D02*
X129145000Y-102050000D01*
X129145000Y-102050000D02*
X129145000Y-97665000D01*
G04 #@! TO.C,C5*
X136765000Y-92805000D02*
X136765000Y-88420000D01*
X133745000Y-92805000D02*
X136765000Y-92805000D01*
X133745000Y-88420000D02*
X133745000Y-92805000D01*
G04 #@! TO.C,C10*
X161740000Y-100725000D02*
X157355000Y-100725000D01*
X161740000Y-103745000D02*
X161740000Y-100725000D01*
X157355000Y-103745000D02*
X161740000Y-103745000D01*
G04 #@! TO.C,C11*
X147475000Y-89140000D02*
X151860000Y-89140000D01*
X151860000Y-89140000D02*
X151860000Y-86120000D01*
X151860000Y-86120000D02*
X147475000Y-86120000D01*
G04 #@! TO.C,TP1*
X135320000Y-96520000D02*
G75*
G03X135320000Y-96520000I-700000J0D01*
G01*
G04 #@! TO.C,TP2*
X144845000Y-102235000D02*
G75*
G03X144845000Y-102235000I-700000J0D01*
G01*
G04 #@! TO.C,REF\002A\002A*
X137352000Y-96520000D02*
G75*
G03X137352000Y-96520000I-700000J0D01*
G01*
D12*
G04 #@! TO.C,J1*
X101600000Y-99060000D02*
X113030000Y-99060000D01*
X101600000Y-85090000D02*
X113030000Y-85090000D01*
X101600000Y-85090000D02*
X101600000Y-99060000D01*
X113030000Y-99060000D02*
X113030000Y-85090000D01*
G04 #@! TO.C,J2*
X191770000Y-85725000D02*
X191770000Y-99695000D01*
X203200000Y-99695000D02*
X203200000Y-85725000D01*
X203200000Y-99695000D02*
X191770000Y-99695000D01*
X203200000Y-85725000D02*
X191770000Y-85725000D01*
G04 #@! TO.C,U1*
X126238095Y-92797380D02*
X126238095Y-93606904D01*
X126285714Y-93702142D01*
X126333333Y-93749761D01*
X126428571Y-93797380D01*
X126619047Y-93797380D01*
X126714285Y-93749761D01*
X126761904Y-93702142D01*
X126809523Y-93606904D01*
X126809523Y-92797380D01*
X127809523Y-93797380D02*
X127238095Y-93797380D01*
X127523809Y-93797380D02*
X127523809Y-92797380D01*
X127428571Y-92940238D01*
X127333333Y-93035476D01*
X127238095Y-93083095D01*
G04 #@! TO.C,C1*
X120238333Y-96622142D02*
X120190714Y-96669761D01*
X120047857Y-96717380D01*
X119952619Y-96717380D01*
X119809761Y-96669761D01*
X119714523Y-96574523D01*
X119666904Y-96479285D01*
X119619285Y-96288809D01*
X119619285Y-96145952D01*
X119666904Y-95955476D01*
X119714523Y-95860238D01*
X119809761Y-95765000D01*
X119952619Y-95717380D01*
X120047857Y-95717380D01*
X120190714Y-95765000D01*
X120238333Y-95812619D01*
X121190714Y-96717380D02*
X120619285Y-96717380D01*
X120905000Y-96717380D02*
X120905000Y-95717380D01*
X120809761Y-95860238D01*
X120714523Y-95955476D01*
X120619285Y-96003095D01*
G04 #@! TO.C,C2*
X123658333Y-101322142D02*
X123610714Y-101369761D01*
X123467857Y-101417380D01*
X123372619Y-101417380D01*
X123229761Y-101369761D01*
X123134523Y-101274523D01*
X123086904Y-101179285D01*
X123039285Y-100988809D01*
X123039285Y-100845952D01*
X123086904Y-100655476D01*
X123134523Y-100560238D01*
X123229761Y-100465000D01*
X123372619Y-100417380D01*
X123467857Y-100417380D01*
X123610714Y-100465000D01*
X123658333Y-100512619D01*
X124039285Y-100512619D02*
X124086904Y-100465000D01*
X124182142Y-100417380D01*
X124420238Y-100417380D01*
X124515476Y-100465000D01*
X124563095Y-100512619D01*
X124610714Y-100607857D01*
X124610714Y-100703095D01*
X124563095Y-100845952D01*
X123991666Y-101417380D01*
X124610714Y-101417380D01*
G04 #@! TO.C,C4*
X130008333Y-89892142D02*
X129960714Y-89939761D01*
X129817857Y-89987380D01*
X129722619Y-89987380D01*
X129579761Y-89939761D01*
X129484523Y-89844523D01*
X129436904Y-89749285D01*
X129389285Y-89558809D01*
X129389285Y-89415952D01*
X129436904Y-89225476D01*
X129484523Y-89130238D01*
X129579761Y-89035000D01*
X129722619Y-88987380D01*
X129817857Y-88987380D01*
X129960714Y-89035000D01*
X130008333Y-89082619D01*
X130865476Y-89320714D02*
X130865476Y-89987380D01*
X130627380Y-88939761D02*
X130389285Y-89654047D01*
X131008333Y-89654047D01*
G04 #@! TO.C,C6*
X131913333Y-94337142D02*
X131865714Y-94384761D01*
X131722857Y-94432380D01*
X131627619Y-94432380D01*
X131484761Y-94384761D01*
X131389523Y-94289523D01*
X131341904Y-94194285D01*
X131294285Y-94003809D01*
X131294285Y-93860952D01*
X131341904Y-93670476D01*
X131389523Y-93575238D01*
X131484761Y-93480000D01*
X131627619Y-93432380D01*
X131722857Y-93432380D01*
X131865714Y-93480000D01*
X131913333Y-93527619D01*
X132770476Y-93432380D02*
X132580000Y-93432380D01*
X132484761Y-93480000D01*
X132437142Y-93527619D01*
X132341904Y-93670476D01*
X132294285Y-93860952D01*
X132294285Y-94241904D01*
X132341904Y-94337142D01*
X132389523Y-94384761D01*
X132484761Y-94432380D01*
X132675238Y-94432380D01*
X132770476Y-94384761D01*
X132818095Y-94337142D01*
X132865714Y-94241904D01*
X132865714Y-94003809D01*
X132818095Y-93908571D01*
X132770476Y-93860952D01*
X132675238Y-93813333D01*
X132484761Y-93813333D01*
X132389523Y-93860952D01*
X132341904Y-93908571D01*
X132294285Y-94003809D01*
G04 #@! TO.C,C7*
X148668333Y-106147142D02*
X148620714Y-106194761D01*
X148477857Y-106242380D01*
X148382619Y-106242380D01*
X148239761Y-106194761D01*
X148144523Y-106099523D01*
X148096904Y-106004285D01*
X148049285Y-105813809D01*
X148049285Y-105670952D01*
X148096904Y-105480476D01*
X148144523Y-105385238D01*
X148239761Y-105290000D01*
X148382619Y-105242380D01*
X148477857Y-105242380D01*
X148620714Y-105290000D01*
X148668333Y-105337619D01*
X149001666Y-105242380D02*
X149668333Y-105242380D01*
X149239761Y-106242380D01*
G04 #@! TO.C,C8*
X157948333Y-90527142D02*
X157900714Y-90574761D01*
X157757857Y-90622380D01*
X157662619Y-90622380D01*
X157519761Y-90574761D01*
X157424523Y-90479523D01*
X157376904Y-90384285D01*
X157329285Y-90193809D01*
X157329285Y-90050952D01*
X157376904Y-89860476D01*
X157424523Y-89765238D01*
X157519761Y-89670000D01*
X157662619Y-89622380D01*
X157757857Y-89622380D01*
X157900714Y-89670000D01*
X157948333Y-89717619D01*
X158519761Y-90050952D02*
X158424523Y-90003333D01*
X158376904Y-89955714D01*
X158329285Y-89860476D01*
X158329285Y-89812857D01*
X158376904Y-89717619D01*
X158424523Y-89670000D01*
X158519761Y-89622380D01*
X158710238Y-89622380D01*
X158805476Y-89670000D01*
X158853095Y-89717619D01*
X158900714Y-89812857D01*
X158900714Y-89860476D01*
X158853095Y-89955714D01*
X158805476Y-90003333D01*
X158710238Y-90050952D01*
X158519761Y-90050952D01*
X158424523Y-90098571D01*
X158376904Y-90146190D01*
X158329285Y-90241428D01*
X158329285Y-90431904D01*
X158376904Y-90527142D01*
X158424523Y-90574761D01*
X158519761Y-90622380D01*
X158710238Y-90622380D01*
X158805476Y-90574761D01*
X158853095Y-90527142D01*
X158900714Y-90431904D01*
X158900714Y-90241428D01*
X158853095Y-90146190D01*
X158805476Y-90098571D01*
X158710238Y-90050952D01*
G04 #@! TO.C,C9*
X161123333Y-99417142D02*
X161075714Y-99464761D01*
X160932857Y-99512380D01*
X160837619Y-99512380D01*
X160694761Y-99464761D01*
X160599523Y-99369523D01*
X160551904Y-99274285D01*
X160504285Y-99083809D01*
X160504285Y-98940952D01*
X160551904Y-98750476D01*
X160599523Y-98655238D01*
X160694761Y-98560000D01*
X160837619Y-98512380D01*
X160932857Y-98512380D01*
X161075714Y-98560000D01*
X161123333Y-98607619D01*
X161599523Y-99512380D02*
X161790000Y-99512380D01*
X161885238Y-99464761D01*
X161932857Y-99417142D01*
X162028095Y-99274285D01*
X162075714Y-99083809D01*
X162075714Y-98702857D01*
X162028095Y-98607619D01*
X161980476Y-98560000D01*
X161885238Y-98512380D01*
X161694761Y-98512380D01*
X161599523Y-98560000D01*
X161551904Y-98607619D01*
X161504285Y-98702857D01*
X161504285Y-98940952D01*
X161551904Y-99036190D01*
X161599523Y-99083809D01*
X161694761Y-99131428D01*
X161885238Y-99131428D01*
X161980476Y-99083809D01*
X162028095Y-99036190D01*
X162075714Y-98940952D01*
G04 #@! TO.C,C12*
X146042142Y-91162142D02*
X145994523Y-91209761D01*
X145851666Y-91257380D01*
X145756428Y-91257380D01*
X145613571Y-91209761D01*
X145518333Y-91114523D01*
X145470714Y-91019285D01*
X145423095Y-90828809D01*
X145423095Y-90685952D01*
X145470714Y-90495476D01*
X145518333Y-90400238D01*
X145613571Y-90305000D01*
X145756428Y-90257380D01*
X145851666Y-90257380D01*
X145994523Y-90305000D01*
X146042142Y-90352619D01*
X146994523Y-91257380D02*
X146423095Y-91257380D01*
X146708809Y-91257380D02*
X146708809Y-90257380D01*
X146613571Y-90400238D01*
X146518333Y-90495476D01*
X146423095Y-90543095D01*
X147375476Y-90352619D02*
X147423095Y-90305000D01*
X147518333Y-90257380D01*
X147756428Y-90257380D01*
X147851666Y-90305000D01*
X147899285Y-90352619D01*
X147946904Y-90447857D01*
X147946904Y-90543095D01*
X147899285Y-90685952D01*
X147327857Y-91257380D01*
X147946904Y-91257380D01*
G04 #@! TO.C,C13*
X181602142Y-87987142D02*
X181554523Y-88034761D01*
X181411666Y-88082380D01*
X181316428Y-88082380D01*
X181173571Y-88034761D01*
X181078333Y-87939523D01*
X181030714Y-87844285D01*
X180983095Y-87653809D01*
X180983095Y-87510952D01*
X181030714Y-87320476D01*
X181078333Y-87225238D01*
X181173571Y-87130000D01*
X181316428Y-87082380D01*
X181411666Y-87082380D01*
X181554523Y-87130000D01*
X181602142Y-87177619D01*
X182554523Y-88082380D02*
X181983095Y-88082380D01*
X182268809Y-88082380D02*
X182268809Y-87082380D01*
X182173571Y-87225238D01*
X182078333Y-87320476D01*
X181983095Y-87368095D01*
X182887857Y-87082380D02*
X183506904Y-87082380D01*
X183173571Y-87463333D01*
X183316428Y-87463333D01*
X183411666Y-87510952D01*
X183459285Y-87558571D01*
X183506904Y-87653809D01*
X183506904Y-87891904D01*
X183459285Y-87987142D01*
X183411666Y-88034761D01*
X183316428Y-88082380D01*
X183030714Y-88082380D01*
X182935476Y-88034761D01*
X182887857Y-87987142D01*
G04 #@! TO.C,C14*
X186047142Y-83542142D02*
X185999523Y-83589761D01*
X185856666Y-83637380D01*
X185761428Y-83637380D01*
X185618571Y-83589761D01*
X185523333Y-83494523D01*
X185475714Y-83399285D01*
X185428095Y-83208809D01*
X185428095Y-83065952D01*
X185475714Y-82875476D01*
X185523333Y-82780238D01*
X185618571Y-82685000D01*
X185761428Y-82637380D01*
X185856666Y-82637380D01*
X185999523Y-82685000D01*
X186047142Y-82732619D01*
X186999523Y-83637380D02*
X186428095Y-83637380D01*
X186713809Y-83637380D02*
X186713809Y-82637380D01*
X186618571Y-82780238D01*
X186523333Y-82875476D01*
X186428095Y-82923095D01*
X187856666Y-82970714D02*
X187856666Y-83637380D01*
X187618571Y-82589761D02*
X187380476Y-83304047D01*
X187999523Y-83304047D01*
G04 #@! TO.C,C15*
X163187142Y-75287142D02*
X163139523Y-75334761D01*
X162996666Y-75382380D01*
X162901428Y-75382380D01*
X162758571Y-75334761D01*
X162663333Y-75239523D01*
X162615714Y-75144285D01*
X162568095Y-74953809D01*
X162568095Y-74810952D01*
X162615714Y-74620476D01*
X162663333Y-74525238D01*
X162758571Y-74430000D01*
X162901428Y-74382380D01*
X162996666Y-74382380D01*
X163139523Y-74430000D01*
X163187142Y-74477619D01*
X164139523Y-75382380D02*
X163568095Y-75382380D01*
X163853809Y-75382380D02*
X163853809Y-74382380D01*
X163758571Y-74525238D01*
X163663333Y-74620476D01*
X163568095Y-74668095D01*
X165044285Y-74382380D02*
X164568095Y-74382380D01*
X164520476Y-74858571D01*
X164568095Y-74810952D01*
X164663333Y-74763333D01*
X164901428Y-74763333D01*
X164996666Y-74810952D01*
X165044285Y-74858571D01*
X165091904Y-74953809D01*
X165091904Y-75191904D01*
X165044285Y-75287142D01*
X164996666Y-75334761D01*
X164901428Y-75382380D01*
X164663333Y-75382380D01*
X164568095Y-75334761D01*
X164520476Y-75287142D01*
G04 #@! TO.C,C16*
X177157142Y-82907142D02*
X177109523Y-82954761D01*
X176966666Y-83002380D01*
X176871428Y-83002380D01*
X176728571Y-82954761D01*
X176633333Y-82859523D01*
X176585714Y-82764285D01*
X176538095Y-82573809D01*
X176538095Y-82430952D01*
X176585714Y-82240476D01*
X176633333Y-82145238D01*
X176728571Y-82050000D01*
X176871428Y-82002380D01*
X176966666Y-82002380D01*
X177109523Y-82050000D01*
X177157142Y-82097619D01*
X178109523Y-83002380D02*
X177538095Y-83002380D01*
X177823809Y-83002380D02*
X177823809Y-82002380D01*
X177728571Y-82145238D01*
X177633333Y-82240476D01*
X177538095Y-82288095D01*
X178966666Y-82002380D02*
X178776190Y-82002380D01*
X178680952Y-82050000D01*
X178633333Y-82097619D01*
X178538095Y-82240476D01*
X178490476Y-82430952D01*
X178490476Y-82811904D01*
X178538095Y-82907142D01*
X178585714Y-82954761D01*
X178680952Y-83002380D01*
X178871428Y-83002380D01*
X178966666Y-82954761D01*
X179014285Y-82907142D01*
X179061904Y-82811904D01*
X179061904Y-82573809D01*
X179014285Y-82478571D01*
X178966666Y-82430952D01*
X178871428Y-82383333D01*
X178680952Y-82383333D01*
X178585714Y-82430952D01*
X178538095Y-82478571D01*
X178490476Y-82573809D01*
G04 #@! TO.C,C17*
X166997142Y-84177142D02*
X166949523Y-84224761D01*
X166806666Y-84272380D01*
X166711428Y-84272380D01*
X166568571Y-84224761D01*
X166473333Y-84129523D01*
X166425714Y-84034285D01*
X166378095Y-83843809D01*
X166378095Y-83700952D01*
X166425714Y-83510476D01*
X166473333Y-83415238D01*
X166568571Y-83320000D01*
X166711428Y-83272380D01*
X166806666Y-83272380D01*
X166949523Y-83320000D01*
X166997142Y-83367619D01*
X167949523Y-84272380D02*
X167378095Y-84272380D01*
X167663809Y-84272380D02*
X167663809Y-83272380D01*
X167568571Y-83415238D01*
X167473333Y-83510476D01*
X167378095Y-83558095D01*
X168282857Y-83272380D02*
X168949523Y-83272380D01*
X168520952Y-84272380D01*
G04 #@! TO.C,D1*
X114511904Y-89622380D02*
X114511904Y-88622380D01*
X114750000Y-88622380D01*
X114892857Y-88670000D01*
X114988095Y-88765238D01*
X115035714Y-88860476D01*
X115083333Y-89050952D01*
X115083333Y-89193809D01*
X115035714Y-89384285D01*
X114988095Y-89479523D01*
X114892857Y-89574761D01*
X114750000Y-89622380D01*
X114511904Y-89622380D01*
X116035714Y-89622380D02*
X115464285Y-89622380D01*
X115750000Y-89622380D02*
X115750000Y-88622380D01*
X115654761Y-88765238D01*
X115559523Y-88860476D01*
X115464285Y-88908095D01*
G04 #@! TO.C,D2*
X119911904Y-99512380D02*
X119911904Y-98512380D01*
X120150000Y-98512380D01*
X120292857Y-98560000D01*
X120388095Y-98655238D01*
X120435714Y-98750476D01*
X120483333Y-98940952D01*
X120483333Y-99083809D01*
X120435714Y-99274285D01*
X120388095Y-99369523D01*
X120292857Y-99464761D01*
X120150000Y-99512380D01*
X119911904Y-99512380D01*
X120864285Y-98607619D02*
X120911904Y-98560000D01*
X121007142Y-98512380D01*
X121245238Y-98512380D01*
X121340476Y-98560000D01*
X121388095Y-98607619D01*
X121435714Y-98702857D01*
X121435714Y-98798095D01*
X121388095Y-98940952D01*
X120816666Y-99512380D01*
X121435714Y-99512380D01*
G04 #@! TO.C,D3*
X119551904Y-106227380D02*
X119551904Y-105227380D01*
X119790000Y-105227380D01*
X119932857Y-105275000D01*
X120028095Y-105370238D01*
X120075714Y-105465476D01*
X120123333Y-105655952D01*
X120123333Y-105798809D01*
X120075714Y-105989285D01*
X120028095Y-106084523D01*
X119932857Y-106179761D01*
X119790000Y-106227380D01*
X119551904Y-106227380D01*
X120456666Y-105227380D02*
X121075714Y-105227380D01*
X120742380Y-105608333D01*
X120885238Y-105608333D01*
X120980476Y-105655952D01*
X121028095Y-105703571D01*
X121075714Y-105798809D01*
X121075714Y-106036904D01*
X121028095Y-106132142D01*
X120980476Y-106179761D01*
X120885238Y-106227380D01*
X120599523Y-106227380D01*
X120504285Y-106179761D01*
X120456666Y-106132142D01*
G04 #@! TO.C,J3*
X178716666Y-68407380D02*
X178716666Y-69121666D01*
X178669047Y-69264523D01*
X178573809Y-69359761D01*
X178430952Y-69407380D01*
X178335714Y-69407380D01*
X179097619Y-68407380D02*
X179716666Y-68407380D01*
X179383333Y-68788333D01*
X179526190Y-68788333D01*
X179621428Y-68835952D01*
X179669047Y-68883571D01*
X179716666Y-68978809D01*
X179716666Y-69216904D01*
X179669047Y-69312142D01*
X179621428Y-69359761D01*
X179526190Y-69407380D01*
X179240476Y-69407380D01*
X179145238Y-69359761D01*
X179097619Y-69312142D01*
G04 #@! TO.C,L1*
X168613333Y-74487380D02*
X168137142Y-74487380D01*
X168137142Y-73487380D01*
X169470476Y-74487380D02*
X168899047Y-74487380D01*
X169184761Y-74487380D02*
X169184761Y-73487380D01*
X169089523Y-73630238D01*
X168994285Y-73725476D01*
X168899047Y-73773095D01*
G04 #@! TO.C,L2*
X168873333Y-78932380D02*
X168397142Y-78932380D01*
X168397142Y-77932380D01*
X169159047Y-78027619D02*
X169206666Y-77980000D01*
X169301904Y-77932380D01*
X169540000Y-77932380D01*
X169635238Y-77980000D01*
X169682857Y-78027619D01*
X169730476Y-78122857D01*
X169730476Y-78218095D01*
X169682857Y-78360952D01*
X169111428Y-78932380D01*
X169730476Y-78932380D01*
G04 #@! TO.C,R1*
X116673333Y-96337380D02*
X116340000Y-95861190D01*
X116101904Y-96337380D02*
X116101904Y-95337380D01*
X116482857Y-95337380D01*
X116578095Y-95385000D01*
X116625714Y-95432619D01*
X116673333Y-95527857D01*
X116673333Y-95670714D01*
X116625714Y-95765952D01*
X116578095Y-95813571D01*
X116482857Y-95861190D01*
X116101904Y-95861190D01*
X117625714Y-96337380D02*
X117054285Y-96337380D01*
X117340000Y-96337380D02*
X117340000Y-95337380D01*
X117244761Y-95480238D01*
X117149523Y-95575476D01*
X117054285Y-95623095D01*
G04 #@! TO.C,R2*
X121753333Y-90622380D02*
X121420000Y-90146190D01*
X121181904Y-90622380D02*
X121181904Y-89622380D01*
X121562857Y-89622380D01*
X121658095Y-89670000D01*
X121705714Y-89717619D01*
X121753333Y-89812857D01*
X121753333Y-89955714D01*
X121705714Y-90050952D01*
X121658095Y-90098571D01*
X121562857Y-90146190D01*
X121181904Y-90146190D01*
X122134285Y-89717619D02*
X122181904Y-89670000D01*
X122277142Y-89622380D01*
X122515238Y-89622380D01*
X122610476Y-89670000D01*
X122658095Y-89717619D01*
X122705714Y-89812857D01*
X122705714Y-89908095D01*
X122658095Y-90050952D01*
X122086666Y-90622380D01*
X122705714Y-90622380D01*
G04 #@! TO.C,R3*
X126833333Y-74747380D02*
X126500000Y-74271190D01*
X126261904Y-74747380D02*
X126261904Y-73747380D01*
X126642857Y-73747380D01*
X126738095Y-73795000D01*
X126785714Y-73842619D01*
X126833333Y-73937857D01*
X126833333Y-74080714D01*
X126785714Y-74175952D01*
X126738095Y-74223571D01*
X126642857Y-74271190D01*
X126261904Y-74271190D01*
X127166666Y-73747380D02*
X127785714Y-73747380D01*
X127452380Y-74128333D01*
X127595238Y-74128333D01*
X127690476Y-74175952D01*
X127738095Y-74223571D01*
X127785714Y-74318809D01*
X127785714Y-74556904D01*
X127738095Y-74652142D01*
X127690476Y-74699761D01*
X127595238Y-74747380D01*
X127309523Y-74747380D01*
X127214285Y-74699761D01*
X127166666Y-74652142D01*
G04 #@! TO.C,R4*
X126833333Y-77287380D02*
X126500000Y-76811190D01*
X126261904Y-77287380D02*
X126261904Y-76287380D01*
X126642857Y-76287380D01*
X126738095Y-76335000D01*
X126785714Y-76382619D01*
X126833333Y-76477857D01*
X126833333Y-76620714D01*
X126785714Y-76715952D01*
X126738095Y-76763571D01*
X126642857Y-76811190D01*
X126261904Y-76811190D01*
X127690476Y-76620714D02*
X127690476Y-77287380D01*
X127452380Y-76239761D02*
X127214285Y-76954047D01*
X127833333Y-76954047D01*
G04 #@! TO.C,R5*
X126833333Y-79827380D02*
X126500000Y-79351190D01*
X126261904Y-79827380D02*
X126261904Y-78827380D01*
X126642857Y-78827380D01*
X126738095Y-78875000D01*
X126785714Y-78922619D01*
X126833333Y-79017857D01*
X126833333Y-79160714D01*
X126785714Y-79255952D01*
X126738095Y-79303571D01*
X126642857Y-79351190D01*
X126261904Y-79351190D01*
X127738095Y-78827380D02*
X127261904Y-78827380D01*
X127214285Y-79303571D01*
X127261904Y-79255952D01*
X127357142Y-79208333D01*
X127595238Y-79208333D01*
X127690476Y-79255952D01*
X127738095Y-79303571D01*
X127785714Y-79398809D01*
X127785714Y-79636904D01*
X127738095Y-79732142D01*
X127690476Y-79779761D01*
X127595238Y-79827380D01*
X127357142Y-79827380D01*
X127261904Y-79779761D01*
X127214285Y-79732142D01*
G04 #@! TO.C,R6*
X120483333Y-102687380D02*
X120150000Y-102211190D01*
X119911904Y-102687380D02*
X119911904Y-101687380D01*
X120292857Y-101687380D01*
X120388095Y-101735000D01*
X120435714Y-101782619D01*
X120483333Y-101877857D01*
X120483333Y-102020714D01*
X120435714Y-102115952D01*
X120388095Y-102163571D01*
X120292857Y-102211190D01*
X119911904Y-102211190D01*
X121340476Y-101687380D02*
X121150000Y-101687380D01*
X121054761Y-101735000D01*
X121007142Y-101782619D01*
X120911904Y-101925476D01*
X120864285Y-102115952D01*
X120864285Y-102496904D01*
X120911904Y-102592142D01*
X120959523Y-102639761D01*
X121054761Y-102687380D01*
X121245238Y-102687380D01*
X121340476Y-102639761D01*
X121388095Y-102592142D01*
X121435714Y-102496904D01*
X121435714Y-102258809D01*
X121388095Y-102163571D01*
X121340476Y-102115952D01*
X121245238Y-102068333D01*
X121054761Y-102068333D01*
X120959523Y-102115952D01*
X120911904Y-102163571D01*
X120864285Y-102258809D01*
G04 #@! TO.C,R7*
X131278333Y-102052380D02*
X130945000Y-101576190D01*
X130706904Y-102052380D02*
X130706904Y-101052380D01*
X131087857Y-101052380D01*
X131183095Y-101100000D01*
X131230714Y-101147619D01*
X131278333Y-101242857D01*
X131278333Y-101385714D01*
X131230714Y-101480952D01*
X131183095Y-101528571D01*
X131087857Y-101576190D01*
X130706904Y-101576190D01*
X131611666Y-101052380D02*
X132278333Y-101052380D01*
X131849761Y-102052380D01*
G04 #@! TO.C,R8*
X125943333Y-86177380D02*
X125610000Y-85701190D01*
X125371904Y-86177380D02*
X125371904Y-85177380D01*
X125752857Y-85177380D01*
X125848095Y-85225000D01*
X125895714Y-85272619D01*
X125943333Y-85367857D01*
X125943333Y-85510714D01*
X125895714Y-85605952D01*
X125848095Y-85653571D01*
X125752857Y-85701190D01*
X125371904Y-85701190D01*
X126514761Y-85605952D02*
X126419523Y-85558333D01*
X126371904Y-85510714D01*
X126324285Y-85415476D01*
X126324285Y-85367857D01*
X126371904Y-85272619D01*
X126419523Y-85225000D01*
X126514761Y-85177380D01*
X126705238Y-85177380D01*
X126800476Y-85225000D01*
X126848095Y-85272619D01*
X126895714Y-85367857D01*
X126895714Y-85415476D01*
X126848095Y-85510714D01*
X126800476Y-85558333D01*
X126705238Y-85605952D01*
X126514761Y-85605952D01*
X126419523Y-85653571D01*
X126371904Y-85701190D01*
X126324285Y-85796428D01*
X126324285Y-85986904D01*
X126371904Y-86082142D01*
X126419523Y-86129761D01*
X126514761Y-86177380D01*
X126705238Y-86177380D01*
X126800476Y-86129761D01*
X126848095Y-86082142D01*
X126895714Y-85986904D01*
X126895714Y-85796428D01*
X126848095Y-85701190D01*
X126800476Y-85653571D01*
X126705238Y-85605952D01*
G04 #@! TO.C,R9*
X138898333Y-94432380D02*
X138565000Y-93956190D01*
X138326904Y-94432380D02*
X138326904Y-93432380D01*
X138707857Y-93432380D01*
X138803095Y-93480000D01*
X138850714Y-93527619D01*
X138898333Y-93622857D01*
X138898333Y-93765714D01*
X138850714Y-93860952D01*
X138803095Y-93908571D01*
X138707857Y-93956190D01*
X138326904Y-93956190D01*
X139374523Y-94432380D02*
X139565000Y-94432380D01*
X139660238Y-94384761D01*
X139707857Y-94337142D01*
X139803095Y-94194285D01*
X139850714Y-94003809D01*
X139850714Y-93622857D01*
X139803095Y-93527619D01*
X139755476Y-93480000D01*
X139660238Y-93432380D01*
X139469761Y-93432380D01*
X139374523Y-93480000D01*
X139326904Y-93527619D01*
X139279285Y-93622857D01*
X139279285Y-93860952D01*
X139326904Y-93956190D01*
X139374523Y-94003809D01*
X139469761Y-94051428D01*
X139660238Y-94051428D01*
X139755476Y-94003809D01*
X139803095Y-93956190D01*
X139850714Y-93860952D01*
G04 #@! TO.C,R10*
X142232142Y-95447380D02*
X141898809Y-94971190D01*
X141660714Y-95447380D02*
X141660714Y-94447380D01*
X142041666Y-94447380D01*
X142136904Y-94495000D01*
X142184523Y-94542619D01*
X142232142Y-94637857D01*
X142232142Y-94780714D01*
X142184523Y-94875952D01*
X142136904Y-94923571D01*
X142041666Y-94971190D01*
X141660714Y-94971190D01*
X143184523Y-95447380D02*
X142613095Y-95447380D01*
X142898809Y-95447380D02*
X142898809Y-94447380D01*
X142803571Y-94590238D01*
X142708333Y-94685476D01*
X142613095Y-94733095D01*
X143803571Y-94447380D02*
X143898809Y-94447380D01*
X143994047Y-94495000D01*
X144041666Y-94542619D01*
X144089285Y-94637857D01*
X144136904Y-94828333D01*
X144136904Y-95066428D01*
X144089285Y-95256904D01*
X144041666Y-95352142D01*
X143994047Y-95399761D01*
X143898809Y-95447380D01*
X143803571Y-95447380D01*
X143708333Y-95399761D01*
X143660714Y-95352142D01*
X143613095Y-95256904D01*
X143565476Y-95066428D01*
X143565476Y-94828333D01*
X143613095Y-94637857D01*
X143660714Y-94542619D01*
X143708333Y-94495000D01*
X143803571Y-94447380D01*
G04 #@! TO.C,R11*
X145407142Y-100147380D02*
X145073809Y-99671190D01*
X144835714Y-100147380D02*
X144835714Y-99147380D01*
X145216666Y-99147380D01*
X145311904Y-99195000D01*
X145359523Y-99242619D01*
X145407142Y-99337857D01*
X145407142Y-99480714D01*
X145359523Y-99575952D01*
X145311904Y-99623571D01*
X145216666Y-99671190D01*
X144835714Y-99671190D01*
X146359523Y-100147380D02*
X145788095Y-100147380D01*
X146073809Y-100147380D02*
X146073809Y-99147380D01*
X145978571Y-99290238D01*
X145883333Y-99385476D01*
X145788095Y-99433095D01*
X147311904Y-100147380D02*
X146740476Y-100147380D01*
X147026190Y-100147380D02*
X147026190Y-99147380D01*
X146930952Y-99290238D01*
X146835714Y-99385476D01*
X146740476Y-99433095D01*
G04 #@! TO.C,R12*
X158107142Y-96337380D02*
X157773809Y-95861190D01*
X157535714Y-96337380D02*
X157535714Y-95337380D01*
X157916666Y-95337380D01*
X158011904Y-95385000D01*
X158059523Y-95432619D01*
X158107142Y-95527857D01*
X158107142Y-95670714D01*
X158059523Y-95765952D01*
X158011904Y-95813571D01*
X157916666Y-95861190D01*
X157535714Y-95861190D01*
X159059523Y-96337380D02*
X158488095Y-96337380D01*
X158773809Y-96337380D02*
X158773809Y-95337380D01*
X158678571Y-95480238D01*
X158583333Y-95575476D01*
X158488095Y-95623095D01*
X159440476Y-95432619D02*
X159488095Y-95385000D01*
X159583333Y-95337380D01*
X159821428Y-95337380D01*
X159916666Y-95385000D01*
X159964285Y-95432619D01*
X160011904Y-95527857D01*
X160011904Y-95623095D01*
X159964285Y-95765952D01*
X159392857Y-96337380D01*
X160011904Y-96337380D01*
G04 #@! TO.C,R13*
X165482142Y-94432380D02*
X165148809Y-93956190D01*
X164910714Y-94432380D02*
X164910714Y-93432380D01*
X165291666Y-93432380D01*
X165386904Y-93480000D01*
X165434523Y-93527619D01*
X165482142Y-93622857D01*
X165482142Y-93765714D01*
X165434523Y-93860952D01*
X165386904Y-93908571D01*
X165291666Y-93956190D01*
X164910714Y-93956190D01*
X166434523Y-94432380D02*
X165863095Y-94432380D01*
X166148809Y-94432380D02*
X166148809Y-93432380D01*
X166053571Y-93575238D01*
X165958333Y-93670476D01*
X165863095Y-93718095D01*
X166767857Y-93432380D02*
X167386904Y-93432380D01*
X167053571Y-93813333D01*
X167196428Y-93813333D01*
X167291666Y-93860952D01*
X167339285Y-93908571D01*
X167386904Y-94003809D01*
X167386904Y-94241904D01*
X167339285Y-94337142D01*
X167291666Y-94384761D01*
X167196428Y-94432380D01*
X166910714Y-94432380D01*
X166815476Y-94384761D01*
X166767857Y-94337142D01*
G04 #@! TO.C,R14*
X157227142Y-88717380D02*
X156893809Y-88241190D01*
X156655714Y-88717380D02*
X156655714Y-87717380D01*
X157036666Y-87717380D01*
X157131904Y-87765000D01*
X157179523Y-87812619D01*
X157227142Y-87907857D01*
X157227142Y-88050714D01*
X157179523Y-88145952D01*
X157131904Y-88193571D01*
X157036666Y-88241190D01*
X156655714Y-88241190D01*
X158179523Y-88717380D02*
X157608095Y-88717380D01*
X157893809Y-88717380D02*
X157893809Y-87717380D01*
X157798571Y-87860238D01*
X157703333Y-87955476D01*
X157608095Y-88003095D01*
X159036666Y-88050714D02*
X159036666Y-88717380D01*
X158798571Y-87669761D02*
X158560476Y-88384047D01*
X159179523Y-88384047D01*
G04 #@! TO.C,R15*
X146042142Y-84907380D02*
X145708809Y-84431190D01*
X145470714Y-84907380D02*
X145470714Y-83907380D01*
X145851666Y-83907380D01*
X145946904Y-83955000D01*
X145994523Y-84002619D01*
X146042142Y-84097857D01*
X146042142Y-84240714D01*
X145994523Y-84335952D01*
X145946904Y-84383571D01*
X145851666Y-84431190D01*
X145470714Y-84431190D01*
X146994523Y-84907380D02*
X146423095Y-84907380D01*
X146708809Y-84907380D02*
X146708809Y-83907380D01*
X146613571Y-84050238D01*
X146518333Y-84145476D01*
X146423095Y-84193095D01*
X147899285Y-83907380D02*
X147423095Y-83907380D01*
X147375476Y-84383571D01*
X147423095Y-84335952D01*
X147518333Y-84288333D01*
X147756428Y-84288333D01*
X147851666Y-84335952D01*
X147899285Y-84383571D01*
X147946904Y-84478809D01*
X147946904Y-84716904D01*
X147899285Y-84812142D01*
X147851666Y-84859761D01*
X147756428Y-84907380D01*
X147518333Y-84907380D01*
X147423095Y-84859761D01*
X147375476Y-84812142D01*
G04 #@! TO.C,R16*
X157862142Y-107767380D02*
X157528809Y-107291190D01*
X157290714Y-107767380D02*
X157290714Y-106767380D01*
X157671666Y-106767380D01*
X157766904Y-106815000D01*
X157814523Y-106862619D01*
X157862142Y-106957857D01*
X157862142Y-107100714D01*
X157814523Y-107195952D01*
X157766904Y-107243571D01*
X157671666Y-107291190D01*
X157290714Y-107291190D01*
X158814523Y-107767380D02*
X158243095Y-107767380D01*
X158528809Y-107767380D02*
X158528809Y-106767380D01*
X158433571Y-106910238D01*
X158338333Y-107005476D01*
X158243095Y-107053095D01*
X159671666Y-106767380D02*
X159481190Y-106767380D01*
X159385952Y-106815000D01*
X159338333Y-106862619D01*
X159243095Y-107005476D01*
X159195476Y-107195952D01*
X159195476Y-107576904D01*
X159243095Y-107672142D01*
X159290714Y-107719761D01*
X159385952Y-107767380D01*
X159576428Y-107767380D01*
X159671666Y-107719761D01*
X159719285Y-107672142D01*
X159766904Y-107576904D01*
X159766904Y-107338809D01*
X159719285Y-107243571D01*
X159671666Y-107195952D01*
X159576428Y-107148333D01*
X159385952Y-107148333D01*
X159290714Y-107195952D01*
X159243095Y-107243571D01*
X159195476Y-107338809D01*
G04 #@! TO.C,RV1*
X130849761Y-81862380D02*
X130516428Y-81386190D01*
X130278333Y-81862380D02*
X130278333Y-80862380D01*
X130659285Y-80862380D01*
X130754523Y-80910000D01*
X130802142Y-80957619D01*
X130849761Y-81052857D01*
X130849761Y-81195714D01*
X130802142Y-81290952D01*
X130754523Y-81338571D01*
X130659285Y-81386190D01*
X130278333Y-81386190D01*
X131135476Y-80862380D02*
X131468809Y-81862380D01*
X131802142Y-80862380D01*
X132659285Y-81862380D02*
X132087857Y-81862380D01*
X132373571Y-81862380D02*
X132373571Y-80862380D01*
X132278333Y-81005238D01*
X132183095Y-81100476D01*
X132087857Y-81148095D01*
G04 #@! TO.C,RV2*
X153074761Y-108907380D02*
X152741428Y-108431190D01*
X152503333Y-108907380D02*
X152503333Y-107907380D01*
X152884285Y-107907380D01*
X152979523Y-107955000D01*
X153027142Y-108002619D01*
X153074761Y-108097857D01*
X153074761Y-108240714D01*
X153027142Y-108335952D01*
X152979523Y-108383571D01*
X152884285Y-108431190D01*
X152503333Y-108431190D01*
X153360476Y-107907380D02*
X153693809Y-108907380D01*
X154027142Y-107907380D01*
X154312857Y-108002619D02*
X154360476Y-107955000D01*
X154455714Y-107907380D01*
X154693809Y-107907380D01*
X154789047Y-107955000D01*
X154836666Y-108002619D01*
X154884285Y-108097857D01*
X154884285Y-108193095D01*
X154836666Y-108335952D01*
X154265238Y-108907380D01*
X154884285Y-108907380D01*
G04 #@! TO.C,SW1*
X114236666Y-78509761D02*
X114379523Y-78557380D01*
X114617619Y-78557380D01*
X114712857Y-78509761D01*
X114760476Y-78462142D01*
X114808095Y-78366904D01*
X114808095Y-78271666D01*
X114760476Y-78176428D01*
X114712857Y-78128809D01*
X114617619Y-78081190D01*
X114427142Y-78033571D01*
X114331904Y-77985952D01*
X114284285Y-77938333D01*
X114236666Y-77843095D01*
X114236666Y-77747857D01*
X114284285Y-77652619D01*
X114331904Y-77605000D01*
X114427142Y-77557380D01*
X114665238Y-77557380D01*
X114808095Y-77605000D01*
X115141428Y-77557380D02*
X115379523Y-78557380D01*
X115570000Y-77843095D01*
X115760476Y-78557380D01*
X115998571Y-77557380D01*
X116903333Y-78557380D02*
X116331904Y-78557380D01*
X116617619Y-78557380D02*
X116617619Y-77557380D01*
X116522380Y-77700238D01*
X116427142Y-77795476D01*
X116331904Y-77843095D01*
G04 #@! TO.C,U2*
X152908095Y-95337380D02*
X152908095Y-96146904D01*
X152955714Y-96242142D01*
X153003333Y-96289761D01*
X153098571Y-96337380D01*
X153289047Y-96337380D01*
X153384285Y-96289761D01*
X153431904Y-96242142D01*
X153479523Y-96146904D01*
X153479523Y-95337380D01*
X153908095Y-95432619D02*
X153955714Y-95385000D01*
X154050952Y-95337380D01*
X154289047Y-95337380D01*
X154384285Y-95385000D01*
X154431904Y-95432619D01*
X154479523Y-95527857D01*
X154479523Y-95623095D01*
X154431904Y-95765952D01*
X153860476Y-96337380D01*
X154479523Y-96337380D01*
G04 #@! TO.C,U3*
X181483095Y-76287380D02*
X181483095Y-77096904D01*
X181530714Y-77192142D01*
X181578333Y-77239761D01*
X181673571Y-77287380D01*
X181864047Y-77287380D01*
X181959285Y-77239761D01*
X182006904Y-77192142D01*
X182054523Y-77096904D01*
X182054523Y-76287380D01*
X182435476Y-76287380D02*
X183054523Y-76287380D01*
X182721190Y-76668333D01*
X182864047Y-76668333D01*
X182959285Y-76715952D01*
X183006904Y-76763571D01*
X183054523Y-76858809D01*
X183054523Y-77096904D01*
X183006904Y-77192142D01*
X182959285Y-77239761D01*
X182864047Y-77287380D01*
X182578333Y-77287380D01*
X182483095Y-77239761D01*
X182435476Y-77192142D01*
G04 #@! TO.C,C3*
X127468333Y-103862142D02*
X127420714Y-103909761D01*
X127277857Y-103957380D01*
X127182619Y-103957380D01*
X127039761Y-103909761D01*
X126944523Y-103814523D01*
X126896904Y-103719285D01*
X126849285Y-103528809D01*
X126849285Y-103385952D01*
X126896904Y-103195476D01*
X126944523Y-103100238D01*
X127039761Y-103005000D01*
X127182619Y-102957380D01*
X127277857Y-102957380D01*
X127420714Y-103005000D01*
X127468333Y-103052619D01*
X127801666Y-102957380D02*
X128420714Y-102957380D01*
X128087380Y-103338333D01*
X128230238Y-103338333D01*
X128325476Y-103385952D01*
X128373095Y-103433571D01*
X128420714Y-103528809D01*
X128420714Y-103766904D01*
X128373095Y-103862142D01*
X128325476Y-103909761D01*
X128230238Y-103957380D01*
X127944523Y-103957380D01*
X127849285Y-103909761D01*
X127801666Y-103862142D01*
G04 #@! TO.C,C5*
X135088333Y-94337142D02*
X135040714Y-94384761D01*
X134897857Y-94432380D01*
X134802619Y-94432380D01*
X134659761Y-94384761D01*
X134564523Y-94289523D01*
X134516904Y-94194285D01*
X134469285Y-94003809D01*
X134469285Y-93860952D01*
X134516904Y-93670476D01*
X134564523Y-93575238D01*
X134659761Y-93480000D01*
X134802619Y-93432380D01*
X134897857Y-93432380D01*
X135040714Y-93480000D01*
X135088333Y-93527619D01*
X135993095Y-93432380D02*
X135516904Y-93432380D01*
X135469285Y-93908571D01*
X135516904Y-93860952D01*
X135612142Y-93813333D01*
X135850238Y-93813333D01*
X135945476Y-93860952D01*
X135993095Y-93908571D01*
X136040714Y-94003809D01*
X136040714Y-94241904D01*
X135993095Y-94337142D01*
X135945476Y-94384761D01*
X135850238Y-94432380D01*
X135612142Y-94432380D01*
X135516904Y-94384761D01*
X135469285Y-94337142D01*
G04 #@! TO.C,C10*
X162552142Y-102592142D02*
X162504523Y-102639761D01*
X162361666Y-102687380D01*
X162266428Y-102687380D01*
X162123571Y-102639761D01*
X162028333Y-102544523D01*
X161980714Y-102449285D01*
X161933095Y-102258809D01*
X161933095Y-102115952D01*
X161980714Y-101925476D01*
X162028333Y-101830238D01*
X162123571Y-101735000D01*
X162266428Y-101687380D01*
X162361666Y-101687380D01*
X162504523Y-101735000D01*
X162552142Y-101782619D01*
X163504523Y-102687380D02*
X162933095Y-102687380D01*
X163218809Y-102687380D02*
X163218809Y-101687380D01*
X163123571Y-101830238D01*
X163028333Y-101925476D01*
X162933095Y-101973095D01*
X164123571Y-101687380D02*
X164218809Y-101687380D01*
X164314047Y-101735000D01*
X164361666Y-101782619D01*
X164409285Y-101877857D01*
X164456904Y-102068333D01*
X164456904Y-102306428D01*
X164409285Y-102496904D01*
X164361666Y-102592142D01*
X164314047Y-102639761D01*
X164218809Y-102687380D01*
X164123571Y-102687380D01*
X164028333Y-102639761D01*
X163980714Y-102592142D01*
X163933095Y-102496904D01*
X163885476Y-102306428D01*
X163885476Y-102068333D01*
X163933095Y-101877857D01*
X163980714Y-101782619D01*
X164028333Y-101735000D01*
X164123571Y-101687380D01*
G04 #@! TO.C,C11*
X144137142Y-87987142D02*
X144089523Y-88034761D01*
X143946666Y-88082380D01*
X143851428Y-88082380D01*
X143708571Y-88034761D01*
X143613333Y-87939523D01*
X143565714Y-87844285D01*
X143518095Y-87653809D01*
X143518095Y-87510952D01*
X143565714Y-87320476D01*
X143613333Y-87225238D01*
X143708571Y-87130000D01*
X143851428Y-87082380D01*
X143946666Y-87082380D01*
X144089523Y-87130000D01*
X144137142Y-87177619D01*
X145089523Y-88082380D02*
X144518095Y-88082380D01*
X144803809Y-88082380D02*
X144803809Y-87082380D01*
X144708571Y-87225238D01*
X144613333Y-87320476D01*
X144518095Y-87368095D01*
X146041904Y-88082380D02*
X145470476Y-88082380D01*
X145756190Y-88082380D02*
X145756190Y-87082380D01*
X145660952Y-87225238D01*
X145565714Y-87320476D01*
X145470476Y-87368095D01*
G04 #@! TO.C,TP1*
X134628095Y-97877380D02*
X135199523Y-97877380D01*
X134913809Y-98877380D02*
X134913809Y-97877380D01*
X135532857Y-98877380D02*
X135532857Y-97877380D01*
X135913809Y-97877380D01*
X136009047Y-97925000D01*
X136056666Y-97972619D01*
X136104285Y-98067857D01*
X136104285Y-98210714D01*
X136056666Y-98305952D01*
X136009047Y-98353571D01*
X135913809Y-98401190D01*
X135532857Y-98401190D01*
X137056666Y-98877380D02*
X136485238Y-98877380D01*
X136770952Y-98877380D02*
X136770952Y-97877380D01*
X136675714Y-98020238D01*
X136580476Y-98115476D01*
X136485238Y-98163095D01*
G04 #@! TO.C,TP2*
X141994095Y-103592380D02*
X142565523Y-103592380D01*
X142279809Y-104592380D02*
X142279809Y-103592380D01*
X142898857Y-104592380D02*
X142898857Y-103592380D01*
X143279809Y-103592380D01*
X143375047Y-103640000D01*
X143422666Y-103687619D01*
X143470285Y-103782857D01*
X143470285Y-103925714D01*
X143422666Y-104020952D01*
X143375047Y-104068571D01*
X143279809Y-104116190D01*
X142898857Y-104116190D01*
X143851238Y-103687619D02*
X143898857Y-103640000D01*
X143994095Y-103592380D01*
X144232190Y-103592380D01*
X144327428Y-103640000D01*
X144375047Y-103687619D01*
X144422666Y-103782857D01*
X144422666Y-103878095D01*
X144375047Y-104020952D01*
X143803619Y-104592380D01*
X144422666Y-104592380D01*
G04 #@! TO.C,J1*
X102322380Y-92408333D02*
X103036666Y-92408333D01*
X103179523Y-92455952D01*
X103274761Y-92551190D01*
X103322380Y-92694047D01*
X103322380Y-92789285D01*
X103322380Y-91408333D02*
X103322380Y-91979761D01*
X103322380Y-91694047D02*
X102322380Y-91694047D01*
X102465238Y-91789285D01*
X102560476Y-91884523D01*
X102608095Y-91979761D01*
G04 #@! TO.C,J2*
X201382380Y-93043333D02*
X202096666Y-93043333D01*
X202239523Y-93090952D01*
X202334761Y-93186190D01*
X202382380Y-93329047D01*
X202382380Y-93424285D01*
X201477619Y-92614761D02*
X201430000Y-92567142D01*
X201382380Y-92471904D01*
X201382380Y-92233809D01*
X201430000Y-92138571D01*
X201477619Y-92090952D01*
X201572857Y-92043333D01*
X201668095Y-92043333D01*
X201810952Y-92090952D01*
X202382380Y-92662380D01*
X202382380Y-92043333D01*
G04 #@! TD*
M02*
