G04 #@! TF.GenerationSoftware,KiCad,Pcbnew,(5.0.1)-4*
G04 #@! TF.CreationDate,2019-01-25T14:15:16+03:00*
G04 #@! TF.ProjectId,Lab Ampl,4C616220416D706C2E6B696361645F70,rev?*
G04 #@! TF.SameCoordinates,Original*
G04 #@! TF.FileFunction,Copper,L2,Bot,Signal*
G04 #@! TF.FilePolarity,Positive*
%FSLAX46Y46*%
G04 Gerber Fmt 4.6, Leading zero omitted, Abs format (unit mm)*
G04 Created by KiCad (PCBNEW (5.0.1)-4) date 25/01/2019 14:15:16*
%MOMM*%
%LPD*%
G01*
G04 APERTURE LIST*
G04 #@! TA.AperFunction,ComponentPad*
%ADD10C,6.400000*%
G04 #@! TD*
G04 #@! TA.AperFunction,Conductor*
%ADD11C,0.100000*%
G04 #@! TD*
G04 #@! TA.AperFunction,ComponentPad*
%ADD12C,1.700000*%
G04 #@! TD*
G04 #@! TA.AperFunction,ComponentPad*
%ADD13O,1.700000X2.000000*%
G04 #@! TD*
G04 #@! TA.AperFunction,ComponentPad*
%ADD14C,3.000000*%
G04 #@! TD*
G04 #@! TA.AperFunction,ComponentPad*
%ADD15C,2.000000*%
G04 #@! TD*
G04 #@! TA.AperFunction,ViaPad*
%ADD16C,0.800000*%
G04 #@! TD*
G04 #@! TA.AperFunction,Conductor*
%ADD17C,0.500000*%
G04 #@! TD*
G04 #@! TA.AperFunction,Conductor*
%ADD18C,0.750000*%
G04 #@! TD*
G04 #@! TA.AperFunction,Conductor*
%ADD19C,0.254000*%
G04 #@! TD*
G04 APERTURE END LIST*
D10*
G04 #@! TO.P,REF\002A\002A,1*
G04 #@! TO.N,GND*
X199390000Y-110490000D03*
G04 #@! TD*
G04 #@! TO.P,REF\002A\002A,1*
G04 #@! TO.N,GND*
X199390000Y-67310000D03*
G04 #@! TD*
G04 #@! TO.P,REF\002A\002A,1*
G04 #@! TO.N,GND*
X105410000Y-110490000D03*
G04 #@! TD*
D11*
G04 #@! TO.N,+5V*
G04 #@! TO.C,J3*
G36*
X178424504Y-70756204D02*
X178448773Y-70759804D01*
X178472571Y-70765765D01*
X178495671Y-70774030D01*
X178517849Y-70784520D01*
X178538893Y-70797133D01*
X178558598Y-70811747D01*
X178576777Y-70828223D01*
X178593253Y-70846402D01*
X178607867Y-70866107D01*
X178620480Y-70887151D01*
X178630970Y-70909329D01*
X178639235Y-70932429D01*
X178645196Y-70956227D01*
X178648796Y-70980496D01*
X178650000Y-71005000D01*
X178650000Y-72505000D01*
X178648796Y-72529504D01*
X178645196Y-72553773D01*
X178639235Y-72577571D01*
X178630970Y-72600671D01*
X178620480Y-72622849D01*
X178607867Y-72643893D01*
X178593253Y-72663598D01*
X178576777Y-72681777D01*
X178558598Y-72698253D01*
X178538893Y-72712867D01*
X178517849Y-72725480D01*
X178495671Y-72735970D01*
X178472571Y-72744235D01*
X178448773Y-72750196D01*
X178424504Y-72753796D01*
X178400000Y-72755000D01*
X177200000Y-72755000D01*
X177175496Y-72753796D01*
X177151227Y-72750196D01*
X177127429Y-72744235D01*
X177104329Y-72735970D01*
X177082151Y-72725480D01*
X177061107Y-72712867D01*
X177041402Y-72698253D01*
X177023223Y-72681777D01*
X177006747Y-72663598D01*
X176992133Y-72643893D01*
X176979520Y-72622849D01*
X176969030Y-72600671D01*
X176960765Y-72577571D01*
X176954804Y-72553773D01*
X176951204Y-72529504D01*
X176950000Y-72505000D01*
X176950000Y-71005000D01*
X176951204Y-70980496D01*
X176954804Y-70956227D01*
X176960765Y-70932429D01*
X176969030Y-70909329D01*
X176979520Y-70887151D01*
X176992133Y-70866107D01*
X177006747Y-70846402D01*
X177023223Y-70828223D01*
X177041402Y-70811747D01*
X177061107Y-70797133D01*
X177082151Y-70784520D01*
X177104329Y-70774030D01*
X177127429Y-70765765D01*
X177151227Y-70759804D01*
X177175496Y-70756204D01*
X177200000Y-70755000D01*
X178400000Y-70755000D01*
X178424504Y-70756204D01*
X178424504Y-70756204D01*
G37*
D12*
G04 #@! TD*
G04 #@! TO.P,J3,1*
G04 #@! TO.N,+5V*
X177800000Y-71755000D03*
D13*
G04 #@! TO.P,J3,2*
G04 #@! TO.N,GND*
X180300000Y-71755000D03*
G04 #@! TD*
D10*
G04 #@! TO.P,REF\002A\002A,1*
G04 #@! TO.N,GND*
X105410000Y-67310000D03*
G04 #@! TD*
D14*
G04 #@! TO.P,J1,2*
G04 #@! TO.N,GND*
X106680000Y-97155000D03*
X106680000Y-86995000D03*
D15*
G04 #@! TO.P,J1,1*
G04 #@! TO.N,Net-(C1-Pad2)*
X111760000Y-92075000D03*
G04 #@! TO.P,J1,2*
G04 #@! TO.N,GND*
X111760000Y-94615000D03*
G04 #@! TD*
G04 #@! TO.P,J2,2*
G04 #@! TO.N,GND*
X193040000Y-90170000D03*
G04 #@! TO.P,J2,1*
G04 #@! TO.N,Net-(J2-Pad1)*
X193040000Y-92710000D03*
D14*
G04 #@! TO.P,J2,2*
G04 #@! TO.N,GND*
X198120000Y-97790000D03*
X198120000Y-87630000D03*
G04 #@! TD*
D16*
G04 #@! TO.N,GND*
X144780000Y-87630000D03*
G04 #@! TO.N,Net-(C14-Pad1)*
X186690000Y-77470000D03*
X180975000Y-77470000D03*
G04 #@! TO.N,Vcc*
X118110000Y-85725000D03*
X132715000Y-71120000D03*
X150495000Y-107950000D03*
X150405215Y-76110215D03*
G04 #@! TO.N,Vee*
X118110000Y-107950000D03*
X164465000Y-79375000D03*
X133350000Y-99695000D03*
X156210000Y-107950000D03*
X161290000Y-105410000D03*
G04 #@! TD*
D17*
G04 #@! TO.N,Net-(C14-Pad1)*
X186690000Y-77470000D02*
X180975000Y-77470000D01*
D18*
G04 #@! TO.N,Vcc*
X118110000Y-85725000D02*
X132715000Y-71120000D01*
X150495000Y-107950000D02*
X147320000Y-104775000D01*
X147320000Y-104775000D02*
X147320000Y-79195430D01*
X147320000Y-79195430D02*
X150405215Y-76110215D01*
G04 #@! TO.N,Vee*
X118110000Y-107950000D02*
X120650000Y-105410000D01*
X120650000Y-105410000D02*
X120650000Y-85725000D01*
X120650000Y-85725000D02*
X133350000Y-73025000D01*
X133350000Y-73025000D02*
X158115000Y-73025000D01*
X158115000Y-73025000D02*
X164465000Y-79375000D01*
X133350000Y-99695000D02*
X129540000Y-95885000D01*
X129540000Y-95885000D02*
X122555000Y-95885000D01*
X122555000Y-95885000D02*
X122555000Y-86360000D01*
X122555000Y-86360000D02*
X133985000Y-74930000D01*
X133985000Y-74930000D02*
X158115000Y-74930000D01*
X162560000Y-79375000D02*
X164465000Y-79375000D01*
X158115000Y-74930000D02*
X162560000Y-79375000D01*
X156210000Y-107950000D02*
X150495000Y-102235000D01*
X150495000Y-102235000D02*
X150495000Y-77470000D01*
X150495000Y-77470000D02*
X151130000Y-76835000D01*
X151130000Y-76835000D02*
X156845000Y-76835000D01*
X156845000Y-76835000D02*
X160655000Y-80645000D01*
X163195000Y-80645000D02*
X164465000Y-79375000D01*
X160655000Y-80645000D02*
X163195000Y-80645000D01*
X164465000Y-81915000D02*
X164465000Y-79375000D01*
X163830000Y-82550000D02*
X164465000Y-81915000D01*
X160655000Y-82550000D02*
X163830000Y-82550000D01*
X156845000Y-78740000D02*
X160655000Y-82550000D01*
X161290000Y-105410000D02*
X161290000Y-103505000D01*
X161290000Y-103505000D02*
X160020000Y-102235000D01*
X160020000Y-102235000D02*
X154305000Y-102235000D01*
X154305000Y-102235000D02*
X153035000Y-100965000D01*
X153035000Y-100965000D02*
X153035000Y-78740000D01*
X153035000Y-78740000D02*
X156845000Y-78740000D01*
G04 #@! TD*
D19*
G04 #@! TO.N,GND*
G36*
X102848695Y-64569090D02*
X105410000Y-67130395D01*
X107971305Y-64569090D01*
X107705343Y-64210000D01*
X197094657Y-64210000D01*
X196828695Y-64569090D01*
X199390000Y-67130395D01*
X201951305Y-64569090D01*
X201685343Y-64210000D01*
X202490001Y-64210000D01*
X202490001Y-65014658D01*
X202130910Y-64748695D01*
X199569605Y-67310000D01*
X202130910Y-69871305D01*
X202490001Y-69605342D01*
X202490000Y-108194657D01*
X202130910Y-107928695D01*
X199569605Y-110490000D01*
X202130910Y-113051305D01*
X202490000Y-112785343D01*
X202490000Y-113590000D01*
X201685343Y-113590000D01*
X201951305Y-113230910D01*
X199390000Y-110669605D01*
X196828695Y-113230910D01*
X197094657Y-113590000D01*
X107705343Y-113590000D01*
X107971305Y-113230910D01*
X105410000Y-110669605D01*
X102848695Y-113230910D01*
X103114657Y-113590000D01*
X102310000Y-113590000D01*
X102310000Y-112785343D01*
X102669090Y-113051305D01*
X105230395Y-110490000D01*
X105589605Y-110490000D01*
X108150910Y-113051305D01*
X108646343Y-112684360D01*
X109239736Y-111278829D01*
X109240089Y-111226793D01*
X195549913Y-111226793D01*
X196124181Y-112640246D01*
X196153657Y-112684360D01*
X196649090Y-113051305D01*
X199210395Y-110490000D01*
X196649090Y-107928695D01*
X196153657Y-108295640D01*
X195560264Y-109701171D01*
X195549913Y-111226793D01*
X109240089Y-111226793D01*
X109250087Y-109753207D01*
X108675819Y-108339754D01*
X108646343Y-108295640D01*
X108150910Y-107928695D01*
X105589605Y-110490000D01*
X105230395Y-110490000D01*
X102669090Y-107928695D01*
X102310000Y-108194657D01*
X102310000Y-107749090D01*
X102848695Y-107749090D01*
X105410000Y-110310395D01*
X107971305Y-107749090D01*
X107604360Y-107253657D01*
X106198829Y-106660264D01*
X104673207Y-106649913D01*
X103259754Y-107224181D01*
X103215640Y-107253657D01*
X102848695Y-107749090D01*
X102310000Y-107749090D01*
X102310000Y-98668970D01*
X105345635Y-98668970D01*
X105505418Y-98987739D01*
X106296187Y-99297723D01*
X107145387Y-99281497D01*
X107854582Y-98987739D01*
X108014365Y-98668970D01*
X106680000Y-97334605D01*
X105345635Y-98668970D01*
X102310000Y-98668970D01*
X102310000Y-96771187D01*
X104537277Y-96771187D01*
X104553503Y-97620387D01*
X104847261Y-98329582D01*
X105166030Y-98489365D01*
X106500395Y-97155000D01*
X106859605Y-97155000D01*
X108193970Y-98489365D01*
X108512739Y-98329582D01*
X108822723Y-97538813D01*
X108806497Y-96689613D01*
X108512739Y-95980418D01*
X108193970Y-95820635D01*
X106859605Y-97155000D01*
X106500395Y-97155000D01*
X105166030Y-95820635D01*
X104847261Y-95980418D01*
X104537277Y-96771187D01*
X102310000Y-96771187D01*
X102310000Y-95641030D01*
X105345635Y-95641030D01*
X106680000Y-96975395D01*
X107887863Y-95767532D01*
X110787073Y-95767532D01*
X110885736Y-96034387D01*
X111495461Y-96260908D01*
X112145460Y-96236856D01*
X112634264Y-96034387D01*
X112732927Y-95767532D01*
X111760000Y-94794605D01*
X110787073Y-95767532D01*
X107887863Y-95767532D01*
X108014365Y-95641030D01*
X107854582Y-95322261D01*
X107063813Y-95012277D01*
X106214613Y-95028503D01*
X105505418Y-95322261D01*
X105345635Y-95641030D01*
X102310000Y-95641030D01*
X102310000Y-94350461D01*
X110114092Y-94350461D01*
X110138144Y-95000460D01*
X110340613Y-95489264D01*
X110607468Y-95587927D01*
X111580395Y-94615000D01*
X111939605Y-94615000D01*
X112912532Y-95587927D01*
X113179387Y-95489264D01*
X113405908Y-94879539D01*
X113381856Y-94229540D01*
X113179387Y-93740736D01*
X112912532Y-93642073D01*
X111939605Y-94615000D01*
X111580395Y-94615000D01*
X110607468Y-93642073D01*
X110340613Y-93740736D01*
X110114092Y-94350461D01*
X102310000Y-94350461D01*
X102310000Y-91749778D01*
X110125000Y-91749778D01*
X110125000Y-92400222D01*
X110373914Y-93001153D01*
X110800072Y-93427311D01*
X110787073Y-93462468D01*
X111760000Y-94435395D01*
X112732927Y-93462468D01*
X112719928Y-93427311D01*
X113146086Y-93001153D01*
X113395000Y-92400222D01*
X113395000Y-91749778D01*
X113146086Y-91148847D01*
X112686153Y-90688914D01*
X112085222Y-90440000D01*
X111434778Y-90440000D01*
X110833847Y-90688914D01*
X110373914Y-91148847D01*
X110125000Y-91749778D01*
X102310000Y-91749778D01*
X102310000Y-88508970D01*
X105345635Y-88508970D01*
X105505418Y-88827739D01*
X106296187Y-89137723D01*
X107145387Y-89121497D01*
X107854582Y-88827739D01*
X108014365Y-88508970D01*
X106680000Y-87174605D01*
X105345635Y-88508970D01*
X102310000Y-88508970D01*
X102310000Y-86611187D01*
X104537277Y-86611187D01*
X104553503Y-87460387D01*
X104847261Y-88169582D01*
X105166030Y-88329365D01*
X106500395Y-86995000D01*
X106859605Y-86995000D01*
X108193970Y-88329365D01*
X108512739Y-88169582D01*
X108822723Y-87378813D01*
X108806497Y-86529613D01*
X108512739Y-85820418D01*
X108193970Y-85660635D01*
X106859605Y-86995000D01*
X106500395Y-86995000D01*
X105166030Y-85660635D01*
X104847261Y-85820418D01*
X104537277Y-86611187D01*
X102310000Y-86611187D01*
X102310000Y-85481030D01*
X105345635Y-85481030D01*
X106680000Y-86815395D01*
X107976269Y-85519126D01*
X117075000Y-85519126D01*
X117075000Y-85930874D01*
X117232569Y-86311280D01*
X117523720Y-86602431D01*
X117904126Y-86760000D01*
X118315874Y-86760000D01*
X118696280Y-86602431D01*
X118987431Y-86311280D01*
X119012431Y-86250924D01*
X119640540Y-85622815D01*
X119620214Y-85725000D01*
X119640001Y-85824476D01*
X119640000Y-104991644D01*
X117584076Y-107047569D01*
X117523720Y-107072569D01*
X117232569Y-107363720D01*
X117075000Y-107744126D01*
X117075000Y-108155874D01*
X117232569Y-108536280D01*
X117523720Y-108827431D01*
X117904126Y-108985000D01*
X118315874Y-108985000D01*
X118696280Y-108827431D01*
X118987431Y-108536280D01*
X119012431Y-108475924D01*
X121293841Y-106194515D01*
X121378169Y-106138169D01*
X121472977Y-105996280D01*
X121601398Y-105804083D01*
X121601399Y-105804082D01*
X121660000Y-105509476D01*
X121660000Y-105509472D01*
X121679786Y-105410001D01*
X121660000Y-105310530D01*
X121660000Y-96363489D01*
X121721570Y-96455635D01*
X121826831Y-96613169D01*
X122160918Y-96836399D01*
X122555000Y-96914787D01*
X122654475Y-96895000D01*
X129121645Y-96895000D01*
X132447569Y-100220925D01*
X132472569Y-100281280D01*
X132763720Y-100572431D01*
X133144126Y-100730000D01*
X133555874Y-100730000D01*
X133936280Y-100572431D01*
X134227431Y-100281280D01*
X134385000Y-99900874D01*
X134385000Y-99489126D01*
X134227431Y-99108720D01*
X133936280Y-98817569D01*
X133875925Y-98792569D01*
X130324518Y-95241163D01*
X130268169Y-95156831D01*
X129934082Y-94933601D01*
X129639476Y-94875000D01*
X129639471Y-94875000D01*
X129540000Y-94855214D01*
X129440529Y-94875000D01*
X123565000Y-94875000D01*
X123565000Y-86778355D01*
X134403355Y-75940000D01*
X149147074Y-75940000D01*
X146676161Y-78410914D01*
X146591832Y-78467261D01*
X146535485Y-78551590D01*
X146535482Y-78551593D01*
X146368602Y-78801348D01*
X146290214Y-79195430D01*
X146310001Y-79294906D01*
X146310000Y-104675529D01*
X146290214Y-104775000D01*
X146310000Y-104874471D01*
X146310000Y-104874475D01*
X146368601Y-105169081D01*
X146591831Y-105503169D01*
X146676163Y-105559518D01*
X149592569Y-108475924D01*
X149617569Y-108536280D01*
X149908720Y-108827431D01*
X150289126Y-108985000D01*
X150700874Y-108985000D01*
X151081280Y-108827431D01*
X151372431Y-108536280D01*
X151530000Y-108155874D01*
X151530000Y-107744126D01*
X151372431Y-107363720D01*
X151081280Y-107072569D01*
X151020924Y-107047569D01*
X148330000Y-104356645D01*
X148330000Y-79613785D01*
X149485001Y-78458785D01*
X149485000Y-102135529D01*
X149465214Y-102235000D01*
X149485000Y-102334471D01*
X149485000Y-102334475D01*
X149543601Y-102629081D01*
X149766831Y-102963169D01*
X149851162Y-103019517D01*
X155307569Y-108475925D01*
X155332569Y-108536280D01*
X155623720Y-108827431D01*
X156004126Y-108985000D01*
X156415874Y-108985000D01*
X156796280Y-108827431D01*
X157087431Y-108536280D01*
X157245000Y-108155874D01*
X157245000Y-107749090D01*
X196828695Y-107749090D01*
X199390000Y-110310395D01*
X201951305Y-107749090D01*
X201584360Y-107253657D01*
X200178829Y-106660264D01*
X198653207Y-106649913D01*
X197239754Y-107224181D01*
X197195640Y-107253657D01*
X196828695Y-107749090D01*
X157245000Y-107749090D01*
X157245000Y-107744126D01*
X157087431Y-107363720D01*
X156796280Y-107072569D01*
X156735925Y-107047569D01*
X151505000Y-101816645D01*
X151505000Y-77888355D01*
X151548355Y-77845000D01*
X152556511Y-77845000D01*
X152306831Y-78011831D01*
X152083601Y-78345918D01*
X152005213Y-78740000D01*
X152025001Y-78839481D01*
X152025000Y-100865529D01*
X152005214Y-100965000D01*
X152025000Y-101064471D01*
X152025000Y-101064475D01*
X152083601Y-101359081D01*
X152306831Y-101693169D01*
X152391163Y-101749518D01*
X153520482Y-102878837D01*
X153576831Y-102963169D01*
X153910918Y-103186399D01*
X154205524Y-103245000D01*
X154205528Y-103245000D01*
X154304999Y-103264786D01*
X154404470Y-103245000D01*
X159601645Y-103245000D01*
X160280001Y-103923356D01*
X160280000Y-105143770D01*
X160255000Y-105204126D01*
X160255000Y-105615874D01*
X160412569Y-105996280D01*
X160703720Y-106287431D01*
X161084126Y-106445000D01*
X161495874Y-106445000D01*
X161876280Y-106287431D01*
X162167431Y-105996280D01*
X162325000Y-105615874D01*
X162325000Y-105204126D01*
X162300000Y-105143771D01*
X162300000Y-103604470D01*
X162319786Y-103504999D01*
X162300000Y-103405528D01*
X162300000Y-103405524D01*
X162241399Y-103110918D01*
X162018169Y-102776831D01*
X161933837Y-102720482D01*
X160804517Y-101591162D01*
X160748169Y-101506831D01*
X160414082Y-101283601D01*
X160119476Y-101225000D01*
X160119471Y-101225000D01*
X160020000Y-101205214D01*
X159920529Y-101225000D01*
X154723355Y-101225000D01*
X154045000Y-100546645D01*
X154045000Y-99303970D01*
X196785635Y-99303970D01*
X196945418Y-99622739D01*
X197736187Y-99932723D01*
X198585387Y-99916497D01*
X199294582Y-99622739D01*
X199454365Y-99303970D01*
X198120000Y-97969605D01*
X196785635Y-99303970D01*
X154045000Y-99303970D01*
X154045000Y-97406187D01*
X195977277Y-97406187D01*
X195993503Y-98255387D01*
X196287261Y-98964582D01*
X196606030Y-99124365D01*
X197940395Y-97790000D01*
X198299605Y-97790000D01*
X199633970Y-99124365D01*
X199952739Y-98964582D01*
X200262723Y-98173813D01*
X200246497Y-97324613D01*
X199952739Y-96615418D01*
X199633970Y-96455635D01*
X198299605Y-97790000D01*
X197940395Y-97790000D01*
X196606030Y-96455635D01*
X196287261Y-96615418D01*
X195977277Y-97406187D01*
X154045000Y-97406187D01*
X154045000Y-96276030D01*
X196785635Y-96276030D01*
X198120000Y-97610395D01*
X199454365Y-96276030D01*
X199294582Y-95957261D01*
X198503813Y-95647277D01*
X197654613Y-95663503D01*
X196945418Y-95957261D01*
X196785635Y-96276030D01*
X154045000Y-96276030D01*
X154045000Y-92384778D01*
X191405000Y-92384778D01*
X191405000Y-93035222D01*
X191653914Y-93636153D01*
X192113847Y-94096086D01*
X192714778Y-94345000D01*
X193365222Y-94345000D01*
X193966153Y-94096086D01*
X194426086Y-93636153D01*
X194675000Y-93035222D01*
X194675000Y-92384778D01*
X194426086Y-91783847D01*
X193999928Y-91357689D01*
X194012927Y-91322532D01*
X193040000Y-90349605D01*
X192067073Y-91322532D01*
X192080072Y-91357689D01*
X191653914Y-91783847D01*
X191405000Y-92384778D01*
X154045000Y-92384778D01*
X154045000Y-89905461D01*
X191394092Y-89905461D01*
X191418144Y-90555460D01*
X191620613Y-91044264D01*
X191887468Y-91142927D01*
X192860395Y-90170000D01*
X193219605Y-90170000D01*
X194192532Y-91142927D01*
X194459387Y-91044264D01*
X194685908Y-90434539D01*
X194661856Y-89784540D01*
X194459387Y-89295736D01*
X194192532Y-89197073D01*
X193219605Y-90170000D01*
X192860395Y-90170000D01*
X191887468Y-89197073D01*
X191620613Y-89295736D01*
X191394092Y-89905461D01*
X154045000Y-89905461D01*
X154045000Y-89017468D01*
X192067073Y-89017468D01*
X193040000Y-89990395D01*
X193886425Y-89143970D01*
X196785635Y-89143970D01*
X196945418Y-89462739D01*
X197736187Y-89772723D01*
X198585387Y-89756497D01*
X199294582Y-89462739D01*
X199454365Y-89143970D01*
X198120000Y-87809605D01*
X196785635Y-89143970D01*
X193886425Y-89143970D01*
X194012927Y-89017468D01*
X193914264Y-88750613D01*
X193304539Y-88524092D01*
X192654540Y-88548144D01*
X192165736Y-88750613D01*
X192067073Y-89017468D01*
X154045000Y-89017468D01*
X154045000Y-87246187D01*
X195977277Y-87246187D01*
X195993503Y-88095387D01*
X196287261Y-88804582D01*
X196606030Y-88964365D01*
X197940395Y-87630000D01*
X198299605Y-87630000D01*
X199633970Y-88964365D01*
X199952739Y-88804582D01*
X200262723Y-88013813D01*
X200246497Y-87164613D01*
X199952739Y-86455418D01*
X199633970Y-86295635D01*
X198299605Y-87630000D01*
X197940395Y-87630000D01*
X196606030Y-86295635D01*
X196287261Y-86455418D01*
X195977277Y-87246187D01*
X154045000Y-87246187D01*
X154045000Y-86116030D01*
X196785635Y-86116030D01*
X198120000Y-87450395D01*
X199454365Y-86116030D01*
X199294582Y-85797261D01*
X198503813Y-85487277D01*
X197654613Y-85503503D01*
X196945418Y-85797261D01*
X196785635Y-86116030D01*
X154045000Y-86116030D01*
X154045000Y-79750000D01*
X156426645Y-79750000D01*
X159870484Y-83193840D01*
X159926831Y-83278169D01*
X160011160Y-83334516D01*
X160011162Y-83334518D01*
X160186105Y-83451411D01*
X160260918Y-83501399D01*
X160555524Y-83560000D01*
X160555529Y-83560000D01*
X160655000Y-83579786D01*
X160754471Y-83560000D01*
X163730529Y-83560000D01*
X163830000Y-83579786D01*
X163929471Y-83560000D01*
X163929476Y-83560000D01*
X164224082Y-83501399D01*
X164558169Y-83278169D01*
X164614518Y-83193837D01*
X165108838Y-82699517D01*
X165193169Y-82643169D01*
X165255423Y-82550000D01*
X165416399Y-82309083D01*
X165446865Y-82155918D01*
X165475000Y-82014476D01*
X165475000Y-82014472D01*
X165494786Y-81915000D01*
X165475000Y-81815528D01*
X165475000Y-79641229D01*
X165500000Y-79580874D01*
X165500000Y-79169126D01*
X165342431Y-78788720D01*
X165051280Y-78497569D01*
X164990924Y-78472569D01*
X163782481Y-77264126D01*
X179940000Y-77264126D01*
X179940000Y-77675874D01*
X180097569Y-78056280D01*
X180388720Y-78347431D01*
X180769126Y-78505000D01*
X181180874Y-78505000D01*
X181543007Y-78355000D01*
X186121993Y-78355000D01*
X186484126Y-78505000D01*
X186895874Y-78505000D01*
X187276280Y-78347431D01*
X187567431Y-78056280D01*
X187725000Y-77675874D01*
X187725000Y-77264126D01*
X187567431Y-76883720D01*
X187276280Y-76592569D01*
X186895874Y-76435000D01*
X186484126Y-76435000D01*
X186121993Y-76585000D01*
X181543007Y-76585000D01*
X181180874Y-76435000D01*
X180769126Y-76435000D01*
X180388720Y-76592569D01*
X180097569Y-76883720D01*
X179940000Y-77264126D01*
X163782481Y-77264126D01*
X158899518Y-72381163D01*
X158843169Y-72296831D01*
X158509082Y-72073601D01*
X158214476Y-72015000D01*
X158214471Y-72015000D01*
X158115000Y-71995214D01*
X158015529Y-72015000D01*
X133449470Y-72015000D01*
X133349999Y-71995214D01*
X133266566Y-72011810D01*
X133301280Y-71997431D01*
X133592431Y-71706280D01*
X133750000Y-71325874D01*
X133750000Y-71005000D01*
X176302560Y-71005000D01*
X176302560Y-72505000D01*
X176370874Y-72848435D01*
X176565414Y-73139586D01*
X176856565Y-73334126D01*
X177200000Y-73402440D01*
X178400000Y-73402440D01*
X178743435Y-73334126D01*
X179034586Y-73139586D01*
X179211648Y-72874593D01*
X179407955Y-73093664D01*
X179930740Y-73344553D01*
X179943110Y-73346476D01*
X180173000Y-73225155D01*
X180173000Y-71882000D01*
X180427000Y-71882000D01*
X180427000Y-73225155D01*
X180656890Y-73346476D01*
X180669260Y-73344553D01*
X181192045Y-73093664D01*
X181579024Y-72661812D01*
X181771284Y-72114742D01*
X181627231Y-71882000D01*
X180427000Y-71882000D01*
X180173000Y-71882000D01*
X180153000Y-71882000D01*
X180153000Y-71628000D01*
X180173000Y-71628000D01*
X180173000Y-70284845D01*
X180427000Y-70284845D01*
X180427000Y-71628000D01*
X181627231Y-71628000D01*
X181771284Y-71395258D01*
X181579024Y-70848188D01*
X181192045Y-70416336D01*
X180669260Y-70165447D01*
X180656890Y-70163524D01*
X180427000Y-70284845D01*
X180173000Y-70284845D01*
X179943110Y-70163524D01*
X179930740Y-70165447D01*
X179407955Y-70416336D01*
X179211648Y-70635407D01*
X179034586Y-70370414D01*
X178743435Y-70175874D01*
X178400000Y-70107560D01*
X177200000Y-70107560D01*
X176856565Y-70175874D01*
X176565414Y-70370414D01*
X176370874Y-70661565D01*
X176302560Y-71005000D01*
X133750000Y-71005000D01*
X133750000Y-70914126D01*
X133592431Y-70533720D01*
X133301280Y-70242569D01*
X132920874Y-70085000D01*
X132509126Y-70085000D01*
X132128720Y-70242569D01*
X131837569Y-70533720D01*
X131812569Y-70594076D01*
X117584076Y-84822569D01*
X117523720Y-84847569D01*
X117232569Y-85138720D01*
X117075000Y-85519126D01*
X107976269Y-85519126D01*
X108014365Y-85481030D01*
X107854582Y-85162261D01*
X107063813Y-84852277D01*
X106214613Y-84868503D01*
X105505418Y-85162261D01*
X105345635Y-85481030D01*
X102310000Y-85481030D01*
X102310000Y-70050910D01*
X102848695Y-70050910D01*
X103215640Y-70546343D01*
X104621171Y-71139736D01*
X106146793Y-71150087D01*
X107560246Y-70575819D01*
X107604360Y-70546343D01*
X107971305Y-70050910D01*
X196828695Y-70050910D01*
X197195640Y-70546343D01*
X198601171Y-71139736D01*
X200126793Y-71150087D01*
X201540246Y-70575819D01*
X201584360Y-70546343D01*
X201951305Y-70050910D01*
X199390000Y-67489605D01*
X196828695Y-70050910D01*
X107971305Y-70050910D01*
X105410000Y-67489605D01*
X102848695Y-70050910D01*
X102310000Y-70050910D01*
X102310000Y-69605343D01*
X102669090Y-69871305D01*
X105230395Y-67310000D01*
X105589605Y-67310000D01*
X108150910Y-69871305D01*
X108646343Y-69504360D01*
X109239736Y-68098829D01*
X109240089Y-68046793D01*
X195549913Y-68046793D01*
X196124181Y-69460246D01*
X196153657Y-69504360D01*
X196649090Y-69871305D01*
X199210395Y-67310000D01*
X196649090Y-64748695D01*
X196153657Y-65115640D01*
X195560264Y-66521171D01*
X195549913Y-68046793D01*
X109240089Y-68046793D01*
X109250087Y-66573207D01*
X108675819Y-65159754D01*
X108646343Y-65115640D01*
X108150910Y-64748695D01*
X105589605Y-67310000D01*
X105230395Y-67310000D01*
X102669090Y-64748695D01*
X102310000Y-65014657D01*
X102310000Y-64210000D01*
X103114657Y-64210000D01*
X102848695Y-64569090D01*
X102848695Y-64569090D01*
G37*
X102848695Y-64569090D02*
X105410000Y-67130395D01*
X107971305Y-64569090D01*
X107705343Y-64210000D01*
X197094657Y-64210000D01*
X196828695Y-64569090D01*
X199390000Y-67130395D01*
X201951305Y-64569090D01*
X201685343Y-64210000D01*
X202490001Y-64210000D01*
X202490001Y-65014658D01*
X202130910Y-64748695D01*
X199569605Y-67310000D01*
X202130910Y-69871305D01*
X202490001Y-69605342D01*
X202490000Y-108194657D01*
X202130910Y-107928695D01*
X199569605Y-110490000D01*
X202130910Y-113051305D01*
X202490000Y-112785343D01*
X202490000Y-113590000D01*
X201685343Y-113590000D01*
X201951305Y-113230910D01*
X199390000Y-110669605D01*
X196828695Y-113230910D01*
X197094657Y-113590000D01*
X107705343Y-113590000D01*
X107971305Y-113230910D01*
X105410000Y-110669605D01*
X102848695Y-113230910D01*
X103114657Y-113590000D01*
X102310000Y-113590000D01*
X102310000Y-112785343D01*
X102669090Y-113051305D01*
X105230395Y-110490000D01*
X105589605Y-110490000D01*
X108150910Y-113051305D01*
X108646343Y-112684360D01*
X109239736Y-111278829D01*
X109240089Y-111226793D01*
X195549913Y-111226793D01*
X196124181Y-112640246D01*
X196153657Y-112684360D01*
X196649090Y-113051305D01*
X199210395Y-110490000D01*
X196649090Y-107928695D01*
X196153657Y-108295640D01*
X195560264Y-109701171D01*
X195549913Y-111226793D01*
X109240089Y-111226793D01*
X109250087Y-109753207D01*
X108675819Y-108339754D01*
X108646343Y-108295640D01*
X108150910Y-107928695D01*
X105589605Y-110490000D01*
X105230395Y-110490000D01*
X102669090Y-107928695D01*
X102310000Y-108194657D01*
X102310000Y-107749090D01*
X102848695Y-107749090D01*
X105410000Y-110310395D01*
X107971305Y-107749090D01*
X107604360Y-107253657D01*
X106198829Y-106660264D01*
X104673207Y-106649913D01*
X103259754Y-107224181D01*
X103215640Y-107253657D01*
X102848695Y-107749090D01*
X102310000Y-107749090D01*
X102310000Y-98668970D01*
X105345635Y-98668970D01*
X105505418Y-98987739D01*
X106296187Y-99297723D01*
X107145387Y-99281497D01*
X107854582Y-98987739D01*
X108014365Y-98668970D01*
X106680000Y-97334605D01*
X105345635Y-98668970D01*
X102310000Y-98668970D01*
X102310000Y-96771187D01*
X104537277Y-96771187D01*
X104553503Y-97620387D01*
X104847261Y-98329582D01*
X105166030Y-98489365D01*
X106500395Y-97155000D01*
X106859605Y-97155000D01*
X108193970Y-98489365D01*
X108512739Y-98329582D01*
X108822723Y-97538813D01*
X108806497Y-96689613D01*
X108512739Y-95980418D01*
X108193970Y-95820635D01*
X106859605Y-97155000D01*
X106500395Y-97155000D01*
X105166030Y-95820635D01*
X104847261Y-95980418D01*
X104537277Y-96771187D01*
X102310000Y-96771187D01*
X102310000Y-95641030D01*
X105345635Y-95641030D01*
X106680000Y-96975395D01*
X107887863Y-95767532D01*
X110787073Y-95767532D01*
X110885736Y-96034387D01*
X111495461Y-96260908D01*
X112145460Y-96236856D01*
X112634264Y-96034387D01*
X112732927Y-95767532D01*
X111760000Y-94794605D01*
X110787073Y-95767532D01*
X107887863Y-95767532D01*
X108014365Y-95641030D01*
X107854582Y-95322261D01*
X107063813Y-95012277D01*
X106214613Y-95028503D01*
X105505418Y-95322261D01*
X105345635Y-95641030D01*
X102310000Y-95641030D01*
X102310000Y-94350461D01*
X110114092Y-94350461D01*
X110138144Y-95000460D01*
X110340613Y-95489264D01*
X110607468Y-95587927D01*
X111580395Y-94615000D01*
X111939605Y-94615000D01*
X112912532Y-95587927D01*
X113179387Y-95489264D01*
X113405908Y-94879539D01*
X113381856Y-94229540D01*
X113179387Y-93740736D01*
X112912532Y-93642073D01*
X111939605Y-94615000D01*
X111580395Y-94615000D01*
X110607468Y-93642073D01*
X110340613Y-93740736D01*
X110114092Y-94350461D01*
X102310000Y-94350461D01*
X102310000Y-91749778D01*
X110125000Y-91749778D01*
X110125000Y-92400222D01*
X110373914Y-93001153D01*
X110800072Y-93427311D01*
X110787073Y-93462468D01*
X111760000Y-94435395D01*
X112732927Y-93462468D01*
X112719928Y-93427311D01*
X113146086Y-93001153D01*
X113395000Y-92400222D01*
X113395000Y-91749778D01*
X113146086Y-91148847D01*
X112686153Y-90688914D01*
X112085222Y-90440000D01*
X111434778Y-90440000D01*
X110833847Y-90688914D01*
X110373914Y-91148847D01*
X110125000Y-91749778D01*
X102310000Y-91749778D01*
X102310000Y-88508970D01*
X105345635Y-88508970D01*
X105505418Y-88827739D01*
X106296187Y-89137723D01*
X107145387Y-89121497D01*
X107854582Y-88827739D01*
X108014365Y-88508970D01*
X106680000Y-87174605D01*
X105345635Y-88508970D01*
X102310000Y-88508970D01*
X102310000Y-86611187D01*
X104537277Y-86611187D01*
X104553503Y-87460387D01*
X104847261Y-88169582D01*
X105166030Y-88329365D01*
X106500395Y-86995000D01*
X106859605Y-86995000D01*
X108193970Y-88329365D01*
X108512739Y-88169582D01*
X108822723Y-87378813D01*
X108806497Y-86529613D01*
X108512739Y-85820418D01*
X108193970Y-85660635D01*
X106859605Y-86995000D01*
X106500395Y-86995000D01*
X105166030Y-85660635D01*
X104847261Y-85820418D01*
X104537277Y-86611187D01*
X102310000Y-86611187D01*
X102310000Y-85481030D01*
X105345635Y-85481030D01*
X106680000Y-86815395D01*
X107976269Y-85519126D01*
X117075000Y-85519126D01*
X117075000Y-85930874D01*
X117232569Y-86311280D01*
X117523720Y-86602431D01*
X117904126Y-86760000D01*
X118315874Y-86760000D01*
X118696280Y-86602431D01*
X118987431Y-86311280D01*
X119012431Y-86250924D01*
X119640540Y-85622815D01*
X119620214Y-85725000D01*
X119640001Y-85824476D01*
X119640000Y-104991644D01*
X117584076Y-107047569D01*
X117523720Y-107072569D01*
X117232569Y-107363720D01*
X117075000Y-107744126D01*
X117075000Y-108155874D01*
X117232569Y-108536280D01*
X117523720Y-108827431D01*
X117904126Y-108985000D01*
X118315874Y-108985000D01*
X118696280Y-108827431D01*
X118987431Y-108536280D01*
X119012431Y-108475924D01*
X121293841Y-106194515D01*
X121378169Y-106138169D01*
X121472977Y-105996280D01*
X121601398Y-105804083D01*
X121601399Y-105804082D01*
X121660000Y-105509476D01*
X121660000Y-105509472D01*
X121679786Y-105410001D01*
X121660000Y-105310530D01*
X121660000Y-96363489D01*
X121721570Y-96455635D01*
X121826831Y-96613169D01*
X122160918Y-96836399D01*
X122555000Y-96914787D01*
X122654475Y-96895000D01*
X129121645Y-96895000D01*
X132447569Y-100220925D01*
X132472569Y-100281280D01*
X132763720Y-100572431D01*
X133144126Y-100730000D01*
X133555874Y-100730000D01*
X133936280Y-100572431D01*
X134227431Y-100281280D01*
X134385000Y-99900874D01*
X134385000Y-99489126D01*
X134227431Y-99108720D01*
X133936280Y-98817569D01*
X133875925Y-98792569D01*
X130324518Y-95241163D01*
X130268169Y-95156831D01*
X129934082Y-94933601D01*
X129639476Y-94875000D01*
X129639471Y-94875000D01*
X129540000Y-94855214D01*
X129440529Y-94875000D01*
X123565000Y-94875000D01*
X123565000Y-86778355D01*
X134403355Y-75940000D01*
X149147074Y-75940000D01*
X146676161Y-78410914D01*
X146591832Y-78467261D01*
X146535485Y-78551590D01*
X146535482Y-78551593D01*
X146368602Y-78801348D01*
X146290214Y-79195430D01*
X146310001Y-79294906D01*
X146310000Y-104675529D01*
X146290214Y-104775000D01*
X146310000Y-104874471D01*
X146310000Y-104874475D01*
X146368601Y-105169081D01*
X146591831Y-105503169D01*
X146676163Y-105559518D01*
X149592569Y-108475924D01*
X149617569Y-108536280D01*
X149908720Y-108827431D01*
X150289126Y-108985000D01*
X150700874Y-108985000D01*
X151081280Y-108827431D01*
X151372431Y-108536280D01*
X151530000Y-108155874D01*
X151530000Y-107744126D01*
X151372431Y-107363720D01*
X151081280Y-107072569D01*
X151020924Y-107047569D01*
X148330000Y-104356645D01*
X148330000Y-79613785D01*
X149485001Y-78458785D01*
X149485000Y-102135529D01*
X149465214Y-102235000D01*
X149485000Y-102334471D01*
X149485000Y-102334475D01*
X149543601Y-102629081D01*
X149766831Y-102963169D01*
X149851162Y-103019517D01*
X155307569Y-108475925D01*
X155332569Y-108536280D01*
X155623720Y-108827431D01*
X156004126Y-108985000D01*
X156415874Y-108985000D01*
X156796280Y-108827431D01*
X157087431Y-108536280D01*
X157245000Y-108155874D01*
X157245000Y-107749090D01*
X196828695Y-107749090D01*
X199390000Y-110310395D01*
X201951305Y-107749090D01*
X201584360Y-107253657D01*
X200178829Y-106660264D01*
X198653207Y-106649913D01*
X197239754Y-107224181D01*
X197195640Y-107253657D01*
X196828695Y-107749090D01*
X157245000Y-107749090D01*
X157245000Y-107744126D01*
X157087431Y-107363720D01*
X156796280Y-107072569D01*
X156735925Y-107047569D01*
X151505000Y-101816645D01*
X151505000Y-77888355D01*
X151548355Y-77845000D01*
X152556511Y-77845000D01*
X152306831Y-78011831D01*
X152083601Y-78345918D01*
X152005213Y-78740000D01*
X152025001Y-78839481D01*
X152025000Y-100865529D01*
X152005214Y-100965000D01*
X152025000Y-101064471D01*
X152025000Y-101064475D01*
X152083601Y-101359081D01*
X152306831Y-101693169D01*
X152391163Y-101749518D01*
X153520482Y-102878837D01*
X153576831Y-102963169D01*
X153910918Y-103186399D01*
X154205524Y-103245000D01*
X154205528Y-103245000D01*
X154304999Y-103264786D01*
X154404470Y-103245000D01*
X159601645Y-103245000D01*
X160280001Y-103923356D01*
X160280000Y-105143770D01*
X160255000Y-105204126D01*
X160255000Y-105615874D01*
X160412569Y-105996280D01*
X160703720Y-106287431D01*
X161084126Y-106445000D01*
X161495874Y-106445000D01*
X161876280Y-106287431D01*
X162167431Y-105996280D01*
X162325000Y-105615874D01*
X162325000Y-105204126D01*
X162300000Y-105143771D01*
X162300000Y-103604470D01*
X162319786Y-103504999D01*
X162300000Y-103405528D01*
X162300000Y-103405524D01*
X162241399Y-103110918D01*
X162018169Y-102776831D01*
X161933837Y-102720482D01*
X160804517Y-101591162D01*
X160748169Y-101506831D01*
X160414082Y-101283601D01*
X160119476Y-101225000D01*
X160119471Y-101225000D01*
X160020000Y-101205214D01*
X159920529Y-101225000D01*
X154723355Y-101225000D01*
X154045000Y-100546645D01*
X154045000Y-99303970D01*
X196785635Y-99303970D01*
X196945418Y-99622739D01*
X197736187Y-99932723D01*
X198585387Y-99916497D01*
X199294582Y-99622739D01*
X199454365Y-99303970D01*
X198120000Y-97969605D01*
X196785635Y-99303970D01*
X154045000Y-99303970D01*
X154045000Y-97406187D01*
X195977277Y-97406187D01*
X195993503Y-98255387D01*
X196287261Y-98964582D01*
X196606030Y-99124365D01*
X197940395Y-97790000D01*
X198299605Y-97790000D01*
X199633970Y-99124365D01*
X199952739Y-98964582D01*
X200262723Y-98173813D01*
X200246497Y-97324613D01*
X199952739Y-96615418D01*
X199633970Y-96455635D01*
X198299605Y-97790000D01*
X197940395Y-97790000D01*
X196606030Y-96455635D01*
X196287261Y-96615418D01*
X195977277Y-97406187D01*
X154045000Y-97406187D01*
X154045000Y-96276030D01*
X196785635Y-96276030D01*
X198120000Y-97610395D01*
X199454365Y-96276030D01*
X199294582Y-95957261D01*
X198503813Y-95647277D01*
X197654613Y-95663503D01*
X196945418Y-95957261D01*
X196785635Y-96276030D01*
X154045000Y-96276030D01*
X154045000Y-92384778D01*
X191405000Y-92384778D01*
X191405000Y-93035222D01*
X191653914Y-93636153D01*
X192113847Y-94096086D01*
X192714778Y-94345000D01*
X193365222Y-94345000D01*
X193966153Y-94096086D01*
X194426086Y-93636153D01*
X194675000Y-93035222D01*
X194675000Y-92384778D01*
X194426086Y-91783847D01*
X193999928Y-91357689D01*
X194012927Y-91322532D01*
X193040000Y-90349605D01*
X192067073Y-91322532D01*
X192080072Y-91357689D01*
X191653914Y-91783847D01*
X191405000Y-92384778D01*
X154045000Y-92384778D01*
X154045000Y-89905461D01*
X191394092Y-89905461D01*
X191418144Y-90555460D01*
X191620613Y-91044264D01*
X191887468Y-91142927D01*
X192860395Y-90170000D01*
X193219605Y-90170000D01*
X194192532Y-91142927D01*
X194459387Y-91044264D01*
X194685908Y-90434539D01*
X194661856Y-89784540D01*
X194459387Y-89295736D01*
X194192532Y-89197073D01*
X193219605Y-90170000D01*
X192860395Y-90170000D01*
X191887468Y-89197073D01*
X191620613Y-89295736D01*
X191394092Y-89905461D01*
X154045000Y-89905461D01*
X154045000Y-89017468D01*
X192067073Y-89017468D01*
X193040000Y-89990395D01*
X193886425Y-89143970D01*
X196785635Y-89143970D01*
X196945418Y-89462739D01*
X197736187Y-89772723D01*
X198585387Y-89756497D01*
X199294582Y-89462739D01*
X199454365Y-89143970D01*
X198120000Y-87809605D01*
X196785635Y-89143970D01*
X193886425Y-89143970D01*
X194012927Y-89017468D01*
X193914264Y-88750613D01*
X193304539Y-88524092D01*
X192654540Y-88548144D01*
X192165736Y-88750613D01*
X192067073Y-89017468D01*
X154045000Y-89017468D01*
X154045000Y-87246187D01*
X195977277Y-87246187D01*
X195993503Y-88095387D01*
X196287261Y-88804582D01*
X196606030Y-88964365D01*
X197940395Y-87630000D01*
X198299605Y-87630000D01*
X199633970Y-88964365D01*
X199952739Y-88804582D01*
X200262723Y-88013813D01*
X200246497Y-87164613D01*
X199952739Y-86455418D01*
X199633970Y-86295635D01*
X198299605Y-87630000D01*
X197940395Y-87630000D01*
X196606030Y-86295635D01*
X196287261Y-86455418D01*
X195977277Y-87246187D01*
X154045000Y-87246187D01*
X154045000Y-86116030D01*
X196785635Y-86116030D01*
X198120000Y-87450395D01*
X199454365Y-86116030D01*
X199294582Y-85797261D01*
X198503813Y-85487277D01*
X197654613Y-85503503D01*
X196945418Y-85797261D01*
X196785635Y-86116030D01*
X154045000Y-86116030D01*
X154045000Y-79750000D01*
X156426645Y-79750000D01*
X159870484Y-83193840D01*
X159926831Y-83278169D01*
X160011160Y-83334516D01*
X160011162Y-83334518D01*
X160186105Y-83451411D01*
X160260918Y-83501399D01*
X160555524Y-83560000D01*
X160555529Y-83560000D01*
X160655000Y-83579786D01*
X160754471Y-83560000D01*
X163730529Y-83560000D01*
X163830000Y-83579786D01*
X163929471Y-83560000D01*
X163929476Y-83560000D01*
X164224082Y-83501399D01*
X164558169Y-83278169D01*
X164614518Y-83193837D01*
X165108838Y-82699517D01*
X165193169Y-82643169D01*
X165255423Y-82550000D01*
X165416399Y-82309083D01*
X165446865Y-82155918D01*
X165475000Y-82014476D01*
X165475000Y-82014472D01*
X165494786Y-81915000D01*
X165475000Y-81815528D01*
X165475000Y-79641229D01*
X165500000Y-79580874D01*
X165500000Y-79169126D01*
X165342431Y-78788720D01*
X165051280Y-78497569D01*
X164990924Y-78472569D01*
X163782481Y-77264126D01*
X179940000Y-77264126D01*
X179940000Y-77675874D01*
X180097569Y-78056280D01*
X180388720Y-78347431D01*
X180769126Y-78505000D01*
X181180874Y-78505000D01*
X181543007Y-78355000D01*
X186121993Y-78355000D01*
X186484126Y-78505000D01*
X186895874Y-78505000D01*
X187276280Y-78347431D01*
X187567431Y-78056280D01*
X187725000Y-77675874D01*
X187725000Y-77264126D01*
X187567431Y-76883720D01*
X187276280Y-76592569D01*
X186895874Y-76435000D01*
X186484126Y-76435000D01*
X186121993Y-76585000D01*
X181543007Y-76585000D01*
X181180874Y-76435000D01*
X180769126Y-76435000D01*
X180388720Y-76592569D01*
X180097569Y-76883720D01*
X179940000Y-77264126D01*
X163782481Y-77264126D01*
X158899518Y-72381163D01*
X158843169Y-72296831D01*
X158509082Y-72073601D01*
X158214476Y-72015000D01*
X158214471Y-72015000D01*
X158115000Y-71995214D01*
X158015529Y-72015000D01*
X133449470Y-72015000D01*
X133349999Y-71995214D01*
X133266566Y-72011810D01*
X133301280Y-71997431D01*
X133592431Y-71706280D01*
X133750000Y-71325874D01*
X133750000Y-71005000D01*
X176302560Y-71005000D01*
X176302560Y-72505000D01*
X176370874Y-72848435D01*
X176565414Y-73139586D01*
X176856565Y-73334126D01*
X177200000Y-73402440D01*
X178400000Y-73402440D01*
X178743435Y-73334126D01*
X179034586Y-73139586D01*
X179211648Y-72874593D01*
X179407955Y-73093664D01*
X179930740Y-73344553D01*
X179943110Y-73346476D01*
X180173000Y-73225155D01*
X180173000Y-71882000D01*
X180427000Y-71882000D01*
X180427000Y-73225155D01*
X180656890Y-73346476D01*
X180669260Y-73344553D01*
X181192045Y-73093664D01*
X181579024Y-72661812D01*
X181771284Y-72114742D01*
X181627231Y-71882000D01*
X180427000Y-71882000D01*
X180173000Y-71882000D01*
X180153000Y-71882000D01*
X180153000Y-71628000D01*
X180173000Y-71628000D01*
X180173000Y-70284845D01*
X180427000Y-70284845D01*
X180427000Y-71628000D01*
X181627231Y-71628000D01*
X181771284Y-71395258D01*
X181579024Y-70848188D01*
X181192045Y-70416336D01*
X180669260Y-70165447D01*
X180656890Y-70163524D01*
X180427000Y-70284845D01*
X180173000Y-70284845D01*
X179943110Y-70163524D01*
X179930740Y-70165447D01*
X179407955Y-70416336D01*
X179211648Y-70635407D01*
X179034586Y-70370414D01*
X178743435Y-70175874D01*
X178400000Y-70107560D01*
X177200000Y-70107560D01*
X176856565Y-70175874D01*
X176565414Y-70370414D01*
X176370874Y-70661565D01*
X176302560Y-71005000D01*
X133750000Y-71005000D01*
X133750000Y-70914126D01*
X133592431Y-70533720D01*
X133301280Y-70242569D01*
X132920874Y-70085000D01*
X132509126Y-70085000D01*
X132128720Y-70242569D01*
X131837569Y-70533720D01*
X131812569Y-70594076D01*
X117584076Y-84822569D01*
X117523720Y-84847569D01*
X117232569Y-85138720D01*
X117075000Y-85519126D01*
X107976269Y-85519126D01*
X108014365Y-85481030D01*
X107854582Y-85162261D01*
X107063813Y-84852277D01*
X106214613Y-84868503D01*
X105505418Y-85162261D01*
X105345635Y-85481030D01*
X102310000Y-85481030D01*
X102310000Y-70050910D01*
X102848695Y-70050910D01*
X103215640Y-70546343D01*
X104621171Y-71139736D01*
X106146793Y-71150087D01*
X107560246Y-70575819D01*
X107604360Y-70546343D01*
X107971305Y-70050910D01*
X196828695Y-70050910D01*
X197195640Y-70546343D01*
X198601171Y-71139736D01*
X200126793Y-71150087D01*
X201540246Y-70575819D01*
X201584360Y-70546343D01*
X201951305Y-70050910D01*
X199390000Y-67489605D01*
X196828695Y-70050910D01*
X107971305Y-70050910D01*
X105410000Y-67489605D01*
X102848695Y-70050910D01*
X102310000Y-70050910D01*
X102310000Y-69605343D01*
X102669090Y-69871305D01*
X105230395Y-67310000D01*
X105589605Y-67310000D01*
X108150910Y-69871305D01*
X108646343Y-69504360D01*
X109239736Y-68098829D01*
X109240089Y-68046793D01*
X195549913Y-68046793D01*
X196124181Y-69460246D01*
X196153657Y-69504360D01*
X196649090Y-69871305D01*
X199210395Y-67310000D01*
X196649090Y-64748695D01*
X196153657Y-65115640D01*
X195560264Y-66521171D01*
X195549913Y-68046793D01*
X109240089Y-68046793D01*
X109250087Y-66573207D01*
X108675819Y-65159754D01*
X108646343Y-65115640D01*
X108150910Y-64748695D01*
X105589605Y-67310000D01*
X105230395Y-67310000D01*
X102669090Y-64748695D01*
X102310000Y-65014657D01*
X102310000Y-64210000D01*
X103114657Y-64210000D01*
X102848695Y-64569090D01*
G04 #@! TD*
M02*
